%TF.GenerationSoftware,KiCad,Pcbnew,10.0.2*%
%TF.CreationDate,2026-06-14T19:19:16+02:00*%
%TF.ProjectId,maia,6d616961-2e6b-4696-9361-645f70636258,rev?*%
%TF.SameCoordinates,Original*%
%TF.FileFunction,Paste,Bot*%
%TF.FilePolarity,Positive*%
%FSLAX46Y46*%
G04 Gerber Fmt 4.6, Leading zero omitted, Abs format (unit mm)*
G04 Created by KiCad (PCBNEW 10.0.2) date 2026-06-14 19:19:16*
%MOMM*%
%LPD*%
G01*
G04 APERTURE LIST*
G04 Aperture macros list*
%AMRoundRect*
0 Rectangle with rounded corners*
0 $1 Rounding radius*
0 $2 $3 $4 $5 $6 $7 $8 $9 X,Y pos of 4 corners*
0 Add a 4 corners polygon primitive as box body*
4,1,4,$2,$3,$4,$5,$6,$7,$8,$9,$2,$3,0*
0 Add four circle primitives for the rounded corners*
1,1,$1+$1,$2,$3*
1,1,$1+$1,$4,$5*
1,1,$1+$1,$6,$7*
1,1,$1+$1,$8,$9*
0 Add four rect primitives between the rounded corners*
20,1,$1+$1,$2,$3,$4,$5,0*
20,1,$1+$1,$4,$5,$6,$7,0*
20,1,$1+$1,$6,$7,$8,$9,0*
20,1,$1+$1,$8,$9,$2,$3,0*%
G04 Aperture macros list end*
%ADD10RoundRect,0.200000X-0.275000X0.200000X-0.275000X-0.200000X0.275000X-0.200000X0.275000X0.200000X0*%
%ADD11RoundRect,0.140000X-0.140000X-0.170000X0.140000X-0.170000X0.140000X0.170000X-0.140000X0.170000X0*%
%ADD12RoundRect,0.140000X0.140000X0.170000X-0.140000X0.170000X-0.140000X-0.170000X0.140000X-0.170000X0*%
%ADD13RoundRect,0.200000X0.275000X-0.200000X0.275000X0.200000X-0.275000X0.200000X-0.275000X-0.200000X0*%
%ADD14RoundRect,0.218750X0.218750X0.256250X-0.218750X0.256250X-0.218750X-0.256250X0.218750X-0.256250X0*%
%ADD15R,1.500000X0.900000*%
%ADD16R,0.900000X1.500000*%
%ADD17R,0.900000X0.900000*%
%ADD18R,1.000000X2.500000*%
%ADD19R,2.200000X2.500000*%
%ADD20R,1.700000X1.900000*%
%ADD21RoundRect,0.200000X0.200000X0.275000X-0.200000X0.275000X-0.200000X-0.275000X0.200000X-0.275000X0*%
%ADD22RoundRect,0.200000X-0.200000X-0.275000X0.200000X-0.275000X0.200000X0.275000X-0.200000X0.275000X0*%
%ADD23RoundRect,0.140000X-0.170000X0.140000X-0.170000X-0.140000X0.170000X-0.140000X0.170000X0.140000X0*%
%ADD24RoundRect,0.050000X0.285000X0.100000X-0.285000X0.100000X-0.285000X-0.100000X0.285000X-0.100000X0*%
%ADD25R,1.300000X1.700000*%
%ADD26R,0.900000X0.500000*%
%ADD27RoundRect,0.150000X0.150000X-0.587500X0.150000X0.587500X-0.150000X0.587500X-0.150000X-0.587500X0*%
%ADD28RoundRect,0.150000X-0.150000X0.587500X-0.150000X-0.587500X0.150000X-0.587500X0.150000X0.587500X0*%
%ADD29R,0.800000X0.800000*%
%ADD30RoundRect,0.218750X-0.256250X0.218750X-0.256250X-0.218750X0.256250X-0.218750X0.256250X0.218750X0*%
%ADD31R,0.500000X0.500000*%
%ADD32R,1.200000X2.316000*%
%ADD33R,2.400000X0.750000*%
G04 APERTURE END LIST*
D10*
%TO.C,R6*%
X197353460Y-69127540D03*
X197353460Y-70777540D03*
%TD*%
D11*
%TO.C,C4*%
X195349460Y-60173540D03*
X196309460Y-60173540D03*
%TD*%
D12*
%TO.C,C28*%
X151400460Y-80469540D03*
X150440460Y-80469540D03*
%TD*%
D13*
%TO.C,R22*%
X136330460Y-85169540D03*
X136330460Y-83519540D03*
%TD*%
D11*
%TO.C,C7*%
X192936460Y-67793540D03*
X193896460Y-67793540D03*
%TD*%
D10*
%TO.C,R26*%
X159650460Y-84394540D03*
X159650460Y-86044540D03*
%TD*%
D14*
%TO.C,D3*%
X197353460Y-65126540D03*
X195778460Y-65126540D03*
%TD*%
D15*
%TO.C,U13*%
X164341460Y-87351540D03*
X164341460Y-86081540D03*
X164341460Y-84811540D03*
X164341460Y-83541540D03*
X164341460Y-82271540D03*
X164341460Y-81001540D03*
X164341460Y-79731540D03*
X164341460Y-78461540D03*
X164341460Y-77191540D03*
X164341460Y-75921540D03*
X164341460Y-74651540D03*
X164341460Y-73381540D03*
X164341460Y-72111540D03*
X164341460Y-70841540D03*
D16*
X166101460Y-69571540D03*
X167371460Y-69571540D03*
X168641460Y-69571540D03*
X169921460Y-69571540D03*
X171191460Y-69571540D03*
X172461460Y-69571540D03*
X173731460Y-69571540D03*
X175001460Y-69571540D03*
X176271460Y-69571540D03*
X177541460Y-69571540D03*
X178811460Y-69571540D03*
X180081460Y-69601540D03*
D15*
X181841460Y-70841540D03*
X181841460Y-72111540D03*
X181841460Y-73381540D03*
X181841460Y-74651540D03*
X181841460Y-75921540D03*
X181841460Y-77191540D03*
X181841460Y-78461540D03*
X181841460Y-79731540D03*
X181841460Y-81001540D03*
X181841460Y-82271540D03*
X181841460Y-83541540D03*
X181841460Y-84811540D03*
X181841460Y-86081540D03*
X181841460Y-87351540D03*
D17*
X170191460Y-78231540D03*
X170191460Y-79631540D03*
X170191460Y-81031540D03*
X171591460Y-78231540D03*
X171591460Y-79631540D03*
X171591460Y-81031540D03*
X172991460Y-78231540D03*
X172991460Y-79631540D03*
X172991460Y-81031540D03*
%TD*%
D10*
%TO.C,R27*%
X157950460Y-84369540D03*
X157950460Y-86019540D03*
%TD*%
D18*
%TO.C,LED1*%
X160237960Y-81119540D03*
D19*
X158237960Y-81119540D03*
%TD*%
D11*
%TO.C,C5*%
X193190460Y-60173540D03*
X194150460Y-60173540D03*
%TD*%
D20*
%TO.C,SW5*%
X154046460Y-87641540D03*
X154046460Y-79441540D03*
%TD*%
D21*
%TO.C,R23*%
X134427460Y-85114040D03*
X132777460Y-85114040D03*
%TD*%
D22*
%TO.C,R3*%
X208313960Y-60808540D03*
X209963960Y-60808540D03*
%TD*%
D21*
%TO.C,R5*%
X194114460Y-65126540D03*
X192464460Y-65126540D03*
%TD*%
D23*
%TO.C,C11*%
X211559460Y-78539540D03*
X211559460Y-79499540D03*
%TD*%
D14*
%TO.C,D2*%
X209926460Y-62713540D03*
X208351460Y-62713540D03*
%TD*%
D21*
%TO.C,R7*%
X194241460Y-72746540D03*
X192591460Y-72746540D03*
%TD*%
D13*
%TO.C,R20*%
X212067460Y-84239540D03*
X212067460Y-82589540D03*
%TD*%
D11*
%TO.C,C26*%
X182042460Y-65499540D03*
X183002460Y-65499540D03*
%TD*%
D24*
%TO.C,U1*%
X204189460Y-60820540D03*
X204189460Y-61320540D03*
X204189460Y-61820540D03*
X204189460Y-62320540D03*
X202709460Y-62320540D03*
X202709460Y-61820540D03*
X202709460Y-61320540D03*
X202709460Y-60820540D03*
%TD*%
D25*
%TO.C,SW1*%
X184654460Y-62967540D03*
X180334460Y-62967540D03*
%TD*%
D26*
%TO.C,U4*%
X195732460Y-61509540D03*
X195732460Y-62459540D03*
X195732460Y-63409540D03*
X193132460Y-63409540D03*
X193132460Y-61509540D03*
%TD*%
D22*
%TO.C,R37*%
X181733460Y-67069540D03*
X183383460Y-67069540D03*
%TD*%
D26*
%TO.C,U5*%
X195732460Y-69129540D03*
X195732460Y-70079540D03*
X195732460Y-71029540D03*
X193132460Y-71029540D03*
X193132460Y-69129540D03*
%TD*%
D14*
%TO.C,D4*%
X197404460Y-72746540D03*
X195829460Y-72746540D03*
%TD*%
D27*
%TO.C,Q2*%
X134550460Y-82955040D03*
X132650460Y-82955040D03*
X133600460Y-81080040D03*
%TD*%
D28*
%TO.C,Q3*%
X157150460Y-75282040D03*
X159050460Y-75282040D03*
X158100460Y-77157040D03*
%TD*%
D29*
%TO.C,D8*%
X131949460Y-79915540D03*
X131949460Y-77515540D03*
%TD*%
D10*
%TO.C,R42*%
X160750460Y-73119540D03*
X160750460Y-74769540D03*
%TD*%
D23*
%TO.C,C13*%
X161285460Y-86081540D03*
X161285460Y-87041540D03*
%TD*%
D30*
%TO.C,D9*%
X138822460Y-60332540D03*
X138822460Y-61907540D03*
%TD*%
D25*
%TO.C,SW2*%
X161530460Y-63094540D03*
X165850460Y-63094540D03*
%TD*%
D21*
%TO.C,R38*%
X164640460Y-67029540D03*
X162990460Y-67029540D03*
%TD*%
D31*
%TO.C,U14*%
X148390460Y-47899540D03*
X148390460Y-47149540D03*
X148390460Y-46399540D03*
X148390460Y-45649540D03*
X148390460Y-44899540D03*
X148390460Y-44149540D03*
X148390460Y-43399540D03*
X147340460Y-48299540D03*
D32*
X147340460Y-45649540D03*
D31*
X147340460Y-42999540D03*
X146290460Y-47899540D03*
X146290460Y-47149540D03*
X146290460Y-46399540D03*
X146290460Y-45649540D03*
X146290460Y-44899540D03*
X146290460Y-44149540D03*
X146290460Y-43399540D03*
%TD*%
D21*
%TO.C,R39*%
X151200460Y-79069540D03*
X149550460Y-79069540D03*
%TD*%
D20*
%TO.C,SW4*%
X190000460Y-87886540D03*
X190000460Y-79686540D03*
%TD*%
D33*
%TO.C,CN2*%
X141949460Y-67079540D03*
X137949460Y-67079540D03*
X141949460Y-68349540D03*
X137949460Y-68349540D03*
X141949460Y-69619540D03*
X137949460Y-69619540D03*
X141949460Y-70889540D03*
X137949460Y-70889540D03*
X141949460Y-72159540D03*
X137949460Y-72159540D03*
%TD*%
D29*
%TO.C,D7*%
X213150460Y-80296540D03*
X213150460Y-77896540D03*
%TD*%
D33*
%TO.C,CN4*%
X205703460Y-67031540D03*
X201703460Y-67031540D03*
X205703460Y-68301540D03*
X201703460Y-68301540D03*
X205703460Y-69571540D03*
X201703460Y-69571540D03*
X205703460Y-70841540D03*
X201703460Y-70841540D03*
X205703460Y-72111540D03*
X201703460Y-72111540D03*
%TD*%
D10*
%TO.C,R4*%
X197353460Y-61570540D03*
X197353460Y-63220540D03*
%TD*%
D13*
%TO.C,R24*%
X155450460Y-74769540D03*
X155450460Y-73119540D03*
%TD*%
D22*
%TO.C,R25*%
X157242460Y-73179040D03*
X158892460Y-73179040D03*
%TD*%
D31*
%TO.C,U15*%
X195920460Y-43509540D03*
X195920460Y-44259540D03*
X195920460Y-45009540D03*
X195920460Y-45759540D03*
X195920460Y-46509540D03*
X195920460Y-47259540D03*
X195920460Y-48009540D03*
X196970460Y-43109540D03*
D32*
X196970460Y-45759540D03*
D31*
X196970460Y-48409540D03*
X198020460Y-43509540D03*
X198020460Y-44259540D03*
X198020460Y-45009540D03*
X198020460Y-45759540D03*
X198020460Y-46509540D03*
X198020460Y-47259540D03*
X198020460Y-48009540D03*
%TD*%
D11*
%TO.C,C29*%
X192804460Y-80819540D03*
X193764460Y-80819540D03*
%TD*%
D12*
%TO.C,C6*%
X195900460Y-67793540D03*
X194940460Y-67793540D03*
%TD*%
D21*
%TO.C,R21*%
X210352460Y-84049540D03*
X208702460Y-84049540D03*
%TD*%
D27*
%TO.C,Q1*%
X210350460Y-81939040D03*
X208450460Y-81939040D03*
X209400460Y-80064040D03*
%TD*%
D23*
%TO.C,C12*%
X162428460Y-86081540D03*
X162428460Y-87041540D03*
%TD*%
D12*
%TO.C,C27*%
X164297460Y-65619540D03*
X163337460Y-65619540D03*
%TD*%
D23*
%TO.C,C16*%
X133726460Y-77969540D03*
X133726460Y-78929540D03*
%TD*%
D13*
%TO.C,R41*%
X140600460Y-61919540D03*
X140600460Y-60269540D03*
%TD*%
D22*
%TO.C,R40*%
X193034460Y-79269540D03*
X194684460Y-79269540D03*
%TD*%
M02*
