%TF.GenerationSoftware,KiCad,Pcbnew,10.0.2*%
%TF.CreationDate,2026-06-14T19:19:16+02:00*%
%TF.ProjectId,maia,6d616961-2e6b-4696-9361-645f70636258,rev?*%
%TF.SameCoordinates,Original*%
%TF.FileFunction,Legend,Top*%
%TF.FilePolarity,Positive*%
%FSLAX46Y46*%
G04 Gerber Fmt 4.6, Leading zero omitted, Abs format (unit mm)*
G04 Created by KiCad (PCBNEW 10.0.2) date 2026-06-14 19:19:16*
%MOMM*%
%LPD*%
G01*
G04 APERTURE LIST*
%ADD10C,0.160000*%
%ADD11C,0.150000*%
%ADD12C,0.200000*%
%ADD13C,0.120000*%
%ADD14C,0.250000*%
%ADD15C,0.060000*%
%ADD16C,0.100000*%
%ADD17C,0.000000*%
G04 APERTURE END LIST*
D10*
X130427602Y-64763839D02*
X130094269Y-64287648D01*
X129856174Y-64763839D02*
X129856174Y-63763839D01*
X129856174Y-63763839D02*
X130237126Y-63763839D01*
X130237126Y-63763839D02*
X130332364Y-63811458D01*
X130332364Y-63811458D02*
X130379983Y-63859077D01*
X130379983Y-63859077D02*
X130427602Y-63954315D01*
X130427602Y-63954315D02*
X130427602Y-64097172D01*
X130427602Y-64097172D02*
X130379983Y-64192410D01*
X130379983Y-64192410D02*
X130332364Y-64240029D01*
X130332364Y-64240029D02*
X130237126Y-64287648D01*
X130237126Y-64287648D02*
X129856174Y-64287648D01*
X130760936Y-63763839D02*
X131379983Y-63763839D01*
X131379983Y-63763839D02*
X131046650Y-64144791D01*
X131046650Y-64144791D02*
X131189507Y-64144791D01*
X131189507Y-64144791D02*
X131284745Y-64192410D01*
X131284745Y-64192410D02*
X131332364Y-64240029D01*
X131332364Y-64240029D02*
X131379983Y-64335267D01*
X131379983Y-64335267D02*
X131379983Y-64573362D01*
X131379983Y-64573362D02*
X131332364Y-64668600D01*
X131332364Y-64668600D02*
X131284745Y-64716220D01*
X131284745Y-64716220D02*
X131189507Y-64763839D01*
X131189507Y-64763839D02*
X130903793Y-64763839D01*
X130903793Y-64763839D02*
X130808555Y-64716220D01*
X130808555Y-64716220D02*
X130760936Y-64668600D01*
X131999031Y-63763839D02*
X132094269Y-63763839D01*
X132094269Y-63763839D02*
X132189507Y-63811458D01*
X132189507Y-63811458D02*
X132237126Y-63859077D01*
X132237126Y-63859077D02*
X132284745Y-63954315D01*
X132284745Y-63954315D02*
X132332364Y-64144791D01*
X132332364Y-64144791D02*
X132332364Y-64382886D01*
X132332364Y-64382886D02*
X132284745Y-64573362D01*
X132284745Y-64573362D02*
X132237126Y-64668600D01*
X132237126Y-64668600D02*
X132189507Y-64716220D01*
X132189507Y-64716220D02*
X132094269Y-64763839D01*
X132094269Y-64763839D02*
X131999031Y-64763839D01*
X131999031Y-64763839D02*
X131903793Y-64716220D01*
X131903793Y-64716220D02*
X131856174Y-64668600D01*
X131856174Y-64668600D02*
X131808555Y-64573362D01*
X131808555Y-64573362D02*
X131760936Y-64382886D01*
X131760936Y-64382886D02*
X131760936Y-64144791D01*
X131760936Y-64144791D02*
X131808555Y-63954315D01*
X131808555Y-63954315D02*
X131856174Y-63859077D01*
X131856174Y-63859077D02*
X131903793Y-63811458D01*
X131903793Y-63811458D02*
X131999031Y-63763839D01*
X192942365Y-89283839D02*
X192942365Y-88283839D01*
X192942365Y-88283839D02*
X193180460Y-88283839D01*
X193180460Y-88283839D02*
X193323317Y-88331458D01*
X193323317Y-88331458D02*
X193418555Y-88426696D01*
X193418555Y-88426696D02*
X193466174Y-88521934D01*
X193466174Y-88521934D02*
X193513793Y-88712410D01*
X193513793Y-88712410D02*
X193513793Y-88855267D01*
X193513793Y-88855267D02*
X193466174Y-89045743D01*
X193466174Y-89045743D02*
X193418555Y-89140981D01*
X193418555Y-89140981D02*
X193323317Y-89236220D01*
X193323317Y-89236220D02*
X193180460Y-89283839D01*
X193180460Y-89283839D02*
X192942365Y-89283839D01*
X194370936Y-88283839D02*
X194180460Y-88283839D01*
X194180460Y-88283839D02*
X194085222Y-88331458D01*
X194085222Y-88331458D02*
X194037603Y-88379077D01*
X194037603Y-88379077D02*
X193942365Y-88521934D01*
X193942365Y-88521934D02*
X193894746Y-88712410D01*
X193894746Y-88712410D02*
X193894746Y-89093362D01*
X193894746Y-89093362D02*
X193942365Y-89188600D01*
X193942365Y-89188600D02*
X193989984Y-89236220D01*
X193989984Y-89236220D02*
X194085222Y-89283839D01*
X194085222Y-89283839D02*
X194275698Y-89283839D01*
X194275698Y-89283839D02*
X194370936Y-89236220D01*
X194370936Y-89236220D02*
X194418555Y-89188600D01*
X194418555Y-89188600D02*
X194466174Y-89093362D01*
X194466174Y-89093362D02*
X194466174Y-88855267D01*
X194466174Y-88855267D02*
X194418555Y-88760029D01*
X194418555Y-88760029D02*
X194370936Y-88712410D01*
X194370936Y-88712410D02*
X194275698Y-88664791D01*
X194275698Y-88664791D02*
X194085222Y-88664791D01*
X194085222Y-88664791D02*
X193989984Y-88712410D01*
X193989984Y-88712410D02*
X193942365Y-88760029D01*
X193942365Y-88760029D02*
X193894746Y-88855267D01*
X153127602Y-46818600D02*
X153079983Y-46866220D01*
X153079983Y-46866220D02*
X152937126Y-46913839D01*
X152937126Y-46913839D02*
X152841888Y-46913839D01*
X152841888Y-46913839D02*
X152699031Y-46866220D01*
X152699031Y-46866220D02*
X152603793Y-46770981D01*
X152603793Y-46770981D02*
X152556174Y-46675743D01*
X152556174Y-46675743D02*
X152508555Y-46485267D01*
X152508555Y-46485267D02*
X152508555Y-46342410D01*
X152508555Y-46342410D02*
X152556174Y-46151934D01*
X152556174Y-46151934D02*
X152603793Y-46056696D01*
X152603793Y-46056696D02*
X152699031Y-45961458D01*
X152699031Y-45961458D02*
X152841888Y-45913839D01*
X152841888Y-45913839D02*
X152937126Y-45913839D01*
X152937126Y-45913839D02*
X153079983Y-45961458D01*
X153079983Y-45961458D02*
X153127602Y-46009077D01*
X153508555Y-46009077D02*
X153556174Y-45961458D01*
X153556174Y-45961458D02*
X153651412Y-45913839D01*
X153651412Y-45913839D02*
X153889507Y-45913839D01*
X153889507Y-45913839D02*
X153984745Y-45961458D01*
X153984745Y-45961458D02*
X154032364Y-46009077D01*
X154032364Y-46009077D02*
X154079983Y-46104315D01*
X154079983Y-46104315D02*
X154079983Y-46199553D01*
X154079983Y-46199553D02*
X154032364Y-46342410D01*
X154032364Y-46342410D02*
X153460936Y-46913839D01*
X153460936Y-46913839D02*
X154079983Y-46913839D01*
X154984745Y-45913839D02*
X154508555Y-45913839D01*
X154508555Y-45913839D02*
X154460936Y-46390029D01*
X154460936Y-46390029D02*
X154508555Y-46342410D01*
X154508555Y-46342410D02*
X154603793Y-46294791D01*
X154603793Y-46294791D02*
X154841888Y-46294791D01*
X154841888Y-46294791D02*
X154937126Y-46342410D01*
X154937126Y-46342410D02*
X154984745Y-46390029D01*
X154984745Y-46390029D02*
X155032364Y-46485267D01*
X155032364Y-46485267D02*
X155032364Y-46723362D01*
X155032364Y-46723362D02*
X154984745Y-46818600D01*
X154984745Y-46818600D02*
X154937126Y-46866220D01*
X154937126Y-46866220D02*
X154841888Y-46913839D01*
X154841888Y-46913839D02*
X154603793Y-46913839D01*
X154603793Y-46913839D02*
X154508555Y-46866220D01*
X154508555Y-46866220D02*
X154460936Y-46818600D01*
X192157602Y-40398600D02*
X192109983Y-40446220D01*
X192109983Y-40446220D02*
X191967126Y-40493839D01*
X191967126Y-40493839D02*
X191871888Y-40493839D01*
X191871888Y-40493839D02*
X191729031Y-40446220D01*
X191729031Y-40446220D02*
X191633793Y-40350981D01*
X191633793Y-40350981D02*
X191586174Y-40255743D01*
X191586174Y-40255743D02*
X191538555Y-40065267D01*
X191538555Y-40065267D02*
X191538555Y-39922410D01*
X191538555Y-39922410D02*
X191586174Y-39731934D01*
X191586174Y-39731934D02*
X191633793Y-39636696D01*
X191633793Y-39636696D02*
X191729031Y-39541458D01*
X191729031Y-39541458D02*
X191871888Y-39493839D01*
X191871888Y-39493839D02*
X191967126Y-39493839D01*
X191967126Y-39493839D02*
X192109983Y-39541458D01*
X192109983Y-39541458D02*
X192157602Y-39589077D01*
X192490936Y-39493839D02*
X193109983Y-39493839D01*
X193109983Y-39493839D02*
X192776650Y-39874791D01*
X192776650Y-39874791D02*
X192919507Y-39874791D01*
X192919507Y-39874791D02*
X193014745Y-39922410D01*
X193014745Y-39922410D02*
X193062364Y-39970029D01*
X193062364Y-39970029D02*
X193109983Y-40065267D01*
X193109983Y-40065267D02*
X193109983Y-40303362D01*
X193109983Y-40303362D02*
X193062364Y-40398600D01*
X193062364Y-40398600D02*
X193014745Y-40446220D01*
X193014745Y-40446220D02*
X192919507Y-40493839D01*
X192919507Y-40493839D02*
X192633793Y-40493839D01*
X192633793Y-40493839D02*
X192538555Y-40446220D01*
X192538555Y-40446220D02*
X192490936Y-40398600D01*
X194062364Y-40493839D02*
X193490936Y-40493839D01*
X193776650Y-40493839D02*
X193776650Y-39493839D01*
X193776650Y-39493839D02*
X193681412Y-39636696D01*
X193681412Y-39636696D02*
X193586174Y-39731934D01*
X193586174Y-39731934D02*
X193490936Y-39779553D01*
D11*
X140309040Y-46504816D02*
X140356660Y-46552435D01*
X140356660Y-46552435D02*
X140404279Y-46695292D01*
X140404279Y-46695292D02*
X140404279Y-46790530D01*
X140404279Y-46790530D02*
X140356660Y-46933387D01*
X140356660Y-46933387D02*
X140261421Y-47028625D01*
X140261421Y-47028625D02*
X140166183Y-47076244D01*
X140166183Y-47076244D02*
X139975707Y-47123863D01*
X139975707Y-47123863D02*
X139832850Y-47123863D01*
X139832850Y-47123863D02*
X139642374Y-47076244D01*
X139642374Y-47076244D02*
X139547136Y-47028625D01*
X139547136Y-47028625D02*
X139451898Y-46933387D01*
X139451898Y-46933387D02*
X139404279Y-46790530D01*
X139404279Y-46790530D02*
X139404279Y-46695292D01*
X139404279Y-46695292D02*
X139451898Y-46552435D01*
X139451898Y-46552435D02*
X139499517Y-46504816D01*
X140404279Y-46076244D02*
X139404279Y-46076244D01*
X139404279Y-46076244D02*
X140404279Y-45504816D01*
X140404279Y-45504816D02*
X139404279Y-45504816D01*
X140404279Y-44504816D02*
X140404279Y-45076244D01*
X140404279Y-44790530D02*
X139404279Y-44790530D01*
X139404279Y-44790530D02*
X139547136Y-44885768D01*
X139547136Y-44885768D02*
X139642374Y-44981006D01*
X139642374Y-44981006D02*
X139689993Y-45076244D01*
D10*
X140308520Y-46504816D02*
X140356140Y-46552435D01*
X140356140Y-46552435D02*
X140403759Y-46695292D01*
X140403759Y-46695292D02*
X140403759Y-46790530D01*
X140403759Y-46790530D02*
X140356140Y-46933387D01*
X140356140Y-46933387D02*
X140260901Y-47028625D01*
X140260901Y-47028625D02*
X140165663Y-47076244D01*
X140165663Y-47076244D02*
X139975187Y-47123863D01*
X139975187Y-47123863D02*
X139832330Y-47123863D01*
X139832330Y-47123863D02*
X139641854Y-47076244D01*
X139641854Y-47076244D02*
X139546616Y-47028625D01*
X139546616Y-47028625D02*
X139451378Y-46933387D01*
X139451378Y-46933387D02*
X139403759Y-46790530D01*
X139403759Y-46790530D02*
X139403759Y-46695292D01*
X139403759Y-46695292D02*
X139451378Y-46552435D01*
X139451378Y-46552435D02*
X139498997Y-46504816D01*
X140403759Y-46076244D02*
X139403759Y-46076244D01*
X139403759Y-46076244D02*
X140403759Y-45504816D01*
X140403759Y-45504816D02*
X139403759Y-45504816D01*
X140403759Y-44504816D02*
X140403759Y-45076244D01*
X140403759Y-44790530D02*
X139403759Y-44790530D01*
X139403759Y-44790530D02*
X139546616Y-44885768D01*
X139546616Y-44885768D02*
X139641854Y-44981006D01*
X139641854Y-44981006D02*
X139689473Y-45076244D01*
X183207602Y-83083839D02*
X182874269Y-82607648D01*
X182636174Y-83083839D02*
X182636174Y-82083839D01*
X182636174Y-82083839D02*
X183017126Y-82083839D01*
X183017126Y-82083839D02*
X183112364Y-82131458D01*
X183112364Y-82131458D02*
X183159983Y-82179077D01*
X183159983Y-82179077D02*
X183207602Y-82274315D01*
X183207602Y-82274315D02*
X183207602Y-82417172D01*
X183207602Y-82417172D02*
X183159983Y-82512410D01*
X183159983Y-82512410D02*
X183112364Y-82560029D01*
X183112364Y-82560029D02*
X183017126Y-82607648D01*
X183017126Y-82607648D02*
X182636174Y-82607648D01*
X184159983Y-83083839D02*
X183588555Y-83083839D01*
X183874269Y-83083839D02*
X183874269Y-82083839D01*
X183874269Y-82083839D02*
X183779031Y-82226696D01*
X183779031Y-82226696D02*
X183683793Y-82321934D01*
X183683793Y-82321934D02*
X183588555Y-82369553D01*
X185017126Y-82417172D02*
X185017126Y-83083839D01*
X184779031Y-82036220D02*
X184540936Y-82750505D01*
X184540936Y-82750505D02*
X185159983Y-82750505D01*
X202699520Y-84252397D02*
X202747140Y-84300016D01*
X202747140Y-84300016D02*
X202794759Y-84442873D01*
X202794759Y-84442873D02*
X202794759Y-84538111D01*
X202794759Y-84538111D02*
X202747140Y-84680968D01*
X202747140Y-84680968D02*
X202651901Y-84776206D01*
X202651901Y-84776206D02*
X202556663Y-84823825D01*
X202556663Y-84823825D02*
X202366187Y-84871444D01*
X202366187Y-84871444D02*
X202223330Y-84871444D01*
X202223330Y-84871444D02*
X202032854Y-84823825D01*
X202032854Y-84823825D02*
X201937616Y-84776206D01*
X201937616Y-84776206D02*
X201842378Y-84680968D01*
X201842378Y-84680968D02*
X201794759Y-84538111D01*
X201794759Y-84538111D02*
X201794759Y-84442873D01*
X201794759Y-84442873D02*
X201842378Y-84300016D01*
X201842378Y-84300016D02*
X201889997Y-84252397D01*
X202794759Y-83300016D02*
X202794759Y-83871444D01*
X202794759Y-83585730D02*
X201794759Y-83585730D01*
X201794759Y-83585730D02*
X201937616Y-83680968D01*
X201937616Y-83680968D02*
X202032854Y-83776206D01*
X202032854Y-83776206D02*
X202080473Y-83871444D01*
X201794759Y-82680968D02*
X201794759Y-82585730D01*
X201794759Y-82585730D02*
X201842378Y-82490492D01*
X201842378Y-82490492D02*
X201889997Y-82442873D01*
X201889997Y-82442873D02*
X201985235Y-82395254D01*
X201985235Y-82395254D02*
X202175711Y-82347635D01*
X202175711Y-82347635D02*
X202413806Y-82347635D01*
X202413806Y-82347635D02*
X202604282Y-82395254D01*
X202604282Y-82395254D02*
X202699520Y-82442873D01*
X202699520Y-82442873D02*
X202747140Y-82490492D01*
X202747140Y-82490492D02*
X202794759Y-82585730D01*
X202794759Y-82585730D02*
X202794759Y-82680968D01*
X202794759Y-82680968D02*
X202747140Y-82776206D01*
X202747140Y-82776206D02*
X202699520Y-82823825D01*
X202699520Y-82823825D02*
X202604282Y-82871444D01*
X202604282Y-82871444D02*
X202413806Y-82919063D01*
X202413806Y-82919063D02*
X202175711Y-82919063D01*
X202175711Y-82919063D02*
X201985235Y-82871444D01*
X201985235Y-82871444D02*
X201889997Y-82823825D01*
X201889997Y-82823825D02*
X201842378Y-82776206D01*
X201842378Y-82776206D02*
X201794759Y-82680968D01*
X163803793Y-39733839D02*
X163470460Y-39257648D01*
X163232365Y-39733839D02*
X163232365Y-38733839D01*
X163232365Y-38733839D02*
X163613317Y-38733839D01*
X163613317Y-38733839D02*
X163708555Y-38781458D01*
X163708555Y-38781458D02*
X163756174Y-38829077D01*
X163756174Y-38829077D02*
X163803793Y-38924315D01*
X163803793Y-38924315D02*
X163803793Y-39067172D01*
X163803793Y-39067172D02*
X163756174Y-39162410D01*
X163756174Y-39162410D02*
X163708555Y-39210029D01*
X163708555Y-39210029D02*
X163613317Y-39257648D01*
X163613317Y-39257648D02*
X163232365Y-39257648D01*
X164756174Y-39733839D02*
X164184746Y-39733839D01*
X164470460Y-39733839D02*
X164470460Y-38733839D01*
X164470460Y-38733839D02*
X164375222Y-38876696D01*
X164375222Y-38876696D02*
X164279984Y-38971934D01*
X164279984Y-38971934D02*
X164184746Y-39019553D01*
X171734759Y-81833511D02*
X171258568Y-82166844D01*
X171734759Y-82404939D02*
X170734759Y-82404939D01*
X170734759Y-82404939D02*
X170734759Y-82023987D01*
X170734759Y-82023987D02*
X170782378Y-81928749D01*
X170782378Y-81928749D02*
X170829997Y-81881130D01*
X170829997Y-81881130D02*
X170925235Y-81833511D01*
X170925235Y-81833511D02*
X171068092Y-81833511D01*
X171068092Y-81833511D02*
X171163330Y-81881130D01*
X171163330Y-81881130D02*
X171210949Y-81928749D01*
X171210949Y-81928749D02*
X171258568Y-82023987D01*
X171258568Y-82023987D02*
X171258568Y-82404939D01*
X171734759Y-80881130D02*
X171734759Y-81452558D01*
X171734759Y-81166844D02*
X170734759Y-81166844D01*
X170734759Y-81166844D02*
X170877616Y-81262082D01*
X170877616Y-81262082D02*
X170972854Y-81357320D01*
X170972854Y-81357320D02*
X171020473Y-81452558D01*
X170734759Y-80023987D02*
X170734759Y-80214463D01*
X170734759Y-80214463D02*
X170782378Y-80309701D01*
X170782378Y-80309701D02*
X170829997Y-80357320D01*
X170829997Y-80357320D02*
X170972854Y-80452558D01*
X170972854Y-80452558D02*
X171163330Y-80500177D01*
X171163330Y-80500177D02*
X171544282Y-80500177D01*
X171544282Y-80500177D02*
X171639520Y-80452558D01*
X171639520Y-80452558D02*
X171687140Y-80404939D01*
X171687140Y-80404939D02*
X171734759Y-80309701D01*
X171734759Y-80309701D02*
X171734759Y-80119225D01*
X171734759Y-80119225D02*
X171687140Y-80023987D01*
X171687140Y-80023987D02*
X171639520Y-79976368D01*
X171639520Y-79976368D02*
X171544282Y-79928749D01*
X171544282Y-79928749D02*
X171306187Y-79928749D01*
X171306187Y-79928749D02*
X171210949Y-79976368D01*
X171210949Y-79976368D02*
X171163330Y-80023987D01*
X171163330Y-80023987D02*
X171115711Y-80119225D01*
X171115711Y-80119225D02*
X171115711Y-80309701D01*
X171115711Y-80309701D02*
X171163330Y-80404939D01*
X171163330Y-80404939D02*
X171210949Y-80452558D01*
X171210949Y-80452558D02*
X171306187Y-80500177D01*
X197824759Y-83172397D02*
X197348568Y-83505730D01*
X197824759Y-83743825D02*
X196824759Y-83743825D01*
X196824759Y-83743825D02*
X196824759Y-83362873D01*
X196824759Y-83362873D02*
X196872378Y-83267635D01*
X196872378Y-83267635D02*
X196919997Y-83220016D01*
X196919997Y-83220016D02*
X197015235Y-83172397D01*
X197015235Y-83172397D02*
X197158092Y-83172397D01*
X197158092Y-83172397D02*
X197253330Y-83220016D01*
X197253330Y-83220016D02*
X197300949Y-83267635D01*
X197300949Y-83267635D02*
X197348568Y-83362873D01*
X197348568Y-83362873D02*
X197348568Y-83743825D01*
X197824759Y-82220016D02*
X197824759Y-82791444D01*
X197824759Y-82505730D02*
X196824759Y-82505730D01*
X196824759Y-82505730D02*
X196967616Y-82600968D01*
X196967616Y-82600968D02*
X197062854Y-82696206D01*
X197062854Y-82696206D02*
X197110473Y-82791444D01*
X197824759Y-81267635D02*
X197824759Y-81839063D01*
X197824759Y-81553349D02*
X196824759Y-81553349D01*
X196824759Y-81553349D02*
X196967616Y-81648587D01*
X196967616Y-81648587D02*
X197062854Y-81743825D01*
X197062854Y-81743825D02*
X197110473Y-81839063D01*
X198747602Y-49788600D02*
X198699983Y-49836220D01*
X198699983Y-49836220D02*
X198557126Y-49883839D01*
X198557126Y-49883839D02*
X198461888Y-49883839D01*
X198461888Y-49883839D02*
X198319031Y-49836220D01*
X198319031Y-49836220D02*
X198223793Y-49740981D01*
X198223793Y-49740981D02*
X198176174Y-49645743D01*
X198176174Y-49645743D02*
X198128555Y-49455267D01*
X198128555Y-49455267D02*
X198128555Y-49312410D01*
X198128555Y-49312410D02*
X198176174Y-49121934D01*
X198176174Y-49121934D02*
X198223793Y-49026696D01*
X198223793Y-49026696D02*
X198319031Y-48931458D01*
X198319031Y-48931458D02*
X198461888Y-48883839D01*
X198461888Y-48883839D02*
X198557126Y-48883839D01*
X198557126Y-48883839D02*
X198699983Y-48931458D01*
X198699983Y-48931458D02*
X198747602Y-48979077D01*
X199080936Y-48883839D02*
X199699983Y-48883839D01*
X199699983Y-48883839D02*
X199366650Y-49264791D01*
X199366650Y-49264791D02*
X199509507Y-49264791D01*
X199509507Y-49264791D02*
X199604745Y-49312410D01*
X199604745Y-49312410D02*
X199652364Y-49360029D01*
X199652364Y-49360029D02*
X199699983Y-49455267D01*
X199699983Y-49455267D02*
X199699983Y-49693362D01*
X199699983Y-49693362D02*
X199652364Y-49788600D01*
X199652364Y-49788600D02*
X199604745Y-49836220D01*
X199604745Y-49836220D02*
X199509507Y-49883839D01*
X199509507Y-49883839D02*
X199223793Y-49883839D01*
X199223793Y-49883839D02*
X199128555Y-49836220D01*
X199128555Y-49836220D02*
X199080936Y-49788600D01*
X200557126Y-49217172D02*
X200557126Y-49883839D01*
X200319031Y-48836220D02*
X200080936Y-49550505D01*
X200080936Y-49550505D02*
X200699983Y-49550505D01*
D11*
X170628555Y-48704359D02*
X170628555Y-49513882D01*
X170628555Y-49513882D02*
X170676174Y-49609120D01*
X170676174Y-49609120D02*
X170723793Y-49656740D01*
X170723793Y-49656740D02*
X170819031Y-49704359D01*
X170819031Y-49704359D02*
X171009507Y-49704359D01*
X171009507Y-49704359D02*
X171104745Y-49656740D01*
X171104745Y-49656740D02*
X171152364Y-49609120D01*
X171152364Y-49609120D02*
X171199983Y-49513882D01*
X171199983Y-49513882D02*
X171199983Y-48704359D01*
X171628555Y-48799597D02*
X171676174Y-48751978D01*
X171676174Y-48751978D02*
X171771412Y-48704359D01*
X171771412Y-48704359D02*
X172009507Y-48704359D01*
X172009507Y-48704359D02*
X172104745Y-48751978D01*
X172104745Y-48751978D02*
X172152364Y-48799597D01*
X172152364Y-48799597D02*
X172199983Y-48894835D01*
X172199983Y-48894835D02*
X172199983Y-48990073D01*
X172199983Y-48990073D02*
X172152364Y-49132930D01*
X172152364Y-49132930D02*
X171580936Y-49704359D01*
X171580936Y-49704359D02*
X172199983Y-49704359D01*
D10*
X170601055Y-48693839D02*
X170601055Y-49503362D01*
X170601055Y-49503362D02*
X170648674Y-49598600D01*
X170648674Y-49598600D02*
X170696293Y-49646220D01*
X170696293Y-49646220D02*
X170791531Y-49693839D01*
X170791531Y-49693839D02*
X170982007Y-49693839D01*
X170982007Y-49693839D02*
X171077245Y-49646220D01*
X171077245Y-49646220D02*
X171124864Y-49598600D01*
X171124864Y-49598600D02*
X171172483Y-49503362D01*
X171172483Y-49503362D02*
X171172483Y-48693839D01*
X171601055Y-48789077D02*
X171648674Y-48741458D01*
X171648674Y-48741458D02*
X171743912Y-48693839D01*
X171743912Y-48693839D02*
X171982007Y-48693839D01*
X171982007Y-48693839D02*
X172077245Y-48741458D01*
X172077245Y-48741458D02*
X172124864Y-48789077D01*
X172124864Y-48789077D02*
X172172483Y-48884315D01*
X172172483Y-48884315D02*
X172172483Y-48979553D01*
X172172483Y-48979553D02*
X172124864Y-49122410D01*
X172124864Y-49122410D02*
X171553436Y-49693839D01*
X171553436Y-49693839D02*
X172172483Y-49693839D01*
X195317602Y-44223839D02*
X194984269Y-43747648D01*
X194746174Y-44223839D02*
X194746174Y-43223839D01*
X194746174Y-43223839D02*
X195127126Y-43223839D01*
X195127126Y-43223839D02*
X195222364Y-43271458D01*
X195222364Y-43271458D02*
X195269983Y-43319077D01*
X195269983Y-43319077D02*
X195317602Y-43414315D01*
X195317602Y-43414315D02*
X195317602Y-43557172D01*
X195317602Y-43557172D02*
X195269983Y-43652410D01*
X195269983Y-43652410D02*
X195222364Y-43700029D01*
X195222364Y-43700029D02*
X195127126Y-43747648D01*
X195127126Y-43747648D02*
X194746174Y-43747648D01*
X195650936Y-43223839D02*
X196269983Y-43223839D01*
X196269983Y-43223839D02*
X195936650Y-43604791D01*
X195936650Y-43604791D02*
X196079507Y-43604791D01*
X196079507Y-43604791D02*
X196174745Y-43652410D01*
X196174745Y-43652410D02*
X196222364Y-43700029D01*
X196222364Y-43700029D02*
X196269983Y-43795267D01*
X196269983Y-43795267D02*
X196269983Y-44033362D01*
X196269983Y-44033362D02*
X196222364Y-44128600D01*
X196222364Y-44128600D02*
X196174745Y-44176220D01*
X196174745Y-44176220D02*
X196079507Y-44223839D01*
X196079507Y-44223839D02*
X195793793Y-44223839D01*
X195793793Y-44223839D02*
X195698555Y-44176220D01*
X195698555Y-44176220D02*
X195650936Y-44128600D01*
X196650936Y-43319077D02*
X196698555Y-43271458D01*
X196698555Y-43271458D02*
X196793793Y-43223839D01*
X196793793Y-43223839D02*
X197031888Y-43223839D01*
X197031888Y-43223839D02*
X197127126Y-43271458D01*
X197127126Y-43271458D02*
X197174745Y-43319077D01*
X197174745Y-43319077D02*
X197222364Y-43414315D01*
X197222364Y-43414315D02*
X197222364Y-43509553D01*
X197222364Y-43509553D02*
X197174745Y-43652410D01*
X197174745Y-43652410D02*
X196603317Y-44223839D01*
X196603317Y-44223839D02*
X197222364Y-44223839D01*
X195439520Y-47102397D02*
X195487140Y-47150016D01*
X195487140Y-47150016D02*
X195534759Y-47292873D01*
X195534759Y-47292873D02*
X195534759Y-47388111D01*
X195534759Y-47388111D02*
X195487140Y-47530968D01*
X195487140Y-47530968D02*
X195391901Y-47626206D01*
X195391901Y-47626206D02*
X195296663Y-47673825D01*
X195296663Y-47673825D02*
X195106187Y-47721444D01*
X195106187Y-47721444D02*
X194963330Y-47721444D01*
X194963330Y-47721444D02*
X194772854Y-47673825D01*
X194772854Y-47673825D02*
X194677616Y-47626206D01*
X194677616Y-47626206D02*
X194582378Y-47530968D01*
X194582378Y-47530968D02*
X194534759Y-47388111D01*
X194534759Y-47388111D02*
X194534759Y-47292873D01*
X194534759Y-47292873D02*
X194582378Y-47150016D01*
X194582378Y-47150016D02*
X194629997Y-47102397D01*
X194629997Y-46721444D02*
X194582378Y-46673825D01*
X194582378Y-46673825D02*
X194534759Y-46578587D01*
X194534759Y-46578587D02*
X194534759Y-46340492D01*
X194534759Y-46340492D02*
X194582378Y-46245254D01*
X194582378Y-46245254D02*
X194629997Y-46197635D01*
X194629997Y-46197635D02*
X194725235Y-46150016D01*
X194725235Y-46150016D02*
X194820473Y-46150016D01*
X194820473Y-46150016D02*
X194963330Y-46197635D01*
X194963330Y-46197635D02*
X195534759Y-46769063D01*
X195534759Y-46769063D02*
X195534759Y-46150016D01*
X194534759Y-45816682D02*
X194534759Y-45197635D01*
X194534759Y-45197635D02*
X194915711Y-45530968D01*
X194915711Y-45530968D02*
X194915711Y-45388111D01*
X194915711Y-45388111D02*
X194963330Y-45292873D01*
X194963330Y-45292873D02*
X195010949Y-45245254D01*
X195010949Y-45245254D02*
X195106187Y-45197635D01*
X195106187Y-45197635D02*
X195344282Y-45197635D01*
X195344282Y-45197635D02*
X195439520Y-45245254D01*
X195439520Y-45245254D02*
X195487140Y-45292873D01*
X195487140Y-45292873D02*
X195534759Y-45388111D01*
X195534759Y-45388111D02*
X195534759Y-45673825D01*
X195534759Y-45673825D02*
X195487140Y-45769063D01*
X195487140Y-45769063D02*
X195439520Y-45816682D01*
X191497602Y-42178600D02*
X191449983Y-42226220D01*
X191449983Y-42226220D02*
X191307126Y-42273839D01*
X191307126Y-42273839D02*
X191211888Y-42273839D01*
X191211888Y-42273839D02*
X191069031Y-42226220D01*
X191069031Y-42226220D02*
X190973793Y-42130981D01*
X190973793Y-42130981D02*
X190926174Y-42035743D01*
X190926174Y-42035743D02*
X190878555Y-41845267D01*
X190878555Y-41845267D02*
X190878555Y-41702410D01*
X190878555Y-41702410D02*
X190926174Y-41511934D01*
X190926174Y-41511934D02*
X190973793Y-41416696D01*
X190973793Y-41416696D02*
X191069031Y-41321458D01*
X191069031Y-41321458D02*
X191211888Y-41273839D01*
X191211888Y-41273839D02*
X191307126Y-41273839D01*
X191307126Y-41273839D02*
X191449983Y-41321458D01*
X191449983Y-41321458D02*
X191497602Y-41369077D01*
X191878555Y-41369077D02*
X191926174Y-41321458D01*
X191926174Y-41321458D02*
X192021412Y-41273839D01*
X192021412Y-41273839D02*
X192259507Y-41273839D01*
X192259507Y-41273839D02*
X192354745Y-41321458D01*
X192354745Y-41321458D02*
X192402364Y-41369077D01*
X192402364Y-41369077D02*
X192449983Y-41464315D01*
X192449983Y-41464315D02*
X192449983Y-41559553D01*
X192449983Y-41559553D02*
X192402364Y-41702410D01*
X192402364Y-41702410D02*
X191830936Y-42273839D01*
X191830936Y-42273839D02*
X192449983Y-42273839D01*
X193069031Y-41273839D02*
X193164269Y-41273839D01*
X193164269Y-41273839D02*
X193259507Y-41321458D01*
X193259507Y-41321458D02*
X193307126Y-41369077D01*
X193307126Y-41369077D02*
X193354745Y-41464315D01*
X193354745Y-41464315D02*
X193402364Y-41654791D01*
X193402364Y-41654791D02*
X193402364Y-41892886D01*
X193402364Y-41892886D02*
X193354745Y-42083362D01*
X193354745Y-42083362D02*
X193307126Y-42178600D01*
X193307126Y-42178600D02*
X193259507Y-42226220D01*
X193259507Y-42226220D02*
X193164269Y-42273839D01*
X193164269Y-42273839D02*
X193069031Y-42273839D01*
X193069031Y-42273839D02*
X192973793Y-42226220D01*
X192973793Y-42226220D02*
X192926174Y-42178600D01*
X192926174Y-42178600D02*
X192878555Y-42083362D01*
X192878555Y-42083362D02*
X192830936Y-41892886D01*
X192830936Y-41892886D02*
X192830936Y-41654791D01*
X192830936Y-41654791D02*
X192878555Y-41464315D01*
X192878555Y-41464315D02*
X192926174Y-41369077D01*
X192926174Y-41369077D02*
X192973793Y-41321458D01*
X192973793Y-41321458D02*
X193069031Y-41273839D01*
X148609520Y-46832397D02*
X148657140Y-46880016D01*
X148657140Y-46880016D02*
X148704759Y-47022873D01*
X148704759Y-47022873D02*
X148704759Y-47118111D01*
X148704759Y-47118111D02*
X148657140Y-47260968D01*
X148657140Y-47260968D02*
X148561901Y-47356206D01*
X148561901Y-47356206D02*
X148466663Y-47403825D01*
X148466663Y-47403825D02*
X148276187Y-47451444D01*
X148276187Y-47451444D02*
X148133330Y-47451444D01*
X148133330Y-47451444D02*
X147942854Y-47403825D01*
X147942854Y-47403825D02*
X147847616Y-47356206D01*
X147847616Y-47356206D02*
X147752378Y-47260968D01*
X147752378Y-47260968D02*
X147704759Y-47118111D01*
X147704759Y-47118111D02*
X147704759Y-47022873D01*
X147704759Y-47022873D02*
X147752378Y-46880016D01*
X147752378Y-46880016D02*
X147799997Y-46832397D01*
X147799997Y-46451444D02*
X147752378Y-46403825D01*
X147752378Y-46403825D02*
X147704759Y-46308587D01*
X147704759Y-46308587D02*
X147704759Y-46070492D01*
X147704759Y-46070492D02*
X147752378Y-45975254D01*
X147752378Y-45975254D02*
X147799997Y-45927635D01*
X147799997Y-45927635D02*
X147895235Y-45880016D01*
X147895235Y-45880016D02*
X147990473Y-45880016D01*
X147990473Y-45880016D02*
X148133330Y-45927635D01*
X148133330Y-45927635D02*
X148704759Y-46499063D01*
X148704759Y-46499063D02*
X148704759Y-45880016D01*
X148038092Y-45022873D02*
X148704759Y-45022873D01*
X147657140Y-45260968D02*
X148371425Y-45499063D01*
X148371425Y-45499063D02*
X148371425Y-44880016D01*
D11*
X143120936Y-90094359D02*
X143120936Y-89094359D01*
X143120936Y-89094359D02*
X143454269Y-89808644D01*
X143454269Y-89808644D02*
X143787602Y-89094359D01*
X143787602Y-89094359D02*
X143787602Y-90094359D01*
X144168555Y-89094359D02*
X144787602Y-89094359D01*
X144787602Y-89094359D02*
X144454269Y-89475311D01*
X144454269Y-89475311D02*
X144597126Y-89475311D01*
X144597126Y-89475311D02*
X144692364Y-89522930D01*
X144692364Y-89522930D02*
X144739983Y-89570549D01*
X144739983Y-89570549D02*
X144787602Y-89665787D01*
X144787602Y-89665787D02*
X144787602Y-89903882D01*
X144787602Y-89903882D02*
X144739983Y-89999120D01*
X144739983Y-89999120D02*
X144692364Y-90046740D01*
X144692364Y-90046740D02*
X144597126Y-90094359D01*
X144597126Y-90094359D02*
X144311412Y-90094359D01*
X144311412Y-90094359D02*
X144216174Y-90046740D01*
X144216174Y-90046740D02*
X144168555Y-89999120D01*
D12*
X140748882Y-87914923D02*
X141038882Y-88011590D01*
X141038882Y-88011590D02*
X141135548Y-88108256D01*
X141135548Y-88108256D02*
X141232215Y-88301590D01*
X141232215Y-88301590D02*
X141232215Y-88591590D01*
X141232215Y-88591590D02*
X141135548Y-88784923D01*
X141135548Y-88784923D02*
X141038882Y-88881590D01*
X141038882Y-88881590D02*
X140845548Y-88978256D01*
X140845548Y-88978256D02*
X140072215Y-88978256D01*
X140072215Y-88978256D02*
X140072215Y-86948256D01*
X140072215Y-86948256D02*
X140748882Y-86948256D01*
X140748882Y-86948256D02*
X140942215Y-87044923D01*
X140942215Y-87044923D02*
X141038882Y-87141590D01*
X141038882Y-87141590D02*
X141135548Y-87334923D01*
X141135548Y-87334923D02*
X141135548Y-87528256D01*
X141135548Y-87528256D02*
X141038882Y-87721590D01*
X141038882Y-87721590D02*
X140942215Y-87818256D01*
X140942215Y-87818256D02*
X140748882Y-87914923D01*
X140748882Y-87914923D02*
X140072215Y-87914923D01*
D10*
X143140936Y-90093839D02*
X143140936Y-89093839D01*
X143140936Y-89093839D02*
X143474269Y-89808124D01*
X143474269Y-89808124D02*
X143807602Y-89093839D01*
X143807602Y-89093839D02*
X143807602Y-90093839D01*
X144188555Y-89093839D02*
X144807602Y-89093839D01*
X144807602Y-89093839D02*
X144474269Y-89474791D01*
X144474269Y-89474791D02*
X144617126Y-89474791D01*
X144617126Y-89474791D02*
X144712364Y-89522410D01*
X144712364Y-89522410D02*
X144759983Y-89570029D01*
X144759983Y-89570029D02*
X144807602Y-89665267D01*
X144807602Y-89665267D02*
X144807602Y-89903362D01*
X144807602Y-89903362D02*
X144759983Y-89998600D01*
X144759983Y-89998600D02*
X144712364Y-90046220D01*
X144712364Y-90046220D02*
X144617126Y-90093839D01*
X144617126Y-90093839D02*
X144331412Y-90093839D01*
X144331412Y-90093839D02*
X144236174Y-90046220D01*
X144236174Y-90046220D02*
X144188555Y-89998600D01*
D12*
X148252215Y-88748256D02*
X147575548Y-87781590D01*
X147092215Y-88748256D02*
X147092215Y-86718256D01*
X147092215Y-86718256D02*
X147865548Y-86718256D01*
X147865548Y-86718256D02*
X148058882Y-86814923D01*
X148058882Y-86814923D02*
X148155548Y-86911590D01*
X148155548Y-86911590D02*
X148252215Y-87104923D01*
X148252215Y-87104923D02*
X148252215Y-87394923D01*
X148252215Y-87394923D02*
X148155548Y-87588256D01*
X148155548Y-87588256D02*
X148058882Y-87684923D01*
X148058882Y-87684923D02*
X147865548Y-87781590D01*
X147865548Y-87781590D02*
X147092215Y-87781590D01*
D11*
X132404279Y-79525063D02*
X131404279Y-79525063D01*
X131404279Y-79525063D02*
X132118564Y-79191730D01*
X132118564Y-79191730D02*
X131404279Y-78858397D01*
X131404279Y-78858397D02*
X132404279Y-78858397D01*
X131499517Y-78429825D02*
X131451898Y-78382206D01*
X131451898Y-78382206D02*
X131404279Y-78286968D01*
X131404279Y-78286968D02*
X131404279Y-78048873D01*
X131404279Y-78048873D02*
X131451898Y-77953635D01*
X131451898Y-77953635D02*
X131499517Y-77906016D01*
X131499517Y-77906016D02*
X131594755Y-77858397D01*
X131594755Y-77858397D02*
X131689993Y-77858397D01*
X131689993Y-77858397D02*
X131832850Y-77906016D01*
X131832850Y-77906016D02*
X132404279Y-78477444D01*
X132404279Y-78477444D02*
X132404279Y-77858397D01*
D10*
X130116759Y-79652063D02*
X129116759Y-79652063D01*
X129116759Y-79652063D02*
X129831044Y-79318730D01*
X129831044Y-79318730D02*
X129116759Y-78985397D01*
X129116759Y-78985397D02*
X130116759Y-78985397D01*
X129211997Y-78556825D02*
X129164378Y-78509206D01*
X129164378Y-78509206D02*
X129116759Y-78413968D01*
X129116759Y-78413968D02*
X129116759Y-78175873D01*
X129116759Y-78175873D02*
X129164378Y-78080635D01*
X129164378Y-78080635D02*
X129211997Y-78033016D01*
X129211997Y-78033016D02*
X129307235Y-77985397D01*
X129307235Y-77985397D02*
X129402473Y-77985397D01*
X129402473Y-77985397D02*
X129545330Y-78033016D01*
X129545330Y-78033016D02*
X130116759Y-78604444D01*
X130116759Y-78604444D02*
X130116759Y-77985397D01*
D12*
X129527843Y-82384118D02*
X129624510Y-82094118D01*
X129624510Y-82094118D02*
X129721176Y-81997451D01*
X129721176Y-81997451D02*
X129914510Y-81900784D01*
X129914510Y-81900784D02*
X130204510Y-81900784D01*
X130204510Y-81900784D02*
X130397843Y-81997451D01*
X130397843Y-81997451D02*
X130494510Y-82094118D01*
X130494510Y-82094118D02*
X130591176Y-82287451D01*
X130591176Y-82287451D02*
X130591176Y-83060784D01*
X130591176Y-83060784D02*
X128561176Y-83060784D01*
X128561176Y-83060784D02*
X128561176Y-82384118D01*
X128561176Y-82384118D02*
X128657843Y-82190784D01*
X128657843Y-82190784D02*
X128754510Y-82094118D01*
X128754510Y-82094118D02*
X128947843Y-81997451D01*
X128947843Y-81997451D02*
X129141176Y-81997451D01*
X129141176Y-81997451D02*
X129334510Y-82094118D01*
X129334510Y-82094118D02*
X129431176Y-82190784D01*
X129431176Y-82190784D02*
X129527843Y-82384118D01*
X129527843Y-82384118D02*
X129527843Y-83060784D01*
X130849176Y-74707784D02*
X129882510Y-75384451D01*
X130849176Y-75867784D02*
X128819176Y-75867784D01*
X128819176Y-75867784D02*
X128819176Y-75094451D01*
X128819176Y-75094451D02*
X128915843Y-74901118D01*
X128915843Y-74901118D02*
X129012510Y-74804451D01*
X129012510Y-74804451D02*
X129205843Y-74707784D01*
X129205843Y-74707784D02*
X129495843Y-74707784D01*
X129495843Y-74707784D02*
X129689176Y-74804451D01*
X129689176Y-74804451D02*
X129785843Y-74901118D01*
X129785843Y-74901118D02*
X129882510Y-75094451D01*
X129882510Y-75094451D02*
X129882510Y-75867784D01*
D10*
X173404759Y-81847397D02*
X172928568Y-82180730D01*
X173404759Y-82418825D02*
X172404759Y-82418825D01*
X172404759Y-82418825D02*
X172404759Y-82037873D01*
X172404759Y-82037873D02*
X172452378Y-81942635D01*
X172452378Y-81942635D02*
X172499997Y-81895016D01*
X172499997Y-81895016D02*
X172595235Y-81847397D01*
X172595235Y-81847397D02*
X172738092Y-81847397D01*
X172738092Y-81847397D02*
X172833330Y-81895016D01*
X172833330Y-81895016D02*
X172880949Y-81942635D01*
X172880949Y-81942635D02*
X172928568Y-82037873D01*
X172928568Y-82037873D02*
X172928568Y-82418825D01*
X173404759Y-80895016D02*
X173404759Y-81466444D01*
X173404759Y-81180730D02*
X172404759Y-81180730D01*
X172404759Y-81180730D02*
X172547616Y-81275968D01*
X172547616Y-81275968D02*
X172642854Y-81371206D01*
X172642854Y-81371206D02*
X172690473Y-81466444D01*
X172404759Y-80561682D02*
X172404759Y-79895016D01*
X172404759Y-79895016D02*
X173404759Y-80323587D01*
X169429520Y-46681006D02*
X169477140Y-46728625D01*
X169477140Y-46728625D02*
X169524759Y-46871482D01*
X169524759Y-46871482D02*
X169524759Y-46966720D01*
X169524759Y-46966720D02*
X169477140Y-47109577D01*
X169477140Y-47109577D02*
X169381901Y-47204815D01*
X169381901Y-47204815D02*
X169286663Y-47252434D01*
X169286663Y-47252434D02*
X169096187Y-47300053D01*
X169096187Y-47300053D02*
X168953330Y-47300053D01*
X168953330Y-47300053D02*
X168762854Y-47252434D01*
X168762854Y-47252434D02*
X168667616Y-47204815D01*
X168667616Y-47204815D02*
X168572378Y-47109577D01*
X168572378Y-47109577D02*
X168524759Y-46966720D01*
X168524759Y-46966720D02*
X168524759Y-46871482D01*
X168524759Y-46871482D02*
X168572378Y-46728625D01*
X168572378Y-46728625D02*
X168619997Y-46681006D01*
X168524759Y-46347672D02*
X168524759Y-45728625D01*
X168524759Y-45728625D02*
X168905711Y-46061958D01*
X168905711Y-46061958D02*
X168905711Y-45919101D01*
X168905711Y-45919101D02*
X168953330Y-45823863D01*
X168953330Y-45823863D02*
X169000949Y-45776244D01*
X169000949Y-45776244D02*
X169096187Y-45728625D01*
X169096187Y-45728625D02*
X169334282Y-45728625D01*
X169334282Y-45728625D02*
X169429520Y-45776244D01*
X169429520Y-45776244D02*
X169477140Y-45823863D01*
X169477140Y-45823863D02*
X169524759Y-45919101D01*
X169524759Y-45919101D02*
X169524759Y-46204815D01*
X169524759Y-46204815D02*
X169477140Y-46300053D01*
X169477140Y-46300053D02*
X169429520Y-46347672D01*
X177237602Y-46273839D02*
X176904269Y-45797648D01*
X176666174Y-46273839D02*
X176666174Y-45273839D01*
X176666174Y-45273839D02*
X177047126Y-45273839D01*
X177047126Y-45273839D02*
X177142364Y-45321458D01*
X177142364Y-45321458D02*
X177189983Y-45369077D01*
X177189983Y-45369077D02*
X177237602Y-45464315D01*
X177237602Y-45464315D02*
X177237602Y-45607172D01*
X177237602Y-45607172D02*
X177189983Y-45702410D01*
X177189983Y-45702410D02*
X177142364Y-45750029D01*
X177142364Y-45750029D02*
X177047126Y-45797648D01*
X177047126Y-45797648D02*
X176666174Y-45797648D01*
X178189983Y-46273839D02*
X177618555Y-46273839D01*
X177904269Y-46273839D02*
X177904269Y-45273839D01*
X177904269Y-45273839D02*
X177809031Y-45416696D01*
X177809031Y-45416696D02*
X177713793Y-45511934D01*
X177713793Y-45511934D02*
X177618555Y-45559553D01*
X178666174Y-46273839D02*
X178856650Y-46273839D01*
X178856650Y-46273839D02*
X178951888Y-46226220D01*
X178951888Y-46226220D02*
X178999507Y-46178600D01*
X178999507Y-46178600D02*
X179094745Y-46035743D01*
X179094745Y-46035743D02*
X179142364Y-45845267D01*
X179142364Y-45845267D02*
X179142364Y-45464315D01*
X179142364Y-45464315D02*
X179094745Y-45369077D01*
X179094745Y-45369077D02*
X179047126Y-45321458D01*
X179047126Y-45321458D02*
X178951888Y-45273839D01*
X178951888Y-45273839D02*
X178761412Y-45273839D01*
X178761412Y-45273839D02*
X178666174Y-45321458D01*
X178666174Y-45321458D02*
X178618555Y-45369077D01*
X178618555Y-45369077D02*
X178570936Y-45464315D01*
X178570936Y-45464315D02*
X178570936Y-45702410D01*
X178570936Y-45702410D02*
X178618555Y-45797648D01*
X178618555Y-45797648D02*
X178666174Y-45845267D01*
X178666174Y-45845267D02*
X178761412Y-45892886D01*
X178761412Y-45892886D02*
X178951888Y-45892886D01*
X178951888Y-45892886D02*
X179047126Y-45845267D01*
X179047126Y-45845267D02*
X179094745Y-45797648D01*
X179094745Y-45797648D02*
X179142364Y-45702410D01*
X174727602Y-49113839D02*
X174394269Y-48637648D01*
X174156174Y-49113839D02*
X174156174Y-48113839D01*
X174156174Y-48113839D02*
X174537126Y-48113839D01*
X174537126Y-48113839D02*
X174632364Y-48161458D01*
X174632364Y-48161458D02*
X174679983Y-48209077D01*
X174679983Y-48209077D02*
X174727602Y-48304315D01*
X174727602Y-48304315D02*
X174727602Y-48447172D01*
X174727602Y-48447172D02*
X174679983Y-48542410D01*
X174679983Y-48542410D02*
X174632364Y-48590029D01*
X174632364Y-48590029D02*
X174537126Y-48637648D01*
X174537126Y-48637648D02*
X174156174Y-48637648D01*
X175679983Y-49113839D02*
X175108555Y-49113839D01*
X175394269Y-49113839D02*
X175394269Y-48113839D01*
X175394269Y-48113839D02*
X175299031Y-48256696D01*
X175299031Y-48256696D02*
X175203793Y-48351934D01*
X175203793Y-48351934D02*
X175108555Y-48399553D01*
X176251412Y-48542410D02*
X176156174Y-48494791D01*
X176156174Y-48494791D02*
X176108555Y-48447172D01*
X176108555Y-48447172D02*
X176060936Y-48351934D01*
X176060936Y-48351934D02*
X176060936Y-48304315D01*
X176060936Y-48304315D02*
X176108555Y-48209077D01*
X176108555Y-48209077D02*
X176156174Y-48161458D01*
X176156174Y-48161458D02*
X176251412Y-48113839D01*
X176251412Y-48113839D02*
X176441888Y-48113839D01*
X176441888Y-48113839D02*
X176537126Y-48161458D01*
X176537126Y-48161458D02*
X176584745Y-48209077D01*
X176584745Y-48209077D02*
X176632364Y-48304315D01*
X176632364Y-48304315D02*
X176632364Y-48351934D01*
X176632364Y-48351934D02*
X176584745Y-48447172D01*
X176584745Y-48447172D02*
X176537126Y-48494791D01*
X176537126Y-48494791D02*
X176441888Y-48542410D01*
X176441888Y-48542410D02*
X176251412Y-48542410D01*
X176251412Y-48542410D02*
X176156174Y-48590029D01*
X176156174Y-48590029D02*
X176108555Y-48637648D01*
X176108555Y-48637648D02*
X176060936Y-48732886D01*
X176060936Y-48732886D02*
X176060936Y-48923362D01*
X176060936Y-48923362D02*
X176108555Y-49018600D01*
X176108555Y-49018600D02*
X176156174Y-49066220D01*
X176156174Y-49066220D02*
X176251412Y-49113839D01*
X176251412Y-49113839D02*
X176441888Y-49113839D01*
X176441888Y-49113839D02*
X176537126Y-49066220D01*
X176537126Y-49066220D02*
X176584745Y-49018600D01*
X176584745Y-49018600D02*
X176632364Y-48923362D01*
X176632364Y-48923362D02*
X176632364Y-48732886D01*
X176632364Y-48732886D02*
X176584745Y-48637648D01*
X176584745Y-48637648D02*
X176537126Y-48590029D01*
X176537126Y-48590029D02*
X176441888Y-48542410D01*
X191794759Y-46487397D02*
X191318568Y-46820730D01*
X191794759Y-47058825D02*
X190794759Y-47058825D01*
X190794759Y-47058825D02*
X190794759Y-46677873D01*
X190794759Y-46677873D02*
X190842378Y-46582635D01*
X190842378Y-46582635D02*
X190889997Y-46535016D01*
X190889997Y-46535016D02*
X190985235Y-46487397D01*
X190985235Y-46487397D02*
X191128092Y-46487397D01*
X191128092Y-46487397D02*
X191223330Y-46535016D01*
X191223330Y-46535016D02*
X191270949Y-46582635D01*
X191270949Y-46582635D02*
X191318568Y-46677873D01*
X191318568Y-46677873D02*
X191318568Y-47058825D01*
X190889997Y-46106444D02*
X190842378Y-46058825D01*
X190842378Y-46058825D02*
X190794759Y-45963587D01*
X190794759Y-45963587D02*
X190794759Y-45725492D01*
X190794759Y-45725492D02*
X190842378Y-45630254D01*
X190842378Y-45630254D02*
X190889997Y-45582635D01*
X190889997Y-45582635D02*
X190985235Y-45535016D01*
X190985235Y-45535016D02*
X191080473Y-45535016D01*
X191080473Y-45535016D02*
X191223330Y-45582635D01*
X191223330Y-45582635D02*
X191794759Y-46154063D01*
X191794759Y-46154063D02*
X191794759Y-45535016D01*
X191794759Y-45058825D02*
X191794759Y-44868349D01*
X191794759Y-44868349D02*
X191747140Y-44773111D01*
X191747140Y-44773111D02*
X191699520Y-44725492D01*
X191699520Y-44725492D02*
X191556663Y-44630254D01*
X191556663Y-44630254D02*
X191366187Y-44582635D01*
X191366187Y-44582635D02*
X190985235Y-44582635D01*
X190985235Y-44582635D02*
X190889997Y-44630254D01*
X190889997Y-44630254D02*
X190842378Y-44677873D01*
X190842378Y-44677873D02*
X190794759Y-44773111D01*
X190794759Y-44773111D02*
X190794759Y-44963587D01*
X190794759Y-44963587D02*
X190842378Y-45058825D01*
X190842378Y-45058825D02*
X190889997Y-45106444D01*
X190889997Y-45106444D02*
X190985235Y-45154063D01*
X190985235Y-45154063D02*
X191223330Y-45154063D01*
X191223330Y-45154063D02*
X191318568Y-45106444D01*
X191318568Y-45106444D02*
X191366187Y-45058825D01*
X191366187Y-45058825D02*
X191413806Y-44963587D01*
X191413806Y-44963587D02*
X191413806Y-44773111D01*
X191413806Y-44773111D02*
X191366187Y-44677873D01*
X191366187Y-44677873D02*
X191318568Y-44630254D01*
X191318568Y-44630254D02*
X191223330Y-44582635D01*
X196304759Y-85036206D02*
X195828568Y-85369539D01*
X196304759Y-85607634D02*
X195304759Y-85607634D01*
X195304759Y-85607634D02*
X195304759Y-85226682D01*
X195304759Y-85226682D02*
X195352378Y-85131444D01*
X195352378Y-85131444D02*
X195399997Y-85083825D01*
X195399997Y-85083825D02*
X195495235Y-85036206D01*
X195495235Y-85036206D02*
X195638092Y-85036206D01*
X195638092Y-85036206D02*
X195733330Y-85083825D01*
X195733330Y-85083825D02*
X195780949Y-85131444D01*
X195780949Y-85131444D02*
X195828568Y-85226682D01*
X195828568Y-85226682D02*
X195828568Y-85607634D01*
X196304759Y-84560015D02*
X196304759Y-84369539D01*
X196304759Y-84369539D02*
X196257140Y-84274301D01*
X196257140Y-84274301D02*
X196209520Y-84226682D01*
X196209520Y-84226682D02*
X196066663Y-84131444D01*
X196066663Y-84131444D02*
X195876187Y-84083825D01*
X195876187Y-84083825D02*
X195495235Y-84083825D01*
X195495235Y-84083825D02*
X195399997Y-84131444D01*
X195399997Y-84131444D02*
X195352378Y-84179063D01*
X195352378Y-84179063D02*
X195304759Y-84274301D01*
X195304759Y-84274301D02*
X195304759Y-84464777D01*
X195304759Y-84464777D02*
X195352378Y-84560015D01*
X195352378Y-84560015D02*
X195399997Y-84607634D01*
X195399997Y-84607634D02*
X195495235Y-84655253D01*
X195495235Y-84655253D02*
X195733330Y-84655253D01*
X195733330Y-84655253D02*
X195828568Y-84607634D01*
X195828568Y-84607634D02*
X195876187Y-84560015D01*
X195876187Y-84560015D02*
X195923806Y-84464777D01*
X195923806Y-84464777D02*
X195923806Y-84274301D01*
X195923806Y-84274301D02*
X195876187Y-84179063D01*
X195876187Y-84179063D02*
X195828568Y-84131444D01*
X195828568Y-84131444D02*
X195733330Y-84083825D01*
D11*
X207145279Y-85731444D02*
X207954802Y-85731444D01*
X207954802Y-85731444D02*
X208050040Y-85683825D01*
X208050040Y-85683825D02*
X208097660Y-85636206D01*
X208097660Y-85636206D02*
X208145279Y-85540968D01*
X208145279Y-85540968D02*
X208145279Y-85350492D01*
X208145279Y-85350492D02*
X208097660Y-85255254D01*
X208097660Y-85255254D02*
X208050040Y-85207635D01*
X208050040Y-85207635D02*
X207954802Y-85160016D01*
X207954802Y-85160016D02*
X207145279Y-85160016D01*
X207145279Y-84255254D02*
X207145279Y-84445730D01*
X207145279Y-84445730D02*
X207192898Y-84540968D01*
X207192898Y-84540968D02*
X207240517Y-84588587D01*
X207240517Y-84588587D02*
X207383374Y-84683825D01*
X207383374Y-84683825D02*
X207573850Y-84731444D01*
X207573850Y-84731444D02*
X207954802Y-84731444D01*
X207954802Y-84731444D02*
X208050040Y-84683825D01*
X208050040Y-84683825D02*
X208097660Y-84636206D01*
X208097660Y-84636206D02*
X208145279Y-84540968D01*
X208145279Y-84540968D02*
X208145279Y-84350492D01*
X208145279Y-84350492D02*
X208097660Y-84255254D01*
X208097660Y-84255254D02*
X208050040Y-84207635D01*
X208050040Y-84207635D02*
X207954802Y-84160016D01*
X207954802Y-84160016D02*
X207716707Y-84160016D01*
X207716707Y-84160016D02*
X207621469Y-84207635D01*
X207621469Y-84207635D02*
X207573850Y-84255254D01*
X207573850Y-84255254D02*
X207526231Y-84350492D01*
X207526231Y-84350492D02*
X207526231Y-84540968D01*
X207526231Y-84540968D02*
X207573850Y-84636206D01*
X207573850Y-84636206D02*
X207621469Y-84683825D01*
X207621469Y-84683825D02*
X207716707Y-84731444D01*
D10*
X207134759Y-85761444D02*
X207944282Y-85761444D01*
X207944282Y-85761444D02*
X208039520Y-85713825D01*
X208039520Y-85713825D02*
X208087140Y-85666206D01*
X208087140Y-85666206D02*
X208134759Y-85570968D01*
X208134759Y-85570968D02*
X208134759Y-85380492D01*
X208134759Y-85380492D02*
X208087140Y-85285254D01*
X208087140Y-85285254D02*
X208039520Y-85237635D01*
X208039520Y-85237635D02*
X207944282Y-85190016D01*
X207944282Y-85190016D02*
X207134759Y-85190016D01*
X207134759Y-84285254D02*
X207134759Y-84475730D01*
X207134759Y-84475730D02*
X207182378Y-84570968D01*
X207182378Y-84570968D02*
X207229997Y-84618587D01*
X207229997Y-84618587D02*
X207372854Y-84713825D01*
X207372854Y-84713825D02*
X207563330Y-84761444D01*
X207563330Y-84761444D02*
X207944282Y-84761444D01*
X207944282Y-84761444D02*
X208039520Y-84713825D01*
X208039520Y-84713825D02*
X208087140Y-84666206D01*
X208087140Y-84666206D02*
X208134759Y-84570968D01*
X208134759Y-84570968D02*
X208134759Y-84380492D01*
X208134759Y-84380492D02*
X208087140Y-84285254D01*
X208087140Y-84285254D02*
X208039520Y-84237635D01*
X208039520Y-84237635D02*
X207944282Y-84190016D01*
X207944282Y-84190016D02*
X207706187Y-84190016D01*
X207706187Y-84190016D02*
X207610949Y-84237635D01*
X207610949Y-84237635D02*
X207563330Y-84285254D01*
X207563330Y-84285254D02*
X207515711Y-84380492D01*
X207515711Y-84380492D02*
X207515711Y-84570968D01*
X207515711Y-84570968D02*
X207563330Y-84666206D01*
X207563330Y-84666206D02*
X207610949Y-84713825D01*
X207610949Y-84713825D02*
X207706187Y-84761444D01*
D11*
X216501469Y-61235254D02*
X216549088Y-61092397D01*
X216549088Y-61092397D02*
X216596707Y-61044778D01*
X216596707Y-61044778D02*
X216691945Y-60997159D01*
X216691945Y-60997159D02*
X216834802Y-60997159D01*
X216834802Y-60997159D02*
X216930040Y-61044778D01*
X216930040Y-61044778D02*
X216977660Y-61092397D01*
X216977660Y-61092397D02*
X217025279Y-61187635D01*
X217025279Y-61187635D02*
X217025279Y-61568587D01*
X217025279Y-61568587D02*
X216025279Y-61568587D01*
X216025279Y-61568587D02*
X216025279Y-61235254D01*
X216025279Y-61235254D02*
X216072898Y-61140016D01*
X216072898Y-61140016D02*
X216120517Y-61092397D01*
X216120517Y-61092397D02*
X216215755Y-61044778D01*
X216215755Y-61044778D02*
X216310993Y-61044778D01*
X216310993Y-61044778D02*
X216406231Y-61092397D01*
X216406231Y-61092397D02*
X216453850Y-61140016D01*
X216453850Y-61140016D02*
X216501469Y-61235254D01*
X216501469Y-61235254D02*
X216501469Y-61568587D01*
X216025279Y-60711444D02*
X216025279Y-60140016D01*
X217025279Y-60425730D02*
X216025279Y-60425730D01*
X216120517Y-59854301D02*
X216072898Y-59806682D01*
X216072898Y-59806682D02*
X216025279Y-59711444D01*
X216025279Y-59711444D02*
X216025279Y-59473349D01*
X216025279Y-59473349D02*
X216072898Y-59378111D01*
X216072898Y-59378111D02*
X216120517Y-59330492D01*
X216120517Y-59330492D02*
X216215755Y-59282873D01*
X216215755Y-59282873D02*
X216310993Y-59282873D01*
X216310993Y-59282873D02*
X216453850Y-59330492D01*
X216453850Y-59330492D02*
X217025279Y-59901920D01*
X217025279Y-59901920D02*
X217025279Y-59282873D01*
D10*
X168750749Y-70646854D02*
X168798368Y-70503997D01*
X168798368Y-70503997D02*
X168845987Y-70456378D01*
X168845987Y-70456378D02*
X168941225Y-70408759D01*
X168941225Y-70408759D02*
X169084082Y-70408759D01*
X169084082Y-70408759D02*
X169179320Y-70456378D01*
X169179320Y-70456378D02*
X169226940Y-70503997D01*
X169226940Y-70503997D02*
X169274559Y-70599235D01*
X169274559Y-70599235D02*
X169274559Y-70980187D01*
X169274559Y-70980187D02*
X168274559Y-70980187D01*
X168274559Y-70980187D02*
X168274559Y-70646854D01*
X168274559Y-70646854D02*
X168322178Y-70551616D01*
X168322178Y-70551616D02*
X168369797Y-70503997D01*
X168369797Y-70503997D02*
X168465035Y-70456378D01*
X168465035Y-70456378D02*
X168560273Y-70456378D01*
X168560273Y-70456378D02*
X168655511Y-70503997D01*
X168655511Y-70503997D02*
X168703130Y-70551616D01*
X168703130Y-70551616D02*
X168750749Y-70646854D01*
X168750749Y-70646854D02*
X168750749Y-70980187D01*
X168274559Y-70123044D02*
X168274559Y-69551616D01*
X169274559Y-69837330D02*
X168274559Y-69837330D01*
X168369797Y-69265901D02*
X168322178Y-69218282D01*
X168322178Y-69218282D02*
X168274559Y-69123044D01*
X168274559Y-69123044D02*
X168274559Y-68884949D01*
X168274559Y-68884949D02*
X168322178Y-68789711D01*
X168322178Y-68789711D02*
X168369797Y-68742092D01*
X168369797Y-68742092D02*
X168465035Y-68694473D01*
X168465035Y-68694473D02*
X168560273Y-68694473D01*
X168560273Y-68694473D02*
X168703130Y-68742092D01*
X168703130Y-68742092D02*
X169274559Y-69313520D01*
X169274559Y-69313520D02*
X169274559Y-68694473D01*
X140787602Y-81093839D02*
X140454269Y-80617648D01*
X140216174Y-81093839D02*
X140216174Y-80093839D01*
X140216174Y-80093839D02*
X140597126Y-80093839D01*
X140597126Y-80093839D02*
X140692364Y-80141458D01*
X140692364Y-80141458D02*
X140739983Y-80189077D01*
X140739983Y-80189077D02*
X140787602Y-80284315D01*
X140787602Y-80284315D02*
X140787602Y-80427172D01*
X140787602Y-80427172D02*
X140739983Y-80522410D01*
X140739983Y-80522410D02*
X140692364Y-80570029D01*
X140692364Y-80570029D02*
X140597126Y-80617648D01*
X140597126Y-80617648D02*
X140216174Y-80617648D01*
X141644745Y-80427172D02*
X141644745Y-81093839D01*
X141406650Y-80046220D02*
X141168555Y-80760505D01*
X141168555Y-80760505D02*
X141787602Y-80760505D01*
X142073317Y-80093839D02*
X142692364Y-80093839D01*
X142692364Y-80093839D02*
X142359031Y-80474791D01*
X142359031Y-80474791D02*
X142501888Y-80474791D01*
X142501888Y-80474791D02*
X142597126Y-80522410D01*
X142597126Y-80522410D02*
X142644745Y-80570029D01*
X142644745Y-80570029D02*
X142692364Y-80665267D01*
X142692364Y-80665267D02*
X142692364Y-80903362D01*
X142692364Y-80903362D02*
X142644745Y-80998600D01*
X142644745Y-80998600D02*
X142597126Y-81046220D01*
X142597126Y-81046220D02*
X142501888Y-81093839D01*
X142501888Y-81093839D02*
X142216174Y-81093839D01*
X142216174Y-81093839D02*
X142120936Y-81046220D01*
X142120936Y-81046220D02*
X142073317Y-80998600D01*
X147597602Y-52168600D02*
X147549983Y-52216220D01*
X147549983Y-52216220D02*
X147407126Y-52263839D01*
X147407126Y-52263839D02*
X147311888Y-52263839D01*
X147311888Y-52263839D02*
X147169031Y-52216220D01*
X147169031Y-52216220D02*
X147073793Y-52120981D01*
X147073793Y-52120981D02*
X147026174Y-52025743D01*
X147026174Y-52025743D02*
X146978555Y-51835267D01*
X146978555Y-51835267D02*
X146978555Y-51692410D01*
X146978555Y-51692410D02*
X147026174Y-51501934D01*
X147026174Y-51501934D02*
X147073793Y-51406696D01*
X147073793Y-51406696D02*
X147169031Y-51311458D01*
X147169031Y-51311458D02*
X147311888Y-51263839D01*
X147311888Y-51263839D02*
X147407126Y-51263839D01*
X147407126Y-51263839D02*
X147549983Y-51311458D01*
X147549983Y-51311458D02*
X147597602Y-51359077D01*
X147930936Y-51263839D02*
X148549983Y-51263839D01*
X148549983Y-51263839D02*
X148216650Y-51644791D01*
X148216650Y-51644791D02*
X148359507Y-51644791D01*
X148359507Y-51644791D02*
X148454745Y-51692410D01*
X148454745Y-51692410D02*
X148502364Y-51740029D01*
X148502364Y-51740029D02*
X148549983Y-51835267D01*
X148549983Y-51835267D02*
X148549983Y-52073362D01*
X148549983Y-52073362D02*
X148502364Y-52168600D01*
X148502364Y-52168600D02*
X148454745Y-52216220D01*
X148454745Y-52216220D02*
X148359507Y-52263839D01*
X148359507Y-52263839D02*
X148073793Y-52263839D01*
X148073793Y-52263839D02*
X147978555Y-52216220D01*
X147978555Y-52216220D02*
X147930936Y-52168600D01*
X149454745Y-51263839D02*
X148978555Y-51263839D01*
X148978555Y-51263839D02*
X148930936Y-51740029D01*
X148930936Y-51740029D02*
X148978555Y-51692410D01*
X148978555Y-51692410D02*
X149073793Y-51644791D01*
X149073793Y-51644791D02*
X149311888Y-51644791D01*
X149311888Y-51644791D02*
X149407126Y-51692410D01*
X149407126Y-51692410D02*
X149454745Y-51740029D01*
X149454745Y-51740029D02*
X149502364Y-51835267D01*
X149502364Y-51835267D02*
X149502364Y-52073362D01*
X149502364Y-52073362D02*
X149454745Y-52168600D01*
X149454745Y-52168600D02*
X149407126Y-52216220D01*
X149407126Y-52216220D02*
X149311888Y-52263839D01*
X149311888Y-52263839D02*
X149073793Y-52263839D01*
X149073793Y-52263839D02*
X148978555Y-52216220D01*
X148978555Y-52216220D02*
X148930936Y-52168600D01*
X209879520Y-81226206D02*
X209927140Y-81273825D01*
X209927140Y-81273825D02*
X209974759Y-81416682D01*
X209974759Y-81416682D02*
X209974759Y-81511920D01*
X209974759Y-81511920D02*
X209927140Y-81654777D01*
X209927140Y-81654777D02*
X209831901Y-81750015D01*
X209831901Y-81750015D02*
X209736663Y-81797634D01*
X209736663Y-81797634D02*
X209546187Y-81845253D01*
X209546187Y-81845253D02*
X209403330Y-81845253D01*
X209403330Y-81845253D02*
X209212854Y-81797634D01*
X209212854Y-81797634D02*
X209117616Y-81750015D01*
X209117616Y-81750015D02*
X209022378Y-81654777D01*
X209022378Y-81654777D02*
X208974759Y-81511920D01*
X208974759Y-81511920D02*
X208974759Y-81416682D01*
X208974759Y-81416682D02*
X209022378Y-81273825D01*
X209022378Y-81273825D02*
X209069997Y-81226206D01*
X209403330Y-80654777D02*
X209355711Y-80750015D01*
X209355711Y-80750015D02*
X209308092Y-80797634D01*
X209308092Y-80797634D02*
X209212854Y-80845253D01*
X209212854Y-80845253D02*
X209165235Y-80845253D01*
X209165235Y-80845253D02*
X209069997Y-80797634D01*
X209069997Y-80797634D02*
X209022378Y-80750015D01*
X209022378Y-80750015D02*
X208974759Y-80654777D01*
X208974759Y-80654777D02*
X208974759Y-80464301D01*
X208974759Y-80464301D02*
X209022378Y-80369063D01*
X209022378Y-80369063D02*
X209069997Y-80321444D01*
X209069997Y-80321444D02*
X209165235Y-80273825D01*
X209165235Y-80273825D02*
X209212854Y-80273825D01*
X209212854Y-80273825D02*
X209308092Y-80321444D01*
X209308092Y-80321444D02*
X209355711Y-80369063D01*
X209355711Y-80369063D02*
X209403330Y-80464301D01*
X209403330Y-80464301D02*
X209403330Y-80654777D01*
X209403330Y-80654777D02*
X209450949Y-80750015D01*
X209450949Y-80750015D02*
X209498568Y-80797634D01*
X209498568Y-80797634D02*
X209593806Y-80845253D01*
X209593806Y-80845253D02*
X209784282Y-80845253D01*
X209784282Y-80845253D02*
X209879520Y-80797634D01*
X209879520Y-80797634D02*
X209927140Y-80750015D01*
X209927140Y-80750015D02*
X209974759Y-80654777D01*
X209974759Y-80654777D02*
X209974759Y-80464301D01*
X209974759Y-80464301D02*
X209927140Y-80369063D01*
X209927140Y-80369063D02*
X209879520Y-80321444D01*
X209879520Y-80321444D02*
X209784282Y-80273825D01*
X209784282Y-80273825D02*
X209593806Y-80273825D01*
X209593806Y-80273825D02*
X209498568Y-80321444D01*
X209498568Y-80321444D02*
X209450949Y-80369063D01*
X209450949Y-80369063D02*
X209403330Y-80464301D01*
X195867602Y-80803839D02*
X195534269Y-80327648D01*
X195296174Y-80803839D02*
X195296174Y-79803839D01*
X195296174Y-79803839D02*
X195677126Y-79803839D01*
X195677126Y-79803839D02*
X195772364Y-79851458D01*
X195772364Y-79851458D02*
X195819983Y-79899077D01*
X195819983Y-79899077D02*
X195867602Y-79994315D01*
X195867602Y-79994315D02*
X195867602Y-80137172D01*
X195867602Y-80137172D02*
X195819983Y-80232410D01*
X195819983Y-80232410D02*
X195772364Y-80280029D01*
X195772364Y-80280029D02*
X195677126Y-80327648D01*
X195677126Y-80327648D02*
X195296174Y-80327648D01*
X196819983Y-80803839D02*
X196248555Y-80803839D01*
X196534269Y-80803839D02*
X196534269Y-79803839D01*
X196534269Y-79803839D02*
X196439031Y-79946696D01*
X196439031Y-79946696D02*
X196343793Y-80041934D01*
X196343793Y-80041934D02*
X196248555Y-80089553D01*
X197153317Y-79803839D02*
X197772364Y-79803839D01*
X197772364Y-79803839D02*
X197439031Y-80184791D01*
X197439031Y-80184791D02*
X197581888Y-80184791D01*
X197581888Y-80184791D02*
X197677126Y-80232410D01*
X197677126Y-80232410D02*
X197724745Y-80280029D01*
X197724745Y-80280029D02*
X197772364Y-80375267D01*
X197772364Y-80375267D02*
X197772364Y-80613362D01*
X197772364Y-80613362D02*
X197724745Y-80708600D01*
X197724745Y-80708600D02*
X197677126Y-80756220D01*
X197677126Y-80756220D02*
X197581888Y-80803839D01*
X197581888Y-80803839D02*
X197296174Y-80803839D01*
X197296174Y-80803839D02*
X197200936Y-80756220D01*
X197200936Y-80756220D02*
X197153317Y-80708600D01*
X150922602Y-49983839D02*
X150589269Y-49507648D01*
X150351174Y-49983839D02*
X150351174Y-48983839D01*
X150351174Y-48983839D02*
X150732126Y-48983839D01*
X150732126Y-48983839D02*
X150827364Y-49031458D01*
X150827364Y-49031458D02*
X150874983Y-49079077D01*
X150874983Y-49079077D02*
X150922602Y-49174315D01*
X150922602Y-49174315D02*
X150922602Y-49317172D01*
X150922602Y-49317172D02*
X150874983Y-49412410D01*
X150874983Y-49412410D02*
X150827364Y-49460029D01*
X150827364Y-49460029D02*
X150732126Y-49507648D01*
X150732126Y-49507648D02*
X150351174Y-49507648D01*
X151255936Y-48983839D02*
X151874983Y-48983839D01*
X151874983Y-48983839D02*
X151541650Y-49364791D01*
X151541650Y-49364791D02*
X151684507Y-49364791D01*
X151684507Y-49364791D02*
X151779745Y-49412410D01*
X151779745Y-49412410D02*
X151827364Y-49460029D01*
X151827364Y-49460029D02*
X151874983Y-49555267D01*
X151874983Y-49555267D02*
X151874983Y-49793362D01*
X151874983Y-49793362D02*
X151827364Y-49888600D01*
X151827364Y-49888600D02*
X151779745Y-49936220D01*
X151779745Y-49936220D02*
X151684507Y-49983839D01*
X151684507Y-49983839D02*
X151398793Y-49983839D01*
X151398793Y-49983839D02*
X151303555Y-49936220D01*
X151303555Y-49936220D02*
X151255936Y-49888600D01*
X152779745Y-48983839D02*
X152303555Y-48983839D01*
X152303555Y-48983839D02*
X152255936Y-49460029D01*
X152255936Y-49460029D02*
X152303555Y-49412410D01*
X152303555Y-49412410D02*
X152398793Y-49364791D01*
X152398793Y-49364791D02*
X152636888Y-49364791D01*
X152636888Y-49364791D02*
X152732126Y-49412410D01*
X152732126Y-49412410D02*
X152779745Y-49460029D01*
X152779745Y-49460029D02*
X152827364Y-49555267D01*
X152827364Y-49555267D02*
X152827364Y-49793362D01*
X152827364Y-49793362D02*
X152779745Y-49888600D01*
X152779745Y-49888600D02*
X152732126Y-49936220D01*
X152732126Y-49936220D02*
X152636888Y-49983839D01*
X152636888Y-49983839D02*
X152398793Y-49983839D01*
X152398793Y-49983839D02*
X152303555Y-49936220D01*
X152303555Y-49936220D02*
X152255936Y-49888600D01*
D11*
X161225279Y-49977634D02*
X160225279Y-49977634D01*
X160225279Y-49977634D02*
X160225279Y-49739539D01*
X160225279Y-49739539D02*
X160272898Y-49596682D01*
X160272898Y-49596682D02*
X160368136Y-49501444D01*
X160368136Y-49501444D02*
X160463374Y-49453825D01*
X160463374Y-49453825D02*
X160653850Y-49406206D01*
X160653850Y-49406206D02*
X160796707Y-49406206D01*
X160796707Y-49406206D02*
X160987183Y-49453825D01*
X160987183Y-49453825D02*
X161082421Y-49501444D01*
X161082421Y-49501444D02*
X161177660Y-49596682D01*
X161177660Y-49596682D02*
X161225279Y-49739539D01*
X161225279Y-49739539D02*
X161225279Y-49977634D01*
X161225279Y-48453825D02*
X161225279Y-49025253D01*
X161225279Y-48739539D02*
X160225279Y-48739539D01*
X160225279Y-48739539D02*
X160368136Y-48834777D01*
X160368136Y-48834777D02*
X160463374Y-48930015D01*
X160463374Y-48930015D02*
X160510993Y-49025253D01*
D10*
X161224759Y-49967634D02*
X160224759Y-49967634D01*
X160224759Y-49967634D02*
X160224759Y-49729539D01*
X160224759Y-49729539D02*
X160272378Y-49586682D01*
X160272378Y-49586682D02*
X160367616Y-49491444D01*
X160367616Y-49491444D02*
X160462854Y-49443825D01*
X160462854Y-49443825D02*
X160653330Y-49396206D01*
X160653330Y-49396206D02*
X160796187Y-49396206D01*
X160796187Y-49396206D02*
X160986663Y-49443825D01*
X160986663Y-49443825D02*
X161081901Y-49491444D01*
X161081901Y-49491444D02*
X161177140Y-49586682D01*
X161177140Y-49586682D02*
X161224759Y-49729539D01*
X161224759Y-49729539D02*
X161224759Y-49967634D01*
X161224759Y-48443825D02*
X161224759Y-49015253D01*
X161224759Y-48729539D02*
X160224759Y-48729539D01*
X160224759Y-48729539D02*
X160367616Y-48824777D01*
X160367616Y-48824777D02*
X160462854Y-48920015D01*
X160462854Y-48920015D02*
X160510473Y-49015253D01*
D11*
X171816765Y-89334359D02*
X171816765Y-90143882D01*
X171816765Y-90143882D02*
X171864384Y-90239120D01*
X171864384Y-90239120D02*
X171912003Y-90286740D01*
X171912003Y-90286740D02*
X172007241Y-90334359D01*
X172007241Y-90334359D02*
X172197717Y-90334359D01*
X172197717Y-90334359D02*
X172292955Y-90286740D01*
X172292955Y-90286740D02*
X172340574Y-90239120D01*
X172340574Y-90239120D02*
X172388193Y-90143882D01*
X172388193Y-90143882D02*
X172388193Y-89334359D01*
X173388193Y-90334359D02*
X172816765Y-90334359D01*
X173102479Y-90334359D02*
X173102479Y-89334359D01*
X173102479Y-89334359D02*
X173007241Y-89477216D01*
X173007241Y-89477216D02*
X172912003Y-89572454D01*
X172912003Y-89572454D02*
X172816765Y-89620073D01*
X174245336Y-89334359D02*
X174054860Y-89334359D01*
X174054860Y-89334359D02*
X173959622Y-89381978D01*
X173959622Y-89381978D02*
X173912003Y-89429597D01*
X173912003Y-89429597D02*
X173816765Y-89572454D01*
X173816765Y-89572454D02*
X173769146Y-89762930D01*
X173769146Y-89762930D02*
X173769146Y-90143882D01*
X173769146Y-90143882D02*
X173816765Y-90239120D01*
X173816765Y-90239120D02*
X173864384Y-90286740D01*
X173864384Y-90286740D02*
X173959622Y-90334359D01*
X173959622Y-90334359D02*
X174150098Y-90334359D01*
X174150098Y-90334359D02*
X174245336Y-90286740D01*
X174245336Y-90286740D02*
X174292955Y-90239120D01*
X174292955Y-90239120D02*
X174340574Y-90143882D01*
X174340574Y-90143882D02*
X174340574Y-89905787D01*
X174340574Y-89905787D02*
X174292955Y-89810549D01*
X174292955Y-89810549D02*
X174245336Y-89762930D01*
X174245336Y-89762930D02*
X174150098Y-89715311D01*
X174150098Y-89715311D02*
X173959622Y-89715311D01*
X173959622Y-89715311D02*
X173864384Y-89762930D01*
X173864384Y-89762930D02*
X173816765Y-89810549D01*
X173816765Y-89810549D02*
X173769146Y-89905787D01*
D10*
X171816765Y-89353839D02*
X171816765Y-90163362D01*
X171816765Y-90163362D02*
X171864384Y-90258600D01*
X171864384Y-90258600D02*
X171912003Y-90306220D01*
X171912003Y-90306220D02*
X172007241Y-90353839D01*
X172007241Y-90353839D02*
X172197717Y-90353839D01*
X172197717Y-90353839D02*
X172292955Y-90306220D01*
X172292955Y-90306220D02*
X172340574Y-90258600D01*
X172340574Y-90258600D02*
X172388193Y-90163362D01*
X172388193Y-90163362D02*
X172388193Y-89353839D01*
X173388193Y-90353839D02*
X172816765Y-90353839D01*
X173102479Y-90353839D02*
X173102479Y-89353839D01*
X173102479Y-89353839D02*
X173007241Y-89496696D01*
X173007241Y-89496696D02*
X172912003Y-89591934D01*
X172912003Y-89591934D02*
X172816765Y-89639553D01*
X174245336Y-89353839D02*
X174054860Y-89353839D01*
X174054860Y-89353839D02*
X173959622Y-89401458D01*
X173959622Y-89401458D02*
X173912003Y-89449077D01*
X173912003Y-89449077D02*
X173816765Y-89591934D01*
X173816765Y-89591934D02*
X173769146Y-89782410D01*
X173769146Y-89782410D02*
X173769146Y-90163362D01*
X173769146Y-90163362D02*
X173816765Y-90258600D01*
X173816765Y-90258600D02*
X173864384Y-90306220D01*
X173864384Y-90306220D02*
X173959622Y-90353839D01*
X173959622Y-90353839D02*
X174150098Y-90353839D01*
X174150098Y-90353839D02*
X174245336Y-90306220D01*
X174245336Y-90306220D02*
X174292955Y-90258600D01*
X174292955Y-90258600D02*
X174340574Y-90163362D01*
X174340574Y-90163362D02*
X174340574Y-89925267D01*
X174340574Y-89925267D02*
X174292955Y-89830029D01*
X174292955Y-89830029D02*
X174245336Y-89782410D01*
X174245336Y-89782410D02*
X174150098Y-89734791D01*
X174150098Y-89734791D02*
X173959622Y-89734791D01*
X173959622Y-89734791D02*
X173864384Y-89782410D01*
X173864384Y-89782410D02*
X173816765Y-89830029D01*
X173816765Y-89830029D02*
X173769146Y-89925267D01*
X136067602Y-40668600D02*
X136019983Y-40716220D01*
X136019983Y-40716220D02*
X135877126Y-40763839D01*
X135877126Y-40763839D02*
X135781888Y-40763839D01*
X135781888Y-40763839D02*
X135639031Y-40716220D01*
X135639031Y-40716220D02*
X135543793Y-40620981D01*
X135543793Y-40620981D02*
X135496174Y-40525743D01*
X135496174Y-40525743D02*
X135448555Y-40335267D01*
X135448555Y-40335267D02*
X135448555Y-40192410D01*
X135448555Y-40192410D02*
X135496174Y-40001934D01*
X135496174Y-40001934D02*
X135543793Y-39906696D01*
X135543793Y-39906696D02*
X135639031Y-39811458D01*
X135639031Y-39811458D02*
X135781888Y-39763839D01*
X135781888Y-39763839D02*
X135877126Y-39763839D01*
X135877126Y-39763839D02*
X136019983Y-39811458D01*
X136019983Y-39811458D02*
X136067602Y-39859077D01*
X136448555Y-39859077D02*
X136496174Y-39811458D01*
X136496174Y-39811458D02*
X136591412Y-39763839D01*
X136591412Y-39763839D02*
X136829507Y-39763839D01*
X136829507Y-39763839D02*
X136924745Y-39811458D01*
X136924745Y-39811458D02*
X136972364Y-39859077D01*
X136972364Y-39859077D02*
X137019983Y-39954315D01*
X137019983Y-39954315D02*
X137019983Y-40049553D01*
X137019983Y-40049553D02*
X136972364Y-40192410D01*
X136972364Y-40192410D02*
X136400936Y-40763839D01*
X136400936Y-40763839D02*
X137019983Y-40763839D01*
X137972364Y-40763839D02*
X137400936Y-40763839D01*
X137686650Y-40763839D02*
X137686650Y-39763839D01*
X137686650Y-39763839D02*
X137591412Y-39906696D01*
X137591412Y-39906696D02*
X137496174Y-40001934D01*
X137496174Y-40001934D02*
X137400936Y-40049553D01*
X150689520Y-84085397D02*
X150737140Y-84133016D01*
X150737140Y-84133016D02*
X150784759Y-84275873D01*
X150784759Y-84275873D02*
X150784759Y-84371111D01*
X150784759Y-84371111D02*
X150737140Y-84513968D01*
X150737140Y-84513968D02*
X150641901Y-84609206D01*
X150641901Y-84609206D02*
X150546663Y-84656825D01*
X150546663Y-84656825D02*
X150356187Y-84704444D01*
X150356187Y-84704444D02*
X150213330Y-84704444D01*
X150213330Y-84704444D02*
X150022854Y-84656825D01*
X150022854Y-84656825D02*
X149927616Y-84609206D01*
X149927616Y-84609206D02*
X149832378Y-84513968D01*
X149832378Y-84513968D02*
X149784759Y-84371111D01*
X149784759Y-84371111D02*
X149784759Y-84275873D01*
X149784759Y-84275873D02*
X149832378Y-84133016D01*
X149832378Y-84133016D02*
X149879997Y-84085397D01*
X150784759Y-83133016D02*
X150784759Y-83704444D01*
X150784759Y-83418730D02*
X149784759Y-83418730D01*
X149784759Y-83418730D02*
X149927616Y-83513968D01*
X149927616Y-83513968D02*
X150022854Y-83609206D01*
X150022854Y-83609206D02*
X150070473Y-83704444D01*
X149784759Y-82799682D02*
X149784759Y-82133016D01*
X149784759Y-82133016D02*
X150784759Y-82561587D01*
X192507602Y-50943839D02*
X192174269Y-50467648D01*
X191936174Y-50943839D02*
X191936174Y-49943839D01*
X191936174Y-49943839D02*
X192317126Y-49943839D01*
X192317126Y-49943839D02*
X192412364Y-49991458D01*
X192412364Y-49991458D02*
X192459983Y-50039077D01*
X192459983Y-50039077D02*
X192507602Y-50134315D01*
X192507602Y-50134315D02*
X192507602Y-50277172D01*
X192507602Y-50277172D02*
X192459983Y-50372410D01*
X192459983Y-50372410D02*
X192412364Y-50420029D01*
X192412364Y-50420029D02*
X192317126Y-50467648D01*
X192317126Y-50467648D02*
X191936174Y-50467648D01*
X192888555Y-50039077D02*
X192936174Y-49991458D01*
X192936174Y-49991458D02*
X193031412Y-49943839D01*
X193031412Y-49943839D02*
X193269507Y-49943839D01*
X193269507Y-49943839D02*
X193364745Y-49991458D01*
X193364745Y-49991458D02*
X193412364Y-50039077D01*
X193412364Y-50039077D02*
X193459983Y-50134315D01*
X193459983Y-50134315D02*
X193459983Y-50229553D01*
X193459983Y-50229553D02*
X193412364Y-50372410D01*
X193412364Y-50372410D02*
X192840936Y-50943839D01*
X192840936Y-50943839D02*
X193459983Y-50943839D01*
X194031412Y-50372410D02*
X193936174Y-50324791D01*
X193936174Y-50324791D02*
X193888555Y-50277172D01*
X193888555Y-50277172D02*
X193840936Y-50181934D01*
X193840936Y-50181934D02*
X193840936Y-50134315D01*
X193840936Y-50134315D02*
X193888555Y-50039077D01*
X193888555Y-50039077D02*
X193936174Y-49991458D01*
X193936174Y-49991458D02*
X194031412Y-49943839D01*
X194031412Y-49943839D02*
X194221888Y-49943839D01*
X194221888Y-49943839D02*
X194317126Y-49991458D01*
X194317126Y-49991458D02*
X194364745Y-50039077D01*
X194364745Y-50039077D02*
X194412364Y-50134315D01*
X194412364Y-50134315D02*
X194412364Y-50181934D01*
X194412364Y-50181934D02*
X194364745Y-50277172D01*
X194364745Y-50277172D02*
X194317126Y-50324791D01*
X194317126Y-50324791D02*
X194221888Y-50372410D01*
X194221888Y-50372410D02*
X194031412Y-50372410D01*
X194031412Y-50372410D02*
X193936174Y-50420029D01*
X193936174Y-50420029D02*
X193888555Y-50467648D01*
X193888555Y-50467648D02*
X193840936Y-50562886D01*
X193840936Y-50562886D02*
X193840936Y-50753362D01*
X193840936Y-50753362D02*
X193888555Y-50848600D01*
X193888555Y-50848600D02*
X193936174Y-50896220D01*
X193936174Y-50896220D02*
X194031412Y-50943839D01*
X194031412Y-50943839D02*
X194221888Y-50943839D01*
X194221888Y-50943839D02*
X194317126Y-50896220D01*
X194317126Y-50896220D02*
X194364745Y-50848600D01*
X194364745Y-50848600D02*
X194412364Y-50753362D01*
X194412364Y-50753362D02*
X194412364Y-50562886D01*
X194412364Y-50562886D02*
X194364745Y-50467648D01*
X194364745Y-50467648D02*
X194317126Y-50420029D01*
X194317126Y-50420029D02*
X194221888Y-50372410D01*
X153177602Y-39708600D02*
X153129983Y-39756220D01*
X153129983Y-39756220D02*
X152987126Y-39803839D01*
X152987126Y-39803839D02*
X152891888Y-39803839D01*
X152891888Y-39803839D02*
X152749031Y-39756220D01*
X152749031Y-39756220D02*
X152653793Y-39660981D01*
X152653793Y-39660981D02*
X152606174Y-39565743D01*
X152606174Y-39565743D02*
X152558555Y-39375267D01*
X152558555Y-39375267D02*
X152558555Y-39232410D01*
X152558555Y-39232410D02*
X152606174Y-39041934D01*
X152606174Y-39041934D02*
X152653793Y-38946696D01*
X152653793Y-38946696D02*
X152749031Y-38851458D01*
X152749031Y-38851458D02*
X152891888Y-38803839D01*
X152891888Y-38803839D02*
X152987126Y-38803839D01*
X152987126Y-38803839D02*
X153129983Y-38851458D01*
X153129983Y-38851458D02*
X153177602Y-38899077D01*
X154129983Y-39803839D02*
X153558555Y-39803839D01*
X153844269Y-39803839D02*
X153844269Y-38803839D01*
X153844269Y-38803839D02*
X153749031Y-38946696D01*
X153749031Y-38946696D02*
X153653793Y-39041934D01*
X153653793Y-39041934D02*
X153558555Y-39089553D01*
X154701412Y-39232410D02*
X154606174Y-39184791D01*
X154606174Y-39184791D02*
X154558555Y-39137172D01*
X154558555Y-39137172D02*
X154510936Y-39041934D01*
X154510936Y-39041934D02*
X154510936Y-38994315D01*
X154510936Y-38994315D02*
X154558555Y-38899077D01*
X154558555Y-38899077D02*
X154606174Y-38851458D01*
X154606174Y-38851458D02*
X154701412Y-38803839D01*
X154701412Y-38803839D02*
X154891888Y-38803839D01*
X154891888Y-38803839D02*
X154987126Y-38851458D01*
X154987126Y-38851458D02*
X155034745Y-38899077D01*
X155034745Y-38899077D02*
X155082364Y-38994315D01*
X155082364Y-38994315D02*
X155082364Y-39041934D01*
X155082364Y-39041934D02*
X155034745Y-39137172D01*
X155034745Y-39137172D02*
X154987126Y-39184791D01*
X154987126Y-39184791D02*
X154891888Y-39232410D01*
X154891888Y-39232410D02*
X154701412Y-39232410D01*
X154701412Y-39232410D02*
X154606174Y-39280029D01*
X154606174Y-39280029D02*
X154558555Y-39327648D01*
X154558555Y-39327648D02*
X154510936Y-39422886D01*
X154510936Y-39422886D02*
X154510936Y-39613362D01*
X154510936Y-39613362D02*
X154558555Y-39708600D01*
X154558555Y-39708600D02*
X154606174Y-39756220D01*
X154606174Y-39756220D02*
X154701412Y-39803839D01*
X154701412Y-39803839D02*
X154891888Y-39803839D01*
X154891888Y-39803839D02*
X154987126Y-39756220D01*
X154987126Y-39756220D02*
X155034745Y-39708600D01*
X155034745Y-39708600D02*
X155082364Y-39613362D01*
X155082364Y-39613362D02*
X155082364Y-39422886D01*
X155082364Y-39422886D02*
X155034745Y-39327648D01*
X155034745Y-39327648D02*
X154987126Y-39280029D01*
X154987126Y-39280029D02*
X154891888Y-39232410D01*
D11*
X140085279Y-84717634D02*
X140894802Y-84717634D01*
X140894802Y-84717634D02*
X140990040Y-84670015D01*
X140990040Y-84670015D02*
X141037660Y-84622396D01*
X141037660Y-84622396D02*
X141085279Y-84527158D01*
X141085279Y-84527158D02*
X141085279Y-84336682D01*
X141085279Y-84336682D02*
X141037660Y-84241444D01*
X141037660Y-84241444D02*
X140990040Y-84193825D01*
X140990040Y-84193825D02*
X140894802Y-84146206D01*
X140894802Y-84146206D02*
X140085279Y-84146206D01*
X141085279Y-83146206D02*
X141085279Y-83717634D01*
X141085279Y-83431920D02*
X140085279Y-83431920D01*
X140085279Y-83431920D02*
X140228136Y-83527158D01*
X140228136Y-83527158D02*
X140323374Y-83622396D01*
X140323374Y-83622396D02*
X140370993Y-83717634D01*
X141085279Y-82193825D02*
X141085279Y-82765253D01*
X141085279Y-82479539D02*
X140085279Y-82479539D01*
X140085279Y-82479539D02*
X140228136Y-82574777D01*
X140228136Y-82574777D02*
X140323374Y-82670015D01*
X140323374Y-82670015D02*
X140370993Y-82765253D01*
D10*
X140094759Y-84707634D02*
X140904282Y-84707634D01*
X140904282Y-84707634D02*
X140999520Y-84660015D01*
X140999520Y-84660015D02*
X141047140Y-84612396D01*
X141047140Y-84612396D02*
X141094759Y-84517158D01*
X141094759Y-84517158D02*
X141094759Y-84326682D01*
X141094759Y-84326682D02*
X141047140Y-84231444D01*
X141047140Y-84231444D02*
X140999520Y-84183825D01*
X140999520Y-84183825D02*
X140904282Y-84136206D01*
X140904282Y-84136206D02*
X140094759Y-84136206D01*
X141094759Y-83136206D02*
X141094759Y-83707634D01*
X141094759Y-83421920D02*
X140094759Y-83421920D01*
X140094759Y-83421920D02*
X140237616Y-83517158D01*
X140237616Y-83517158D02*
X140332854Y-83612396D01*
X140332854Y-83612396D02*
X140380473Y-83707634D01*
X141094759Y-82183825D02*
X141094759Y-82755253D01*
X141094759Y-82469539D02*
X140094759Y-82469539D01*
X140094759Y-82469539D02*
X140237616Y-82564777D01*
X140237616Y-82564777D02*
X140332854Y-82660015D01*
X140332854Y-82660015D02*
X140380473Y-82755253D01*
D11*
X204190040Y-46734816D02*
X204237660Y-46782435D01*
X204237660Y-46782435D02*
X204285279Y-46925292D01*
X204285279Y-46925292D02*
X204285279Y-47020530D01*
X204285279Y-47020530D02*
X204237660Y-47163387D01*
X204237660Y-47163387D02*
X204142421Y-47258625D01*
X204142421Y-47258625D02*
X204047183Y-47306244D01*
X204047183Y-47306244D02*
X203856707Y-47353863D01*
X203856707Y-47353863D02*
X203713850Y-47353863D01*
X203713850Y-47353863D02*
X203523374Y-47306244D01*
X203523374Y-47306244D02*
X203428136Y-47258625D01*
X203428136Y-47258625D02*
X203332898Y-47163387D01*
X203332898Y-47163387D02*
X203285279Y-47020530D01*
X203285279Y-47020530D02*
X203285279Y-46925292D01*
X203285279Y-46925292D02*
X203332898Y-46782435D01*
X203332898Y-46782435D02*
X203380517Y-46734816D01*
X204285279Y-46306244D02*
X203285279Y-46306244D01*
X203285279Y-46306244D02*
X204285279Y-45734816D01*
X204285279Y-45734816D02*
X203285279Y-45734816D01*
X203285279Y-45353863D02*
X203285279Y-44734816D01*
X203285279Y-44734816D02*
X203666231Y-45068149D01*
X203666231Y-45068149D02*
X203666231Y-44925292D01*
X203666231Y-44925292D02*
X203713850Y-44830054D01*
X203713850Y-44830054D02*
X203761469Y-44782435D01*
X203761469Y-44782435D02*
X203856707Y-44734816D01*
X203856707Y-44734816D02*
X204094802Y-44734816D01*
X204094802Y-44734816D02*
X204190040Y-44782435D01*
X204190040Y-44782435D02*
X204237660Y-44830054D01*
X204237660Y-44830054D02*
X204285279Y-44925292D01*
X204285279Y-44925292D02*
X204285279Y-45211006D01*
X204285279Y-45211006D02*
X204237660Y-45306244D01*
X204237660Y-45306244D02*
X204190040Y-45353863D01*
D10*
X204189520Y-46734816D02*
X204237140Y-46782435D01*
X204237140Y-46782435D02*
X204284759Y-46925292D01*
X204284759Y-46925292D02*
X204284759Y-47020530D01*
X204284759Y-47020530D02*
X204237140Y-47163387D01*
X204237140Y-47163387D02*
X204141901Y-47258625D01*
X204141901Y-47258625D02*
X204046663Y-47306244D01*
X204046663Y-47306244D02*
X203856187Y-47353863D01*
X203856187Y-47353863D02*
X203713330Y-47353863D01*
X203713330Y-47353863D02*
X203522854Y-47306244D01*
X203522854Y-47306244D02*
X203427616Y-47258625D01*
X203427616Y-47258625D02*
X203332378Y-47163387D01*
X203332378Y-47163387D02*
X203284759Y-47020530D01*
X203284759Y-47020530D02*
X203284759Y-46925292D01*
X203284759Y-46925292D02*
X203332378Y-46782435D01*
X203332378Y-46782435D02*
X203379997Y-46734816D01*
X204284759Y-46306244D02*
X203284759Y-46306244D01*
X203284759Y-46306244D02*
X204284759Y-45734816D01*
X204284759Y-45734816D02*
X203284759Y-45734816D01*
X203284759Y-45353863D02*
X203284759Y-44734816D01*
X203284759Y-44734816D02*
X203665711Y-45068149D01*
X203665711Y-45068149D02*
X203665711Y-44925292D01*
X203665711Y-44925292D02*
X203713330Y-44830054D01*
X203713330Y-44830054D02*
X203760949Y-44782435D01*
X203760949Y-44782435D02*
X203856187Y-44734816D01*
X203856187Y-44734816D02*
X204094282Y-44734816D01*
X204094282Y-44734816D02*
X204189520Y-44782435D01*
X204189520Y-44782435D02*
X204237140Y-44830054D01*
X204237140Y-44830054D02*
X204284759Y-44925292D01*
X204284759Y-44925292D02*
X204284759Y-45211006D01*
X204284759Y-45211006D02*
X204237140Y-45306244D01*
X204237140Y-45306244D02*
X204189520Y-45353863D01*
D11*
X155572365Y-41474359D02*
X155572365Y-42283882D01*
X155572365Y-42283882D02*
X155619984Y-42379120D01*
X155619984Y-42379120D02*
X155667603Y-42426740D01*
X155667603Y-42426740D02*
X155762841Y-42474359D01*
X155762841Y-42474359D02*
X155953317Y-42474359D01*
X155953317Y-42474359D02*
X156048555Y-42426740D01*
X156048555Y-42426740D02*
X156096174Y-42379120D01*
X156096174Y-42379120D02*
X156143793Y-42283882D01*
X156143793Y-42283882D02*
X156143793Y-41474359D01*
X157143793Y-42474359D02*
X156572365Y-42474359D01*
X156858079Y-42474359D02*
X156858079Y-41474359D01*
X156858079Y-41474359D02*
X156762841Y-41617216D01*
X156762841Y-41617216D02*
X156667603Y-41712454D01*
X156667603Y-41712454D02*
X156572365Y-41760073D01*
X157524746Y-41569597D02*
X157572365Y-41521978D01*
X157572365Y-41521978D02*
X157667603Y-41474359D01*
X157667603Y-41474359D02*
X157905698Y-41474359D01*
X157905698Y-41474359D02*
X158000936Y-41521978D01*
X158000936Y-41521978D02*
X158048555Y-41569597D01*
X158048555Y-41569597D02*
X158096174Y-41664835D01*
X158096174Y-41664835D02*
X158096174Y-41760073D01*
X158096174Y-41760073D02*
X158048555Y-41902930D01*
X158048555Y-41902930D02*
X157477127Y-42474359D01*
X157477127Y-42474359D02*
X158096174Y-42474359D01*
D10*
X155570365Y-41423839D02*
X155570365Y-42233362D01*
X155570365Y-42233362D02*
X155617984Y-42328600D01*
X155617984Y-42328600D02*
X155665603Y-42376220D01*
X155665603Y-42376220D02*
X155760841Y-42423839D01*
X155760841Y-42423839D02*
X155951317Y-42423839D01*
X155951317Y-42423839D02*
X156046555Y-42376220D01*
X156046555Y-42376220D02*
X156094174Y-42328600D01*
X156094174Y-42328600D02*
X156141793Y-42233362D01*
X156141793Y-42233362D02*
X156141793Y-41423839D01*
X157141793Y-42423839D02*
X156570365Y-42423839D01*
X156856079Y-42423839D02*
X156856079Y-41423839D01*
X156856079Y-41423839D02*
X156760841Y-41566696D01*
X156760841Y-41566696D02*
X156665603Y-41661934D01*
X156665603Y-41661934D02*
X156570365Y-41709553D01*
X157522746Y-41519077D02*
X157570365Y-41471458D01*
X157570365Y-41471458D02*
X157665603Y-41423839D01*
X157665603Y-41423839D02*
X157903698Y-41423839D01*
X157903698Y-41423839D02*
X157998936Y-41471458D01*
X157998936Y-41471458D02*
X158046555Y-41519077D01*
X158046555Y-41519077D02*
X158094174Y-41614315D01*
X158094174Y-41614315D02*
X158094174Y-41709553D01*
X158094174Y-41709553D02*
X158046555Y-41852410D01*
X158046555Y-41852410D02*
X157475127Y-42423839D01*
X157475127Y-42423839D02*
X158094174Y-42423839D01*
D11*
X166765279Y-48996206D02*
X166765279Y-49472396D01*
X166765279Y-49472396D02*
X165765279Y-49472396D01*
X166765279Y-48139063D02*
X166765279Y-48710491D01*
X166765279Y-48424777D02*
X165765279Y-48424777D01*
X165765279Y-48424777D02*
X165908136Y-48520015D01*
X165908136Y-48520015D02*
X166003374Y-48615253D01*
X166003374Y-48615253D02*
X166050993Y-48710491D01*
D10*
X166754759Y-48996206D02*
X166754759Y-49472396D01*
X166754759Y-49472396D02*
X165754759Y-49472396D01*
X166754759Y-48139063D02*
X166754759Y-48710491D01*
X166754759Y-48424777D02*
X165754759Y-48424777D01*
X165754759Y-48424777D02*
X165897616Y-48520015D01*
X165897616Y-48520015D02*
X165992854Y-48615253D01*
X165992854Y-48615253D02*
X166040473Y-48710491D01*
X200847602Y-90033839D02*
X200514269Y-89557648D01*
X200276174Y-90033839D02*
X200276174Y-89033839D01*
X200276174Y-89033839D02*
X200657126Y-89033839D01*
X200657126Y-89033839D02*
X200752364Y-89081458D01*
X200752364Y-89081458D02*
X200799983Y-89129077D01*
X200799983Y-89129077D02*
X200847602Y-89224315D01*
X200847602Y-89224315D02*
X200847602Y-89367172D01*
X200847602Y-89367172D02*
X200799983Y-89462410D01*
X200799983Y-89462410D02*
X200752364Y-89510029D01*
X200752364Y-89510029D02*
X200657126Y-89557648D01*
X200657126Y-89557648D02*
X200276174Y-89557648D01*
X201799983Y-90033839D02*
X201228555Y-90033839D01*
X201514269Y-90033839D02*
X201514269Y-89033839D01*
X201514269Y-89033839D02*
X201419031Y-89176696D01*
X201419031Y-89176696D02*
X201323793Y-89271934D01*
X201323793Y-89271934D02*
X201228555Y-89319553D01*
X202419031Y-89033839D02*
X202514269Y-89033839D01*
X202514269Y-89033839D02*
X202609507Y-89081458D01*
X202609507Y-89081458D02*
X202657126Y-89129077D01*
X202657126Y-89129077D02*
X202704745Y-89224315D01*
X202704745Y-89224315D02*
X202752364Y-89414791D01*
X202752364Y-89414791D02*
X202752364Y-89652886D01*
X202752364Y-89652886D02*
X202704745Y-89843362D01*
X202704745Y-89843362D02*
X202657126Y-89938600D01*
X202657126Y-89938600D02*
X202609507Y-89986220D01*
X202609507Y-89986220D02*
X202514269Y-90033839D01*
X202514269Y-90033839D02*
X202419031Y-90033839D01*
X202419031Y-90033839D02*
X202323793Y-89986220D01*
X202323793Y-89986220D02*
X202276174Y-89938600D01*
X202276174Y-89938600D02*
X202228555Y-89843362D01*
X202228555Y-89843362D02*
X202180936Y-89652886D01*
X202180936Y-89652886D02*
X202180936Y-89414791D01*
X202180936Y-89414791D02*
X202228555Y-89224315D01*
X202228555Y-89224315D02*
X202276174Y-89129077D01*
X202276174Y-89129077D02*
X202323793Y-89081458D01*
X202323793Y-89081458D02*
X202419031Y-89033839D01*
D11*
X169662365Y-38757159D02*
X169662365Y-39566682D01*
X169662365Y-39566682D02*
X169709984Y-39661920D01*
X169709984Y-39661920D02*
X169757603Y-39709540D01*
X169757603Y-39709540D02*
X169852841Y-39757159D01*
X169852841Y-39757159D02*
X170043317Y-39757159D01*
X170043317Y-39757159D02*
X170138555Y-39709540D01*
X170138555Y-39709540D02*
X170186174Y-39661920D01*
X170186174Y-39661920D02*
X170233793Y-39566682D01*
X170233793Y-39566682D02*
X170233793Y-38757159D01*
X170662365Y-39709540D02*
X170805222Y-39757159D01*
X170805222Y-39757159D02*
X171043317Y-39757159D01*
X171043317Y-39757159D02*
X171138555Y-39709540D01*
X171138555Y-39709540D02*
X171186174Y-39661920D01*
X171186174Y-39661920D02*
X171233793Y-39566682D01*
X171233793Y-39566682D02*
X171233793Y-39471444D01*
X171233793Y-39471444D02*
X171186174Y-39376206D01*
X171186174Y-39376206D02*
X171138555Y-39328587D01*
X171138555Y-39328587D02*
X171043317Y-39280968D01*
X171043317Y-39280968D02*
X170852841Y-39233349D01*
X170852841Y-39233349D02*
X170757603Y-39185730D01*
X170757603Y-39185730D02*
X170709984Y-39138111D01*
X170709984Y-39138111D02*
X170662365Y-39042873D01*
X170662365Y-39042873D02*
X170662365Y-38947635D01*
X170662365Y-38947635D02*
X170709984Y-38852397D01*
X170709984Y-38852397D02*
X170757603Y-38804778D01*
X170757603Y-38804778D02*
X170852841Y-38757159D01*
X170852841Y-38757159D02*
X171090936Y-38757159D01*
X171090936Y-38757159D02*
X171233793Y-38804778D01*
X171995698Y-39233349D02*
X172138555Y-39280968D01*
X172138555Y-39280968D02*
X172186174Y-39328587D01*
X172186174Y-39328587D02*
X172233793Y-39423825D01*
X172233793Y-39423825D02*
X172233793Y-39566682D01*
X172233793Y-39566682D02*
X172186174Y-39661920D01*
X172186174Y-39661920D02*
X172138555Y-39709540D01*
X172138555Y-39709540D02*
X172043317Y-39757159D01*
X172043317Y-39757159D02*
X171662365Y-39757159D01*
X171662365Y-39757159D02*
X171662365Y-38757159D01*
X171662365Y-38757159D02*
X171995698Y-38757159D01*
X171995698Y-38757159D02*
X172090936Y-38804778D01*
X172090936Y-38804778D02*
X172138555Y-38852397D01*
X172138555Y-38852397D02*
X172186174Y-38947635D01*
X172186174Y-38947635D02*
X172186174Y-39042873D01*
X172186174Y-39042873D02*
X172138555Y-39138111D01*
X172138555Y-39138111D02*
X172090936Y-39185730D01*
X172090936Y-39185730D02*
X171995698Y-39233349D01*
X171995698Y-39233349D02*
X171662365Y-39233349D01*
X173186174Y-39757159D02*
X172614746Y-39757159D01*
X172900460Y-39757159D02*
X172900460Y-38757159D01*
X172900460Y-38757159D02*
X172805222Y-38900016D01*
X172805222Y-38900016D02*
X172709984Y-38995254D01*
X172709984Y-38995254D02*
X172614746Y-39042873D01*
D10*
X169662365Y-38756639D02*
X169662365Y-39566162D01*
X169662365Y-39566162D02*
X169709984Y-39661400D01*
X169709984Y-39661400D02*
X169757603Y-39709020D01*
X169757603Y-39709020D02*
X169852841Y-39756639D01*
X169852841Y-39756639D02*
X170043317Y-39756639D01*
X170043317Y-39756639D02*
X170138555Y-39709020D01*
X170138555Y-39709020D02*
X170186174Y-39661400D01*
X170186174Y-39661400D02*
X170233793Y-39566162D01*
X170233793Y-39566162D02*
X170233793Y-38756639D01*
X170662365Y-39709020D02*
X170805222Y-39756639D01*
X170805222Y-39756639D02*
X171043317Y-39756639D01*
X171043317Y-39756639D02*
X171138555Y-39709020D01*
X171138555Y-39709020D02*
X171186174Y-39661400D01*
X171186174Y-39661400D02*
X171233793Y-39566162D01*
X171233793Y-39566162D02*
X171233793Y-39470924D01*
X171233793Y-39470924D02*
X171186174Y-39375686D01*
X171186174Y-39375686D02*
X171138555Y-39328067D01*
X171138555Y-39328067D02*
X171043317Y-39280448D01*
X171043317Y-39280448D02*
X170852841Y-39232829D01*
X170852841Y-39232829D02*
X170757603Y-39185210D01*
X170757603Y-39185210D02*
X170709984Y-39137591D01*
X170709984Y-39137591D02*
X170662365Y-39042353D01*
X170662365Y-39042353D02*
X170662365Y-38947115D01*
X170662365Y-38947115D02*
X170709984Y-38851877D01*
X170709984Y-38851877D02*
X170757603Y-38804258D01*
X170757603Y-38804258D02*
X170852841Y-38756639D01*
X170852841Y-38756639D02*
X171090936Y-38756639D01*
X171090936Y-38756639D02*
X171233793Y-38804258D01*
X171995698Y-39232829D02*
X172138555Y-39280448D01*
X172138555Y-39280448D02*
X172186174Y-39328067D01*
X172186174Y-39328067D02*
X172233793Y-39423305D01*
X172233793Y-39423305D02*
X172233793Y-39566162D01*
X172233793Y-39566162D02*
X172186174Y-39661400D01*
X172186174Y-39661400D02*
X172138555Y-39709020D01*
X172138555Y-39709020D02*
X172043317Y-39756639D01*
X172043317Y-39756639D02*
X171662365Y-39756639D01*
X171662365Y-39756639D02*
X171662365Y-38756639D01*
X171662365Y-38756639D02*
X171995698Y-38756639D01*
X171995698Y-38756639D02*
X172090936Y-38804258D01*
X172090936Y-38804258D02*
X172138555Y-38851877D01*
X172138555Y-38851877D02*
X172186174Y-38947115D01*
X172186174Y-38947115D02*
X172186174Y-39042353D01*
X172186174Y-39042353D02*
X172138555Y-39137591D01*
X172138555Y-39137591D02*
X172090936Y-39185210D01*
X172090936Y-39185210D02*
X171995698Y-39232829D01*
X171995698Y-39232829D02*
X171662365Y-39232829D01*
X173186174Y-39756639D02*
X172614746Y-39756639D01*
X172900460Y-39756639D02*
X172900460Y-38756639D01*
X172900460Y-38756639D02*
X172805222Y-38899496D01*
X172805222Y-38899496D02*
X172709984Y-38994734D01*
X172709984Y-38994734D02*
X172614746Y-39042353D01*
X196337602Y-52463839D02*
X196004269Y-51987648D01*
X195766174Y-52463839D02*
X195766174Y-51463839D01*
X195766174Y-51463839D02*
X196147126Y-51463839D01*
X196147126Y-51463839D02*
X196242364Y-51511458D01*
X196242364Y-51511458D02*
X196289983Y-51559077D01*
X196289983Y-51559077D02*
X196337602Y-51654315D01*
X196337602Y-51654315D02*
X196337602Y-51797172D01*
X196337602Y-51797172D02*
X196289983Y-51892410D01*
X196289983Y-51892410D02*
X196242364Y-51940029D01*
X196242364Y-51940029D02*
X196147126Y-51987648D01*
X196147126Y-51987648D02*
X195766174Y-51987648D01*
X196670936Y-51463839D02*
X197289983Y-51463839D01*
X197289983Y-51463839D02*
X196956650Y-51844791D01*
X196956650Y-51844791D02*
X197099507Y-51844791D01*
X197099507Y-51844791D02*
X197194745Y-51892410D01*
X197194745Y-51892410D02*
X197242364Y-51940029D01*
X197242364Y-51940029D02*
X197289983Y-52035267D01*
X197289983Y-52035267D02*
X197289983Y-52273362D01*
X197289983Y-52273362D02*
X197242364Y-52368600D01*
X197242364Y-52368600D02*
X197194745Y-52416220D01*
X197194745Y-52416220D02*
X197099507Y-52463839D01*
X197099507Y-52463839D02*
X196813793Y-52463839D01*
X196813793Y-52463839D02*
X196718555Y-52416220D01*
X196718555Y-52416220D02*
X196670936Y-52368600D01*
X198242364Y-52463839D02*
X197670936Y-52463839D01*
X197956650Y-52463839D02*
X197956650Y-51463839D01*
X197956650Y-51463839D02*
X197861412Y-51606696D01*
X197861412Y-51606696D02*
X197766174Y-51701934D01*
X197766174Y-51701934D02*
X197670936Y-51749553D01*
X208494759Y-81236206D02*
X208018568Y-81569539D01*
X208494759Y-81807634D02*
X207494759Y-81807634D01*
X207494759Y-81807634D02*
X207494759Y-81426682D01*
X207494759Y-81426682D02*
X207542378Y-81331444D01*
X207542378Y-81331444D02*
X207589997Y-81283825D01*
X207589997Y-81283825D02*
X207685235Y-81236206D01*
X207685235Y-81236206D02*
X207828092Y-81236206D01*
X207828092Y-81236206D02*
X207923330Y-81283825D01*
X207923330Y-81283825D02*
X207970949Y-81331444D01*
X207970949Y-81331444D02*
X208018568Y-81426682D01*
X208018568Y-81426682D02*
X208018568Y-81807634D01*
X207923330Y-80664777D02*
X207875711Y-80760015D01*
X207875711Y-80760015D02*
X207828092Y-80807634D01*
X207828092Y-80807634D02*
X207732854Y-80855253D01*
X207732854Y-80855253D02*
X207685235Y-80855253D01*
X207685235Y-80855253D02*
X207589997Y-80807634D01*
X207589997Y-80807634D02*
X207542378Y-80760015D01*
X207542378Y-80760015D02*
X207494759Y-80664777D01*
X207494759Y-80664777D02*
X207494759Y-80474301D01*
X207494759Y-80474301D02*
X207542378Y-80379063D01*
X207542378Y-80379063D02*
X207589997Y-80331444D01*
X207589997Y-80331444D02*
X207685235Y-80283825D01*
X207685235Y-80283825D02*
X207732854Y-80283825D01*
X207732854Y-80283825D02*
X207828092Y-80331444D01*
X207828092Y-80331444D02*
X207875711Y-80379063D01*
X207875711Y-80379063D02*
X207923330Y-80474301D01*
X207923330Y-80474301D02*
X207923330Y-80664777D01*
X207923330Y-80664777D02*
X207970949Y-80760015D01*
X207970949Y-80760015D02*
X208018568Y-80807634D01*
X208018568Y-80807634D02*
X208113806Y-80855253D01*
X208113806Y-80855253D02*
X208304282Y-80855253D01*
X208304282Y-80855253D02*
X208399520Y-80807634D01*
X208399520Y-80807634D02*
X208447140Y-80760015D01*
X208447140Y-80760015D02*
X208494759Y-80664777D01*
X208494759Y-80664777D02*
X208494759Y-80474301D01*
X208494759Y-80474301D02*
X208447140Y-80379063D01*
X208447140Y-80379063D02*
X208399520Y-80331444D01*
X208399520Y-80331444D02*
X208304282Y-80283825D01*
X208304282Y-80283825D02*
X208113806Y-80283825D01*
X208113806Y-80283825D02*
X208018568Y-80331444D01*
X208018568Y-80331444D02*
X207970949Y-80379063D01*
X207970949Y-80379063D02*
X207923330Y-80474301D01*
X193479520Y-82046206D02*
X193527140Y-82093825D01*
X193527140Y-82093825D02*
X193574759Y-82236682D01*
X193574759Y-82236682D02*
X193574759Y-82331920D01*
X193574759Y-82331920D02*
X193527140Y-82474777D01*
X193527140Y-82474777D02*
X193431901Y-82570015D01*
X193431901Y-82570015D02*
X193336663Y-82617634D01*
X193336663Y-82617634D02*
X193146187Y-82665253D01*
X193146187Y-82665253D02*
X193003330Y-82665253D01*
X193003330Y-82665253D02*
X192812854Y-82617634D01*
X192812854Y-82617634D02*
X192717616Y-82570015D01*
X192717616Y-82570015D02*
X192622378Y-82474777D01*
X192622378Y-82474777D02*
X192574759Y-82331920D01*
X192574759Y-82331920D02*
X192574759Y-82236682D01*
X192574759Y-82236682D02*
X192622378Y-82093825D01*
X192622378Y-82093825D02*
X192669997Y-82046206D01*
X193574759Y-81570015D02*
X193574759Y-81379539D01*
X193574759Y-81379539D02*
X193527140Y-81284301D01*
X193527140Y-81284301D02*
X193479520Y-81236682D01*
X193479520Y-81236682D02*
X193336663Y-81141444D01*
X193336663Y-81141444D02*
X193146187Y-81093825D01*
X193146187Y-81093825D02*
X192765235Y-81093825D01*
X192765235Y-81093825D02*
X192669997Y-81141444D01*
X192669997Y-81141444D02*
X192622378Y-81189063D01*
X192622378Y-81189063D02*
X192574759Y-81284301D01*
X192574759Y-81284301D02*
X192574759Y-81474777D01*
X192574759Y-81474777D02*
X192622378Y-81570015D01*
X192622378Y-81570015D02*
X192669997Y-81617634D01*
X192669997Y-81617634D02*
X192765235Y-81665253D01*
X192765235Y-81665253D02*
X193003330Y-81665253D01*
X193003330Y-81665253D02*
X193098568Y-81617634D01*
X193098568Y-81617634D02*
X193146187Y-81570015D01*
X193146187Y-81570015D02*
X193193806Y-81474777D01*
X193193806Y-81474777D02*
X193193806Y-81284301D01*
X193193806Y-81284301D02*
X193146187Y-81189063D01*
X193146187Y-81189063D02*
X193098568Y-81141444D01*
X193098568Y-81141444D02*
X193003330Y-81093825D01*
X144744759Y-46342397D02*
X144268568Y-46675730D01*
X144744759Y-46913825D02*
X143744759Y-46913825D01*
X143744759Y-46913825D02*
X143744759Y-46532873D01*
X143744759Y-46532873D02*
X143792378Y-46437635D01*
X143792378Y-46437635D02*
X143839997Y-46390016D01*
X143839997Y-46390016D02*
X143935235Y-46342397D01*
X143935235Y-46342397D02*
X144078092Y-46342397D01*
X144078092Y-46342397D02*
X144173330Y-46390016D01*
X144173330Y-46390016D02*
X144220949Y-46437635D01*
X144220949Y-46437635D02*
X144268568Y-46532873D01*
X144268568Y-46532873D02*
X144268568Y-46913825D01*
X143744759Y-46009063D02*
X143744759Y-45390016D01*
X143744759Y-45390016D02*
X144125711Y-45723349D01*
X144125711Y-45723349D02*
X144125711Y-45580492D01*
X144125711Y-45580492D02*
X144173330Y-45485254D01*
X144173330Y-45485254D02*
X144220949Y-45437635D01*
X144220949Y-45437635D02*
X144316187Y-45390016D01*
X144316187Y-45390016D02*
X144554282Y-45390016D01*
X144554282Y-45390016D02*
X144649520Y-45437635D01*
X144649520Y-45437635D02*
X144697140Y-45485254D01*
X144697140Y-45485254D02*
X144744759Y-45580492D01*
X144744759Y-45580492D02*
X144744759Y-45866206D01*
X144744759Y-45866206D02*
X144697140Y-45961444D01*
X144697140Y-45961444D02*
X144649520Y-46009063D01*
X143744759Y-44532873D02*
X143744759Y-44723349D01*
X143744759Y-44723349D02*
X143792378Y-44818587D01*
X143792378Y-44818587D02*
X143839997Y-44866206D01*
X143839997Y-44866206D02*
X143982854Y-44961444D01*
X143982854Y-44961444D02*
X144173330Y-45009063D01*
X144173330Y-45009063D02*
X144554282Y-45009063D01*
X144554282Y-45009063D02*
X144649520Y-44961444D01*
X144649520Y-44961444D02*
X144697140Y-44913825D01*
X144697140Y-44913825D02*
X144744759Y-44818587D01*
X144744759Y-44818587D02*
X144744759Y-44628111D01*
X144744759Y-44628111D02*
X144697140Y-44532873D01*
X144697140Y-44532873D02*
X144649520Y-44485254D01*
X144649520Y-44485254D02*
X144554282Y-44437635D01*
X144554282Y-44437635D02*
X144316187Y-44437635D01*
X144316187Y-44437635D02*
X144220949Y-44485254D01*
X144220949Y-44485254D02*
X144173330Y-44532873D01*
X144173330Y-44532873D02*
X144125711Y-44628111D01*
X144125711Y-44628111D02*
X144125711Y-44818587D01*
X144125711Y-44818587D02*
X144173330Y-44913825D01*
X144173330Y-44913825D02*
X144220949Y-44961444D01*
X144220949Y-44961444D02*
X144316187Y-45009063D01*
X183287602Y-81653839D02*
X182954269Y-81177648D01*
X182716174Y-81653839D02*
X182716174Y-80653839D01*
X182716174Y-80653839D02*
X183097126Y-80653839D01*
X183097126Y-80653839D02*
X183192364Y-80701458D01*
X183192364Y-80701458D02*
X183239983Y-80749077D01*
X183239983Y-80749077D02*
X183287602Y-80844315D01*
X183287602Y-80844315D02*
X183287602Y-80987172D01*
X183287602Y-80987172D02*
X183239983Y-81082410D01*
X183239983Y-81082410D02*
X183192364Y-81130029D01*
X183192364Y-81130029D02*
X183097126Y-81177648D01*
X183097126Y-81177648D02*
X182716174Y-81177648D01*
X184239983Y-81653839D02*
X183668555Y-81653839D01*
X183954269Y-81653839D02*
X183954269Y-80653839D01*
X183954269Y-80653839D02*
X183859031Y-80796696D01*
X183859031Y-80796696D02*
X183763793Y-80891934D01*
X183763793Y-80891934D02*
X183668555Y-80939553D01*
X185144745Y-80653839D02*
X184668555Y-80653839D01*
X184668555Y-80653839D02*
X184620936Y-81130029D01*
X184620936Y-81130029D02*
X184668555Y-81082410D01*
X184668555Y-81082410D02*
X184763793Y-81034791D01*
X184763793Y-81034791D02*
X185001888Y-81034791D01*
X185001888Y-81034791D02*
X185097126Y-81082410D01*
X185097126Y-81082410D02*
X185144745Y-81130029D01*
X185144745Y-81130029D02*
X185192364Y-81225267D01*
X185192364Y-81225267D02*
X185192364Y-81463362D01*
X185192364Y-81463362D02*
X185144745Y-81558600D01*
X185144745Y-81558600D02*
X185097126Y-81606220D01*
X185097126Y-81606220D02*
X185001888Y-81653839D01*
X185001888Y-81653839D02*
X184763793Y-81653839D01*
X184763793Y-81653839D02*
X184668555Y-81606220D01*
X184668555Y-81606220D02*
X184620936Y-81558600D01*
X199407602Y-40578600D02*
X199359983Y-40626220D01*
X199359983Y-40626220D02*
X199217126Y-40673839D01*
X199217126Y-40673839D02*
X199121888Y-40673839D01*
X199121888Y-40673839D02*
X198979031Y-40626220D01*
X198979031Y-40626220D02*
X198883793Y-40530981D01*
X198883793Y-40530981D02*
X198836174Y-40435743D01*
X198836174Y-40435743D02*
X198788555Y-40245267D01*
X198788555Y-40245267D02*
X198788555Y-40102410D01*
X198788555Y-40102410D02*
X198836174Y-39911934D01*
X198836174Y-39911934D02*
X198883793Y-39816696D01*
X198883793Y-39816696D02*
X198979031Y-39721458D01*
X198979031Y-39721458D02*
X199121888Y-39673839D01*
X199121888Y-39673839D02*
X199217126Y-39673839D01*
X199217126Y-39673839D02*
X199359983Y-39721458D01*
X199359983Y-39721458D02*
X199407602Y-39769077D01*
X199740936Y-39673839D02*
X200359983Y-39673839D01*
X200359983Y-39673839D02*
X200026650Y-40054791D01*
X200026650Y-40054791D02*
X200169507Y-40054791D01*
X200169507Y-40054791D02*
X200264745Y-40102410D01*
X200264745Y-40102410D02*
X200312364Y-40150029D01*
X200312364Y-40150029D02*
X200359983Y-40245267D01*
X200359983Y-40245267D02*
X200359983Y-40483362D01*
X200359983Y-40483362D02*
X200312364Y-40578600D01*
X200312364Y-40578600D02*
X200264745Y-40626220D01*
X200264745Y-40626220D02*
X200169507Y-40673839D01*
X200169507Y-40673839D02*
X199883793Y-40673839D01*
X199883793Y-40673839D02*
X199788555Y-40626220D01*
X199788555Y-40626220D02*
X199740936Y-40578600D01*
X200740936Y-39769077D02*
X200788555Y-39721458D01*
X200788555Y-39721458D02*
X200883793Y-39673839D01*
X200883793Y-39673839D02*
X201121888Y-39673839D01*
X201121888Y-39673839D02*
X201217126Y-39721458D01*
X201217126Y-39721458D02*
X201264745Y-39769077D01*
X201264745Y-39769077D02*
X201312364Y-39864315D01*
X201312364Y-39864315D02*
X201312364Y-39959553D01*
X201312364Y-39959553D02*
X201264745Y-40102410D01*
X201264745Y-40102410D02*
X200693317Y-40673839D01*
X200693317Y-40673839D02*
X201312364Y-40673839D01*
X178133793Y-39763839D02*
X177800460Y-39287648D01*
X177562365Y-39763839D02*
X177562365Y-38763839D01*
X177562365Y-38763839D02*
X177943317Y-38763839D01*
X177943317Y-38763839D02*
X178038555Y-38811458D01*
X178038555Y-38811458D02*
X178086174Y-38859077D01*
X178086174Y-38859077D02*
X178133793Y-38954315D01*
X178133793Y-38954315D02*
X178133793Y-39097172D01*
X178133793Y-39097172D02*
X178086174Y-39192410D01*
X178086174Y-39192410D02*
X178038555Y-39240029D01*
X178038555Y-39240029D02*
X177943317Y-39287648D01*
X177943317Y-39287648D02*
X177562365Y-39287648D01*
X178514746Y-38859077D02*
X178562365Y-38811458D01*
X178562365Y-38811458D02*
X178657603Y-38763839D01*
X178657603Y-38763839D02*
X178895698Y-38763839D01*
X178895698Y-38763839D02*
X178990936Y-38811458D01*
X178990936Y-38811458D02*
X179038555Y-38859077D01*
X179038555Y-38859077D02*
X179086174Y-38954315D01*
X179086174Y-38954315D02*
X179086174Y-39049553D01*
X179086174Y-39049553D02*
X179038555Y-39192410D01*
X179038555Y-39192410D02*
X178467127Y-39763839D01*
X178467127Y-39763839D02*
X179086174Y-39763839D01*
X191844759Y-85512397D02*
X191368568Y-85845730D01*
X191844759Y-86083825D02*
X190844759Y-86083825D01*
X190844759Y-86083825D02*
X190844759Y-85702873D01*
X190844759Y-85702873D02*
X190892378Y-85607635D01*
X190892378Y-85607635D02*
X190939997Y-85560016D01*
X190939997Y-85560016D02*
X191035235Y-85512397D01*
X191035235Y-85512397D02*
X191178092Y-85512397D01*
X191178092Y-85512397D02*
X191273330Y-85560016D01*
X191273330Y-85560016D02*
X191320949Y-85607635D01*
X191320949Y-85607635D02*
X191368568Y-85702873D01*
X191368568Y-85702873D02*
X191368568Y-86083825D01*
X191844759Y-84560016D02*
X191844759Y-85131444D01*
X191844759Y-84845730D02*
X190844759Y-84845730D01*
X190844759Y-84845730D02*
X190987616Y-84940968D01*
X190987616Y-84940968D02*
X191082854Y-85036206D01*
X191082854Y-85036206D02*
X191130473Y-85131444D01*
X190939997Y-84179063D02*
X190892378Y-84131444D01*
X190892378Y-84131444D02*
X190844759Y-84036206D01*
X190844759Y-84036206D02*
X190844759Y-83798111D01*
X190844759Y-83798111D02*
X190892378Y-83702873D01*
X190892378Y-83702873D02*
X190939997Y-83655254D01*
X190939997Y-83655254D02*
X191035235Y-83607635D01*
X191035235Y-83607635D02*
X191130473Y-83607635D01*
X191130473Y-83607635D02*
X191273330Y-83655254D01*
X191273330Y-83655254D02*
X191844759Y-84226682D01*
X191844759Y-84226682D02*
X191844759Y-83607635D01*
X169419520Y-44451006D02*
X169467140Y-44498625D01*
X169467140Y-44498625D02*
X169514759Y-44641482D01*
X169514759Y-44641482D02*
X169514759Y-44736720D01*
X169514759Y-44736720D02*
X169467140Y-44879577D01*
X169467140Y-44879577D02*
X169371901Y-44974815D01*
X169371901Y-44974815D02*
X169276663Y-45022434D01*
X169276663Y-45022434D02*
X169086187Y-45070053D01*
X169086187Y-45070053D02*
X168943330Y-45070053D01*
X168943330Y-45070053D02*
X168752854Y-45022434D01*
X168752854Y-45022434D02*
X168657616Y-44974815D01*
X168657616Y-44974815D02*
X168562378Y-44879577D01*
X168562378Y-44879577D02*
X168514759Y-44736720D01*
X168514759Y-44736720D02*
X168514759Y-44641482D01*
X168514759Y-44641482D02*
X168562378Y-44498625D01*
X168562378Y-44498625D02*
X168609997Y-44451006D01*
X169514759Y-43498625D02*
X169514759Y-44070053D01*
X169514759Y-43784339D02*
X168514759Y-43784339D01*
X168514759Y-43784339D02*
X168657616Y-43879577D01*
X168657616Y-43879577D02*
X168752854Y-43974815D01*
X168752854Y-43974815D02*
X168800473Y-44070053D01*
D11*
X197458555Y-86714359D02*
X197458555Y-87523882D01*
X197458555Y-87523882D02*
X197506174Y-87619120D01*
X197506174Y-87619120D02*
X197553793Y-87666740D01*
X197553793Y-87666740D02*
X197649031Y-87714359D01*
X197649031Y-87714359D02*
X197839507Y-87714359D01*
X197839507Y-87714359D02*
X197934745Y-87666740D01*
X197934745Y-87666740D02*
X197982364Y-87619120D01*
X197982364Y-87619120D02*
X198029983Y-87523882D01*
X198029983Y-87523882D02*
X198029983Y-86714359D01*
X198410936Y-86714359D02*
X199029983Y-86714359D01*
X199029983Y-86714359D02*
X198696650Y-87095311D01*
X198696650Y-87095311D02*
X198839507Y-87095311D01*
X198839507Y-87095311D02*
X198934745Y-87142930D01*
X198934745Y-87142930D02*
X198982364Y-87190549D01*
X198982364Y-87190549D02*
X199029983Y-87285787D01*
X199029983Y-87285787D02*
X199029983Y-87523882D01*
X199029983Y-87523882D02*
X198982364Y-87619120D01*
X198982364Y-87619120D02*
X198934745Y-87666740D01*
X198934745Y-87666740D02*
X198839507Y-87714359D01*
X198839507Y-87714359D02*
X198553793Y-87714359D01*
X198553793Y-87714359D02*
X198458555Y-87666740D01*
X198458555Y-87666740D02*
X198410936Y-87619120D01*
D10*
X197438555Y-86703839D02*
X197438555Y-87513362D01*
X197438555Y-87513362D02*
X197486174Y-87608600D01*
X197486174Y-87608600D02*
X197533793Y-87656220D01*
X197533793Y-87656220D02*
X197629031Y-87703839D01*
X197629031Y-87703839D02*
X197819507Y-87703839D01*
X197819507Y-87703839D02*
X197914745Y-87656220D01*
X197914745Y-87656220D02*
X197962364Y-87608600D01*
X197962364Y-87608600D02*
X198009983Y-87513362D01*
X198009983Y-87513362D02*
X198009983Y-86703839D01*
X198390936Y-86703839D02*
X199009983Y-86703839D01*
X199009983Y-86703839D02*
X198676650Y-87084791D01*
X198676650Y-87084791D02*
X198819507Y-87084791D01*
X198819507Y-87084791D02*
X198914745Y-87132410D01*
X198914745Y-87132410D02*
X198962364Y-87180029D01*
X198962364Y-87180029D02*
X199009983Y-87275267D01*
X199009983Y-87275267D02*
X199009983Y-87513362D01*
X199009983Y-87513362D02*
X198962364Y-87608600D01*
X198962364Y-87608600D02*
X198914745Y-87656220D01*
X198914745Y-87656220D02*
X198819507Y-87703839D01*
X198819507Y-87703839D02*
X198533793Y-87703839D01*
X198533793Y-87703839D02*
X198438555Y-87656220D01*
X198438555Y-87656220D02*
X198390936Y-87608600D01*
X138767520Y-84085397D02*
X138815140Y-84133016D01*
X138815140Y-84133016D02*
X138862759Y-84275873D01*
X138862759Y-84275873D02*
X138862759Y-84371111D01*
X138862759Y-84371111D02*
X138815140Y-84513968D01*
X138815140Y-84513968D02*
X138719901Y-84609206D01*
X138719901Y-84609206D02*
X138624663Y-84656825D01*
X138624663Y-84656825D02*
X138434187Y-84704444D01*
X138434187Y-84704444D02*
X138291330Y-84704444D01*
X138291330Y-84704444D02*
X138100854Y-84656825D01*
X138100854Y-84656825D02*
X138005616Y-84609206D01*
X138005616Y-84609206D02*
X137910378Y-84513968D01*
X137910378Y-84513968D02*
X137862759Y-84371111D01*
X137862759Y-84371111D02*
X137862759Y-84275873D01*
X137862759Y-84275873D02*
X137910378Y-84133016D01*
X137910378Y-84133016D02*
X137957997Y-84085397D01*
X137862759Y-83752063D02*
X137862759Y-83133016D01*
X137862759Y-83133016D02*
X138243711Y-83466349D01*
X138243711Y-83466349D02*
X138243711Y-83323492D01*
X138243711Y-83323492D02*
X138291330Y-83228254D01*
X138291330Y-83228254D02*
X138338949Y-83180635D01*
X138338949Y-83180635D02*
X138434187Y-83133016D01*
X138434187Y-83133016D02*
X138672282Y-83133016D01*
X138672282Y-83133016D02*
X138767520Y-83180635D01*
X138767520Y-83180635D02*
X138815140Y-83228254D01*
X138815140Y-83228254D02*
X138862759Y-83323492D01*
X138862759Y-83323492D02*
X138862759Y-83609206D01*
X138862759Y-83609206D02*
X138815140Y-83704444D01*
X138815140Y-83704444D02*
X138767520Y-83752063D01*
X137862759Y-82513968D02*
X137862759Y-82418730D01*
X137862759Y-82418730D02*
X137910378Y-82323492D01*
X137910378Y-82323492D02*
X137957997Y-82275873D01*
X137957997Y-82275873D02*
X138053235Y-82228254D01*
X138053235Y-82228254D02*
X138243711Y-82180635D01*
X138243711Y-82180635D02*
X138481806Y-82180635D01*
X138481806Y-82180635D02*
X138672282Y-82228254D01*
X138672282Y-82228254D02*
X138767520Y-82275873D01*
X138767520Y-82275873D02*
X138815140Y-82323492D01*
X138815140Y-82323492D02*
X138862759Y-82418730D01*
X138862759Y-82418730D02*
X138862759Y-82513968D01*
X138862759Y-82513968D02*
X138815140Y-82609206D01*
X138815140Y-82609206D02*
X138767520Y-82656825D01*
X138767520Y-82656825D02*
X138672282Y-82704444D01*
X138672282Y-82704444D02*
X138481806Y-82752063D01*
X138481806Y-82752063D02*
X138243711Y-82752063D01*
X138243711Y-82752063D02*
X138053235Y-82704444D01*
X138053235Y-82704444D02*
X137957997Y-82656825D01*
X137957997Y-82656825D02*
X137910378Y-82609206D01*
X137910378Y-82609206D02*
X137862759Y-82513968D01*
X146227602Y-42108600D02*
X146179983Y-42156220D01*
X146179983Y-42156220D02*
X146037126Y-42203839D01*
X146037126Y-42203839D02*
X145941888Y-42203839D01*
X145941888Y-42203839D02*
X145799031Y-42156220D01*
X145799031Y-42156220D02*
X145703793Y-42060981D01*
X145703793Y-42060981D02*
X145656174Y-41965743D01*
X145656174Y-41965743D02*
X145608555Y-41775267D01*
X145608555Y-41775267D02*
X145608555Y-41632410D01*
X145608555Y-41632410D02*
X145656174Y-41441934D01*
X145656174Y-41441934D02*
X145703793Y-41346696D01*
X145703793Y-41346696D02*
X145799031Y-41251458D01*
X145799031Y-41251458D02*
X145941888Y-41203839D01*
X145941888Y-41203839D02*
X146037126Y-41203839D01*
X146037126Y-41203839D02*
X146179983Y-41251458D01*
X146179983Y-41251458D02*
X146227602Y-41299077D01*
X146608555Y-41299077D02*
X146656174Y-41251458D01*
X146656174Y-41251458D02*
X146751412Y-41203839D01*
X146751412Y-41203839D02*
X146989507Y-41203839D01*
X146989507Y-41203839D02*
X147084745Y-41251458D01*
X147084745Y-41251458D02*
X147132364Y-41299077D01*
X147132364Y-41299077D02*
X147179983Y-41394315D01*
X147179983Y-41394315D02*
X147179983Y-41489553D01*
X147179983Y-41489553D02*
X147132364Y-41632410D01*
X147132364Y-41632410D02*
X146560936Y-42203839D01*
X146560936Y-42203839D02*
X147179983Y-42203839D01*
X147560936Y-41299077D02*
X147608555Y-41251458D01*
X147608555Y-41251458D02*
X147703793Y-41203839D01*
X147703793Y-41203839D02*
X147941888Y-41203839D01*
X147941888Y-41203839D02*
X148037126Y-41251458D01*
X148037126Y-41251458D02*
X148084745Y-41299077D01*
X148084745Y-41299077D02*
X148132364Y-41394315D01*
X148132364Y-41394315D02*
X148132364Y-41489553D01*
X148132364Y-41489553D02*
X148084745Y-41632410D01*
X148084745Y-41632410D02*
X147513317Y-42203839D01*
X147513317Y-42203839D02*
X148132364Y-42203839D01*
X164327602Y-80828600D02*
X164279983Y-80876220D01*
X164279983Y-80876220D02*
X164137126Y-80923839D01*
X164137126Y-80923839D02*
X164041888Y-80923839D01*
X164041888Y-80923839D02*
X163899031Y-80876220D01*
X163899031Y-80876220D02*
X163803793Y-80780981D01*
X163803793Y-80780981D02*
X163756174Y-80685743D01*
X163756174Y-80685743D02*
X163708555Y-80495267D01*
X163708555Y-80495267D02*
X163708555Y-80352410D01*
X163708555Y-80352410D02*
X163756174Y-80161934D01*
X163756174Y-80161934D02*
X163803793Y-80066696D01*
X163803793Y-80066696D02*
X163899031Y-79971458D01*
X163899031Y-79971458D02*
X164041888Y-79923839D01*
X164041888Y-79923839D02*
X164137126Y-79923839D01*
X164137126Y-79923839D02*
X164279983Y-79971458D01*
X164279983Y-79971458D02*
X164327602Y-80019077D01*
X165279983Y-80923839D02*
X164708555Y-80923839D01*
X164994269Y-80923839D02*
X164994269Y-79923839D01*
X164994269Y-79923839D02*
X164899031Y-80066696D01*
X164899031Y-80066696D02*
X164803793Y-80161934D01*
X164803793Y-80161934D02*
X164708555Y-80209553D01*
X166184745Y-79923839D02*
X165708555Y-79923839D01*
X165708555Y-79923839D02*
X165660936Y-80400029D01*
X165660936Y-80400029D02*
X165708555Y-80352410D01*
X165708555Y-80352410D02*
X165803793Y-80304791D01*
X165803793Y-80304791D02*
X166041888Y-80304791D01*
X166041888Y-80304791D02*
X166137126Y-80352410D01*
X166137126Y-80352410D02*
X166184745Y-80400029D01*
X166184745Y-80400029D02*
X166232364Y-80495267D01*
X166232364Y-80495267D02*
X166232364Y-80733362D01*
X166232364Y-80733362D02*
X166184745Y-80828600D01*
X166184745Y-80828600D02*
X166137126Y-80876220D01*
X166137126Y-80876220D02*
X166041888Y-80923839D01*
X166041888Y-80923839D02*
X165803793Y-80923839D01*
X165803793Y-80923839D02*
X165708555Y-80876220D01*
X165708555Y-80876220D02*
X165660936Y-80828600D01*
X200462365Y-91433839D02*
X200462365Y-90433839D01*
X200462365Y-90433839D02*
X200700460Y-90433839D01*
X200700460Y-90433839D02*
X200843317Y-90481458D01*
X200843317Y-90481458D02*
X200938555Y-90576696D01*
X200938555Y-90576696D02*
X200986174Y-90671934D01*
X200986174Y-90671934D02*
X201033793Y-90862410D01*
X201033793Y-90862410D02*
X201033793Y-91005267D01*
X201033793Y-91005267D02*
X200986174Y-91195743D01*
X200986174Y-91195743D02*
X200938555Y-91290981D01*
X200938555Y-91290981D02*
X200843317Y-91386220D01*
X200843317Y-91386220D02*
X200700460Y-91433839D01*
X200700460Y-91433839D02*
X200462365Y-91433839D01*
X201938555Y-90433839D02*
X201462365Y-90433839D01*
X201462365Y-90433839D02*
X201414746Y-90910029D01*
X201414746Y-90910029D02*
X201462365Y-90862410D01*
X201462365Y-90862410D02*
X201557603Y-90814791D01*
X201557603Y-90814791D02*
X201795698Y-90814791D01*
X201795698Y-90814791D02*
X201890936Y-90862410D01*
X201890936Y-90862410D02*
X201938555Y-90910029D01*
X201938555Y-90910029D02*
X201986174Y-91005267D01*
X201986174Y-91005267D02*
X201986174Y-91243362D01*
X201986174Y-91243362D02*
X201938555Y-91338600D01*
X201938555Y-91338600D02*
X201890936Y-91386220D01*
X201890936Y-91386220D02*
X201795698Y-91433839D01*
X201795698Y-91433839D02*
X201557603Y-91433839D01*
X201557603Y-91433839D02*
X201462365Y-91386220D01*
X201462365Y-91386220D02*
X201414746Y-91338600D01*
D11*
X139763793Y-38994359D02*
X139287603Y-38994359D01*
X139287603Y-38994359D02*
X139287603Y-37994359D01*
X140049508Y-38089597D02*
X140097127Y-38041978D01*
X140097127Y-38041978D02*
X140192365Y-37994359D01*
X140192365Y-37994359D02*
X140430460Y-37994359D01*
X140430460Y-37994359D02*
X140525698Y-38041978D01*
X140525698Y-38041978D02*
X140573317Y-38089597D01*
X140573317Y-38089597D02*
X140620936Y-38184835D01*
X140620936Y-38184835D02*
X140620936Y-38280073D01*
X140620936Y-38280073D02*
X140573317Y-38422930D01*
X140573317Y-38422930D02*
X140001889Y-38994359D01*
X140001889Y-38994359D02*
X140620936Y-38994359D01*
D10*
X139743793Y-38993839D02*
X139267603Y-38993839D01*
X139267603Y-38993839D02*
X139267603Y-37993839D01*
X140029508Y-38089077D02*
X140077127Y-38041458D01*
X140077127Y-38041458D02*
X140172365Y-37993839D01*
X140172365Y-37993839D02*
X140410460Y-37993839D01*
X140410460Y-37993839D02*
X140505698Y-38041458D01*
X140505698Y-38041458D02*
X140553317Y-38089077D01*
X140553317Y-38089077D02*
X140600936Y-38184315D01*
X140600936Y-38184315D02*
X140600936Y-38279553D01*
X140600936Y-38279553D02*
X140553317Y-38422410D01*
X140553317Y-38422410D02*
X139981889Y-38993839D01*
X139981889Y-38993839D02*
X140600936Y-38993839D01*
X162927602Y-82978600D02*
X162879983Y-83026220D01*
X162879983Y-83026220D02*
X162737126Y-83073839D01*
X162737126Y-83073839D02*
X162641888Y-83073839D01*
X162641888Y-83073839D02*
X162499031Y-83026220D01*
X162499031Y-83026220D02*
X162403793Y-82930981D01*
X162403793Y-82930981D02*
X162356174Y-82835743D01*
X162356174Y-82835743D02*
X162308555Y-82645267D01*
X162308555Y-82645267D02*
X162308555Y-82502410D01*
X162308555Y-82502410D02*
X162356174Y-82311934D01*
X162356174Y-82311934D02*
X162403793Y-82216696D01*
X162403793Y-82216696D02*
X162499031Y-82121458D01*
X162499031Y-82121458D02*
X162641888Y-82073839D01*
X162641888Y-82073839D02*
X162737126Y-82073839D01*
X162737126Y-82073839D02*
X162879983Y-82121458D01*
X162879983Y-82121458D02*
X162927602Y-82169077D01*
X163879983Y-83073839D02*
X163308555Y-83073839D01*
X163594269Y-83073839D02*
X163594269Y-82073839D01*
X163594269Y-82073839D02*
X163499031Y-82216696D01*
X163499031Y-82216696D02*
X163403793Y-82311934D01*
X163403793Y-82311934D02*
X163308555Y-82359553D01*
X164737126Y-82407172D02*
X164737126Y-83073839D01*
X164499031Y-82026220D02*
X164260936Y-82740505D01*
X164260936Y-82740505D02*
X164879983Y-82740505D01*
D11*
X200213793Y-38784359D02*
X199737603Y-38784359D01*
X199737603Y-38784359D02*
X199737603Y-37784359D01*
X200451889Y-37784359D02*
X201070936Y-37784359D01*
X201070936Y-37784359D02*
X200737603Y-38165311D01*
X200737603Y-38165311D02*
X200880460Y-38165311D01*
X200880460Y-38165311D02*
X200975698Y-38212930D01*
X200975698Y-38212930D02*
X201023317Y-38260549D01*
X201023317Y-38260549D02*
X201070936Y-38355787D01*
X201070936Y-38355787D02*
X201070936Y-38593882D01*
X201070936Y-38593882D02*
X201023317Y-38689120D01*
X201023317Y-38689120D02*
X200975698Y-38736740D01*
X200975698Y-38736740D02*
X200880460Y-38784359D01*
X200880460Y-38784359D02*
X200594746Y-38784359D01*
X200594746Y-38784359D02*
X200499508Y-38736740D01*
X200499508Y-38736740D02*
X200451889Y-38689120D01*
D10*
X200233793Y-38753839D02*
X199757603Y-38753839D01*
X199757603Y-38753839D02*
X199757603Y-37753839D01*
X200471889Y-37753839D02*
X201090936Y-37753839D01*
X201090936Y-37753839D02*
X200757603Y-38134791D01*
X200757603Y-38134791D02*
X200900460Y-38134791D01*
X200900460Y-38134791D02*
X200995698Y-38182410D01*
X200995698Y-38182410D02*
X201043317Y-38230029D01*
X201043317Y-38230029D02*
X201090936Y-38325267D01*
X201090936Y-38325267D02*
X201090936Y-38563362D01*
X201090936Y-38563362D02*
X201043317Y-38658600D01*
X201043317Y-38658600D02*
X200995698Y-38706220D01*
X200995698Y-38706220D02*
X200900460Y-38753839D01*
X200900460Y-38753839D02*
X200614746Y-38753839D01*
X200614746Y-38753839D02*
X200519508Y-38706220D01*
X200519508Y-38706220D02*
X200471889Y-38658600D01*
X159707602Y-38154600D02*
X159659983Y-38202220D01*
X159659983Y-38202220D02*
X159517126Y-38249839D01*
X159517126Y-38249839D02*
X159421888Y-38249839D01*
X159421888Y-38249839D02*
X159279031Y-38202220D01*
X159279031Y-38202220D02*
X159183793Y-38106981D01*
X159183793Y-38106981D02*
X159136174Y-38011743D01*
X159136174Y-38011743D02*
X159088555Y-37821267D01*
X159088555Y-37821267D02*
X159088555Y-37678410D01*
X159088555Y-37678410D02*
X159136174Y-37487934D01*
X159136174Y-37487934D02*
X159183793Y-37392696D01*
X159183793Y-37392696D02*
X159279031Y-37297458D01*
X159279031Y-37297458D02*
X159421888Y-37249839D01*
X159421888Y-37249839D02*
X159517126Y-37249839D01*
X159517126Y-37249839D02*
X159659983Y-37297458D01*
X159659983Y-37297458D02*
X159707602Y-37345077D01*
X160659983Y-38249839D02*
X160088555Y-38249839D01*
X160374269Y-38249839D02*
X160374269Y-37249839D01*
X160374269Y-37249839D02*
X160279031Y-37392696D01*
X160279031Y-37392696D02*
X160183793Y-37487934D01*
X160183793Y-37487934D02*
X160088555Y-37535553D01*
X161136174Y-38249839D02*
X161326650Y-38249839D01*
X161326650Y-38249839D02*
X161421888Y-38202220D01*
X161421888Y-38202220D02*
X161469507Y-38154600D01*
X161469507Y-38154600D02*
X161564745Y-38011743D01*
X161564745Y-38011743D02*
X161612364Y-37821267D01*
X161612364Y-37821267D02*
X161612364Y-37440315D01*
X161612364Y-37440315D02*
X161564745Y-37345077D01*
X161564745Y-37345077D02*
X161517126Y-37297458D01*
X161517126Y-37297458D02*
X161421888Y-37249839D01*
X161421888Y-37249839D02*
X161231412Y-37249839D01*
X161231412Y-37249839D02*
X161136174Y-37297458D01*
X161136174Y-37297458D02*
X161088555Y-37345077D01*
X161088555Y-37345077D02*
X161040936Y-37440315D01*
X161040936Y-37440315D02*
X161040936Y-37678410D01*
X161040936Y-37678410D02*
X161088555Y-37773648D01*
X161088555Y-37773648D02*
X161136174Y-37821267D01*
X161136174Y-37821267D02*
X161231412Y-37868886D01*
X161231412Y-37868886D02*
X161421888Y-37868886D01*
X161421888Y-37868886D02*
X161517126Y-37821267D01*
X161517126Y-37821267D02*
X161564745Y-37773648D01*
X161564745Y-37773648D02*
X161612364Y-37678410D01*
X150942602Y-41693839D02*
X150609269Y-41217648D01*
X150371174Y-41693839D02*
X150371174Y-40693839D01*
X150371174Y-40693839D02*
X150752126Y-40693839D01*
X150752126Y-40693839D02*
X150847364Y-40741458D01*
X150847364Y-40741458D02*
X150894983Y-40789077D01*
X150894983Y-40789077D02*
X150942602Y-40884315D01*
X150942602Y-40884315D02*
X150942602Y-41027172D01*
X150942602Y-41027172D02*
X150894983Y-41122410D01*
X150894983Y-41122410D02*
X150847364Y-41170029D01*
X150847364Y-41170029D02*
X150752126Y-41217648D01*
X150752126Y-41217648D02*
X150371174Y-41217648D01*
X151275936Y-40693839D02*
X151894983Y-40693839D01*
X151894983Y-40693839D02*
X151561650Y-41074791D01*
X151561650Y-41074791D02*
X151704507Y-41074791D01*
X151704507Y-41074791D02*
X151799745Y-41122410D01*
X151799745Y-41122410D02*
X151847364Y-41170029D01*
X151847364Y-41170029D02*
X151894983Y-41265267D01*
X151894983Y-41265267D02*
X151894983Y-41503362D01*
X151894983Y-41503362D02*
X151847364Y-41598600D01*
X151847364Y-41598600D02*
X151799745Y-41646220D01*
X151799745Y-41646220D02*
X151704507Y-41693839D01*
X151704507Y-41693839D02*
X151418793Y-41693839D01*
X151418793Y-41693839D02*
X151323555Y-41646220D01*
X151323555Y-41646220D02*
X151275936Y-41598600D01*
X152228317Y-40693839D02*
X152847364Y-40693839D01*
X152847364Y-40693839D02*
X152514031Y-41074791D01*
X152514031Y-41074791D02*
X152656888Y-41074791D01*
X152656888Y-41074791D02*
X152752126Y-41122410D01*
X152752126Y-41122410D02*
X152799745Y-41170029D01*
X152799745Y-41170029D02*
X152847364Y-41265267D01*
X152847364Y-41265267D02*
X152847364Y-41503362D01*
X152847364Y-41503362D02*
X152799745Y-41598600D01*
X152799745Y-41598600D02*
X152752126Y-41646220D01*
X152752126Y-41646220D02*
X152656888Y-41693839D01*
X152656888Y-41693839D02*
X152371174Y-41693839D01*
X152371174Y-41693839D02*
X152275936Y-41646220D01*
X152275936Y-41646220D02*
X152228317Y-41598600D01*
X142587602Y-40888600D02*
X142539983Y-40936220D01*
X142539983Y-40936220D02*
X142397126Y-40983839D01*
X142397126Y-40983839D02*
X142301888Y-40983839D01*
X142301888Y-40983839D02*
X142159031Y-40936220D01*
X142159031Y-40936220D02*
X142063793Y-40840981D01*
X142063793Y-40840981D02*
X142016174Y-40745743D01*
X142016174Y-40745743D02*
X141968555Y-40555267D01*
X141968555Y-40555267D02*
X141968555Y-40412410D01*
X141968555Y-40412410D02*
X142016174Y-40221934D01*
X142016174Y-40221934D02*
X142063793Y-40126696D01*
X142063793Y-40126696D02*
X142159031Y-40031458D01*
X142159031Y-40031458D02*
X142301888Y-39983839D01*
X142301888Y-39983839D02*
X142397126Y-39983839D01*
X142397126Y-39983839D02*
X142539983Y-40031458D01*
X142539983Y-40031458D02*
X142587602Y-40079077D01*
X142920936Y-39983839D02*
X143539983Y-39983839D01*
X143539983Y-39983839D02*
X143206650Y-40364791D01*
X143206650Y-40364791D02*
X143349507Y-40364791D01*
X143349507Y-40364791D02*
X143444745Y-40412410D01*
X143444745Y-40412410D02*
X143492364Y-40460029D01*
X143492364Y-40460029D02*
X143539983Y-40555267D01*
X143539983Y-40555267D02*
X143539983Y-40793362D01*
X143539983Y-40793362D02*
X143492364Y-40888600D01*
X143492364Y-40888600D02*
X143444745Y-40936220D01*
X143444745Y-40936220D02*
X143349507Y-40983839D01*
X143349507Y-40983839D02*
X143063793Y-40983839D01*
X143063793Y-40983839D02*
X142968555Y-40936220D01*
X142968555Y-40936220D02*
X142920936Y-40888600D01*
X143873317Y-39983839D02*
X144492364Y-39983839D01*
X144492364Y-39983839D02*
X144159031Y-40364791D01*
X144159031Y-40364791D02*
X144301888Y-40364791D01*
X144301888Y-40364791D02*
X144397126Y-40412410D01*
X144397126Y-40412410D02*
X144444745Y-40460029D01*
X144444745Y-40460029D02*
X144492364Y-40555267D01*
X144492364Y-40555267D02*
X144492364Y-40793362D01*
X144492364Y-40793362D02*
X144444745Y-40888600D01*
X144444745Y-40888600D02*
X144397126Y-40936220D01*
X144397126Y-40936220D02*
X144301888Y-40983839D01*
X144301888Y-40983839D02*
X144016174Y-40983839D01*
X144016174Y-40983839D02*
X143920936Y-40936220D01*
X143920936Y-40936220D02*
X143873317Y-40888600D01*
D11*
X213605279Y-79906063D02*
X212605279Y-79906063D01*
X212605279Y-79906063D02*
X213319564Y-79572730D01*
X213319564Y-79572730D02*
X212605279Y-79239397D01*
X212605279Y-79239397D02*
X213605279Y-79239397D01*
X213605279Y-78239397D02*
X213605279Y-78810825D01*
X213605279Y-78525111D02*
X212605279Y-78525111D01*
X212605279Y-78525111D02*
X212748136Y-78620349D01*
X212748136Y-78620349D02*
X212843374Y-78715587D01*
X212843374Y-78715587D02*
X212890993Y-78810825D01*
D10*
X213594759Y-79959523D02*
X212594759Y-79959523D01*
X212594759Y-79959523D02*
X213309044Y-79626190D01*
X213309044Y-79626190D02*
X212594759Y-79292857D01*
X212594759Y-79292857D02*
X213594759Y-79292857D01*
X213594759Y-78292857D02*
X213594759Y-78864285D01*
X213594759Y-78578571D02*
X212594759Y-78578571D01*
X212594759Y-78578571D02*
X212737616Y-78673809D01*
X212737616Y-78673809D02*
X212832854Y-78769047D01*
X212832854Y-78769047D02*
X212880473Y-78864285D01*
D12*
X215449176Y-82208244D02*
X214482510Y-82884911D01*
X215449176Y-83368244D02*
X213419176Y-83368244D01*
X213419176Y-83368244D02*
X213419176Y-82594911D01*
X213419176Y-82594911D02*
X213515843Y-82401578D01*
X213515843Y-82401578D02*
X213612510Y-82304911D01*
X213612510Y-82304911D02*
X213805843Y-82208244D01*
X213805843Y-82208244D02*
X214095843Y-82208244D01*
X214095843Y-82208244D02*
X214289176Y-82304911D01*
X214289176Y-82304911D02*
X214385843Y-82401578D01*
X214385843Y-82401578D02*
X214482510Y-82594911D01*
X214482510Y-82594911D02*
X214482510Y-83368244D01*
X214935843Y-75501118D02*
X215032510Y-75211118D01*
X215032510Y-75211118D02*
X215129176Y-75114451D01*
X215129176Y-75114451D02*
X215322510Y-75017784D01*
X215322510Y-75017784D02*
X215612510Y-75017784D01*
X215612510Y-75017784D02*
X215805843Y-75114451D01*
X215805843Y-75114451D02*
X215902510Y-75211118D01*
X215902510Y-75211118D02*
X215999176Y-75404451D01*
X215999176Y-75404451D02*
X215999176Y-76177784D01*
X215999176Y-76177784D02*
X213969176Y-76177784D01*
X213969176Y-76177784D02*
X213969176Y-75501118D01*
X213969176Y-75501118D02*
X214065843Y-75307784D01*
X214065843Y-75307784D02*
X214162510Y-75211118D01*
X214162510Y-75211118D02*
X214355843Y-75114451D01*
X214355843Y-75114451D02*
X214549176Y-75114451D01*
X214549176Y-75114451D02*
X214742510Y-75211118D01*
X214742510Y-75211118D02*
X214839176Y-75307784D01*
X214839176Y-75307784D02*
X214935843Y-75501118D01*
X214935843Y-75501118D02*
X214935843Y-76177784D01*
D10*
X199347602Y-42038600D02*
X199299983Y-42086220D01*
X199299983Y-42086220D02*
X199157126Y-42133839D01*
X199157126Y-42133839D02*
X199061888Y-42133839D01*
X199061888Y-42133839D02*
X198919031Y-42086220D01*
X198919031Y-42086220D02*
X198823793Y-41990981D01*
X198823793Y-41990981D02*
X198776174Y-41895743D01*
X198776174Y-41895743D02*
X198728555Y-41705267D01*
X198728555Y-41705267D02*
X198728555Y-41562410D01*
X198728555Y-41562410D02*
X198776174Y-41371934D01*
X198776174Y-41371934D02*
X198823793Y-41276696D01*
X198823793Y-41276696D02*
X198919031Y-41181458D01*
X198919031Y-41181458D02*
X199061888Y-41133839D01*
X199061888Y-41133839D02*
X199157126Y-41133839D01*
X199157126Y-41133839D02*
X199299983Y-41181458D01*
X199299983Y-41181458D02*
X199347602Y-41229077D01*
X199680936Y-41133839D02*
X200299983Y-41133839D01*
X200299983Y-41133839D02*
X199966650Y-41514791D01*
X199966650Y-41514791D02*
X200109507Y-41514791D01*
X200109507Y-41514791D02*
X200204745Y-41562410D01*
X200204745Y-41562410D02*
X200252364Y-41610029D01*
X200252364Y-41610029D02*
X200299983Y-41705267D01*
X200299983Y-41705267D02*
X200299983Y-41943362D01*
X200299983Y-41943362D02*
X200252364Y-42038600D01*
X200252364Y-42038600D02*
X200204745Y-42086220D01*
X200204745Y-42086220D02*
X200109507Y-42133839D01*
X200109507Y-42133839D02*
X199823793Y-42133839D01*
X199823793Y-42133839D02*
X199728555Y-42086220D01*
X199728555Y-42086220D02*
X199680936Y-42038600D01*
X201157126Y-41133839D02*
X200966650Y-41133839D01*
X200966650Y-41133839D02*
X200871412Y-41181458D01*
X200871412Y-41181458D02*
X200823793Y-41229077D01*
X200823793Y-41229077D02*
X200728555Y-41371934D01*
X200728555Y-41371934D02*
X200680936Y-41562410D01*
X200680936Y-41562410D02*
X200680936Y-41943362D01*
X200680936Y-41943362D02*
X200728555Y-42038600D01*
X200728555Y-42038600D02*
X200776174Y-42086220D01*
X200776174Y-42086220D02*
X200871412Y-42133839D01*
X200871412Y-42133839D02*
X201061888Y-42133839D01*
X201061888Y-42133839D02*
X201157126Y-42086220D01*
X201157126Y-42086220D02*
X201204745Y-42038600D01*
X201204745Y-42038600D02*
X201252364Y-41943362D01*
X201252364Y-41943362D02*
X201252364Y-41705267D01*
X201252364Y-41705267D02*
X201204745Y-41610029D01*
X201204745Y-41610029D02*
X201157126Y-41562410D01*
X201157126Y-41562410D02*
X201061888Y-41514791D01*
X201061888Y-41514791D02*
X200871412Y-41514791D01*
X200871412Y-41514791D02*
X200776174Y-41562410D01*
X200776174Y-41562410D02*
X200728555Y-41610029D01*
X200728555Y-41610029D02*
X200680936Y-41705267D01*
X176413793Y-44408600D02*
X176366174Y-44456220D01*
X176366174Y-44456220D02*
X176223317Y-44503839D01*
X176223317Y-44503839D02*
X176128079Y-44503839D01*
X176128079Y-44503839D02*
X175985222Y-44456220D01*
X175985222Y-44456220D02*
X175889984Y-44360981D01*
X175889984Y-44360981D02*
X175842365Y-44265743D01*
X175842365Y-44265743D02*
X175794746Y-44075267D01*
X175794746Y-44075267D02*
X175794746Y-43932410D01*
X175794746Y-43932410D02*
X175842365Y-43741934D01*
X175842365Y-43741934D02*
X175889984Y-43646696D01*
X175889984Y-43646696D02*
X175985222Y-43551458D01*
X175985222Y-43551458D02*
X176128079Y-43503839D01*
X176128079Y-43503839D02*
X176223317Y-43503839D01*
X176223317Y-43503839D02*
X176366174Y-43551458D01*
X176366174Y-43551458D02*
X176413793Y-43599077D01*
X176794746Y-43599077D02*
X176842365Y-43551458D01*
X176842365Y-43551458D02*
X176937603Y-43503839D01*
X176937603Y-43503839D02*
X177175698Y-43503839D01*
X177175698Y-43503839D02*
X177270936Y-43551458D01*
X177270936Y-43551458D02*
X177318555Y-43599077D01*
X177318555Y-43599077D02*
X177366174Y-43694315D01*
X177366174Y-43694315D02*
X177366174Y-43789553D01*
X177366174Y-43789553D02*
X177318555Y-43932410D01*
X177318555Y-43932410D02*
X176747127Y-44503839D01*
X176747127Y-44503839D02*
X177366174Y-44503839D01*
X153807602Y-44773839D02*
X153474269Y-44297648D01*
X153236174Y-44773839D02*
X153236174Y-43773839D01*
X153236174Y-43773839D02*
X153617126Y-43773839D01*
X153617126Y-43773839D02*
X153712364Y-43821458D01*
X153712364Y-43821458D02*
X153759983Y-43869077D01*
X153759983Y-43869077D02*
X153807602Y-43964315D01*
X153807602Y-43964315D02*
X153807602Y-44107172D01*
X153807602Y-44107172D02*
X153759983Y-44202410D01*
X153759983Y-44202410D02*
X153712364Y-44250029D01*
X153712364Y-44250029D02*
X153617126Y-44297648D01*
X153617126Y-44297648D02*
X153236174Y-44297648D01*
X154140936Y-43773839D02*
X154759983Y-43773839D01*
X154759983Y-43773839D02*
X154426650Y-44154791D01*
X154426650Y-44154791D02*
X154569507Y-44154791D01*
X154569507Y-44154791D02*
X154664745Y-44202410D01*
X154664745Y-44202410D02*
X154712364Y-44250029D01*
X154712364Y-44250029D02*
X154759983Y-44345267D01*
X154759983Y-44345267D02*
X154759983Y-44583362D01*
X154759983Y-44583362D02*
X154712364Y-44678600D01*
X154712364Y-44678600D02*
X154664745Y-44726220D01*
X154664745Y-44726220D02*
X154569507Y-44773839D01*
X154569507Y-44773839D02*
X154283793Y-44773839D01*
X154283793Y-44773839D02*
X154188555Y-44726220D01*
X154188555Y-44726220D02*
X154140936Y-44678600D01*
X155617126Y-44107172D02*
X155617126Y-44773839D01*
X155379031Y-43726220D02*
X155140936Y-44440505D01*
X155140936Y-44440505D02*
X155759983Y-44440505D01*
%TO.C,R30*%
D13*
X130813202Y-63352040D02*
X131287718Y-63352040D01*
X130813202Y-62307040D02*
X131287718Y-62307040D01*
%TO.C,D6*%
X195080460Y-87899540D02*
X195080460Y-86899540D01*
%TO.C,C25*%
X151380460Y-46091704D02*
X151380460Y-46307376D01*
X152100460Y-46091704D02*
X152100460Y-46307376D01*
%TO.C,C31*%
X195392624Y-39889540D02*
X195608296Y-39889540D01*
X195392624Y-40609540D02*
X195608296Y-40609540D01*
%TO.C,CN1*%
D14*
X138449460Y-42414340D02*
X138449460Y-42674340D01*
X138449460Y-43874340D02*
X138449460Y-43944340D01*
X138449460Y-45144340D02*
X138449460Y-45214340D01*
X138449460Y-46414340D02*
X138449460Y-46484340D01*
X138449460Y-47684340D02*
X138449460Y-47754340D01*
X138449460Y-48954340D02*
X138449460Y-49214340D01*
X138449460Y-49214340D02*
X141349460Y-49214340D01*
X141349460Y-49214340D02*
X141449460Y-49114340D01*
X141449460Y-42414340D02*
X138449460Y-42414340D01*
X141449460Y-42674340D02*
X141449460Y-42414340D01*
X141449460Y-43944340D02*
X141449460Y-43874340D01*
X141449460Y-45214340D02*
X141449460Y-45144340D01*
X141449460Y-46484340D02*
X141449460Y-46414340D01*
X141449460Y-47754340D02*
X141449460Y-47684340D01*
X141449460Y-49114340D02*
X141449460Y-48954340D01*
D15*
X137579460Y-42444340D02*
G75*
G02*
X137519460Y-42444340I-30000J0D01*
G01*
X137519460Y-42444340D02*
G75*
G02*
X137579460Y-42444340I30000J0D01*
G01*
D14*
X137909460Y-42134340D02*
G75*
G02*
X137409460Y-42134340I-250000J0D01*
G01*
X137409460Y-42134340D02*
G75*
G02*
X137909460Y-42134340I250000J0D01*
G01*
%TO.C,R14*%
D13*
X180738202Y-82072040D02*
X181212718Y-82072040D01*
X180738202Y-83117040D02*
X181212718Y-83117040D01*
%TO.C,C10*%
X200572624Y-83669540D02*
X200788296Y-83669540D01*
X200572624Y-84389540D02*
X200788296Y-84389540D01*
%TO.C,R1*%
X164687718Y-40167040D02*
X164213202Y-40167040D01*
X164687718Y-41212040D02*
X164213202Y-41212040D01*
%TO.C,R16*%
X167437960Y-80957282D02*
X167437960Y-81431798D01*
X168482960Y-80957282D02*
X168482960Y-81431798D01*
%TO.C,R11*%
X199662718Y-82097040D02*
X199188202Y-82097040D01*
X199662718Y-83142040D02*
X199188202Y-83142040D01*
%TO.C,C34*%
X196872624Y-48889540D02*
X197088296Y-48889540D01*
X196872624Y-49609540D02*
X197088296Y-49609540D01*
%TO.C,U2*%
X169802960Y-45417040D02*
X169852960Y-45417040D01*
X169802960Y-47237040D02*
X169802960Y-45417040D01*
X169852960Y-47237040D02*
X169802960Y-47237040D01*
X172872960Y-45417040D02*
X172922960Y-45417040D01*
X172922960Y-45417040D02*
X172922960Y-47237040D01*
X172922960Y-47237040D02*
X172872960Y-47237040D01*
X172872960Y-44877040D02*
X173202960Y-44637040D01*
X173202960Y-45117040D01*
X172872960Y-44877040D01*
G36*
X173202960Y-45117040D02*
G01*
X172872960Y-44877040D01*
X173202960Y-44637040D01*
X173202960Y-45117040D01*
G37*
%TO.C,R32*%
X193377718Y-42957040D02*
X192903202Y-42957040D01*
X193377718Y-44002040D02*
X192903202Y-44002040D01*
%TO.C,C23*%
X193560460Y-46841704D02*
X193560460Y-47057376D01*
X194280460Y-46841704D02*
X194280460Y-47057376D01*
%TO.C,C20*%
X194628296Y-41149540D02*
X194412624Y-41149540D01*
X194628296Y-41869540D02*
X194412624Y-41869540D01*
%TO.C,C24*%
X150220460Y-46081704D02*
X150220460Y-46297376D01*
X150940460Y-46081704D02*
X150940460Y-46297376D01*
%TO.C,M3*%
D14*
X141600460Y-85954540D02*
X146680460Y-85954540D01*
X141600460Y-88494540D02*
X141600460Y-85954540D01*
X146680460Y-85954540D02*
X146680460Y-88494540D01*
X146680460Y-88494540D02*
X141600460Y-88494540D01*
D15*
X146710460Y-85954540D02*
G75*
G02*
X146650460Y-85954540I-30000J0D01*
G01*
X146650460Y-85954540D02*
G75*
G02*
X146710460Y-85954540I30000J0D01*
G01*
%TO.C,M2*%
D14*
X128392460Y-76302540D02*
X130932460Y-76302540D01*
X128392460Y-81382540D02*
X128392460Y-76302540D01*
X130932460Y-76302540D02*
X130932460Y-81382540D01*
X130932460Y-81382540D02*
X128392460Y-81382540D01*
D15*
X128422460Y-76302540D02*
G75*
G02*
X128362460Y-76302540I-30000J0D01*
G01*
X128362460Y-76302540D02*
G75*
G02*
X128422460Y-76302540I30000J0D01*
G01*
%TO.C,R17*%
D13*
X169187960Y-80967282D02*
X169187960Y-81441798D01*
X170232960Y-80967282D02*
X170232960Y-81441798D01*
%TO.C,C3*%
X167540460Y-46622176D02*
X167540460Y-46406504D01*
X168260460Y-46622176D02*
X168260460Y-46406504D01*
%TO.C,R19*%
X174913202Y-45067040D02*
X175387718Y-45067040D01*
X174913202Y-46112040D02*
X175387718Y-46112040D01*
%TO.C,R18*%
X174913202Y-46667040D02*
X175387718Y-46667040D01*
X174913202Y-47712040D02*
X175387718Y-47712040D01*
%TO.C,R29*%
X192037960Y-45607282D02*
X192037960Y-46081798D01*
X193082960Y-45607282D02*
X193082960Y-46081798D01*
%TO.C,R9*%
X193897960Y-84632282D02*
X193897960Y-85106798D01*
X194942960Y-84632282D02*
X194942960Y-85106798D01*
%TO.C,U6*%
D16*
X203650460Y-83994540D02*
X203800460Y-83994540D01*
X203650460Y-85794540D02*
X203650460Y-83994540D01*
X203650460Y-85794540D02*
X203800460Y-85794540D01*
X204700460Y-83994540D02*
X204750460Y-83994540D01*
X204700460Y-85794540D02*
X205700460Y-85794540D01*
X205650460Y-83994540D02*
X205700460Y-83994540D01*
X206600460Y-83994540D02*
X206750460Y-83994540D01*
X206600460Y-85794540D02*
X206750460Y-85794540D01*
X206750460Y-85794540D02*
X206750460Y-83994540D01*
D15*
X206680460Y-83494540D02*
G75*
G02*
X206620460Y-83494540I-30000J0D01*
G01*
X206620460Y-83494540D02*
G75*
G02*
X206680460Y-83494540I30000J0D01*
G01*
D17*
%TO.C,BT2*%
D14*
X134060260Y-58561140D02*
X211140260Y-58561140D01*
X134060260Y-79261140D02*
X134060260Y-58561140D01*
X145930260Y-68911140D02*
X143640260Y-68911140D01*
X200410260Y-70051140D02*
X200410260Y-67771140D01*
X201560260Y-68911140D02*
X199270260Y-68911140D01*
X211140260Y-58561140D02*
X211140260Y-79261140D01*
X211140260Y-79261140D02*
X134060260Y-79261140D01*
D15*
X129610260Y-79261140D02*
G75*
G02*
X129550260Y-79261140I-30000J0D01*
G01*
X129550260Y-79261140D02*
G75*
G02*
X129610260Y-79261140I30000J0D01*
G01*
D14*
X146390260Y-68911140D02*
G75*
G02*
X143190260Y-68911140I-1600000J0D01*
G01*
X143190260Y-68911140D02*
G75*
G02*
X146390260Y-68911140I1600000J0D01*
G01*
X202010260Y-68911140D02*
G75*
G02*
X198810260Y-68911140I-1600000J0D01*
G01*
X198810260Y-68911140D02*
G75*
G02*
X202010260Y-68911140I1600000J0D01*
G01*
%TO.C,R43*%
D13*
X144030202Y-80098040D02*
X144504718Y-80098040D01*
X144030202Y-81143040D02*
X144504718Y-81143040D01*
%TO.C,C35*%
X148132624Y-50059540D02*
X148348296Y-50059540D01*
X148132624Y-50779540D02*
X148348296Y-50779540D01*
%TO.C,C8*%
X205090460Y-81116704D02*
X205090460Y-81332376D01*
X205810460Y-81116704D02*
X205810460Y-81332376D01*
%TO.C,R13*%
X199637718Y-80397040D02*
X199163202Y-80397040D01*
X199637718Y-81442040D02*
X199163202Y-81442040D01*
%TO.C,R35*%
X151328202Y-47557040D02*
X151802718Y-47557040D01*
X151328202Y-48602040D02*
X151802718Y-48602040D01*
%TO.C,D1*%
X161570460Y-49994340D02*
X161570460Y-44484340D01*
X161570460Y-49994340D02*
X164870460Y-49994340D01*
X164870460Y-49994340D02*
X164870460Y-44484340D01*
%TO.C,U16*%
D14*
X164734860Y-83968540D02*
X164734860Y-85158540D01*
X164734860Y-87418540D02*
X164734860Y-88668540D01*
X164734860Y-88668540D02*
X181374860Y-88668540D01*
X166894860Y-83968540D02*
X164734860Y-83968540D01*
X181374860Y-83968540D02*
X179184860Y-83968540D01*
X181374860Y-85158540D02*
X181374860Y-83968540D01*
X181374860Y-87418540D02*
X181374860Y-88668540D01*
D15*
X165034860Y-83438540D02*
G75*
G02*
X164974860Y-83438540I-30000J0D01*
G01*
X164974860Y-83438540D02*
G75*
G02*
X165034860Y-83438540I30000J0D01*
G01*
D17*
G36*
X166894827Y-83461505D02*
G01*
X166513827Y-83715505D01*
X166513827Y-83207505D01*
X166894827Y-83461505D01*
G37*
%TO.C,C21*%
D13*
X138732624Y-40159540D02*
X138948296Y-40159540D01*
X138732624Y-40879540D02*
X138948296Y-40879540D01*
%TO.C,C17*%
X148606460Y-83334704D02*
X148606460Y-83550376D01*
X149326460Y-83334704D02*
X149326460Y-83550376D01*
%TO.C,R28*%
X193387718Y-48537040D02*
X192913202Y-48537040D01*
X193387718Y-49582040D02*
X192913202Y-49582040D01*
%TO.C,C18*%
X154588296Y-37829540D02*
X154372624Y-37829540D01*
X154588296Y-38549540D02*
X154372624Y-38549540D01*
%TO.C,U11*%
X142530460Y-81931540D02*
X145750460Y-81931540D01*
X142530460Y-82131540D02*
X142530460Y-81931540D01*
X142530460Y-85151540D02*
X142530460Y-84951540D01*
X145750460Y-81931540D02*
X145750460Y-82131540D01*
X145750460Y-84951540D02*
X145750460Y-85151540D01*
X145750460Y-85151540D02*
X142530460Y-85151540D01*
X141980460Y-82131540D02*
X141740460Y-81801540D01*
X142220460Y-81801540D01*
X141980460Y-82131540D01*
G36*
X141980460Y-82131540D02*
G01*
X141740460Y-81801540D01*
X142220460Y-81801540D01*
X141980460Y-82131540D01*
G37*
%TO.C,CN3*%
D14*
X202330460Y-42644340D02*
X202330460Y-42904340D01*
X202330460Y-44104340D02*
X202330460Y-44174340D01*
X202330460Y-45374340D02*
X202330460Y-45444340D01*
X202330460Y-46644340D02*
X202330460Y-46714340D01*
X202330460Y-47914340D02*
X202330460Y-47984340D01*
X202330460Y-49184340D02*
X202330460Y-49444340D01*
X202330460Y-49444340D02*
X205230460Y-49444340D01*
X205230460Y-49444340D02*
X205330460Y-49344340D01*
X205330460Y-42644340D02*
X202330460Y-42644340D01*
X205330460Y-42904340D02*
X205330460Y-42644340D01*
X205330460Y-44174340D02*
X205330460Y-44104340D01*
X205330460Y-45444340D02*
X205330460Y-45374340D01*
X205330460Y-46714340D02*
X205330460Y-46644340D01*
X205330460Y-47984340D02*
X205330460Y-47914340D01*
X205330460Y-49344340D02*
X205330460Y-49184340D01*
D15*
X201460460Y-42674340D02*
G75*
G02*
X201400460Y-42674340I-30000J0D01*
G01*
X201400460Y-42674340D02*
G75*
G02*
X201460460Y-42674340I30000J0D01*
G01*
D14*
X201790460Y-42364340D02*
G75*
G02*
X201290460Y-42364340I-250000J0D01*
G01*
X201290460Y-42364340D02*
G75*
G02*
X201790460Y-42364340I250000J0D01*
G01*
%TO.C,U12*%
D11*
X155478460Y-37409540D02*
X155728460Y-37409540D01*
X155478460Y-38159540D02*
X155478460Y-37409540D01*
X155478460Y-39819540D02*
X155478460Y-40569540D01*
X155478460Y-40569540D02*
X155728460Y-40569540D01*
X158138460Y-37409540D02*
X157888460Y-37409540D01*
X158138460Y-38159540D02*
X158138460Y-37409540D01*
X158138460Y-39819540D02*
X158138460Y-40569540D01*
X158138460Y-40569540D02*
X157888460Y-40569540D01*
D15*
X155588460Y-40489540D02*
G75*
G02*
X155528460Y-40489540I-30000J0D01*
G01*
X155528460Y-40489540D02*
G75*
G02*
X155588460Y-40489540I30000J0D01*
G01*
D11*
X156128460Y-40769540D02*
G75*
G02*
X155968460Y-40769540I-80000J0D01*
G01*
X155968460Y-40769540D02*
G75*
G02*
X156128460Y-40769540I80000J0D01*
G01*
%TO.C,L1*%
X165210460Y-42924340D02*
X165360460Y-42774340D01*
X165210460Y-44404340D02*
X165210460Y-42924340D01*
X165210460Y-46264340D02*
X165210460Y-47744340D01*
X165210460Y-47744340D02*
X165360460Y-47894340D01*
X165360460Y-42774340D02*
X167240460Y-42774340D01*
X165360460Y-47894340D02*
X167240460Y-47894340D01*
X167240460Y-42774340D02*
X167390460Y-42924340D01*
X167240460Y-47894340D02*
X167390460Y-47744340D01*
X167390460Y-42924340D02*
X167390460Y-44404340D01*
X167390460Y-47744340D02*
X167390460Y-46264340D01*
D15*
X165530460Y-43734340D02*
G75*
G02*
X165470460Y-43734340I-30000J0D01*
G01*
X165470460Y-43734340D02*
G75*
G02*
X165530460Y-43734340I30000J0D01*
G01*
%TO.C,R10*%
D13*
X200918202Y-85137040D02*
X201392718Y-85137040D01*
X200918202Y-86182040D02*
X201392718Y-86182040D01*
%TO.C,USB1*%
D14*
X166830460Y-34472340D02*
X166830460Y-35952340D01*
X166830460Y-37902340D02*
X166830460Y-39902340D01*
X166900460Y-34332340D02*
X175900460Y-34332340D01*
X175900460Y-34332340D02*
X175900460Y-35942340D01*
X175900460Y-37912340D02*
X175900460Y-39892340D01*
D15*
X175880460Y-41952340D02*
G75*
G02*
X175820460Y-41952340I-30000J0D01*
G01*
X175820460Y-41952340D02*
G75*
G02*
X175880460Y-41952340I30000J0D01*
G01*
%TO.C,R31*%
D13*
X196668202Y-50047040D02*
X197142718Y-50047040D01*
X196668202Y-51092040D02*
X197142718Y-51092040D01*
%TO.C,R8*%
X202663202Y-80422040D02*
X203137718Y-80422040D01*
X202663202Y-81467040D02*
X203137718Y-81467040D01*
%TO.C,C9*%
X194848296Y-81809540D02*
X194632624Y-81809540D01*
X194848296Y-82529540D02*
X194632624Y-82529540D01*
%TO.C,R36*%
X143637960Y-48636798D02*
X143637960Y-48162282D01*
X144682960Y-48636798D02*
X144682960Y-48162282D01*
%TO.C,R15*%
X181237718Y-80422040D02*
X180763202Y-80422040D01*
X181237718Y-81467040D02*
X180763202Y-81467040D01*
%TO.C,C32*%
X197728296Y-39899540D02*
X197512624Y-39899540D01*
X197728296Y-40619540D02*
X197512624Y-40619540D01*
%TO.C,R2*%
X178063202Y-40217040D02*
X178537718Y-40217040D01*
X178063202Y-41262040D02*
X178537718Y-41262040D01*
%TO.C,R12*%
X192197960Y-84632282D02*
X192197960Y-85106798D01*
X193242960Y-84632282D02*
X193242960Y-85106798D01*
%TO.C,C1*%
X167540460Y-44176504D02*
X167540460Y-44392176D01*
X168260460Y-44176504D02*
X168260460Y-44392176D01*
%TO.C,U3*%
D11*
X196530460Y-84189540D02*
X198690460Y-84189540D01*
X198690460Y-86349540D02*
X196530460Y-86349540D01*
D12*
X196288060Y-84469540D02*
G75*
G02*
X196088060Y-84469540I-100000J0D01*
G01*
X196088060Y-84469540D02*
G75*
G02*
X196288060Y-84469540I100000J0D01*
G01*
D15*
X196640460Y-84269540D02*
G75*
G02*
X196580460Y-84269540I-30000J0D01*
G01*
X196580460Y-84269540D02*
G75*
G02*
X196640460Y-84269540I30000J0D01*
G01*
%TO.C,C30*%
D13*
X139208460Y-83550376D02*
X139208460Y-83334704D01*
X139928460Y-83550376D02*
X139928460Y-83334704D01*
%TO.C,C22*%
X146978296Y-40229540D02*
X146762624Y-40229540D01*
X146978296Y-40949540D02*
X146762624Y-40949540D01*
%TO.C,C15*%
X165953296Y-81219540D02*
X165737624Y-81219540D01*
X165953296Y-81939540D02*
X165737624Y-81939540D01*
%TO.C,D5*%
X199800460Y-87229540D02*
X199800460Y-88229540D01*
%TO.C,L2*%
D11*
X137350460Y-37599540D02*
X137500460Y-37449540D01*
X137350460Y-39479540D02*
X137350460Y-37599540D01*
X137500460Y-37449540D02*
X138980460Y-37449540D01*
X137500460Y-39629540D02*
X137350460Y-39479540D01*
X138980460Y-39629540D02*
X137500460Y-39629540D01*
X140840460Y-39629540D02*
X142320460Y-39629540D01*
X142320460Y-37449540D02*
X140840460Y-37449540D01*
X142320460Y-39629540D02*
X142470460Y-39479540D01*
X142470460Y-37599540D02*
X142320460Y-37449540D01*
X142470460Y-39479540D02*
X142470460Y-37599540D01*
D15*
X138340460Y-39339540D02*
G75*
G02*
X138280460Y-39339540I-30000J0D01*
G01*
X138280460Y-39339540D02*
G75*
G02*
X138340460Y-39339540I30000J0D01*
G01*
%TO.C,C14*%
D13*
X165903296Y-82379540D02*
X165687624Y-82379540D01*
X165903296Y-83099540D02*
X165687624Y-83099540D01*
%TO.C,L3*%
D11*
X194080460Y-37359540D02*
X194230460Y-37209540D01*
X194080460Y-39239540D02*
X194080460Y-37359540D01*
X194230460Y-37209540D02*
X195710460Y-37209540D01*
X194230460Y-39389540D02*
X194080460Y-39239540D01*
X195710460Y-39389540D02*
X194230460Y-39389540D01*
X197570460Y-39389540D02*
X199050460Y-39389540D01*
X199050460Y-37209540D02*
X197570460Y-37209540D01*
X199050460Y-39389540D02*
X199200460Y-39239540D01*
X199200460Y-37359540D02*
X199050460Y-37209540D01*
X199200460Y-39239540D02*
X199200460Y-37359540D01*
D15*
X195070460Y-39099540D02*
G75*
G02*
X195010460Y-39099540I-30000J0D01*
G01*
X195010460Y-39099540D02*
G75*
G02*
X195070460Y-39099540I30000J0D01*
G01*
%TO.C,C19*%
D13*
X159962624Y-38595540D02*
X160178296Y-38595540D01*
X159962624Y-39315540D02*
X160178296Y-39315540D01*
%TO.C,R33*%
X151348202Y-42147040D02*
X151822718Y-42147040D01*
X151348202Y-43192040D02*
X151822718Y-43192040D01*
%TO.C,C33*%
X141068296Y-40159540D02*
X140852624Y-40159540D01*
X141068296Y-40879540D02*
X140852624Y-40879540D01*
%TO.C,M1*%
D14*
X213990460Y-76610000D02*
X216530460Y-76610000D01*
X213990460Y-81690000D02*
X213990460Y-76610000D01*
X216530460Y-76610000D02*
X216530460Y-81690000D01*
X216530460Y-81690000D02*
X213990460Y-81690000D01*
D15*
X214020460Y-76610000D02*
G75*
G02*
X213960460Y-76610000I-30000J0D01*
G01*
X213960460Y-76610000D02*
G75*
G02*
X214020460Y-76610000I30000J0D01*
G01*
%TO.C,C36*%
D13*
X197658296Y-41209540D02*
X197442624Y-41209540D01*
X197658296Y-41929540D02*
X197442624Y-41929540D01*
%TO.C,C2*%
X174542624Y-43704540D02*
X174758296Y-43704540D01*
X174542624Y-44424540D02*
X174758296Y-44424540D01*
%TO.C,R34*%
X151333202Y-43827040D02*
X151807718Y-43827040D01*
X151333202Y-44872040D02*
X151807718Y-44872040D01*
%TD*%
M02*
