%TF.GenerationSoftware,KiCad,Pcbnew,10.0.2*%
%TF.CreationDate,2026-06-06T20:44:27+02:00*%
%TF.ProjectId,maia,6d616961-2e6b-4696-9361-645f70636258,rev?*%
%TF.SameCoordinates,Original*%
%TF.FileFunction,Copper,L3,Inr*%
%TF.FilePolarity,Positive*%
%FSLAX46Y46*%
G04 Gerber Fmt 4.6, Leading zero omitted, Abs format (unit mm)*
G04 Created by KiCad (PCBNEW 10.0.2) date 2026-06-06 20:44:27*
%MOMM*%
%LPD*%
G01*
G04 APERTURE LIST*
%TA.AperFunction,ComponentPad*%
%ADD10C,1.600000*%
%TD*%
%TA.AperFunction,ComponentPad*%
%ADD11C,2.400000*%
%TD*%
%TA.AperFunction,ComponentPad*%
%ADD12C,0.700000*%
%TD*%
%TA.AperFunction,ComponentPad*%
%ADD13O,1.100000X2.000000*%
%TD*%
%TA.AperFunction,ComponentPad*%
%ADD14O,1.200000X1.800000*%
%TD*%
%TA.AperFunction,ComponentPad*%
%ADD15C,1.000000*%
%TD*%
%TA.AperFunction,ComponentPad*%
%ADD16R,1.050000X1.500000*%
%TD*%
%TA.AperFunction,ComponentPad*%
%ADD17O,1.050000X1.500000*%
%TD*%
%TA.AperFunction,ViaPad*%
%ADD18C,1.016000*%
%TD*%
%TA.AperFunction,ViaPad*%
%ADD19C,0.609600*%
%TD*%
%TA.AperFunction,ViaPad*%
%ADD20C,0.508000*%
%TD*%
%TA.AperFunction,ViaPad*%
%ADD21C,0.812800*%
%TD*%
%TA.AperFunction,ViaPad*%
%ADD22C,0.600000*%
%TD*%
%TA.AperFunction,ViaPad*%
%ADD23C,0.914400*%
%TD*%
%TA.AperFunction,Conductor*%
%ADD24C,0.200000*%
%TD*%
G04 APERTURE END LIST*
D10*
%TO.N,Net-(U11-OUT+)*%
%TO.C,M3*%
X145410460Y-87224540D03*
%TO.N,Net-(U11-OUT-)*%
X142870460Y-87224540D03*
%TD*%
%TO.N,3v3_haptic*%
%TO.C,M2*%
X129662460Y-77572540D03*
%TO.N,Net-(D8-A)*%
X129662460Y-80112540D03*
%TD*%
D11*
%TO.N,*%
%TO.C,BT2*%
X208440260Y-76911140D03*
%TD*%
D12*
%TO.N,*%
%TO.C,USB1*%
X174290460Y-42982340D03*
X168510460Y-42982340D03*
D13*
%TO.N,GND*%
X175720460Y-43512340D03*
D14*
X175720460Y-39302340D03*
D13*
X167080460Y-43512340D03*
D14*
X167080460Y-39302340D03*
%TD*%
D10*
%TO.N,3v3_haptic*%
%TO.C,M1*%
X215260460Y-77880000D03*
%TO.N,Net-(D7-A)*%
X215260460Y-80420000D03*
%TD*%
D15*
%TO.N,*%
%TO.C,SW5*%
X154046460Y-85691540D03*
X154046460Y-81391540D03*
%TD*%
D16*
%TO.N,GND*%
%TO.C,U10*%
X129535460Y-60369540D03*
D17*
%TO.N,DS18B20_DATA*%
X130805460Y-60369540D03*
%TO.N,3v3_esp*%
X132075460Y-60369540D03*
%TD*%
D15*
%TO.N,*%
%TO.C,SW4*%
X190000460Y-85936540D03*
X190000460Y-81636540D03*
%TD*%
D10*
%TO.N,GND*%
%TO.C,OLED1*%
X189555060Y-51080340D03*
%TO.N,3v3_esp*%
X189555060Y-48540340D03*
%TO.N,I2C_SCL*%
X189555060Y-46000340D03*
%TO.N,I2C_SDA*%
X189555060Y-43460340D03*
%TD*%
D18*
%TO.N,Net-(D6-A)*%
X199920460Y-79089540D03*
X196910460Y-87659540D03*
D19*
%TO.N,3v3_esp*%
X156510460Y-87819540D03*
X149490460Y-65829540D03*
D20*
X160750460Y-72099540D03*
D19*
X149490460Y-68449540D03*
D18*
X149570460Y-77559540D03*
X162520460Y-84829540D03*
D21*
X166640460Y-80619540D03*
D18*
X191840460Y-60119540D03*
D19*
X149454325Y-48009538D03*
D18*
X200180460Y-62459540D03*
D19*
X139870460Y-44199540D03*
D18*
X155420460Y-71609540D03*
D19*
X144216660Y-52959940D03*
D18*
X148370460Y-62319540D03*
X203950460Y-64649540D03*
D20*
X162990460Y-68579540D03*
D22*
X193230460Y-78069540D03*
D18*
X207460460Y-64649540D03*
D22*
%TO.N,GND*%
X126890460Y-62089540D03*
X133500460Y-91159540D03*
X171450460Y-46119540D03*
X169370460Y-76489540D03*
X128580460Y-91089540D03*
X198341000Y-45945317D03*
X130830460Y-88709540D03*
X127030460Y-65039540D03*
X207290460Y-80789540D03*
X183560460Y-69039540D03*
X149670460Y-70949540D03*
X156970460Y-89079540D03*
X199960460Y-77559540D03*
X151870460Y-87541540D03*
X185950460Y-59929540D03*
X202160460Y-77549540D03*
X203150460Y-83309540D03*
X194970460Y-66679540D03*
X127850460Y-62094540D03*
X177210460Y-85999540D03*
D19*
X194451000Y-48095317D03*
D22*
X177490460Y-67649540D03*
X126890460Y-58739540D03*
X189390460Y-77929540D03*
X207820460Y-85509540D03*
X213920460Y-58759540D03*
X157200460Y-70239540D03*
X213400460Y-75539540D03*
X148090460Y-66199540D03*
X160060460Y-59909540D03*
X212690460Y-58819540D03*
X153250460Y-66049540D03*
X169200460Y-74129540D03*
X143200460Y-73319540D03*
X152750460Y-62099540D03*
X199450460Y-73049540D03*
X158670460Y-41119540D03*
X207990460Y-65789540D03*
X215110460Y-89579540D03*
X137370460Y-62859540D03*
X144100460Y-61339540D03*
X191780460Y-90329540D03*
X128580460Y-87409540D03*
X144220460Y-73339540D03*
X127120460Y-70419540D03*
X189570460Y-61509540D03*
X212700460Y-59879540D03*
X216130460Y-90929540D03*
X205170460Y-60459540D03*
X190250460Y-59949540D03*
X146590460Y-66229540D03*
X136317260Y-51689940D03*
X153520460Y-72489540D03*
X127270460Y-83509540D03*
X139360460Y-80369540D03*
X170750460Y-41219540D03*
X191850460Y-62589540D03*
D19*
X194441000Y-48865714D03*
D22*
X174600460Y-45269540D03*
X207180460Y-81789540D03*
X191590460Y-70669540D03*
X133490460Y-90039540D03*
X184130460Y-86969540D03*
X161810460Y-76629540D03*
X138250460Y-77949540D03*
X191580460Y-68619540D03*
X201120460Y-77559540D03*
X142130460Y-73339540D03*
X130980460Y-84139540D03*
D19*
X194441000Y-49675317D03*
D22*
X196820460Y-90369540D03*
X154730460Y-70419540D03*
X176040460Y-62769540D03*
X152250460Y-72469540D03*
X127300460Y-89969540D03*
X168200460Y-45244540D03*
X127850460Y-60394540D03*
X151920460Y-89889540D03*
X159120460Y-89239540D03*
X129750460Y-90019540D03*
X172990460Y-74179540D03*
X191590460Y-67539540D03*
X188460460Y-77939540D03*
X138250460Y-74909540D03*
X183450460Y-72309540D03*
X179580460Y-73729540D03*
X214020460Y-82659540D03*
X202210460Y-83279540D03*
X216190460Y-60029540D03*
X216070460Y-84089540D03*
X180270460Y-67639540D03*
X200270460Y-65619540D03*
X215730460Y-74589540D03*
X160620460Y-68029540D03*
X199430460Y-59859540D03*
X145380460Y-59549540D03*
X177270460Y-85209540D03*
X157130460Y-59909540D03*
X179390460Y-77039540D03*
X127310460Y-87409540D03*
X144190460Y-74209540D03*
X128600460Y-88719540D03*
X201740460Y-73049540D03*
X170860460Y-65399540D03*
X179430460Y-79419540D03*
X199600460Y-64449540D03*
X139320460Y-79259540D03*
X194410460Y-50479540D03*
X215110460Y-61079540D03*
X127280460Y-80159540D03*
X186420460Y-78109540D03*
X144230460Y-72019540D03*
X150420460Y-86189540D03*
X139360460Y-86019540D03*
X141130460Y-52069540D03*
X186460460Y-75429540D03*
X137060460Y-77919540D03*
X186390460Y-86879540D03*
X213950460Y-59979540D03*
X186840460Y-76569540D03*
X209770460Y-88529540D03*
X130810460Y-91079540D03*
X135400460Y-64629540D03*
X206130460Y-60479540D03*
X215170460Y-86609540D03*
X137380460Y-61539540D03*
X144570460Y-66169540D03*
X136672860Y-44019140D03*
X138200460Y-79249540D03*
X209040460Y-86439540D03*
X170775460Y-42469540D03*
X135730460Y-91149540D03*
X213850460Y-86629540D03*
X183490460Y-70579540D03*
X138150460Y-52159540D03*
X140800460Y-86029540D03*
X145320460Y-50929540D03*
X216190460Y-61089540D03*
X171270460Y-74119540D03*
X208770460Y-72839540D03*
X132130460Y-87649540D03*
X207130460Y-60479540D03*
X127310460Y-86169540D03*
D19*
X198361000Y-48945317D03*
D22*
X216100460Y-85429540D03*
X144220460Y-70749540D03*
X142140460Y-74149540D03*
X203810460Y-71229540D03*
X154980460Y-43609540D03*
X208840460Y-66719540D03*
X198361000Y-49705317D03*
X177410460Y-59869540D03*
X145280460Y-79149540D03*
X127280460Y-77549540D03*
X215110460Y-90919540D03*
D19*
X198351000Y-47395317D03*
D22*
X183700460Y-59819540D03*
X197320460Y-66779540D03*
X137380460Y-60699540D03*
X206890460Y-88489540D03*
X191590460Y-69719540D03*
X154350460Y-66059540D03*
X141930460Y-52469540D03*
X215130460Y-85389540D03*
X145780460Y-70799540D03*
X163475460Y-44719540D03*
X199400460Y-71329540D03*
X132140460Y-88769540D03*
X130950460Y-82659540D03*
X166570460Y-59909540D03*
X147470460Y-86129540D03*
X201950460Y-63389540D03*
D19*
X141600460Y-77459540D03*
D22*
X134680460Y-91209540D03*
X206960460Y-65789540D03*
X184150460Y-80129540D03*
X200460460Y-73039540D03*
X209560460Y-72139540D03*
X216170460Y-88149540D03*
X201730460Y-59899540D03*
X152100460Y-61499540D03*
X188200460Y-59979540D03*
X215000460Y-82579540D03*
X136672860Y-42469740D03*
X213870460Y-90919540D03*
X154470460Y-59869540D03*
X132220460Y-90039540D03*
X208830460Y-72119540D03*
X171010460Y-59879540D03*
X175690460Y-76109540D03*
X175740460Y-72549540D03*
X135270460Y-80359540D03*
X145310460Y-52579540D03*
X134670460Y-90089540D03*
X176270460Y-71229540D03*
X139330460Y-74939540D03*
X213880460Y-89549540D03*
X208830460Y-69139540D03*
X184090460Y-90339540D03*
X202920460Y-65809540D03*
X213880460Y-88139540D03*
X135720460Y-90029540D03*
X168940460Y-62589540D03*
X141080460Y-44289540D03*
X198000460Y-60019540D03*
X130810460Y-87399540D03*
X208820460Y-67939540D03*
X216210460Y-75259540D03*
X203250460Y-63439540D03*
X191620460Y-78019540D03*
X155810460Y-88819540D03*
X140760460Y-87539540D03*
X132230460Y-91159540D03*
X137060460Y-76819540D03*
X129760460Y-87459540D03*
X191200460Y-61419540D03*
X139340460Y-78019540D03*
X186430460Y-88729540D03*
X138260460Y-76829540D03*
X158560460Y-43659540D03*
X178790460Y-67679540D03*
X213810460Y-85369540D03*
X214020460Y-84039540D03*
X198720460Y-77539540D03*
X194471000Y-47345317D03*
X154956460Y-42540540D03*
X137400460Y-59859540D03*
X127170460Y-74589540D03*
X129760460Y-91139540D03*
X203810460Y-73059540D03*
X158490460Y-87409540D03*
X126890460Y-60389540D03*
X199420460Y-72149540D03*
X150960460Y-70959540D03*
X149410460Y-49999540D03*
X174660460Y-65369540D03*
X184110460Y-88809540D03*
X216190460Y-58859540D03*
X142860460Y-61369540D03*
X213960460Y-76610000D03*
X128570460Y-89969540D03*
X145780460Y-72029540D03*
X175700460Y-74139540D03*
X191790460Y-88539540D03*
X172380460Y-76519540D03*
X207250460Y-82699540D03*
X172860460Y-62689540D03*
X179525460Y-86319540D03*
X186440460Y-90299540D03*
X130920460Y-81479540D03*
X137100460Y-74939540D03*
X145440460Y-67749540D03*
X172200460Y-42519540D03*
X178470460Y-65419540D03*
X169225460Y-48544540D03*
X143200460Y-74179540D03*
X209550460Y-72849540D03*
X148180460Y-68499540D03*
X165950460Y-71159540D03*
X130810460Y-86159540D03*
X206000460Y-88519540D03*
X127310460Y-91089540D03*
X142870460Y-59579540D03*
X158540460Y-42659540D03*
X151450460Y-60649540D03*
X172125460Y-41194540D03*
X144220460Y-43069540D03*
X128580460Y-86169540D03*
X196820460Y-88779540D03*
X167230460Y-84929540D03*
X129780460Y-88769540D03*
X149130460Y-87569540D03*
X215130460Y-59979540D03*
X149690460Y-72199540D03*
X143200460Y-74979540D03*
X133610460Y-59039540D03*
X215140460Y-58839540D03*
X216000460Y-82669540D03*
X182670460Y-62789540D03*
X174140460Y-59869540D03*
X129760460Y-86219540D03*
X145380460Y-61329540D03*
X159230460Y-68119540D03*
X163090460Y-59889540D03*
X191240460Y-72599540D03*
D19*
X198349338Y-50510035D03*
X198361000Y-48145317D03*
D22*
X133660460Y-61479540D03*
X162190460Y-81879540D03*
D19*
X155840460Y-59889540D03*
D22*
X208760460Y-88559540D03*
X135990460Y-81179540D03*
X154030460Y-89939540D03*
X161570460Y-80159540D03*
X180540460Y-59819540D03*
X139320460Y-76819540D03*
X127087080Y-67529509D03*
X127330460Y-88719540D03*
X190500460Y-77999540D03*
X127850460Y-58744540D03*
X202770460Y-73059540D03*
X186210460Y-80169540D03*
X170950460Y-76529540D03*
X149405460Y-45884540D03*
X145340460Y-46159540D03*
X216190460Y-86609540D03*
X130800460Y-89959540D03*
X203810460Y-72129540D03*
X199390460Y-69489540D03*
X155400460Y-66069540D03*
X216150460Y-89569540D03*
X215050460Y-84049540D03*
X133410460Y-88769540D03*
X186950460Y-84619540D03*
X215170460Y-88159540D03*
X139870460Y-41999540D03*
X216160460Y-62429540D03*
X152130460Y-66069540D03*
D19*
%TO.N,VL53L5CX_INT_RIGHT*%
X149460460Y-49029540D03*
D20*
X155880460Y-67089540D03*
D19*
X154870460Y-48059540D03*
D20*
X184930460Y-81199540D03*
D19*
X143310460Y-43679540D03*
D20*
%TO.N,VL53L5CX_LP_RIGHT*%
X184850460Y-84479540D03*
D19*
X144360460Y-45499540D03*
X149460460Y-47079540D03*
D20*
X154350460Y-67819540D03*
D19*
X149500460Y-44219540D03*
D20*
%TO.N,I2C_SCL*%
X155510460Y-78049540D03*
D22*
X142350460Y-54349540D03*
D20*
X156760460Y-84369540D03*
D19*
X151010460Y-40759540D03*
D20*
X141220460Y-78429540D03*
D19*
X136320460Y-48209540D03*
X145450460Y-47659540D03*
%TO.N,MPU_int*%
X157580460Y-43299540D03*
D20*
X162880460Y-83539540D03*
D18*
X147654948Y-75808428D03*
X147660460Y-72329540D03*
D19*
X144300460Y-46629540D03*
%TO.N,I2C_SDA*%
X149490460Y-40229540D03*
D20*
X158750460Y-83509540D03*
D19*
X136305260Y-50119540D03*
D20*
X143160460Y-77599540D03*
D19*
X145145660Y-48591140D03*
D20*
X156170460Y-78399540D03*
D19*
%TO.N,vana_3v3*%
X147320460Y-51839540D03*
X143438703Y-49206271D03*
X147340460Y-44259540D03*
D22*
%TO.N,CAM_PWDN*%
X176310460Y-85419540D03*
%TO.N,VBAT*%
X201870460Y-61799540D03*
%TO.N,Net-(USB1-CC2)*%
X165275460Y-41844540D03*
X169225460Y-47594540D03*
%TO.N,SCCB_SCL*%
X167980460Y-86329540D03*
D21*
X166120460Y-79289540D03*
D22*
X184140460Y-77189540D03*
D18*
%TO.N,Net-(D5-A)*%
X197280460Y-80899540D03*
X203320460Y-87819540D03*
D22*
%TO.N,Net-(USB1-DN1)*%
X172312960Y-46169540D03*
%TO.N,Net-(USB1-DP1)*%
X170650460Y-45569540D03*
%TO.N,VUSB*%
X207722460Y-67031540D03*
D23*
X177440460Y-52319540D03*
D22*
X195240460Y-81169540D03*
D23*
X205600460Y-44269540D03*
D18*
%TO.N,3v3_haptic*%
X146590460Y-80620540D03*
D22*
X192939725Y-66838805D03*
D18*
X192530460Y-74069540D03*
X144150460Y-58569540D03*
D22*
%TO.N,SCCB_SDA*%
X168240460Y-87359540D03*
D20*
%TO.N,usb_P*%
X203940460Y-69579540D03*
X162920460Y-70829540D03*
X188430460Y-61289540D03*
D19*
%TO.N,DS18B20_DATA*%
X159820460Y-69119540D03*
D20*
%TO.N,usb_N*%
X162930460Y-72099540D03*
X189090460Y-60534540D03*
X203910460Y-68339540D03*
%TO.N,VL53L5CX_INT_LEFT*%
X187540460Y-77569540D03*
X201680460Y-65939540D03*
D18*
%TO.N,-BATT*%
X205875460Y-81669540D03*
X193730460Y-75429540D03*
D19*
%TO.N,Net-(U14-I2C_RST)*%
X149710460Y-50969540D03*
D22*
%TO.N,CAM_VSYNC*%
X184130460Y-75929540D03*
X169070460Y-87829540D03*
%TO.N,CAM_HREF*%
X169820460Y-86979540D03*
%TO.N,CAM_PCLK*%
X170530460Y-87769540D03*
X173240460Y-71879540D03*
X167110460Y-71879540D03*
%TO.N,CAM_XCLK*%
X170510460Y-85129540D03*
%TO.N,CAM_Y9*%
X171280460Y-86239540D03*
X174150460Y-88189540D03*
%TO.N,CAM_Y8*%
X172011425Y-85509540D03*
%TO.N,CAM_Y7*%
X171930460Y-87589540D03*
%TO.N,CAM_Y6*%
X174410460Y-80749540D03*
%TO.N,CAM_Y5*%
X162740460Y-77169540D03*
X173680460Y-86699540D03*
%TO.N,CAM_Y4*%
X176870460Y-87009540D03*
X162350460Y-73999540D03*
X174400460Y-85379540D03*
%TO.N,CAM_Y3*%
X175320460Y-88029540D03*
X162720460Y-75929540D03*
%TO.N,CAM_Y2*%
X161320460Y-79009540D03*
%TO.N,Net-(USB1-CC1)*%
X177475460Y-41844540D03*
X173075460Y-45344540D03*
D19*
%TO.N,Net-(U14-RSVD6)*%
X145370460Y-49529540D03*
D22*
%TO.N,VLDO*%
X198580460Y-62169540D03*
X198610460Y-68359540D03*
D19*
%TO.N,BTN_01*%
X168640460Y-68049540D03*
X151340460Y-75779540D03*
D20*
%TO.N,Motor_Right_PWM*%
X137610460Y-83259540D03*
D19*
X156110460Y-89849540D03*
D20*
X158140460Y-71399540D03*
D19*
X207910460Y-89499540D03*
X182710460Y-89499540D03*
D20*
X162880460Y-73339540D03*
D19*
%TO.N,enable_esp*%
X164120460Y-68649540D03*
X158430460Y-88529540D03*
%TO.N,USER_LED*%
X150550460Y-62439540D03*
X142130460Y-60329540D03*
X167390460Y-67179540D03*
X150550460Y-66159540D03*
D20*
%TO.N,LED_FLASH*%
X155420460Y-75909540D03*
X178910460Y-88519540D03*
%TD*%
%TO.N,CAM_PWDN*%
D24*
X176310460Y-85309540D02*
X176360460Y-85259540D01*
X176310460Y-85419540D02*
X176310460Y-85309540D01*
%TD*%
%TA.AperFunction,Conductor*%
%TO.N,GND*%
G36*
X166089588Y-38596002D02*
G01*
X166144126Y-38650540D01*
X166164088Y-38725040D01*
X166161225Y-38754109D01*
X166130460Y-38908774D01*
X166130460Y-39127340D01*
X166780461Y-39127340D01*
X166780461Y-39477340D01*
X166130460Y-39477340D01*
X166130460Y-39695907D01*
X166166967Y-39879442D01*
X166166968Y-39879446D01*
X166238577Y-40052326D01*
X166238583Y-40052338D01*
X166342546Y-40207928D01*
X166342550Y-40207933D01*
X166474866Y-40340249D01*
X166474871Y-40340253D01*
X166630461Y-40444216D01*
X166630473Y-40444222D01*
X166803351Y-40515830D01*
X166803359Y-40515832D01*
X166905459Y-40536141D01*
X166905460Y-40536141D01*
X166905460Y-39847712D01*
X166964665Y-39881895D01*
X167040964Y-39902339D01*
X167119956Y-39902339D01*
X167196255Y-39881895D01*
X167255460Y-39847712D01*
X167255460Y-40536141D01*
X167357560Y-40515832D01*
X167357568Y-40515830D01*
X167530446Y-40444222D01*
X167530458Y-40444216D01*
X167686048Y-40340253D01*
X167686053Y-40340249D01*
X167818369Y-40207933D01*
X167818373Y-40207928D01*
X167922336Y-40052338D01*
X167922342Y-40052326D01*
X167993951Y-39879446D01*
X167993952Y-39879442D01*
X168030460Y-39695907D01*
X168030460Y-39477340D01*
X167380459Y-39477340D01*
X167380459Y-39127340D01*
X168030460Y-39127340D01*
X168030460Y-38908774D01*
X167999695Y-38754109D01*
X168004739Y-38677146D01*
X168047589Y-38613016D01*
X168116763Y-38578903D01*
X168145832Y-38576040D01*
X174655088Y-38576040D01*
X174729588Y-38596002D01*
X174784126Y-38650540D01*
X174804088Y-38725040D01*
X174801225Y-38754109D01*
X174770460Y-38908774D01*
X174770460Y-39127340D01*
X175420461Y-39127340D01*
X175420461Y-39477340D01*
X174770460Y-39477340D01*
X174770460Y-39695907D01*
X174806967Y-39879442D01*
X174806968Y-39879446D01*
X174878577Y-40052326D01*
X174878583Y-40052338D01*
X174982546Y-40207928D01*
X174982550Y-40207933D01*
X175114866Y-40340249D01*
X175114871Y-40340253D01*
X175270461Y-40444216D01*
X175270473Y-40444222D01*
X175443351Y-40515830D01*
X175443359Y-40515832D01*
X175545459Y-40536141D01*
X175545460Y-40536141D01*
X175545460Y-39847712D01*
X175604665Y-39881895D01*
X175680964Y-39902339D01*
X175759956Y-39902339D01*
X175836255Y-39881895D01*
X175895460Y-39847712D01*
X175895460Y-40536141D01*
X175997560Y-40515832D01*
X175997568Y-40515830D01*
X176170446Y-40444222D01*
X176170458Y-40444216D01*
X176326048Y-40340253D01*
X176326053Y-40340249D01*
X176458369Y-40207933D01*
X176458373Y-40207928D01*
X176562336Y-40052338D01*
X176562342Y-40052326D01*
X176633951Y-39879446D01*
X176633952Y-39879442D01*
X176670460Y-39695907D01*
X176670460Y-39477340D01*
X176020459Y-39477340D01*
X176020459Y-39127340D01*
X176670460Y-39127340D01*
X176670460Y-38908774D01*
X176639695Y-38754109D01*
X176644739Y-38677146D01*
X176687589Y-38613016D01*
X176756763Y-38578903D01*
X176785832Y-38576040D01*
X209189600Y-38576040D01*
X209264100Y-38596002D01*
X209318638Y-38650540D01*
X209338600Y-38725040D01*
X209338600Y-57889672D01*
X209338538Y-57955564D01*
X209338600Y-57955796D01*
X209338600Y-57956036D01*
X209355535Y-58019242D01*
X209355553Y-58019378D01*
X209355571Y-58019374D01*
X209372528Y-58082896D01*
X209372640Y-58083168D01*
X209372672Y-58083244D01*
X209372702Y-58083317D01*
X209372707Y-58083326D01*
X209372708Y-58083328D01*
X209403676Y-58136967D01*
X209405340Y-58139848D01*
X209405377Y-58139987D01*
X209405409Y-58139969D01*
X209432257Y-58186572D01*
X209438311Y-58197080D01*
X209438316Y-58197085D01*
X209438416Y-58197215D01*
X209438477Y-58197295D01*
X209438601Y-58197457D01*
X209484860Y-58243716D01*
X209484958Y-58243815D01*
X209531404Y-58290348D01*
X209531408Y-58290351D01*
X209531410Y-58290353D01*
X209531412Y-58290354D01*
X209531632Y-58290523D01*
X209531712Y-58290585D01*
X209531784Y-58290640D01*
X209531786Y-58290642D01*
X209588735Y-58323521D01*
X209588837Y-58323623D01*
X209588856Y-58323591D01*
X209645476Y-58356352D01*
X209645481Y-58356353D01*
X209645905Y-58356529D01*
X209645914Y-58356534D01*
X209709455Y-58373559D01*
X209772738Y-58390580D01*
X209772965Y-58390580D01*
X209773181Y-58390638D01*
X209773205Y-58390641D01*
X209773208Y-58390642D01*
X209773211Y-58390642D01*
X209838723Y-58390642D01*
X216100712Y-58396525D01*
X216175193Y-58416557D01*
X216229680Y-58471146D01*
X216249572Y-58545665D01*
X216232293Y-76935914D01*
X216212261Y-77010395D01*
X216157672Y-77064882D01*
X216083153Y-77084774D01*
X216008672Y-77064742D01*
X215981970Y-77044233D01*
X215981838Y-77044388D01*
X215978856Y-77041841D01*
X215977938Y-77041136D01*
X215977388Y-77040586D01*
X215935834Y-77010395D01*
X215837253Y-76938771D01*
X215837250Y-76938769D01*
X215837248Y-76938768D01*
X215682905Y-76860127D01*
X215630363Y-76843055D01*
X215518160Y-76806597D01*
X215420546Y-76791137D01*
X215347071Y-76779500D01*
X215173849Y-76779500D01*
X215107497Y-76790009D01*
X215002759Y-76806597D01*
X214851901Y-76855615D01*
X214838015Y-76860127D01*
X214838009Y-76860129D01*
X214838009Y-76860130D01*
X214683666Y-76938771D01*
X214543535Y-77040583D01*
X214421043Y-77163075D01*
X214319231Y-77303206D01*
X214240590Y-77457549D01*
X214240585Y-77457561D01*
X214187057Y-77622299D01*
X214174621Y-77700823D01*
X214159960Y-77793389D01*
X214159960Y-77966611D01*
X214163004Y-77985829D01*
X214187057Y-78137700D01*
X214212340Y-78215510D01*
X214240587Y-78302445D01*
X214296386Y-78411956D01*
X214319231Y-78456793D01*
X214404497Y-78574150D01*
X214421046Y-78596928D01*
X214543532Y-78719414D01*
X214590245Y-78753353D01*
X214637121Y-78787411D01*
X214683672Y-78821232D01*
X214838015Y-78899873D01*
X215002759Y-78953402D01*
X215173849Y-78980500D01*
X215173853Y-78980500D01*
X215347067Y-78980500D01*
X215347071Y-78980500D01*
X215518161Y-78953402D01*
X215682905Y-78899873D01*
X215837248Y-78821232D01*
X215977388Y-78719414D01*
X215977397Y-78719404D01*
X215981838Y-78715612D01*
X215982842Y-78716788D01*
X216042929Y-78682084D01*
X216120057Y-78682070D01*
X216186859Y-78720623D01*
X216225434Y-78787411D01*
X216230518Y-78826140D01*
X216229909Y-79473530D01*
X216209877Y-79548011D01*
X216155288Y-79602498D01*
X216080769Y-79622390D01*
X216006288Y-79602358D01*
X215982255Y-79583899D01*
X215981838Y-79584388D01*
X215977384Y-79580583D01*
X215837253Y-79478771D01*
X215837250Y-79478769D01*
X215837248Y-79478768D01*
X215682905Y-79400127D01*
X215615594Y-79378256D01*
X215518160Y-79346597D01*
X215420546Y-79331137D01*
X215347071Y-79319500D01*
X215173849Y-79319500D01*
X215107497Y-79330009D01*
X215002759Y-79346597D01*
X214851901Y-79395615D01*
X214838015Y-79400127D01*
X214838009Y-79400129D01*
X214838009Y-79400130D01*
X214683666Y-79478771D01*
X214543535Y-79580583D01*
X214421043Y-79703075D01*
X214319231Y-79843206D01*
X214240590Y-79997549D01*
X214240585Y-79997561D01*
X214187057Y-80162299D01*
X214169756Y-80271537D01*
X214159960Y-80333389D01*
X214159960Y-80506611D01*
X214166819Y-80549916D01*
X214187057Y-80677700D01*
X214216967Y-80769751D01*
X214240587Y-80842445D01*
X214313483Y-80985511D01*
X214319231Y-80996793D01*
X214407479Y-81118255D01*
X214421046Y-81136928D01*
X214543532Y-81259414D01*
X214543535Y-81259416D01*
X214668267Y-81350040D01*
X214683672Y-81361232D01*
X214838015Y-81439873D01*
X215002759Y-81493402D01*
X215173849Y-81520500D01*
X215173853Y-81520500D01*
X215347067Y-81520500D01*
X215347071Y-81520500D01*
X215518161Y-81493402D01*
X215682905Y-81439873D01*
X215837248Y-81361232D01*
X215977388Y-81259414D01*
X215977397Y-81259404D01*
X215981838Y-81255612D01*
X215983434Y-81257480D01*
X216040427Y-81224503D01*
X216117555Y-81224429D01*
X216184387Y-81262929D01*
X216223015Y-81329687D01*
X216228129Y-81368529D01*
X216222794Y-87048457D01*
X216220272Y-89733180D01*
X216219119Y-90960180D01*
X216199087Y-91034661D01*
X216144498Y-91089148D01*
X216070119Y-91109040D01*
X126993896Y-91109040D01*
X126923772Y-91091507D01*
X126921852Y-91090483D01*
X126897692Y-91074390D01*
X126853012Y-91037875D01*
X126807960Y-90975277D01*
X126798303Y-90922581D01*
X126797775Y-89769849D01*
X155505160Y-89769849D01*
X155505160Y-89929230D01*
X155546411Y-90083180D01*
X155626097Y-90221199D01*
X155626098Y-90221200D01*
X155626100Y-90221203D01*
X155738797Y-90333900D01*
X155738799Y-90333901D01*
X155738800Y-90333902D01*
X155876819Y-90413588D01*
X155876820Y-90413588D01*
X155876823Y-90413590D01*
X156030771Y-90454840D01*
X156190149Y-90454840D01*
X156344097Y-90413590D01*
X156482123Y-90333900D01*
X156594820Y-90221203D01*
X156674510Y-90083177D01*
X156715760Y-89929229D01*
X156715760Y-89769851D01*
X156674510Y-89615903D01*
X156674508Y-89615899D01*
X156674508Y-89615898D01*
X156598694Y-89484586D01*
X156598693Y-89484585D01*
X156598693Y-89484584D01*
X156594824Y-89477883D01*
X156594821Y-89477879D01*
X156594820Y-89477877D01*
X156536792Y-89419849D01*
X182105160Y-89419849D01*
X182105160Y-89579230D01*
X182146411Y-89733180D01*
X182226097Y-89871199D01*
X182226098Y-89871200D01*
X182226100Y-89871203D01*
X182338797Y-89983900D01*
X182338799Y-89983901D01*
X182338800Y-89983902D01*
X182476819Y-90063588D01*
X182476820Y-90063588D01*
X182476823Y-90063590D01*
X182630771Y-90104840D01*
X182790149Y-90104840D01*
X182944097Y-90063590D01*
X183082123Y-89983900D01*
X183194820Y-89871203D01*
X183274510Y-89733177D01*
X183315760Y-89579229D01*
X183315760Y-89419851D01*
X183315759Y-89419849D01*
X207305160Y-89419849D01*
X207305160Y-89579230D01*
X207346411Y-89733180D01*
X207426097Y-89871199D01*
X207426098Y-89871200D01*
X207426100Y-89871203D01*
X207538797Y-89983900D01*
X207538799Y-89983901D01*
X207538800Y-89983902D01*
X207676819Y-90063588D01*
X207676820Y-90063588D01*
X207676823Y-90063590D01*
X207830771Y-90104840D01*
X207990149Y-90104840D01*
X208144097Y-90063590D01*
X208282123Y-89983900D01*
X208394820Y-89871203D01*
X208474510Y-89733177D01*
X208515760Y-89579229D01*
X208515760Y-89419851D01*
X208474510Y-89265903D01*
X208394820Y-89127877D01*
X208282123Y-89015180D01*
X208282120Y-89015178D01*
X208282119Y-89015177D01*
X208144100Y-88935491D01*
X208144097Y-88935490D01*
X207990149Y-88894240D01*
X207830771Y-88894240D01*
X207676819Y-88935491D01*
X207538800Y-89015177D01*
X207426097Y-89127880D01*
X207346411Y-89265899D01*
X207305160Y-89419849D01*
X183315759Y-89419849D01*
X183274510Y-89265903D01*
X183194820Y-89127877D01*
X183082123Y-89015180D01*
X183082120Y-89015178D01*
X183082119Y-89015177D01*
X182944100Y-88935491D01*
X182944097Y-88935490D01*
X182790149Y-88894240D01*
X182630771Y-88894240D01*
X182476819Y-88935491D01*
X182338800Y-89015177D01*
X182226097Y-89127880D01*
X182146411Y-89265899D01*
X182105160Y-89419849D01*
X156536792Y-89419849D01*
X156482123Y-89365180D01*
X156482120Y-89365178D01*
X156482119Y-89365177D01*
X156344100Y-89285491D01*
X156344097Y-89285490D01*
X156190149Y-89244240D01*
X156030771Y-89244240D01*
X155876819Y-89285491D01*
X155738800Y-89365177D01*
X155626097Y-89477880D01*
X155546411Y-89615899D01*
X155505160Y-89769849D01*
X126797775Y-89769849D01*
X126797170Y-88449849D01*
X157825160Y-88449849D01*
X157825160Y-88609230D01*
X157866411Y-88763180D01*
X157946097Y-88901199D01*
X157946098Y-88901200D01*
X157946100Y-88901203D01*
X158058797Y-89013900D01*
X158058799Y-89013901D01*
X158058800Y-89013902D01*
X158196819Y-89093588D01*
X158196820Y-89093588D01*
X158196823Y-89093590D01*
X158350771Y-89134840D01*
X158510149Y-89134840D01*
X158664097Y-89093590D01*
X158802123Y-89013900D01*
X158914820Y-88901203D01*
X158994510Y-88763177D01*
X159035760Y-88609229D01*
X159035760Y-88449851D01*
X158994510Y-88295903D01*
X158989683Y-88287543D01*
X158914822Y-88157880D01*
X158914821Y-88157879D01*
X158914820Y-88157877D01*
X158802123Y-88045180D01*
X158802120Y-88045178D01*
X158802119Y-88045177D01*
X158664100Y-87965491D01*
X158664097Y-87965490D01*
X158510149Y-87924240D01*
X158350771Y-87924240D01*
X158196819Y-87965491D01*
X158058800Y-88045177D01*
X157946097Y-88157880D01*
X157866411Y-88295899D01*
X157825160Y-88449849D01*
X126797170Y-88449849D01*
X126796568Y-87137929D01*
X141769960Y-87137929D01*
X141769960Y-87311151D01*
X141773766Y-87335180D01*
X141797057Y-87482240D01*
X141830739Y-87585899D01*
X141850587Y-87646985D01*
X141918926Y-87781108D01*
X141929231Y-87801333D01*
X142014807Y-87919117D01*
X142031046Y-87941468D01*
X142153532Y-88063954D01*
X142200245Y-88097893D01*
X142282809Y-88157880D01*
X142293672Y-88165772D01*
X142448015Y-88244413D01*
X142612759Y-88297942D01*
X142783849Y-88325040D01*
X142783853Y-88325040D01*
X142957067Y-88325040D01*
X142957071Y-88325040D01*
X143128161Y-88297942D01*
X143292905Y-88244413D01*
X143447248Y-88165772D01*
X143587388Y-88063954D01*
X143709874Y-87941468D01*
X143811692Y-87801328D01*
X143890333Y-87646985D01*
X143943862Y-87482241D01*
X143970960Y-87311151D01*
X143970960Y-87137929D01*
X144309960Y-87137929D01*
X144309960Y-87311151D01*
X144313766Y-87335180D01*
X144337057Y-87482240D01*
X144370739Y-87585899D01*
X144390587Y-87646985D01*
X144458926Y-87781108D01*
X144469231Y-87801333D01*
X144554807Y-87919117D01*
X144571046Y-87941468D01*
X144693532Y-88063954D01*
X144740245Y-88097893D01*
X144822809Y-88157880D01*
X144833672Y-88165772D01*
X144988015Y-88244413D01*
X145152759Y-88297942D01*
X145323849Y-88325040D01*
X145323853Y-88325040D01*
X145497067Y-88325040D01*
X145497071Y-88325040D01*
X145668161Y-88297942D01*
X145832905Y-88244413D01*
X145987248Y-88165772D01*
X146127388Y-88063954D01*
X146249874Y-87941468D01*
X146351692Y-87801328D01*
X146383017Y-87739849D01*
X155905160Y-87739849D01*
X155905160Y-87899230D01*
X155916477Y-87941464D01*
X155944266Y-88045177D01*
X155946411Y-88053180D01*
X156026097Y-88191199D01*
X156026098Y-88191200D01*
X156026100Y-88191203D01*
X156138797Y-88303900D01*
X156138799Y-88303901D01*
X156138800Y-88303902D01*
X156276819Y-88383588D01*
X156276820Y-88383588D01*
X156276823Y-88383590D01*
X156430771Y-88424840D01*
X156590149Y-88424840D01*
X156744097Y-88383590D01*
X156828380Y-88334929D01*
X156869745Y-88311047D01*
X156877388Y-88306633D01*
X156882123Y-88303900D01*
X156994820Y-88191203D01*
X157074510Y-88053177D01*
X157115760Y-87899229D01*
X157115760Y-87739851D01*
X157074510Y-87585903D01*
X157073243Y-87583709D01*
X156994822Y-87447880D01*
X156994821Y-87447879D01*
X156994820Y-87447877D01*
X156882123Y-87335180D01*
X156882120Y-87335178D01*
X156882119Y-87335177D01*
X156744100Y-87255491D01*
X156744097Y-87255490D01*
X156590149Y-87214240D01*
X156430771Y-87214240D01*
X156276819Y-87255491D01*
X156138800Y-87335177D01*
X156026097Y-87447880D01*
X155946411Y-87585899D01*
X155905160Y-87739849D01*
X146383017Y-87739849D01*
X146430333Y-87646985D01*
X146483862Y-87482241D01*
X146510960Y-87311151D01*
X146510960Y-87137929D01*
X146483862Y-86966839D01*
X146430333Y-86802095D01*
X146351692Y-86647752D01*
X146346658Y-86640824D01*
X146249876Y-86507615D01*
X146249874Y-86507612D01*
X146127388Y-86385126D01*
X146127384Y-86385123D01*
X145987253Y-86283311D01*
X145987250Y-86283309D01*
X145987248Y-86283308D01*
X145832905Y-86204667D01*
X145770961Y-86184540D01*
X145668160Y-86151137D01*
X145570546Y-86135677D01*
X145497071Y-86124040D01*
X145323849Y-86124040D01*
X145257497Y-86134549D01*
X145152759Y-86151137D01*
X144996749Y-86201829D01*
X144988015Y-86204667D01*
X144988009Y-86204669D01*
X144988009Y-86204670D01*
X144833666Y-86283311D01*
X144693535Y-86385123D01*
X144571043Y-86507615D01*
X144469231Y-86647746D01*
X144390590Y-86802089D01*
X144390585Y-86802101D01*
X144337057Y-86966839D01*
X144321892Y-87062592D01*
X144309960Y-87137929D01*
X143970960Y-87137929D01*
X143943862Y-86966839D01*
X143890333Y-86802095D01*
X143811692Y-86647752D01*
X143806658Y-86640824D01*
X143709876Y-86507615D01*
X143709874Y-86507612D01*
X143587388Y-86385126D01*
X143587384Y-86385123D01*
X143447253Y-86283311D01*
X143447250Y-86283309D01*
X143447248Y-86283308D01*
X143292905Y-86204667D01*
X143230961Y-86184540D01*
X143128160Y-86151137D01*
X143030546Y-86135677D01*
X142957071Y-86124040D01*
X142783849Y-86124040D01*
X142717497Y-86134549D01*
X142612759Y-86151137D01*
X142456749Y-86201829D01*
X142448015Y-86204667D01*
X142448009Y-86204669D01*
X142448009Y-86204670D01*
X142293666Y-86283311D01*
X142153535Y-86385123D01*
X142031043Y-86507615D01*
X141929231Y-86647746D01*
X141850590Y-86802089D01*
X141850585Y-86802101D01*
X141797057Y-86966839D01*
X141781892Y-87062592D01*
X141769960Y-87137929D01*
X126796568Y-87137929D01*
X126795869Y-85612697D01*
X153245960Y-85612697D01*
X153245960Y-85770382D01*
X153276722Y-85925034D01*
X153276723Y-85925038D01*
X153337064Y-86070716D01*
X153337065Y-86070717D01*
X153337066Y-86070719D01*
X153424671Y-86201829D01*
X153536171Y-86313329D01*
X153667281Y-86400934D01*
X153667282Y-86400934D01*
X153667283Y-86400935D01*
X153713221Y-86419963D01*
X153812963Y-86461277D01*
X153967618Y-86492040D01*
X154125302Y-86492040D01*
X154279957Y-86461277D01*
X154425639Y-86400934D01*
X154556749Y-86313329D01*
X154619597Y-86250481D01*
X167379960Y-86250481D01*
X167379960Y-86408598D01*
X167383006Y-86419964D01*
X167420883Y-86561324D01*
X167499940Y-86698256D01*
X167611744Y-86810060D01*
X167670804Y-86844158D01*
X167672126Y-86844921D01*
X167726664Y-86899459D01*
X167746626Y-86973959D01*
X167726665Y-87048457D01*
X167680884Y-87127753D01*
X167680883Y-87127755D01*
X167680883Y-87127756D01*
X167677216Y-87141443D01*
X167639960Y-87280481D01*
X167639960Y-87438598D01*
X167642447Y-87447880D01*
X167680883Y-87591324D01*
X167759940Y-87728256D01*
X167871744Y-87840060D01*
X168008676Y-87919117D01*
X168161403Y-87960040D01*
X168319516Y-87960040D01*
X168319517Y-87960040D01*
X168328817Y-87957547D01*
X168405943Y-87957546D01*
X168472739Y-87996107D01*
X168505565Y-88052959D01*
X168507147Y-88052304D01*
X168510882Y-88061322D01*
X168510883Y-88061324D01*
X168589940Y-88198256D01*
X168701744Y-88310060D01*
X168838676Y-88389117D01*
X168991403Y-88430040D01*
X169149517Y-88430040D01*
X169302244Y-88389117D01*
X169439176Y-88310060D01*
X169550980Y-88198256D01*
X169630037Y-88061324D01*
X169664576Y-87932422D01*
X169703139Y-87865629D01*
X169769934Y-87827065D01*
X169847062Y-87827065D01*
X169913857Y-87865629D01*
X169952421Y-87932423D01*
X169970883Y-88001325D01*
X170032817Y-88108598D01*
X170049940Y-88138256D01*
X170161744Y-88250060D01*
X170298676Y-88329117D01*
X170451403Y-88370040D01*
X170609517Y-88370040D01*
X170762244Y-88329117D01*
X170899176Y-88250060D01*
X171010980Y-88138256D01*
X171090037Y-88001324D01*
X171118902Y-87893597D01*
X171157466Y-87826803D01*
X171224261Y-87788239D01*
X171301389Y-87788239D01*
X171368184Y-87826803D01*
X171391863Y-87857663D01*
X171440247Y-87941468D01*
X171449940Y-87958256D01*
X171561744Y-88070060D01*
X171698676Y-88149117D01*
X171851403Y-88190040D01*
X172009517Y-88190040D01*
X172162244Y-88149117D01*
X172229164Y-88110481D01*
X173549960Y-88110481D01*
X173549960Y-88268598D01*
X173557277Y-88295903D01*
X173590883Y-88421324D01*
X173669940Y-88558256D01*
X173781744Y-88670060D01*
X173918676Y-88749117D01*
X174071403Y-88790040D01*
X174229517Y-88790040D01*
X174382244Y-88749117D01*
X174519176Y-88670060D01*
X174630980Y-88558256D01*
X174668939Y-88492507D01*
X174723473Y-88437972D01*
X174797972Y-88418009D01*
X174872473Y-88437970D01*
X174903334Y-88461650D01*
X174951744Y-88510060D01*
X175088676Y-88589117D01*
X175241403Y-88630040D01*
X175399517Y-88630040D01*
X175552244Y-88589117D01*
X175689176Y-88510060D01*
X175752701Y-88446535D01*
X178355960Y-88446535D01*
X178355960Y-88592544D01*
X178376731Y-88670060D01*
X178393748Y-88733569D01*
X178466749Y-88860011D01*
X178569989Y-88963251D01*
X178696431Y-89036252D01*
X178837459Y-89074040D01*
X178983461Y-89074040D01*
X179124489Y-89036252D01*
X179250931Y-88963251D01*
X179354171Y-88860011D01*
X179427172Y-88733569D01*
X179464960Y-88592541D01*
X179464960Y-88446539D01*
X179462664Y-88437972D01*
X179448092Y-88383588D01*
X179427172Y-88305511D01*
X179354171Y-88179069D01*
X179250931Y-88075829D01*
X179124489Y-88002828D01*
X179099406Y-87996107D01*
X178983464Y-87965040D01*
X178983461Y-87965040D01*
X178837459Y-87965040D01*
X178837455Y-87965040D01*
X178696430Y-88002828D01*
X178569988Y-88075829D01*
X178466749Y-88179068D01*
X178393748Y-88305510D01*
X178355960Y-88446535D01*
X175752701Y-88446535D01*
X175800980Y-88398256D01*
X175880037Y-88261324D01*
X175920960Y-88108597D01*
X175920960Y-87950483D01*
X175880037Y-87797756D01*
X175800980Y-87660824D01*
X175689176Y-87549020D01*
X175552244Y-87469963D01*
X175399517Y-87429040D01*
X175241403Y-87429040D01*
X175088676Y-87469963D01*
X175088674Y-87469963D01*
X175088674Y-87469964D01*
X174951743Y-87549020D01*
X174839940Y-87660823D01*
X174801982Y-87726570D01*
X174747444Y-87781108D01*
X174672944Y-87801070D01*
X174598444Y-87781108D01*
X174567585Y-87757429D01*
X174519176Y-87709020D01*
X174449162Y-87668598D01*
X174382244Y-87629963D01*
X174229517Y-87589040D01*
X174071403Y-87589040D01*
X173918676Y-87629963D01*
X173918674Y-87629963D01*
X173918674Y-87629964D01*
X173781743Y-87709020D01*
X173669940Y-87820823D01*
X173613192Y-87919115D01*
X173590883Y-87957756D01*
X173580960Y-87994789D01*
X173549960Y-88110481D01*
X172229164Y-88110481D01*
X172299176Y-88070060D01*
X172410980Y-87958256D01*
X172490037Y-87821324D01*
X172530960Y-87668597D01*
X172530960Y-87510483D01*
X172490037Y-87357756D01*
X172410980Y-87220824D01*
X172299176Y-87109020D01*
X172162244Y-87029963D01*
X172009517Y-86989040D01*
X171851403Y-86989040D01*
X171851399Y-86989040D01*
X171713915Y-87025879D01*
X171713912Y-87025880D01*
X171698676Y-87029963D01*
X171623524Y-87073351D01*
X171623508Y-87073360D01*
X171561743Y-87109020D01*
X171449940Y-87220823D01*
X171370882Y-87357757D01*
X171342016Y-87465483D01*
X171303452Y-87532277D01*
X171236656Y-87570840D01*
X171159528Y-87570839D01*
X171092734Y-87532275D01*
X171069056Y-87501416D01*
X171057985Y-87482241D01*
X171010980Y-87400824D01*
X170899176Y-87289020D01*
X170762244Y-87209963D01*
X170609517Y-87169040D01*
X170569960Y-87169040D01*
X170495460Y-87149078D01*
X170440922Y-87094540D01*
X170420960Y-87020040D01*
X170420960Y-86900483D01*
X170420959Y-86900481D01*
X170380037Y-86747756D01*
X170300980Y-86610824D01*
X170189176Y-86499020D01*
X170052244Y-86419963D01*
X169899517Y-86379040D01*
X169741403Y-86379040D01*
X169588676Y-86419963D01*
X169588674Y-86419963D01*
X169588674Y-86419964D01*
X169451743Y-86499020D01*
X169339940Y-86610823D01*
X169276873Y-86720060D01*
X169260883Y-86747756D01*
X169247121Y-86799117D01*
X169219960Y-86900481D01*
X169219960Y-87058596D01*
X169220223Y-87060595D01*
X169219960Y-87062592D01*
X169219960Y-87067449D01*
X169221241Y-87071310D01*
X169214509Y-87103982D01*
X169210154Y-87137063D01*
X169206792Y-87141443D01*
X169205678Y-87146852D01*
X169183506Y-87171788D01*
X169163199Y-87198252D01*
X169158099Y-87200364D01*
X169154430Y-87204491D01*
X169131675Y-87211308D01*
X169091942Y-87227766D01*
X169081227Y-87228784D01*
X169076865Y-87229040D01*
X168991403Y-87229040D01*
X168967432Y-87235462D01*
X168952266Y-87236353D01*
X168928863Y-87231531D01*
X168904970Y-87231531D01*
X168891716Y-87223878D01*
X168876724Y-87220790D01*
X168858865Y-87204911D01*
X168838176Y-87192966D01*
X168830524Y-87179713D01*
X168819085Y-87169542D01*
X168811559Y-87146864D01*
X168805359Y-87136126D01*
X168803776Y-87136782D01*
X168800037Y-87127757D01*
X168800037Y-87127756D01*
X168720980Y-86990824D01*
X168609176Y-86879020D01*
X168560713Y-86851040D01*
X168548793Y-86844158D01*
X168494255Y-86789620D01*
X168474293Y-86715120D01*
X168494254Y-86640622D01*
X168540037Y-86561324D01*
X168580960Y-86408597D01*
X168580960Y-86250483D01*
X168540037Y-86097756D01*
X168460980Y-85960824D01*
X168349176Y-85849020D01*
X168212244Y-85769963D01*
X168059517Y-85729040D01*
X167901403Y-85729040D01*
X167748676Y-85769963D01*
X167748674Y-85769963D01*
X167748674Y-85769964D01*
X167611743Y-85849020D01*
X167499940Y-85960823D01*
X167424611Y-86091298D01*
X167420883Y-86097756D01*
X167406580Y-86151137D01*
X167379960Y-86250481D01*
X154619597Y-86250481D01*
X154668249Y-86201829D01*
X154695877Y-86160481D01*
X154697578Y-86157936D01*
X154755853Y-86070721D01*
X154755853Y-86070720D01*
X154755854Y-86070719D01*
X154816197Y-85925037D01*
X154846960Y-85770382D01*
X154846960Y-85612698D01*
X154845820Y-85606969D01*
X154827883Y-85516793D01*
X154816197Y-85458043D01*
X154769343Y-85344927D01*
X154755855Y-85312363D01*
X154747916Y-85300481D01*
X154668249Y-85181251D01*
X154556749Y-85069751D01*
X154425639Y-84982146D01*
X154425638Y-84982145D01*
X154425636Y-84982144D01*
X154279958Y-84921803D01*
X154279954Y-84921802D01*
X154125302Y-84891040D01*
X153967618Y-84891040D01*
X153812965Y-84921802D01*
X153812961Y-84921803D01*
X153667283Y-84982144D01*
X153624361Y-85010824D01*
X153542727Y-85065371D01*
X153536167Y-85069754D01*
X153424674Y-85181247D01*
X153424671Y-85181250D01*
X153424671Y-85181251D01*
X153406400Y-85208596D01*
X153337064Y-85312363D01*
X153276723Y-85458041D01*
X153276722Y-85458045D01*
X153245960Y-85612697D01*
X126795869Y-85612697D01*
X126795265Y-84296535D01*
X156205960Y-84296535D01*
X156205960Y-84442544D01*
X156229137Y-84529040D01*
X156243748Y-84583569D01*
X156316749Y-84710011D01*
X156419989Y-84813251D01*
X156546431Y-84886252D01*
X156674860Y-84920664D01*
X156684510Y-84923250D01*
X156687459Y-84924040D01*
X156833461Y-84924040D01*
X156974489Y-84886252D01*
X157100931Y-84813251D01*
X157164273Y-84749909D01*
X161711960Y-84749909D01*
X161711960Y-84909170D01*
X161743029Y-85065369D01*
X161743030Y-85065371D01*
X161802356Y-85208596D01*
X161803977Y-85212508D01*
X161892457Y-85344929D01*
X162005071Y-85457543D01*
X162137492Y-85546023D01*
X162284629Y-85606970D01*
X162440830Y-85638040D01*
X162600090Y-85638040D01*
X162756291Y-85606970D01*
X162903428Y-85546023D01*
X163035849Y-85457543D01*
X163148463Y-85344929D01*
X163236943Y-85212508D01*
X163297890Y-85065371D01*
X163300852Y-85050481D01*
X169909960Y-85050481D01*
X169909960Y-85208598D01*
X169914930Y-85227146D01*
X169950883Y-85361324D01*
X170029940Y-85498256D01*
X170141744Y-85610060D01*
X170278676Y-85689117D01*
X170431403Y-85730040D01*
X170589517Y-85730040D01*
X170599203Y-85728765D01*
X170599454Y-85730677D01*
X170664260Y-85730671D01*
X170731059Y-85769229D01*
X170769629Y-85836020D01*
X170769637Y-85913148D01*
X170754749Y-85949096D01*
X170720884Y-86007753D01*
X170679960Y-86160481D01*
X170679960Y-86160483D01*
X170679960Y-86318597D01*
X170720883Y-86471324D01*
X170799940Y-86608256D01*
X170911744Y-86720060D01*
X171048676Y-86799117D01*
X171201403Y-86840040D01*
X171359517Y-86840040D01*
X171512244Y-86799117D01*
X171649176Y-86720060D01*
X171748755Y-86620481D01*
X173079960Y-86620481D01*
X173079960Y-86778598D01*
X173085458Y-86799115D01*
X173120883Y-86931324D01*
X173199940Y-87068256D01*
X173311744Y-87180060D01*
X173448676Y-87259117D01*
X173601403Y-87300040D01*
X173759517Y-87300040D01*
X173912244Y-87259117D01*
X174049176Y-87180060D01*
X174160980Y-87068256D01*
X174240037Y-86931324D01*
X174240263Y-86930481D01*
X176269960Y-86930481D01*
X176269960Y-87088598D01*
X176274082Y-87103982D01*
X176310883Y-87241324D01*
X176389940Y-87378256D01*
X176501744Y-87490060D01*
X176638676Y-87569117D01*
X176791403Y-87610040D01*
X176949517Y-87610040D01*
X177061968Y-87579909D01*
X196101960Y-87579909D01*
X196101960Y-87739170D01*
X196133029Y-87895369D01*
X196133030Y-87895371D01*
X196174446Y-87995358D01*
X196193977Y-88042508D01*
X196282457Y-88174929D01*
X196395071Y-88287543D01*
X196527492Y-88376023D01*
X196674629Y-88436970D01*
X196830830Y-88468040D01*
X196990090Y-88468040D01*
X197146291Y-88436970D01*
X197293428Y-88376023D01*
X197425849Y-88287543D01*
X197538463Y-88174929D01*
X197626943Y-88042508D01*
X197687890Y-87895371D01*
X197718813Y-87739909D01*
X202511960Y-87739909D01*
X202511960Y-87899170D01*
X202543029Y-88055369D01*
X202543030Y-88055371D01*
X202602215Y-88198256D01*
X202603977Y-88202508D01*
X202692457Y-88334929D01*
X202805071Y-88447543D01*
X202937492Y-88536023D01*
X203084629Y-88596970D01*
X203240830Y-88628040D01*
X203400090Y-88628040D01*
X203556291Y-88596970D01*
X203703428Y-88536023D01*
X203835849Y-88447543D01*
X203948463Y-88334929D01*
X204036943Y-88202508D01*
X204097890Y-88055371D01*
X204128960Y-87899170D01*
X204128960Y-87739910D01*
X204119128Y-87690483D01*
X204107090Y-87629963D01*
X204097890Y-87583709D01*
X204036943Y-87436572D01*
X203948463Y-87304151D01*
X203835849Y-87191537D01*
X203703428Y-87103057D01*
X203703425Y-87103055D01*
X203703424Y-87103055D01*
X203556291Y-87042110D01*
X203556289Y-87042109D01*
X203400090Y-87011040D01*
X203240830Y-87011040D01*
X203084630Y-87042109D01*
X203084628Y-87042110D01*
X202937495Y-87103055D01*
X202805072Y-87191536D01*
X202805070Y-87191537D01*
X202692457Y-87304150D01*
X202692456Y-87304152D01*
X202603975Y-87436575D01*
X202543030Y-87583708D01*
X202543029Y-87583710D01*
X202511960Y-87739909D01*
X197718813Y-87739909D01*
X197718960Y-87739170D01*
X197718960Y-87579910D01*
X197687890Y-87423709D01*
X197626943Y-87276572D01*
X197538463Y-87144151D01*
X197425849Y-87031537D01*
X197293428Y-86943057D01*
X197293425Y-86943055D01*
X197293424Y-86943055D01*
X197146291Y-86882110D01*
X197146289Y-86882109D01*
X196990090Y-86851040D01*
X196830830Y-86851040D01*
X196674630Y-86882109D01*
X196674628Y-86882110D01*
X196527495Y-86943055D01*
X196395072Y-87031536D01*
X196395070Y-87031537D01*
X196282457Y-87144150D01*
X196282456Y-87144152D01*
X196193975Y-87276575D01*
X196133030Y-87423708D01*
X196133029Y-87423710D01*
X196101960Y-87579909D01*
X177061968Y-87579909D01*
X177102244Y-87569117D01*
X177239176Y-87490060D01*
X177350980Y-87378256D01*
X177430037Y-87241324D01*
X177470960Y-87088597D01*
X177470960Y-86930483D01*
X177430037Y-86777756D01*
X177350980Y-86640824D01*
X177239176Y-86529020D01*
X177102244Y-86449963D01*
X176949517Y-86409040D01*
X176791403Y-86409040D01*
X176638676Y-86449963D01*
X176638674Y-86449963D01*
X176638674Y-86449964D01*
X176501743Y-86529020D01*
X176389940Y-86640823D01*
X176311845Y-86776089D01*
X176310883Y-86777756D01*
X176302227Y-86810060D01*
X176269960Y-86930481D01*
X174240263Y-86930481D01*
X174280960Y-86778597D01*
X174280960Y-86620483D01*
X174240037Y-86467756D01*
X174160980Y-86330824D01*
X174049176Y-86219020D01*
X173912244Y-86139963D01*
X173759517Y-86099040D01*
X173601403Y-86099040D01*
X173448676Y-86139963D01*
X173448674Y-86139963D01*
X173448674Y-86139964D01*
X173311743Y-86219020D01*
X173199940Y-86330823D01*
X173120884Y-86467754D01*
X173079960Y-86620481D01*
X171748755Y-86620481D01*
X171760980Y-86608256D01*
X171840037Y-86471324D01*
X171880960Y-86318597D01*
X171880960Y-86259040D01*
X171900922Y-86184540D01*
X171955460Y-86130002D01*
X172029960Y-86110040D01*
X172090482Y-86110040D01*
X172243209Y-86069117D01*
X172380141Y-85990060D01*
X172491945Y-85878256D01*
X172571002Y-85741324D01*
X172611925Y-85588597D01*
X172611925Y-85430483D01*
X172577091Y-85300481D01*
X173799960Y-85300481D01*
X173799960Y-85300483D01*
X173799960Y-85458597D01*
X173840883Y-85611324D01*
X173919940Y-85748256D01*
X174031744Y-85860060D01*
X174168676Y-85939117D01*
X174321403Y-85980040D01*
X174479517Y-85980040D01*
X174632244Y-85939117D01*
X174769176Y-85860060D01*
X174880980Y-85748256D01*
X174960037Y-85611324D01*
X175000960Y-85458597D01*
X175000960Y-85340481D01*
X175709960Y-85340481D01*
X175709960Y-85498598D01*
X175716795Y-85524106D01*
X175750883Y-85651324D01*
X175829940Y-85788256D01*
X175941744Y-85900060D01*
X176078676Y-85979117D01*
X176231403Y-86020040D01*
X176389517Y-86020040D01*
X176542244Y-85979117D01*
X176679176Y-85900060D01*
X176721539Y-85857697D01*
X189199960Y-85857697D01*
X189199960Y-86015382D01*
X189230722Y-86170034D01*
X189230723Y-86170038D01*
X189291064Y-86315716D01*
X189291065Y-86315718D01*
X189291066Y-86315719D01*
X189378671Y-86446829D01*
X189490171Y-86558329D01*
X189621281Y-86645934D01*
X189621282Y-86645934D01*
X189621283Y-86645935D01*
X189625670Y-86647752D01*
X189766963Y-86706277D01*
X189921618Y-86737040D01*
X190079302Y-86737040D01*
X190233957Y-86706277D01*
X190379639Y-86645934D01*
X190510749Y-86558329D01*
X190622249Y-86446829D01*
X190709854Y-86315719D01*
X190770197Y-86170037D01*
X190800960Y-86015382D01*
X190800960Y-85857698D01*
X190770197Y-85703043D01*
X190732204Y-85611319D01*
X190709855Y-85557363D01*
X190709854Y-85557361D01*
X190622249Y-85426251D01*
X190510749Y-85314751D01*
X190379639Y-85227146D01*
X190379638Y-85227145D01*
X190379636Y-85227144D01*
X190233958Y-85166803D01*
X190233954Y-85166802D01*
X190079302Y-85136040D01*
X189921618Y-85136040D01*
X189766965Y-85166802D01*
X189766961Y-85166803D01*
X189621283Y-85227144D01*
X189490167Y-85314754D01*
X189378674Y-85426247D01*
X189378671Y-85426250D01*
X189378671Y-85426251D01*
X189357763Y-85457542D01*
X189291064Y-85557363D01*
X189230723Y-85703041D01*
X189230722Y-85703045D01*
X189199960Y-85857697D01*
X176721539Y-85857697D01*
X176790980Y-85788256D01*
X176870037Y-85651324D01*
X176910960Y-85498597D01*
X176910960Y-85340483D01*
X176870037Y-85187756D01*
X176790980Y-85050824D01*
X176679176Y-84939020D01*
X176542244Y-84859963D01*
X176389517Y-84819040D01*
X176231403Y-84819040D01*
X176078676Y-84859963D01*
X176078674Y-84859963D01*
X176078674Y-84859964D01*
X175941743Y-84939020D01*
X175829940Y-85050823D01*
X175750884Y-85187754D01*
X175750883Y-85187756D01*
X175744252Y-85212504D01*
X175709960Y-85340481D01*
X175000960Y-85340481D01*
X175000960Y-85300483D01*
X174960037Y-85147756D01*
X174880980Y-85010824D01*
X174769176Y-84899020D01*
X174632244Y-84819963D01*
X174479517Y-84779040D01*
X174321403Y-84779040D01*
X174168676Y-84819963D01*
X174168674Y-84819963D01*
X174168674Y-84819964D01*
X174031743Y-84899020D01*
X173919940Y-85010823D01*
X173885917Y-85069754D01*
X173840883Y-85147756D01*
X173823534Y-85212504D01*
X173799960Y-85300481D01*
X172577091Y-85300481D01*
X172571002Y-85277756D01*
X172491945Y-85140824D01*
X172380141Y-85029020D01*
X172243209Y-84949963D01*
X172090482Y-84909040D01*
X171932368Y-84909040D01*
X171779641Y-84949963D01*
X171779639Y-84949963D01*
X171779639Y-84949964D01*
X171642708Y-85029020D01*
X171530905Y-85140823D01*
X171481067Y-85227146D01*
X171451848Y-85277756D01*
X171438042Y-85329282D01*
X171410925Y-85430481D01*
X171410925Y-85490040D01*
X171401797Y-85524106D01*
X171394244Y-85558543D01*
X171391873Y-85561141D01*
X171390963Y-85564540D01*
X171366025Y-85589477D01*
X171342265Y-85615525D01*
X171339031Y-85616471D01*
X171336425Y-85619078D01*
X171268760Y-85638883D01*
X171265341Y-85639040D01*
X171201403Y-85639040D01*
X171188180Y-85642583D01*
X171172044Y-85643324D01*
X171149606Y-85638402D01*
X171126635Y-85638401D01*
X171112570Y-85630279D01*
X171096706Y-85626800D01*
X171079735Y-85611319D01*
X171059843Y-85599833D01*
X171051722Y-85585766D01*
X171039724Y-85574821D01*
X171032767Y-85552929D01*
X171021283Y-85533035D01*
X171021284Y-85516793D01*
X171016366Y-85501316D01*
X171021287Y-85478878D01*
X171021289Y-85455907D01*
X171031993Y-85430066D01*
X171032890Y-85425978D01*
X171034349Y-85424377D01*
X171036169Y-85419985D01*
X171070037Y-85361324D01*
X171110960Y-85208597D01*
X171110960Y-85050483D01*
X171070037Y-84897756D01*
X170990980Y-84760824D01*
X170879176Y-84649020D01*
X170742244Y-84569963D01*
X170589517Y-84529040D01*
X170431403Y-84529040D01*
X170278676Y-84569963D01*
X170278674Y-84569963D01*
X170278674Y-84569964D01*
X170141743Y-84649020D01*
X170029940Y-84760823D01*
X169972702Y-84859964D01*
X169950883Y-84897756D01*
X169936894Y-84949963D01*
X169909960Y-85050481D01*
X163300852Y-85050481D01*
X163328960Y-84909170D01*
X163328960Y-84749910D01*
X163297890Y-84593709D01*
X163236943Y-84446572D01*
X163210191Y-84406535D01*
X184295960Y-84406535D01*
X184295960Y-84552544D01*
X184306991Y-84593710D01*
X184333748Y-84693569D01*
X184406749Y-84820011D01*
X184509989Y-84923251D01*
X184636431Y-84996252D01*
X184777459Y-85034040D01*
X184923461Y-85034040D01*
X185064489Y-84996252D01*
X185190931Y-84923251D01*
X185294171Y-84820011D01*
X185367172Y-84693569D01*
X185404960Y-84552541D01*
X185404960Y-84406539D01*
X185367172Y-84265511D01*
X185294171Y-84139069D01*
X185190931Y-84035829D01*
X185064489Y-83962828D01*
X184923464Y-83925040D01*
X184923461Y-83925040D01*
X184777459Y-83925040D01*
X184777455Y-83925040D01*
X184636430Y-83962828D01*
X184509988Y-84035829D01*
X184406749Y-84139068D01*
X184333748Y-84265510D01*
X184295960Y-84406535D01*
X163210191Y-84406535D01*
X163148463Y-84314151D01*
X163102512Y-84268200D01*
X163063948Y-84201405D01*
X163063948Y-84124277D01*
X163102512Y-84057482D01*
X163133368Y-84033805D01*
X163220931Y-83983251D01*
X163324171Y-83880011D01*
X163397172Y-83753569D01*
X163434960Y-83612541D01*
X163434960Y-83466539D01*
X163397172Y-83325511D01*
X163324171Y-83199069D01*
X163220931Y-83095829D01*
X163094489Y-83022828D01*
X162953464Y-82985040D01*
X162953461Y-82985040D01*
X162807459Y-82985040D01*
X162807455Y-82985040D01*
X162666430Y-83022828D01*
X162539988Y-83095829D01*
X162436749Y-83199068D01*
X162363748Y-83325510D01*
X162325960Y-83466535D01*
X162325960Y-83612544D01*
X162363749Y-83753571D01*
X162406240Y-83827169D01*
X162426202Y-83901669D01*
X162406239Y-83976169D01*
X162351701Y-84030706D01*
X162306271Y-84047805D01*
X162284629Y-84052109D01*
X162284628Y-84052110D01*
X162137495Y-84113055D01*
X162005072Y-84201536D01*
X162005070Y-84201537D01*
X161892457Y-84314150D01*
X161892456Y-84314152D01*
X161803975Y-84446575D01*
X161743030Y-84593708D01*
X161743029Y-84593710D01*
X161711960Y-84749909D01*
X157164273Y-84749909D01*
X157204171Y-84710011D01*
X157277172Y-84583569D01*
X157314960Y-84442541D01*
X157314960Y-84296539D01*
X157277172Y-84155511D01*
X157204171Y-84029069D01*
X157100931Y-83925829D01*
X156974489Y-83852828D01*
X156963976Y-83850011D01*
X156833464Y-83815040D01*
X156833461Y-83815040D01*
X156687459Y-83815040D01*
X156687455Y-83815040D01*
X156546430Y-83852828D01*
X156419988Y-83925829D01*
X156316749Y-84029068D01*
X156243748Y-84155510D01*
X156205960Y-84296535D01*
X126795265Y-84296535D01*
X126794756Y-83186535D01*
X137055960Y-83186535D01*
X137055960Y-83332544D01*
X137070876Y-83388209D01*
X137093748Y-83473569D01*
X137166749Y-83600011D01*
X137269989Y-83703251D01*
X137396431Y-83776252D01*
X137537459Y-83814040D01*
X137683461Y-83814040D01*
X137824489Y-83776252D01*
X137950931Y-83703251D01*
X138054171Y-83600011D01*
X138127172Y-83473569D01*
X138137095Y-83436535D01*
X158195960Y-83436535D01*
X158195960Y-83582544D01*
X158228304Y-83703251D01*
X158233748Y-83723569D01*
X158306749Y-83850011D01*
X158409989Y-83953251D01*
X158536431Y-84026252D01*
X158677459Y-84064040D01*
X158823461Y-84064040D01*
X158964489Y-84026252D01*
X159090931Y-83953251D01*
X159194171Y-83850011D01*
X159267172Y-83723569D01*
X159304960Y-83582541D01*
X159304960Y-83436539D01*
X159267172Y-83295511D01*
X159194171Y-83169069D01*
X159090931Y-83065829D01*
X158964489Y-82992828D01*
X158935424Y-82985040D01*
X158823464Y-82955040D01*
X158823461Y-82955040D01*
X158677459Y-82955040D01*
X158677455Y-82955040D01*
X158536430Y-82992828D01*
X158409988Y-83065829D01*
X158306749Y-83169068D01*
X158233748Y-83295510D01*
X158195960Y-83436535D01*
X138137095Y-83436535D01*
X138164960Y-83332541D01*
X138164960Y-83186539D01*
X138127172Y-83045511D01*
X138054171Y-82919069D01*
X137950931Y-82815829D01*
X137824489Y-82742828D01*
X137683464Y-82705040D01*
X137683461Y-82705040D01*
X137537459Y-82705040D01*
X137537455Y-82705040D01*
X137396430Y-82742828D01*
X137269988Y-82815829D01*
X137166749Y-82919068D01*
X137093748Y-83045510D01*
X137055960Y-83186535D01*
X126794756Y-83186535D01*
X126793307Y-80025929D01*
X128561960Y-80025929D01*
X128561960Y-80199151D01*
X128568046Y-80237575D01*
X128589057Y-80370240D01*
X128627113Y-80487361D01*
X128642587Y-80534985D01*
X128721145Y-80689164D01*
X128721231Y-80689333D01*
X128729105Y-80700170D01*
X128823046Y-80829468D01*
X128945532Y-80951954D01*
X128985956Y-80981324D01*
X129068830Y-81041536D01*
X129085672Y-81053772D01*
X129240015Y-81132413D01*
X129404759Y-81185942D01*
X129575849Y-81213040D01*
X129575853Y-81213040D01*
X129749067Y-81213040D01*
X129749071Y-81213040D01*
X129920161Y-81185942D01*
X130084905Y-81132413D01*
X130239248Y-81053772D01*
X130379388Y-80951954D01*
X130501874Y-80829468D01*
X130603692Y-80689328D01*
X130679315Y-80540909D01*
X145781960Y-80540909D01*
X145781960Y-80700170D01*
X145813029Y-80856369D01*
X145813030Y-80856371D01*
X145871195Y-80996793D01*
X145873977Y-81003508D01*
X145962457Y-81135929D01*
X146075071Y-81248543D01*
X146207492Y-81337023D01*
X146354629Y-81397970D01*
X146510830Y-81429040D01*
X146670090Y-81429040D01*
X146826291Y-81397970D01*
X146973428Y-81337023D01*
X147009835Y-81312697D01*
X153245960Y-81312697D01*
X153245960Y-81470382D01*
X153276722Y-81625034D01*
X153276723Y-81625038D01*
X153337064Y-81770716D01*
X153337065Y-81770718D01*
X153337066Y-81770719D01*
X153424671Y-81901829D01*
X153536171Y-82013329D01*
X153667281Y-82100934D01*
X153812963Y-82161277D01*
X153967618Y-82192040D01*
X154125302Y-82192040D01*
X154279957Y-82161277D01*
X154425639Y-82100934D01*
X154556749Y-82013329D01*
X154668249Y-81901829D01*
X154755854Y-81770719D01*
X154816197Y-81625037D01*
X154846960Y-81470382D01*
X154846960Y-81312698D01*
X154816197Y-81158043D01*
X154755854Y-81012361D01*
X154668249Y-80881251D01*
X154556749Y-80769751D01*
X154425639Y-80682146D01*
X154425638Y-80682145D01*
X154425636Y-80682144D01*
X154279958Y-80621803D01*
X154279954Y-80621802D01*
X154125302Y-80591040D01*
X153967618Y-80591040D01*
X153812965Y-80621802D01*
X153812961Y-80621803D01*
X153667283Y-80682144D01*
X153536167Y-80769754D01*
X153424674Y-80881247D01*
X153337064Y-81012363D01*
X153276723Y-81158041D01*
X153276722Y-81158045D01*
X153245960Y-81312697D01*
X147009835Y-81312697D01*
X147105849Y-81248543D01*
X147218463Y-81135929D01*
X147306943Y-81003508D01*
X147367890Y-80856371D01*
X147398960Y-80700170D01*
X147398960Y-80540910D01*
X147397782Y-80534990D01*
X147367890Y-80384710D01*
X147367890Y-80384709D01*
X147306943Y-80237572D01*
X147218463Y-80105151D01*
X147105849Y-79992537D01*
X146973428Y-79904057D01*
X146973425Y-79904055D01*
X146973424Y-79904055D01*
X146826291Y-79843110D01*
X146826289Y-79843109D01*
X146670090Y-79812040D01*
X146510830Y-79812040D01*
X146354630Y-79843109D01*
X146354628Y-79843110D01*
X146207495Y-79904055D01*
X146075072Y-79992536D01*
X146075070Y-79992537D01*
X145962457Y-80105150D01*
X145962456Y-80105152D01*
X145873975Y-80237575D01*
X145813030Y-80384708D01*
X145813029Y-80384710D01*
X145781960Y-80540909D01*
X130679315Y-80540909D01*
X130682333Y-80534985D01*
X130735862Y-80370241D01*
X130762960Y-80199151D01*
X130762960Y-80025929D01*
X130735862Y-79854839D01*
X130682333Y-79690095D01*
X130603692Y-79535752D01*
X130574616Y-79495733D01*
X130535813Y-79442325D01*
X130501874Y-79395612D01*
X130379388Y-79273126D01*
X130335618Y-79241325D01*
X130239253Y-79171311D01*
X130239250Y-79171309D01*
X130239248Y-79171308D01*
X130084905Y-79092667D01*
X130037281Y-79077193D01*
X129920160Y-79039137D01*
X129822546Y-79023677D01*
X129749071Y-79012040D01*
X129575849Y-79012040D01*
X129509497Y-79022549D01*
X129404759Y-79039137D01*
X129240021Y-79092665D01*
X129240015Y-79092667D01*
X129240009Y-79092669D01*
X129240009Y-79092670D01*
X129085666Y-79171311D01*
X128945535Y-79273123D01*
X128823043Y-79395615D01*
X128721231Y-79535746D01*
X128642590Y-79690089D01*
X128642585Y-79690101D01*
X128589057Y-79854839D01*
X128570933Y-79969274D01*
X128561960Y-80025929D01*
X126793307Y-80025929D01*
X126792143Y-77485929D01*
X128561960Y-77485929D01*
X128561960Y-77659151D01*
X128569866Y-77709068D01*
X128589057Y-77830240D01*
X128614893Y-77909753D01*
X128642587Y-77994985D01*
X128720857Y-78148598D01*
X128721231Y-78149333D01*
X128813278Y-78276024D01*
X128823046Y-78289468D01*
X128945532Y-78411954D01*
X128992245Y-78445893D01*
X129070213Y-78502541D01*
X129085672Y-78513772D01*
X129240015Y-78592413D01*
X129404759Y-78645942D01*
X129575849Y-78673040D01*
X129575853Y-78673040D01*
X129749067Y-78673040D01*
X129749071Y-78673040D01*
X129920161Y-78645942D01*
X130084905Y-78592413D01*
X130239248Y-78513772D01*
X130379388Y-78411954D01*
X130434807Y-78356535D01*
X140665960Y-78356535D01*
X140665960Y-78502544D01*
X140698505Y-78624002D01*
X140703748Y-78643569D01*
X140776749Y-78770011D01*
X140879989Y-78873251D01*
X141006431Y-78946252D01*
X141147459Y-78984040D01*
X141293461Y-78984040D01*
X141434489Y-78946252D01*
X141560931Y-78873251D01*
X141664171Y-78770011D01*
X141737172Y-78643569D01*
X141774960Y-78502541D01*
X141774960Y-78356539D01*
X141737172Y-78215511D01*
X141664171Y-78089069D01*
X141560931Y-77985829D01*
X141434489Y-77912828D01*
X141409820Y-77906218D01*
X141293464Y-77875040D01*
X141293461Y-77875040D01*
X141147459Y-77875040D01*
X141147455Y-77875040D01*
X141006430Y-77912828D01*
X140879988Y-77985829D01*
X140776749Y-78089068D01*
X140703748Y-78215510D01*
X140665960Y-78356535D01*
X130434807Y-78356535D01*
X130501874Y-78289468D01*
X130603692Y-78149328D01*
X130682333Y-77994985D01*
X130735862Y-77830241D01*
X130762960Y-77659151D01*
X130762960Y-77526535D01*
X142605960Y-77526535D01*
X142605960Y-77672544D01*
X142637443Y-77790039D01*
X142643748Y-77813569D01*
X142716749Y-77940011D01*
X142819989Y-78043251D01*
X142946431Y-78116252D01*
X143087459Y-78154040D01*
X143233461Y-78154040D01*
X143374489Y-78116252D01*
X143500931Y-78043251D01*
X143604171Y-77940011D01*
X143677172Y-77813569D01*
X143714960Y-77672541D01*
X143714960Y-77526539D01*
X143702466Y-77479909D01*
X148761960Y-77479909D01*
X148761960Y-77639170D01*
X148793029Y-77795369D01*
X148793030Y-77795371D01*
X148852942Y-77940011D01*
X148853977Y-77942508D01*
X148942457Y-78074929D01*
X149055071Y-78187543D01*
X149187492Y-78276023D01*
X149334629Y-78336970D01*
X149490830Y-78368040D01*
X149650090Y-78368040D01*
X149806291Y-78336970D01*
X149953428Y-78276023D01*
X150085849Y-78187543D01*
X150198463Y-78074929D01*
X150264207Y-77976535D01*
X154955960Y-77976535D01*
X154955960Y-78122544D01*
X154980871Y-78215511D01*
X154993748Y-78263569D01*
X155066749Y-78390011D01*
X155169989Y-78493251D01*
X155296431Y-78566252D01*
X155424860Y-78600664D01*
X155437455Y-78604039D01*
X155437459Y-78604040D01*
X155562221Y-78604040D01*
X155636721Y-78624002D01*
X155691258Y-78678539D01*
X155726749Y-78740011D01*
X155829989Y-78843251D01*
X155956431Y-78916252D01*
X156097459Y-78954040D01*
X156243461Y-78954040D01*
X156331385Y-78930481D01*
X160719960Y-78930481D01*
X160719960Y-79088598D01*
X160721051Y-79092670D01*
X160760883Y-79241324D01*
X160839940Y-79378256D01*
X160951744Y-79490060D01*
X161088676Y-79569117D01*
X161241403Y-79610040D01*
X161399517Y-79610040D01*
X161552244Y-79569117D01*
X161689176Y-79490060D01*
X161800980Y-79378256D01*
X161880037Y-79241324D01*
X161885773Y-79219916D01*
X165413560Y-79219916D01*
X165413560Y-79359163D01*
X165440725Y-79495733D01*
X165494011Y-79624378D01*
X165494013Y-79624380D01*
X165494014Y-79624383D01*
X165571375Y-79740162D01*
X165669838Y-79838625D01*
X165785617Y-79915986D01*
X165785619Y-79915987D01*
X165785621Y-79915988D01*
X165816531Y-79928791D01*
X165914265Y-79969274D01*
X165969636Y-79980288D01*
X166038810Y-80014401D01*
X166081660Y-80078531D01*
X166086704Y-80155494D01*
X166064456Y-80209205D01*
X166014016Y-80284691D01*
X166014011Y-80284701D01*
X165960725Y-80413346D01*
X165933560Y-80549916D01*
X165933560Y-80689163D01*
X165960725Y-80825733D01*
X166014011Y-80954378D01*
X166014013Y-80954380D01*
X166014014Y-80954383D01*
X166091375Y-81070162D01*
X166189838Y-81168625D01*
X166305617Y-81245986D01*
X166305619Y-81245987D01*
X166305621Y-81245988D01*
X166333081Y-81257362D01*
X166434265Y-81299274D01*
X166570836Y-81326440D01*
X166570837Y-81326440D01*
X166710083Y-81326440D01*
X166710084Y-81326440D01*
X166846655Y-81299274D01*
X166975303Y-81245986D01*
X167091082Y-81168625D01*
X167189545Y-81070162D01*
X167266906Y-80954383D01*
X167320194Y-80825735D01*
X167347360Y-80689164D01*
X167347360Y-80670481D01*
X173809960Y-80670481D01*
X173809960Y-80828598D01*
X173813672Y-80842450D01*
X173850883Y-80981324D01*
X173929940Y-81118256D01*
X174041744Y-81230060D01*
X174178676Y-81309117D01*
X174331403Y-81350040D01*
X174489517Y-81350040D01*
X174642244Y-81309117D01*
X174779176Y-81230060D01*
X174882701Y-81126535D01*
X184375960Y-81126535D01*
X184375960Y-81272544D01*
X184409568Y-81397969D01*
X184413748Y-81413569D01*
X184486749Y-81540011D01*
X184589989Y-81643251D01*
X184716431Y-81716252D01*
X184857459Y-81754040D01*
X185003461Y-81754040D01*
X185144489Y-81716252D01*
X185270931Y-81643251D01*
X185356485Y-81557697D01*
X189199960Y-81557697D01*
X189199960Y-81715382D01*
X189230722Y-81870034D01*
X189230723Y-81870038D01*
X189291064Y-82015716D01*
X189291065Y-82015718D01*
X189291066Y-82015719D01*
X189378671Y-82146829D01*
X189490171Y-82258329D01*
X189621281Y-82345934D01*
X189766963Y-82406277D01*
X189921618Y-82437040D01*
X190079302Y-82437040D01*
X190233957Y-82406277D01*
X190379639Y-82345934D01*
X190510749Y-82258329D01*
X190622249Y-82146829D01*
X190709854Y-82015719D01*
X190770197Y-81870037D01*
X190800960Y-81715382D01*
X190800960Y-81557698D01*
X190770197Y-81403043D01*
X190709854Y-81257361D01*
X190708685Y-81255612D01*
X190647136Y-81163497D01*
X190647135Y-81163495D01*
X190622251Y-81126254D01*
X190622249Y-81126251D01*
X190586479Y-81090481D01*
X194639960Y-81090481D01*
X194639960Y-81248598D01*
X194649045Y-81282504D01*
X194680883Y-81401324D01*
X194759940Y-81538256D01*
X194871744Y-81650060D01*
X195008676Y-81729117D01*
X195161403Y-81770040D01*
X195319517Y-81770040D01*
X195472244Y-81729117D01*
X195609176Y-81650060D01*
X195720980Y-81538256D01*
X195800037Y-81401324D01*
X195840960Y-81248597D01*
X195840960Y-81090483D01*
X195800037Y-80937756D01*
X195731999Y-80819909D01*
X196471960Y-80819909D01*
X196471960Y-80979170D01*
X196503029Y-81135369D01*
X196503030Y-81135371D01*
X196559849Y-81272544D01*
X196563977Y-81282508D01*
X196652457Y-81414929D01*
X196765071Y-81527543D01*
X196897492Y-81616023D01*
X197044629Y-81676970D01*
X197200830Y-81708040D01*
X197360090Y-81708040D01*
X197516291Y-81676970D01*
X197663428Y-81616023D01*
X197702511Y-81589909D01*
X205066960Y-81589909D01*
X205066960Y-81749170D01*
X205098029Y-81905369D01*
X205098030Y-81905371D01*
X205142746Y-82013325D01*
X205158977Y-82052508D01*
X205247457Y-82184929D01*
X205360071Y-82297543D01*
X205492492Y-82386023D01*
X205639629Y-82446970D01*
X205795830Y-82478040D01*
X205955090Y-82478040D01*
X206111291Y-82446970D01*
X206258428Y-82386023D01*
X206390849Y-82297543D01*
X206503463Y-82184929D01*
X206591943Y-82052508D01*
X206652890Y-81905371D01*
X206683960Y-81749170D01*
X206683960Y-81589910D01*
X206677552Y-81557697D01*
X206652890Y-81433710D01*
X206652890Y-81433709D01*
X206591943Y-81286572D01*
X206503463Y-81154151D01*
X206390849Y-81041537D01*
X206258428Y-80953057D01*
X206258425Y-80953055D01*
X206258424Y-80953055D01*
X206111291Y-80892110D01*
X206111289Y-80892109D01*
X205955090Y-80861040D01*
X205795830Y-80861040D01*
X205639630Y-80892109D01*
X205639628Y-80892110D01*
X205492495Y-80953055D01*
X205360072Y-81041536D01*
X205360070Y-81041537D01*
X205247457Y-81154150D01*
X205247456Y-81154152D01*
X205158975Y-81286575D01*
X205098030Y-81433708D01*
X205098029Y-81433710D01*
X205066960Y-81589909D01*
X197702511Y-81589909D01*
X197795849Y-81527543D01*
X197908463Y-81414929D01*
X197996943Y-81282508D01*
X198057890Y-81135371D01*
X198088960Y-80979170D01*
X198088960Y-80819910D01*
X198085163Y-80800823D01*
X198062953Y-80689163D01*
X198057890Y-80663709D01*
X197996943Y-80516572D01*
X197908463Y-80384151D01*
X197795849Y-80271537D01*
X197663428Y-80183057D01*
X197663425Y-80183055D01*
X197663424Y-80183055D01*
X197516291Y-80122110D01*
X197516289Y-80122109D01*
X197360090Y-80091040D01*
X197200830Y-80091040D01*
X197044630Y-80122109D01*
X197044628Y-80122110D01*
X196897495Y-80183055D01*
X196765072Y-80271536D01*
X196765070Y-80271537D01*
X196652457Y-80384150D01*
X196652456Y-80384152D01*
X196563975Y-80516575D01*
X196503030Y-80663708D01*
X196503029Y-80663710D01*
X196471960Y-80819909D01*
X195731999Y-80819909D01*
X195720980Y-80800824D01*
X195609176Y-80689020D01*
X195472244Y-80609963D01*
X195319517Y-80569040D01*
X195161403Y-80569040D01*
X195008676Y-80609963D01*
X195008674Y-80609963D01*
X195008674Y-80609964D01*
X194871743Y-80689020D01*
X194759940Y-80800823D01*
X194680884Y-80937754D01*
X194680883Y-80937756D01*
X194665064Y-80996793D01*
X194639960Y-81090481D01*
X190586479Y-81090481D01*
X190510749Y-81014751D01*
X190379639Y-80927146D01*
X190379638Y-80927145D01*
X190379636Y-80927144D01*
X190233958Y-80866803D01*
X190233954Y-80866802D01*
X190079302Y-80836040D01*
X189921618Y-80836040D01*
X189766965Y-80866802D01*
X189766961Y-80866803D01*
X189621283Y-80927144D01*
X189543422Y-80979170D01*
X189506998Y-81003508D01*
X189490167Y-81014754D01*
X189378674Y-81126247D01*
X189378671Y-81126250D01*
X189378671Y-81126251D01*
X189360029Y-81154151D01*
X189291064Y-81257363D01*
X189230723Y-81403041D01*
X189230722Y-81403045D01*
X189199960Y-81557697D01*
X185356485Y-81557697D01*
X185374171Y-81540011D01*
X185447172Y-81413569D01*
X185484960Y-81272541D01*
X185484960Y-81126539D01*
X185447172Y-80985511D01*
X185374171Y-80859069D01*
X185270931Y-80755829D01*
X185144489Y-80682828D01*
X185125351Y-80677700D01*
X185003464Y-80645040D01*
X185003461Y-80645040D01*
X184857459Y-80645040D01*
X184857455Y-80645040D01*
X184716430Y-80682828D01*
X184589988Y-80755829D01*
X184486749Y-80859068D01*
X184413748Y-80985510D01*
X184375960Y-81126535D01*
X174882701Y-81126535D01*
X174890980Y-81118256D01*
X174970037Y-80981324D01*
X175010960Y-80828597D01*
X175010960Y-80670483D01*
X174970037Y-80517756D01*
X174890980Y-80380824D01*
X174779176Y-80269020D01*
X174642244Y-80189963D01*
X174489517Y-80149040D01*
X174331403Y-80149040D01*
X174178676Y-80189963D01*
X174178674Y-80189963D01*
X174178674Y-80189964D01*
X174041743Y-80269020D01*
X173929940Y-80380823D01*
X173851565Y-80516575D01*
X173850883Y-80517756D01*
X173844679Y-80540909D01*
X173809960Y-80670481D01*
X167347360Y-80670481D01*
X167347360Y-80549916D01*
X167320194Y-80413345D01*
X167266906Y-80284697D01*
X167189545Y-80168918D01*
X167091082Y-80070455D01*
X166975303Y-79993094D01*
X166975300Y-79993093D01*
X166975298Y-79993091D01*
X166846654Y-79939805D01*
X166791282Y-79928791D01*
X166722108Y-79894677D01*
X166679259Y-79830547D01*
X166674215Y-79753584D01*
X166696460Y-79699879D01*
X166746906Y-79624383D01*
X166800194Y-79495735D01*
X166827360Y-79359164D01*
X166827360Y-79219916D01*
X166800194Y-79083345D01*
X166769776Y-79009909D01*
X199111960Y-79009909D01*
X199111960Y-79169170D01*
X199143029Y-79325369D01*
X199143030Y-79325371D01*
X199173996Y-79400130D01*
X199203977Y-79472508D01*
X199292457Y-79604929D01*
X199405071Y-79717543D01*
X199537492Y-79806023D01*
X199684629Y-79866970D01*
X199840830Y-79898040D01*
X200000090Y-79898040D01*
X200156291Y-79866970D01*
X200303428Y-79806023D01*
X200435849Y-79717543D01*
X200548463Y-79604929D01*
X200636943Y-79472508D01*
X200697890Y-79325371D01*
X200728960Y-79169170D01*
X200728960Y-79009910D01*
X200697890Y-78853709D01*
X200636943Y-78706572D01*
X200548463Y-78574151D01*
X200435849Y-78461537D01*
X200303428Y-78373057D01*
X200303425Y-78373055D01*
X200303424Y-78373055D01*
X200156291Y-78312110D01*
X200156289Y-78312109D01*
X200000090Y-78281040D01*
X199840830Y-78281040D01*
X199684630Y-78312109D01*
X199684628Y-78312110D01*
X199537495Y-78373055D01*
X199405072Y-78461536D01*
X199405070Y-78461537D01*
X199292457Y-78574150D01*
X199292456Y-78574152D01*
X199203975Y-78706575D01*
X199143030Y-78853708D01*
X199143029Y-78853710D01*
X199111960Y-79009909D01*
X166769776Y-79009909D01*
X166746906Y-78954697D01*
X166669545Y-78838918D01*
X166571082Y-78740455D01*
X166455303Y-78663094D01*
X166455300Y-78663093D01*
X166455298Y-78663091D01*
X166353296Y-78620841D01*
X166326655Y-78609806D01*
X166326653Y-78609805D01*
X166326654Y-78609805D01*
X166212536Y-78587106D01*
X166190084Y-78582640D01*
X166050836Y-78582640D01*
X166028384Y-78587106D01*
X165914266Y-78609805D01*
X165785621Y-78663091D01*
X165785617Y-78663094D01*
X165670503Y-78740011D01*
X165669834Y-78740458D01*
X165571378Y-78838914D01*
X165571375Y-78838917D01*
X165571375Y-78838918D01*
X165530649Y-78899869D01*
X165494014Y-78954697D01*
X165494011Y-78954701D01*
X165440725Y-79083346D01*
X165413560Y-79219916D01*
X161885773Y-79219916D01*
X161920960Y-79088597D01*
X161920960Y-78930483D01*
X161880037Y-78777756D01*
X161800980Y-78640824D01*
X161689176Y-78529020D01*
X161552244Y-78449963D01*
X161399517Y-78409040D01*
X161241403Y-78409040D01*
X161088676Y-78449963D01*
X161088674Y-78449963D01*
X161088674Y-78449964D01*
X160951743Y-78529020D01*
X160839940Y-78640823D01*
X160760884Y-78777754D01*
X160719960Y-78930481D01*
X156331385Y-78930481D01*
X156384489Y-78916252D01*
X156510931Y-78843251D01*
X156614171Y-78740011D01*
X156687172Y-78613569D01*
X156724960Y-78472541D01*
X156724960Y-78326539D01*
X156687172Y-78185511D01*
X156614171Y-78059069D01*
X156510931Y-77955829D01*
X156384489Y-77882828D01*
X156355424Y-77875040D01*
X156243464Y-77845040D01*
X156243461Y-77845040D01*
X156118699Y-77845040D01*
X156044199Y-77825078D01*
X155989661Y-77770540D01*
X155989372Y-77770039D01*
X155954171Y-77709069D01*
X155850931Y-77605829D01*
X155724489Y-77532828D01*
X155701003Y-77526535D01*
X155583464Y-77495040D01*
X155583461Y-77495040D01*
X155437459Y-77495040D01*
X155437455Y-77495040D01*
X155296430Y-77532828D01*
X155169988Y-77605829D01*
X155066749Y-77709068D01*
X154993748Y-77835510D01*
X154955960Y-77976535D01*
X150264207Y-77976535D01*
X150286943Y-77942508D01*
X150300404Y-77910011D01*
X150300511Y-77909753D01*
X150311664Y-77882828D01*
X150347890Y-77795371D01*
X150378960Y-77639170D01*
X150378960Y-77479910D01*
X150374513Y-77457555D01*
X150354216Y-77355511D01*
X150347890Y-77323709D01*
X150286943Y-77176572D01*
X150198463Y-77044151D01*
X150085849Y-76931537D01*
X149953428Y-76843057D01*
X149953425Y-76843055D01*
X149953424Y-76843055D01*
X149806291Y-76782110D01*
X149806289Y-76782109D01*
X149650090Y-76751040D01*
X149490830Y-76751040D01*
X149334630Y-76782109D01*
X149334628Y-76782110D01*
X149187495Y-76843055D01*
X149055072Y-76931536D01*
X149055070Y-76931537D01*
X148942457Y-77044150D01*
X148942456Y-77044152D01*
X148853975Y-77176575D01*
X148793030Y-77323708D01*
X148793029Y-77323710D01*
X148761960Y-77479909D01*
X143702466Y-77479909D01*
X143677172Y-77385511D01*
X143604171Y-77259069D01*
X143500931Y-77155829D01*
X143374489Y-77082828D01*
X143233464Y-77045040D01*
X143233461Y-77045040D01*
X143087459Y-77045040D01*
X143087455Y-77045040D01*
X142946430Y-77082828D01*
X142819988Y-77155829D01*
X142716749Y-77259068D01*
X142643748Y-77385510D01*
X142605960Y-77526535D01*
X130762960Y-77526535D01*
X130762960Y-77485929D01*
X130735862Y-77314839D01*
X130682333Y-77150095D01*
X130603692Y-76995752D01*
X130576083Y-76957752D01*
X130535813Y-76902325D01*
X130501874Y-76855612D01*
X130379388Y-76733126D01*
X130322044Y-76691463D01*
X130239253Y-76631311D01*
X130239250Y-76631309D01*
X130239248Y-76631308D01*
X130084905Y-76552667D01*
X129999482Y-76524911D01*
X129920160Y-76499137D01*
X129822546Y-76483677D01*
X129749071Y-76472040D01*
X129575849Y-76472040D01*
X129511998Y-76482153D01*
X129404759Y-76499137D01*
X129267412Y-76543765D01*
X129240015Y-76552667D01*
X129240009Y-76552669D01*
X129240009Y-76552670D01*
X129085666Y-76631311D01*
X128945535Y-76733123D01*
X128823043Y-76855615D01*
X128721231Y-76995746D01*
X128642590Y-77150089D01*
X128642585Y-77150101D01*
X128589057Y-77314839D01*
X128575360Y-77401324D01*
X128561960Y-77485929D01*
X126792143Y-77485929D01*
X126791337Y-75728797D01*
X146846448Y-75728797D01*
X146846448Y-75888058D01*
X146877517Y-76044257D01*
X146877518Y-76044259D01*
X146926008Y-76161324D01*
X146938465Y-76191396D01*
X147026945Y-76323817D01*
X147139559Y-76436431D01*
X147271980Y-76524911D01*
X147419117Y-76585858D01*
X147575318Y-76616928D01*
X147734578Y-76616928D01*
X147890779Y-76585858D01*
X148037916Y-76524911D01*
X148170337Y-76436431D01*
X148282951Y-76323817D01*
X148371431Y-76191396D01*
X148432378Y-76044259D01*
X148463448Y-75888058D01*
X148463448Y-75728798D01*
X148457690Y-75699851D01*
X148457690Y-75699849D01*
X150735160Y-75699849D01*
X150735160Y-75859230D01*
X150776411Y-76013180D01*
X150856097Y-76151199D01*
X150856098Y-76151200D01*
X150856100Y-76151203D01*
X150968797Y-76263900D01*
X150968799Y-76263901D01*
X150968800Y-76263902D01*
X151106819Y-76343588D01*
X151106820Y-76343588D01*
X151106823Y-76343590D01*
X151260771Y-76384840D01*
X151420149Y-76384840D01*
X151574097Y-76343590D01*
X151712123Y-76263900D01*
X151824820Y-76151203D01*
X151904510Y-76013177D01*
X151945760Y-75859229D01*
X151945760Y-75836535D01*
X154865960Y-75836535D01*
X154865960Y-75982544D01*
X154903748Y-76123569D01*
X154976749Y-76250011D01*
X155079989Y-76353251D01*
X155206431Y-76426252D01*
X155347459Y-76464040D01*
X155493461Y-76464040D01*
X155634489Y-76426252D01*
X155760931Y-76353251D01*
X155864171Y-76250011D01*
X155937172Y-76123569D01*
X155974960Y-75982541D01*
X155974960Y-75850481D01*
X162119960Y-75850481D01*
X162119960Y-75850483D01*
X162119960Y-76008597D01*
X162160883Y-76161324D01*
X162239940Y-76298256D01*
X162351744Y-76410060D01*
X162379830Y-76426275D01*
X162434368Y-76480813D01*
X162454330Y-76555313D01*
X162434368Y-76629813D01*
X162379835Y-76684348D01*
X162371744Y-76689019D01*
X162259940Y-76800823D01*
X162180884Y-76937754D01*
X162139960Y-77090481D01*
X162139960Y-77248598D01*
X162142766Y-77259069D01*
X162180883Y-77401324D01*
X162259940Y-77538256D01*
X162371744Y-77650060D01*
X162508676Y-77729117D01*
X162661403Y-77770040D01*
X162819517Y-77770040D01*
X162972244Y-77729117D01*
X163109176Y-77650060D01*
X163220980Y-77538256D01*
X163300037Y-77401324D01*
X163340960Y-77248597D01*
X163340960Y-77090483D01*
X163300037Y-76937756D01*
X163220980Y-76800824D01*
X163109176Y-76689020D01*
X163109175Y-76689019D01*
X163081088Y-76672803D01*
X163026551Y-76618265D01*
X163006589Y-76543765D01*
X163026552Y-76469265D01*
X163081089Y-76414728D01*
X163089176Y-76410060D01*
X163200980Y-76298256D01*
X163280037Y-76161324D01*
X163320960Y-76008597D01*
X163320960Y-75850483D01*
X163320959Y-75850481D01*
X183529960Y-75850481D01*
X183529960Y-75850483D01*
X183529960Y-76008597D01*
X183570883Y-76161324D01*
X183649940Y-76298256D01*
X183761744Y-76410060D01*
X183802152Y-76433389D01*
X183856688Y-76487925D01*
X183876651Y-76562425D01*
X183856690Y-76636925D01*
X183802153Y-76691463D01*
X183771743Y-76709020D01*
X183659940Y-76820823D01*
X183591844Y-76938771D01*
X183580883Y-76957756D01*
X183565534Y-77015040D01*
X183539960Y-77110481D01*
X183539960Y-77110483D01*
X183539960Y-77268597D01*
X183580883Y-77421324D01*
X183659940Y-77558256D01*
X183771744Y-77670060D01*
X183908676Y-77749117D01*
X184061403Y-77790040D01*
X184219517Y-77790040D01*
X184372244Y-77749117D01*
X184509176Y-77670060D01*
X184620980Y-77558256D01*
X184656614Y-77496535D01*
X186985960Y-77496535D01*
X186985960Y-77642544D01*
X187014516Y-77749115D01*
X187023748Y-77783569D01*
X187096749Y-77910011D01*
X187199989Y-78013251D01*
X187326431Y-78086252D01*
X187438390Y-78116251D01*
X187461864Y-78122541D01*
X187467459Y-78124040D01*
X187613461Y-78124040D01*
X187754489Y-78086252D01*
X187880931Y-78013251D01*
X187903701Y-77990481D01*
X192629960Y-77990481D01*
X192629960Y-77990483D01*
X192629960Y-78148597D01*
X192670883Y-78301324D01*
X192749940Y-78438256D01*
X192861744Y-78550060D01*
X192998676Y-78629117D01*
X193151403Y-78670040D01*
X193309517Y-78670040D01*
X193462244Y-78629117D01*
X193599176Y-78550060D01*
X193710980Y-78438256D01*
X193790037Y-78301324D01*
X193830960Y-78148597D01*
X193830960Y-77990483D01*
X193790037Y-77837756D01*
X193710980Y-77700824D01*
X193599176Y-77589020D01*
X193462244Y-77509963D01*
X193309517Y-77469040D01*
X193151403Y-77469040D01*
X192998676Y-77509963D01*
X192998674Y-77509963D01*
X192998674Y-77509964D01*
X192861743Y-77589020D01*
X192749940Y-77700823D01*
X192675222Y-77830240D01*
X192670883Y-77837756D01*
X192664394Y-77861973D01*
X192629960Y-77990481D01*
X187903701Y-77990481D01*
X187984171Y-77910011D01*
X188057172Y-77783569D01*
X188094960Y-77642541D01*
X188094960Y-77496539D01*
X188057172Y-77355511D01*
X187984171Y-77229069D01*
X187880931Y-77125829D01*
X187754489Y-77052828D01*
X187725424Y-77045040D01*
X187613464Y-77015040D01*
X187613461Y-77015040D01*
X187467459Y-77015040D01*
X187467455Y-77015040D01*
X187326430Y-77052828D01*
X187199988Y-77125829D01*
X187096749Y-77229068D01*
X187023748Y-77355510D01*
X186985960Y-77496535D01*
X184656614Y-77496535D01*
X184700037Y-77421324D01*
X184740960Y-77268597D01*
X184740960Y-77110483D01*
X184700037Y-76957756D01*
X184689076Y-76938771D01*
X184644577Y-76861695D01*
X184644576Y-76861694D01*
X184620979Y-76820823D01*
X184593204Y-76793048D01*
X206939760Y-76793048D01*
X206939760Y-77029232D01*
X206976707Y-77262508D01*
X207049692Y-77487132D01*
X207156917Y-77697573D01*
X207295743Y-77888650D01*
X207462750Y-78055657D01*
X207653827Y-78194483D01*
X207864268Y-78301708D01*
X208088892Y-78374693D01*
X208322168Y-78411640D01*
X208322173Y-78411640D01*
X208558347Y-78411640D01*
X208558352Y-78411640D01*
X208791628Y-78374693D01*
X209016252Y-78301708D01*
X209226693Y-78194483D01*
X209417770Y-78055657D01*
X209584777Y-77888650D01*
X209723603Y-77697573D01*
X209830828Y-77487132D01*
X209903813Y-77262508D01*
X209940760Y-77029232D01*
X209940760Y-76793048D01*
X209903813Y-76559772D01*
X209830828Y-76335148D01*
X209723603Y-76124707D01*
X209584777Y-75933630D01*
X209417770Y-75766623D01*
X209226693Y-75627797D01*
X209016252Y-75520572D01*
X208791628Y-75447587D01*
X208558352Y-75410640D01*
X208322168Y-75410640D01*
X208088892Y-75447587D01*
X207864268Y-75520572D01*
X207864262Y-75520574D01*
X207864262Y-75520575D01*
X207653825Y-75627798D01*
X207462759Y-75766616D01*
X207462748Y-75766625D01*
X207295745Y-75933628D01*
X207295736Y-75933639D01*
X207156918Y-76124705D01*
X207049695Y-76335142D01*
X207049690Y-76335154D01*
X207025352Y-76410059D01*
X206976707Y-76559772D01*
X206939760Y-76793048D01*
X184593204Y-76793048D01*
X184509176Y-76709020D01*
X184478766Y-76691463D01*
X184468767Y-76685690D01*
X184414230Y-76631153D01*
X184394268Y-76556654D01*
X184414230Y-76482153D01*
X184468765Y-76427617D01*
X184499176Y-76410060D01*
X184610980Y-76298256D01*
X184690037Y-76161324D01*
X184730960Y-76008597D01*
X184730960Y-75850483D01*
X184690037Y-75697756D01*
X184610980Y-75560824D01*
X184499176Y-75449020D01*
X184362244Y-75369963D01*
X184209517Y-75329040D01*
X184051403Y-75329040D01*
X183898676Y-75369963D01*
X183898674Y-75369963D01*
X183898674Y-75369964D01*
X183761743Y-75449020D01*
X183649940Y-75560823D01*
X183643142Y-75572598D01*
X183570883Y-75697756D01*
X183552432Y-75766616D01*
X183529960Y-75850481D01*
X163320959Y-75850481D01*
X163280037Y-75697756D01*
X163200980Y-75560824D01*
X163089176Y-75449020D01*
X162952244Y-75369963D01*
X162799517Y-75329040D01*
X162641403Y-75329040D01*
X162488676Y-75369963D01*
X162488674Y-75369963D01*
X162488674Y-75369964D01*
X162351743Y-75449020D01*
X162239940Y-75560823D01*
X162233142Y-75572598D01*
X162160883Y-75697756D01*
X162142432Y-75766616D01*
X162119960Y-75850481D01*
X155974960Y-75850481D01*
X155974960Y-75836539D01*
X155937172Y-75695511D01*
X155864171Y-75569069D01*
X155760931Y-75465829D01*
X155634489Y-75392828D01*
X155493464Y-75355040D01*
X155493461Y-75355040D01*
X155347459Y-75355040D01*
X155347455Y-75355040D01*
X155206430Y-75392828D01*
X155079988Y-75465829D01*
X154976749Y-75569068D01*
X154903748Y-75695510D01*
X154865960Y-75836535D01*
X151945760Y-75836535D01*
X151945760Y-75699851D01*
X151904510Y-75545903D01*
X151834973Y-75425463D01*
X151824822Y-75407880D01*
X151824821Y-75407879D01*
X151824820Y-75407877D01*
X151712123Y-75295180D01*
X151712120Y-75295178D01*
X151712119Y-75295177D01*
X151574100Y-75215491D01*
X151574097Y-75215490D01*
X151420149Y-75174240D01*
X151260771Y-75174240D01*
X151106819Y-75215491D01*
X150968800Y-75295177D01*
X150856097Y-75407880D01*
X150776411Y-75545899D01*
X150735160Y-75699849D01*
X148457690Y-75699849D01*
X148432378Y-75572598D01*
X148432378Y-75572597D01*
X148371431Y-75425460D01*
X148282951Y-75293039D01*
X148170337Y-75180425D01*
X148037916Y-75091945D01*
X148037913Y-75091943D01*
X148037912Y-75091943D01*
X147890779Y-75030998D01*
X147890777Y-75030997D01*
X147734578Y-74999928D01*
X147575318Y-74999928D01*
X147419118Y-75030997D01*
X147419116Y-75030998D01*
X147271983Y-75091943D01*
X147139560Y-75180424D01*
X147139558Y-75180425D01*
X147026945Y-75293038D01*
X147026944Y-75293040D01*
X146938463Y-75425463D01*
X146877518Y-75572596D01*
X146877517Y-75572598D01*
X146846448Y-75728797D01*
X126791337Y-75728797D01*
X126790508Y-73920481D01*
X161749960Y-73920481D01*
X161749960Y-73920483D01*
X161749960Y-74078597D01*
X161790883Y-74231324D01*
X161869940Y-74368256D01*
X161981744Y-74480060D01*
X162118676Y-74559117D01*
X162271403Y-74600040D01*
X162429517Y-74600040D01*
X162582244Y-74559117D01*
X162719176Y-74480060D01*
X162830980Y-74368256D01*
X162910037Y-74231324D01*
X162950960Y-74078597D01*
X162950960Y-74009041D01*
X162954459Y-73995980D01*
X162953956Y-73989909D01*
X191721960Y-73989909D01*
X191721960Y-74149170D01*
X191753029Y-74305369D01*
X191753030Y-74305371D01*
X191813977Y-74452508D01*
X191902457Y-74584929D01*
X192015071Y-74697543D01*
X192147492Y-74786023D01*
X192294629Y-74846970D01*
X192450830Y-74878040D01*
X192610090Y-74878040D01*
X192766291Y-74846970D01*
X192766296Y-74846968D01*
X192839371Y-74816699D01*
X192915839Y-74806631D01*
X192987096Y-74836145D01*
X193034049Y-74897335D01*
X193044117Y-74973803D01*
X193020285Y-75037130D01*
X193013976Y-75046572D01*
X192953030Y-75193708D01*
X192953029Y-75193710D01*
X192921960Y-75349909D01*
X192921960Y-75509170D01*
X192953029Y-75665369D01*
X192953030Y-75665371D01*
X192994970Y-75766623D01*
X193013977Y-75812508D01*
X193102457Y-75944929D01*
X193215071Y-76057543D01*
X193347492Y-76146023D01*
X193494629Y-76206970D01*
X193650830Y-76238040D01*
X193810090Y-76238040D01*
X193966291Y-76206970D01*
X194113428Y-76146023D01*
X194245849Y-76057543D01*
X194358463Y-75944929D01*
X194446943Y-75812508D01*
X194507890Y-75665371D01*
X194538960Y-75509170D01*
X194538960Y-75349910D01*
X194507890Y-75193709D01*
X194446943Y-75046572D01*
X194358463Y-74914151D01*
X194245849Y-74801537D01*
X194113428Y-74713057D01*
X194113425Y-74713055D01*
X194113424Y-74713055D01*
X193966291Y-74652110D01*
X193966289Y-74652109D01*
X193810090Y-74621040D01*
X193650830Y-74621040D01*
X193494630Y-74652109D01*
X193494624Y-74652111D01*
X193421546Y-74682381D01*
X193345078Y-74692448D01*
X193273821Y-74662932D01*
X193226869Y-74601742D01*
X193216802Y-74525274D01*
X193240638Y-74461942D01*
X193246943Y-74452508D01*
X193307890Y-74305371D01*
X193338960Y-74149170D01*
X193338960Y-73989910D01*
X193337487Y-73982507D01*
X193307890Y-73833710D01*
X193307890Y-73833709D01*
X193246943Y-73686572D01*
X193158463Y-73554151D01*
X193045849Y-73441537D01*
X192913428Y-73353057D01*
X192913425Y-73353055D01*
X192913424Y-73353055D01*
X192766291Y-73292110D01*
X192766289Y-73292109D01*
X192610090Y-73261040D01*
X192450830Y-73261040D01*
X192294630Y-73292109D01*
X192294628Y-73292110D01*
X192147495Y-73353055D01*
X192015072Y-73441536D01*
X192015070Y-73441537D01*
X191902457Y-73554150D01*
X191902456Y-73554152D01*
X191813975Y-73686575D01*
X191753030Y-73833708D01*
X191753029Y-73833710D01*
X191721960Y-73989909D01*
X162953956Y-73989909D01*
X162953342Y-73982507D01*
X162964283Y-73959314D01*
X162970922Y-73934541D01*
X162980482Y-73924980D01*
X162986252Y-73912752D01*
X163003894Y-73901568D01*
X163025460Y-73880003D01*
X163049630Y-73868799D01*
X163055427Y-73866718D01*
X163094489Y-73856252D01*
X163220931Y-73783251D01*
X163324171Y-73680011D01*
X163397172Y-73553569D01*
X163434960Y-73412541D01*
X163434960Y-73266539D01*
X163397172Y-73125511D01*
X163324171Y-72999069D01*
X163220931Y-72895829D01*
X163220930Y-72895828D01*
X163164088Y-72863010D01*
X163109551Y-72808472D01*
X163089589Y-72733972D01*
X163109552Y-72659472D01*
X163164089Y-72604935D01*
X163270931Y-72543251D01*
X163374171Y-72440011D01*
X163447172Y-72313569D01*
X163484960Y-72172541D01*
X163484960Y-72026539D01*
X163447172Y-71885511D01*
X163398080Y-71800481D01*
X166509960Y-71800481D01*
X166509960Y-71800483D01*
X166509960Y-71958597D01*
X166550883Y-72111324D01*
X166629940Y-72248256D01*
X166741744Y-72360060D01*
X166878676Y-72439117D01*
X167031403Y-72480040D01*
X167189517Y-72480040D01*
X167342244Y-72439117D01*
X167479176Y-72360060D01*
X167590980Y-72248256D01*
X167670037Y-72111324D01*
X167710960Y-71958597D01*
X167710960Y-71800483D01*
X167710959Y-71800481D01*
X172639960Y-71800481D01*
X172639960Y-71800483D01*
X172639960Y-71958597D01*
X172680883Y-72111324D01*
X172759940Y-72248256D01*
X172871744Y-72360060D01*
X173008676Y-72439117D01*
X173161403Y-72480040D01*
X173319517Y-72480040D01*
X173472244Y-72439117D01*
X173609176Y-72360060D01*
X173720980Y-72248256D01*
X173800037Y-72111324D01*
X173840960Y-71958597D01*
X173840960Y-71800483D01*
X173800037Y-71647756D01*
X173720980Y-71510824D01*
X173609176Y-71399020D01*
X173472244Y-71319963D01*
X173319517Y-71279040D01*
X173161403Y-71279040D01*
X173008676Y-71319963D01*
X173008674Y-71319963D01*
X173008674Y-71319964D01*
X172871743Y-71399020D01*
X172759940Y-71510823D01*
X172681621Y-71646477D01*
X172680883Y-71647756D01*
X172661891Y-71718635D01*
X172639960Y-71800481D01*
X167710959Y-71800481D01*
X167670037Y-71647756D01*
X167590980Y-71510824D01*
X167479176Y-71399020D01*
X167342244Y-71319963D01*
X167189517Y-71279040D01*
X167031403Y-71279040D01*
X166878676Y-71319963D01*
X166878674Y-71319963D01*
X166878674Y-71319964D01*
X166741743Y-71399020D01*
X166629940Y-71510823D01*
X166551621Y-71646477D01*
X166550883Y-71647756D01*
X166531891Y-71718635D01*
X166509960Y-71800481D01*
X163398080Y-71800481D01*
X163374171Y-71759069D01*
X163270931Y-71655829D01*
X163158107Y-71590690D01*
X163103570Y-71536153D01*
X163083608Y-71461653D01*
X163103570Y-71387153D01*
X163158106Y-71332616D01*
X163260931Y-71273251D01*
X163364171Y-71170011D01*
X163437172Y-71043569D01*
X163474960Y-70902541D01*
X163474960Y-70756539D01*
X163437172Y-70615511D01*
X163364171Y-70489069D01*
X163260931Y-70385829D01*
X163134489Y-70312828D01*
X162993464Y-70275040D01*
X162993461Y-70275040D01*
X162847459Y-70275040D01*
X162847455Y-70275040D01*
X162706430Y-70312828D01*
X162579988Y-70385829D01*
X162476749Y-70489068D01*
X162403748Y-70615510D01*
X162365960Y-70756535D01*
X162365960Y-70902544D01*
X162403748Y-71043569D01*
X162476749Y-71170011D01*
X162579989Y-71273251D01*
X162692812Y-71338389D01*
X162747349Y-71392926D01*
X162767311Y-71467426D01*
X162747349Y-71541926D01*
X162692812Y-71596463D01*
X162589989Y-71655828D01*
X162486749Y-71759068D01*
X162413748Y-71885510D01*
X162375960Y-72026535D01*
X162375960Y-72172544D01*
X162413748Y-72313569D01*
X162486749Y-72440011D01*
X162589989Y-72543251D01*
X162628299Y-72565369D01*
X162646830Y-72576068D01*
X162701368Y-72630606D01*
X162721330Y-72705106D01*
X162701368Y-72779606D01*
X162646831Y-72834143D01*
X162539989Y-72895828D01*
X162436749Y-72999068D01*
X162363748Y-73125510D01*
X162325960Y-73266535D01*
X162325960Y-73270089D01*
X162325041Y-73273516D01*
X162324686Y-73276218D01*
X162324330Y-73276171D01*
X162305998Y-73344589D01*
X162251460Y-73399127D01*
X162215525Y-73414012D01*
X162118674Y-73439963D01*
X161981743Y-73519020D01*
X161869940Y-73630823D01*
X161841542Y-73680011D01*
X161790883Y-73767756D01*
X161786731Y-73783251D01*
X161749960Y-73920481D01*
X126790508Y-73920481D01*
X126789742Y-72249909D01*
X146851960Y-72249909D01*
X146851960Y-72409170D01*
X146883029Y-72565369D01*
X146883030Y-72565371D01*
X146910051Y-72630606D01*
X146943977Y-72712508D01*
X147032457Y-72844929D01*
X147145071Y-72957543D01*
X147277492Y-73046023D01*
X147424629Y-73106970D01*
X147580830Y-73138040D01*
X147740090Y-73138040D01*
X147896291Y-73106970D01*
X148043428Y-73046023D01*
X148175849Y-72957543D01*
X148288463Y-72844929D01*
X148376943Y-72712508D01*
X148437890Y-72565371D01*
X148468960Y-72409170D01*
X148468960Y-72249910D01*
X148437890Y-72093709D01*
X148376943Y-71946572D01*
X148288463Y-71814151D01*
X148175849Y-71701537D01*
X148093447Y-71646478D01*
X148093446Y-71646477D01*
X148043429Y-71613057D01*
X148043428Y-71613056D01*
X147896291Y-71552110D01*
X147896289Y-71552109D01*
X147784679Y-71529909D01*
X154611960Y-71529909D01*
X154611960Y-71689170D01*
X154643029Y-71845369D01*
X154643030Y-71845371D01*
X154684950Y-71946575D01*
X154703977Y-71992508D01*
X154792457Y-72124929D01*
X154905071Y-72237543D01*
X155037492Y-72326023D01*
X155184629Y-72386970D01*
X155340830Y-72418040D01*
X155500090Y-72418040D01*
X155656291Y-72386970D01*
X155803428Y-72326023D01*
X155935849Y-72237543D01*
X156048463Y-72124929D01*
X156114207Y-72026535D01*
X160195960Y-72026535D01*
X160195960Y-72172544D01*
X160233748Y-72313569D01*
X160306749Y-72440011D01*
X160409989Y-72543251D01*
X160536431Y-72616252D01*
X160677459Y-72654040D01*
X160823461Y-72654040D01*
X160964489Y-72616252D01*
X161090931Y-72543251D01*
X161194171Y-72440011D01*
X161267172Y-72313569D01*
X161304960Y-72172541D01*
X161304960Y-72026539D01*
X161267172Y-71885511D01*
X161194171Y-71759069D01*
X161090931Y-71655829D01*
X160964489Y-71582828D01*
X160823464Y-71545040D01*
X160823461Y-71545040D01*
X160677459Y-71545040D01*
X160677455Y-71545040D01*
X160536430Y-71582828D01*
X160409988Y-71655829D01*
X160306749Y-71759068D01*
X160233748Y-71885510D01*
X160195960Y-72026535D01*
X156114207Y-72026535D01*
X156136943Y-71992508D01*
X156197890Y-71845371D01*
X156228960Y-71689170D01*
X156228960Y-71529910D01*
X156225163Y-71510823D01*
X156213425Y-71451809D01*
X156197890Y-71373709D01*
X156178350Y-71326535D01*
X157585960Y-71326535D01*
X157585960Y-71472544D01*
X157623610Y-71613055D01*
X157623748Y-71613569D01*
X157696749Y-71740011D01*
X157799989Y-71843251D01*
X157926431Y-71916252D01*
X158067459Y-71954040D01*
X158213461Y-71954040D01*
X158354489Y-71916252D01*
X158480931Y-71843251D01*
X158584171Y-71740011D01*
X158657172Y-71613569D01*
X158694960Y-71472541D01*
X158694960Y-71326539D01*
X158657172Y-71185511D01*
X158584171Y-71059069D01*
X158480931Y-70955829D01*
X158354489Y-70882828D01*
X158213464Y-70845040D01*
X158213461Y-70845040D01*
X158067459Y-70845040D01*
X158067455Y-70845040D01*
X157926430Y-70882828D01*
X157799988Y-70955829D01*
X157696749Y-71059068D01*
X157623748Y-71185510D01*
X157585960Y-71326535D01*
X156178350Y-71326535D01*
X156136943Y-71226572D01*
X156048463Y-71094151D01*
X155935849Y-70981537D01*
X155803428Y-70893057D01*
X155803425Y-70893055D01*
X155803424Y-70893055D01*
X155656291Y-70832110D01*
X155656289Y-70832109D01*
X155500090Y-70801040D01*
X155340830Y-70801040D01*
X155184630Y-70832109D01*
X155184628Y-70832110D01*
X155037495Y-70893055D01*
X154905072Y-70981536D01*
X154905070Y-70981537D01*
X154792457Y-71094150D01*
X154792456Y-71094152D01*
X154703975Y-71226575D01*
X154643030Y-71373708D01*
X154643029Y-71373710D01*
X154611960Y-71529909D01*
X147784679Y-71529909D01*
X147740090Y-71521040D01*
X147580830Y-71521040D01*
X147424630Y-71552109D01*
X147424628Y-71552110D01*
X147277495Y-71613055D01*
X147145072Y-71701536D01*
X147145070Y-71701537D01*
X147032457Y-71814150D01*
X147032456Y-71814152D01*
X146943975Y-71946575D01*
X146883030Y-72093708D01*
X146883029Y-72093710D01*
X146851960Y-72249909D01*
X126789742Y-72249909D01*
X126787963Y-68369849D01*
X148885160Y-68369849D01*
X148885160Y-68529230D01*
X148926411Y-68683180D01*
X149006097Y-68821199D01*
X149006098Y-68821200D01*
X149006100Y-68821203D01*
X149118797Y-68933900D01*
X149118799Y-68933901D01*
X149118800Y-68933902D01*
X149256819Y-69013588D01*
X149256820Y-69013588D01*
X149256823Y-69013590D01*
X149410771Y-69054840D01*
X149570149Y-69054840D01*
X149626097Y-69039849D01*
X159215160Y-69039849D01*
X159215160Y-69199230D01*
X159256411Y-69353180D01*
X159336097Y-69491199D01*
X159336098Y-69491200D01*
X159336100Y-69491203D01*
X159448797Y-69603900D01*
X159448799Y-69603901D01*
X159448800Y-69603902D01*
X159586819Y-69683588D01*
X159586820Y-69683588D01*
X159586823Y-69683590D01*
X159740771Y-69724840D01*
X159900149Y-69724840D01*
X160054097Y-69683590D01*
X160192123Y-69603900D01*
X160304820Y-69491203D01*
X160384510Y-69353177D01*
X160425760Y-69199229D01*
X160425760Y-69039851D01*
X160384510Y-68885903D01*
X160358042Y-68840060D01*
X160304822Y-68747880D01*
X160304821Y-68747879D01*
X160304820Y-68747877D01*
X160192123Y-68635180D01*
X160192120Y-68635178D01*
X160192119Y-68635177D01*
X160175896Y-68625811D01*
X160054100Y-68555491D01*
X160054097Y-68555490D01*
X159900149Y-68514240D01*
X159740771Y-68514240D01*
X159586819Y-68555491D01*
X159448800Y-68635177D01*
X159336097Y-68747880D01*
X159256411Y-68885899D01*
X159215160Y-69039849D01*
X149626097Y-69039849D01*
X149724097Y-69013590D01*
X149862123Y-68933900D01*
X149974820Y-68821203D01*
X150054510Y-68683177D01*
X150095760Y-68529229D01*
X150095760Y-68506535D01*
X162435960Y-68506535D01*
X162435960Y-68652544D01*
X162461134Y-68746493D01*
X162473748Y-68793569D01*
X162546749Y-68920011D01*
X162649989Y-69023251D01*
X162776431Y-69096252D01*
X162904860Y-69130664D01*
X162916936Y-69133900D01*
X162917459Y-69134040D01*
X163063461Y-69134040D01*
X163204489Y-69096252D01*
X163330931Y-69023251D01*
X163387844Y-68966337D01*
X163454637Y-68927774D01*
X163531765Y-68927774D01*
X163598560Y-68966337D01*
X163622240Y-68997197D01*
X163636097Y-69021199D01*
X163636098Y-69021200D01*
X163636100Y-69021203D01*
X163748797Y-69133900D01*
X163748799Y-69133901D01*
X163748800Y-69133902D01*
X163886819Y-69213588D01*
X163886820Y-69213588D01*
X163886823Y-69213590D01*
X164040771Y-69254840D01*
X164200149Y-69254840D01*
X164354097Y-69213590D01*
X164492123Y-69133900D01*
X164604820Y-69021203D01*
X164684510Y-68883177D01*
X164725760Y-68729229D01*
X164725760Y-68569851D01*
X164684510Y-68415903D01*
X164682568Y-68412540D01*
X164604822Y-68277880D01*
X164604821Y-68277879D01*
X164604820Y-68277877D01*
X164492123Y-68165180D01*
X164492120Y-68165178D01*
X164492119Y-68165177D01*
X164360390Y-68089123D01*
X164360389Y-68089122D01*
X164354101Y-68085491D01*
X164200149Y-68044240D01*
X164040771Y-68044240D01*
X163886819Y-68085491D01*
X163748800Y-68165177D01*
X163748794Y-68165182D01*
X163658830Y-68255146D01*
X163592035Y-68293710D01*
X163514907Y-68293710D01*
X163448113Y-68255145D01*
X163435255Y-68240483D01*
X163434173Y-68239073D01*
X163434171Y-68239069D01*
X163330931Y-68135829D01*
X163204489Y-68062828D01*
X163063464Y-68025040D01*
X163063461Y-68025040D01*
X162917459Y-68025040D01*
X162917455Y-68025040D01*
X162776430Y-68062828D01*
X162649988Y-68135829D01*
X162546749Y-68239068D01*
X162473748Y-68365510D01*
X162435960Y-68506535D01*
X150095760Y-68506535D01*
X150095760Y-68369851D01*
X150054510Y-68215903D01*
X150022240Y-68160011D01*
X149974822Y-68077880D01*
X149974821Y-68077879D01*
X149974820Y-68077877D01*
X149862123Y-67965180D01*
X149862120Y-67965178D01*
X149862119Y-67965177D01*
X149724099Y-67885491D01*
X149724098Y-67885490D01*
X149724097Y-67885490D01*
X149570149Y-67844240D01*
X149410771Y-67844240D01*
X149256819Y-67885491D01*
X149118800Y-67965177D01*
X149006097Y-68077880D01*
X148926411Y-68215899D01*
X148885160Y-68369849D01*
X126787963Y-68369849D01*
X126787677Y-67746535D01*
X153795960Y-67746535D01*
X153795960Y-67892544D01*
X153824504Y-67999069D01*
X153833748Y-68033569D01*
X153906749Y-68160011D01*
X154009989Y-68263251D01*
X154136431Y-68336252D01*
X154277459Y-68374040D01*
X154423461Y-68374040D01*
X154564489Y-68336252D01*
X154690931Y-68263251D01*
X154794171Y-68160011D01*
X154867172Y-68033569D01*
X154884246Y-67969849D01*
X168035160Y-67969849D01*
X168035160Y-68129230D01*
X168076411Y-68283180D01*
X168156097Y-68421199D01*
X168156098Y-68421200D01*
X168156100Y-68421203D01*
X168268797Y-68533900D01*
X168268799Y-68533901D01*
X168268800Y-68533902D01*
X168406819Y-68613588D01*
X168406820Y-68613588D01*
X168406823Y-68613590D01*
X168560771Y-68654840D01*
X168720149Y-68654840D01*
X168874097Y-68613590D01*
X169012123Y-68533900D01*
X169124820Y-68421203D01*
X169204510Y-68283177D01*
X169205232Y-68280481D01*
X198009960Y-68280481D01*
X198009960Y-68280482D01*
X198009960Y-68280483D01*
X198009960Y-68438597D01*
X198050883Y-68591324D01*
X198129940Y-68728256D01*
X198241744Y-68840060D01*
X198378676Y-68919117D01*
X198531403Y-68960040D01*
X198689517Y-68960040D01*
X198842244Y-68919117D01*
X198979176Y-68840060D01*
X199090980Y-68728256D01*
X199170037Y-68591324D01*
X199210960Y-68438597D01*
X199210960Y-68280483D01*
X199210959Y-68280481D01*
X199207222Y-68266535D01*
X203355960Y-68266535D01*
X203355960Y-68412544D01*
X203381145Y-68506535D01*
X203393748Y-68553569D01*
X203466749Y-68680011D01*
X203569989Y-68783251D01*
X203635717Y-68821199D01*
X203666830Y-68839162D01*
X203721368Y-68893700D01*
X203741330Y-68968200D01*
X203721368Y-69042700D01*
X203666831Y-69097237D01*
X203599989Y-69135828D01*
X203496749Y-69239068D01*
X203423748Y-69365510D01*
X203385960Y-69506535D01*
X203385960Y-69652544D01*
X203394279Y-69683590D01*
X203423748Y-69793569D01*
X203496749Y-69920011D01*
X203599989Y-70023251D01*
X203726431Y-70096252D01*
X203867459Y-70134040D01*
X204013461Y-70134040D01*
X204154489Y-70096252D01*
X204280931Y-70023251D01*
X204384171Y-69920011D01*
X204457172Y-69793569D01*
X204494960Y-69652541D01*
X204494960Y-69506539D01*
X204457172Y-69365511D01*
X204384171Y-69239069D01*
X204280931Y-69135829D01*
X204280930Y-69135828D01*
X204184088Y-69079916D01*
X204129551Y-69025378D01*
X204109589Y-68950878D01*
X204129552Y-68876378D01*
X204184088Y-68821842D01*
X204250931Y-68783251D01*
X204354171Y-68680011D01*
X204427172Y-68553569D01*
X204464960Y-68412541D01*
X204464960Y-68266539D01*
X204427172Y-68125511D01*
X204354171Y-67999069D01*
X204250931Y-67895829D01*
X204124489Y-67822828D01*
X203983464Y-67785040D01*
X203983461Y-67785040D01*
X203837459Y-67785040D01*
X203837455Y-67785040D01*
X203696430Y-67822828D01*
X203569988Y-67895829D01*
X203466749Y-67999068D01*
X203393748Y-68125510D01*
X203355960Y-68266535D01*
X199207222Y-68266535D01*
X199199862Y-68239065D01*
X199170037Y-68127756D01*
X199090980Y-67990824D01*
X198979176Y-67879020D01*
X198842244Y-67799963D01*
X198689517Y-67759040D01*
X198531403Y-67759040D01*
X198378676Y-67799963D01*
X198378674Y-67799963D01*
X198378674Y-67799964D01*
X198241743Y-67879020D01*
X198129940Y-67990823D01*
X198052180Y-68125510D01*
X198050883Y-68127756D01*
X198040855Y-68165182D01*
X198009960Y-68280481D01*
X169205232Y-68280481D01*
X169245760Y-68129229D01*
X169245760Y-67969851D01*
X169204510Y-67815903D01*
X169164462Y-67746539D01*
X169124822Y-67677880D01*
X169124821Y-67677879D01*
X169124820Y-67677877D01*
X169012123Y-67565180D01*
X169012120Y-67565178D01*
X169012119Y-67565177D01*
X168874100Y-67485491D01*
X168874097Y-67485490D01*
X168720149Y-67444240D01*
X168560771Y-67444240D01*
X168406819Y-67485491D01*
X168268800Y-67565177D01*
X168156097Y-67677880D01*
X168076411Y-67815899D01*
X168035160Y-67969849D01*
X154884246Y-67969849D01*
X154904960Y-67892541D01*
X154904960Y-67746539D01*
X154867172Y-67605511D01*
X154794171Y-67479069D01*
X154690931Y-67375829D01*
X154564489Y-67302828D01*
X154423464Y-67265040D01*
X154423461Y-67265040D01*
X154277459Y-67265040D01*
X154277455Y-67265040D01*
X154136430Y-67302828D01*
X154009988Y-67375829D01*
X153906749Y-67479068D01*
X153833748Y-67605510D01*
X153795960Y-67746535D01*
X126787677Y-67746535D01*
X126787342Y-67016535D01*
X155325960Y-67016535D01*
X155325960Y-67162544D01*
X155352964Y-67263324D01*
X155363748Y-67303569D01*
X155436749Y-67430011D01*
X155539989Y-67533251D01*
X155666431Y-67606252D01*
X155807459Y-67644040D01*
X155953461Y-67644040D01*
X156094489Y-67606252D01*
X156220931Y-67533251D01*
X156324171Y-67430011D01*
X156397172Y-67303569D01*
X156434960Y-67162541D01*
X156434960Y-67099849D01*
X166785160Y-67099849D01*
X166785160Y-67259230D01*
X166826411Y-67413180D01*
X166906097Y-67551199D01*
X166906098Y-67551200D01*
X166906100Y-67551203D01*
X167018797Y-67663900D01*
X167018799Y-67663901D01*
X167018800Y-67663902D01*
X167156819Y-67743588D01*
X167156820Y-67743588D01*
X167156823Y-67743590D01*
X167310771Y-67784840D01*
X167470149Y-67784840D01*
X167624097Y-67743590D01*
X167762123Y-67663900D01*
X167874820Y-67551203D01*
X167954510Y-67413177D01*
X167995760Y-67259229D01*
X167995760Y-67099851D01*
X167954510Y-66945903D01*
X167954508Y-66945899D01*
X167954508Y-66945898D01*
X167884408Y-66824483D01*
X167884407Y-66824482D01*
X167884407Y-66824481D01*
X167874824Y-66807883D01*
X167874821Y-66807879D01*
X167874820Y-66807877D01*
X167826689Y-66759746D01*
X192339225Y-66759746D01*
X192339225Y-66917863D01*
X192348501Y-66952481D01*
X192380148Y-67070589D01*
X192459205Y-67207521D01*
X192571009Y-67319325D01*
X192707941Y-67398382D01*
X192860668Y-67439305D01*
X193018782Y-67439305D01*
X193171509Y-67398382D01*
X193308441Y-67319325D01*
X193420245Y-67207521D01*
X193499302Y-67070589D01*
X193530949Y-66952481D01*
X207121960Y-66952481D01*
X207121960Y-66952483D01*
X207121960Y-67110597D01*
X207162883Y-67263324D01*
X207241940Y-67400256D01*
X207353744Y-67512060D01*
X207490676Y-67591117D01*
X207643403Y-67632040D01*
X207801517Y-67632040D01*
X207954244Y-67591117D01*
X208091176Y-67512060D01*
X208202980Y-67400256D01*
X208282037Y-67263324D01*
X208322960Y-67110597D01*
X208322960Y-66952483D01*
X208282037Y-66799756D01*
X208202980Y-66662824D01*
X208091176Y-66551020D01*
X207954244Y-66471963D01*
X207801517Y-66431040D01*
X207643403Y-66431040D01*
X207490676Y-66471963D01*
X207490674Y-66471963D01*
X207490674Y-66471964D01*
X207353743Y-66551020D01*
X207241940Y-66662823D01*
X207162884Y-66799754D01*
X207162883Y-66799756D01*
X207143891Y-66870635D01*
X207121960Y-66952481D01*
X193530949Y-66952481D01*
X193540225Y-66917862D01*
X193540225Y-66759748D01*
X193499302Y-66607021D01*
X193420245Y-66470089D01*
X193308441Y-66358285D01*
X193171509Y-66279228D01*
X193018782Y-66238305D01*
X192860668Y-66238305D01*
X192707941Y-66279228D01*
X192707939Y-66279228D01*
X192707939Y-66279229D01*
X192571008Y-66358285D01*
X192459205Y-66470088D01*
X192412480Y-66551020D01*
X192380148Y-66607021D01*
X192365196Y-66662823D01*
X192339225Y-66759746D01*
X167826689Y-66759746D01*
X167762123Y-66695180D01*
X167762120Y-66695178D01*
X167762119Y-66695177D01*
X167624100Y-66615491D01*
X167624097Y-66615490D01*
X167470149Y-66574240D01*
X167310771Y-66574240D01*
X167156819Y-66615491D01*
X167018800Y-66695177D01*
X166906097Y-66807880D01*
X166826411Y-66945899D01*
X166785160Y-67099849D01*
X156434960Y-67099849D01*
X156434960Y-67016539D01*
X156397172Y-66875511D01*
X156324171Y-66749069D01*
X156220931Y-66645829D01*
X156094489Y-66572828D01*
X155953464Y-66535040D01*
X155953461Y-66535040D01*
X155807459Y-66535040D01*
X155807455Y-66535040D01*
X155666430Y-66572828D01*
X155539988Y-66645829D01*
X155436749Y-66749068D01*
X155363748Y-66875510D01*
X155325960Y-67016535D01*
X126787342Y-67016535D01*
X126786762Y-65749849D01*
X148885160Y-65749849D01*
X148885160Y-65909230D01*
X148926411Y-66063180D01*
X149006097Y-66201199D01*
X149006098Y-66201200D01*
X149006100Y-66201203D01*
X149118797Y-66313900D01*
X149118799Y-66313901D01*
X149118800Y-66313902D01*
X149256819Y-66393588D01*
X149256820Y-66393588D01*
X149256823Y-66393590D01*
X149410771Y-66434840D01*
X149570149Y-66434840D01*
X149724097Y-66393590D01*
X149724099Y-66393588D01*
X149724101Y-66393588D01*
X149791971Y-66354403D01*
X149866471Y-66334440D01*
X149940971Y-66354402D01*
X149995509Y-66408939D01*
X150066095Y-66531196D01*
X150066098Y-66531200D01*
X150066100Y-66531203D01*
X150178797Y-66643900D01*
X150178799Y-66643901D01*
X150178800Y-66643902D01*
X150316819Y-66723588D01*
X150316820Y-66723588D01*
X150316823Y-66723590D01*
X150470771Y-66764840D01*
X150630149Y-66764840D01*
X150784097Y-66723590D01*
X150922123Y-66643900D01*
X151034820Y-66531203D01*
X151114510Y-66393177D01*
X151155760Y-66239229D01*
X151155760Y-66079851D01*
X151114510Y-65925903D01*
X151104884Y-65909230D01*
X151080234Y-65866535D01*
X201125960Y-65866535D01*
X201125960Y-66012544D01*
X201143995Y-66079849D01*
X201163748Y-66153569D01*
X201236749Y-66280011D01*
X201339989Y-66383251D01*
X201466431Y-66456252D01*
X201607459Y-66494040D01*
X201753461Y-66494040D01*
X201894489Y-66456252D01*
X202020931Y-66383251D01*
X202124171Y-66280011D01*
X202197172Y-66153569D01*
X202234960Y-66012541D01*
X202234960Y-65866539D01*
X202197172Y-65725511D01*
X202124171Y-65599069D01*
X202020931Y-65495829D01*
X201894489Y-65422828D01*
X201753464Y-65385040D01*
X201753461Y-65385040D01*
X201607459Y-65385040D01*
X201607455Y-65385040D01*
X201466430Y-65422828D01*
X201339988Y-65495829D01*
X201236749Y-65599068D01*
X201163748Y-65725510D01*
X201125960Y-65866535D01*
X151080234Y-65866535D01*
X151034824Y-65787883D01*
X151034821Y-65787879D01*
X151034820Y-65787877D01*
X150922123Y-65675180D01*
X150922120Y-65675178D01*
X150922119Y-65675177D01*
X150784100Y-65595491D01*
X150784097Y-65595490D01*
X150630149Y-65554240D01*
X150470771Y-65554240D01*
X150316823Y-65595490D01*
X150316821Y-65595490D01*
X150316817Y-65595492D01*
X150248946Y-65634677D01*
X150174446Y-65654639D01*
X150099946Y-65634676D01*
X150045410Y-65580140D01*
X149974824Y-65457883D01*
X149974821Y-65457879D01*
X149974820Y-65457877D01*
X149862123Y-65345180D01*
X149862120Y-65345178D01*
X149862119Y-65345177D01*
X149724100Y-65265491D01*
X149724097Y-65265490D01*
X149570149Y-65224240D01*
X149410771Y-65224240D01*
X149256819Y-65265491D01*
X149118800Y-65345177D01*
X149006097Y-65457880D01*
X148926411Y-65595899D01*
X148885160Y-65749849D01*
X126786762Y-65749849D01*
X126786221Y-64569909D01*
X203141960Y-64569909D01*
X203141960Y-64729170D01*
X203173029Y-64885369D01*
X203173030Y-64885371D01*
X203233977Y-65032508D01*
X203322457Y-65164929D01*
X203435071Y-65277543D01*
X203567492Y-65366023D01*
X203714629Y-65426970D01*
X203870830Y-65458040D01*
X204030090Y-65458040D01*
X204186291Y-65426970D01*
X204333428Y-65366023D01*
X204465849Y-65277543D01*
X204578463Y-65164929D01*
X204666943Y-65032508D01*
X204727890Y-64885371D01*
X204758960Y-64729170D01*
X204758960Y-64569910D01*
X204758960Y-64569909D01*
X206651960Y-64569909D01*
X206651960Y-64729170D01*
X206683029Y-64885369D01*
X206683030Y-64885371D01*
X206743977Y-65032508D01*
X206832457Y-65164929D01*
X206945071Y-65277543D01*
X207077492Y-65366023D01*
X207224629Y-65426970D01*
X207380830Y-65458040D01*
X207540090Y-65458040D01*
X207696291Y-65426970D01*
X207843428Y-65366023D01*
X207975849Y-65277543D01*
X208088463Y-65164929D01*
X208176943Y-65032508D01*
X208237890Y-64885371D01*
X208268960Y-64729170D01*
X208268960Y-64569910D01*
X208237890Y-64413709D01*
X208176943Y-64266572D01*
X208088463Y-64134151D01*
X207975849Y-64021537D01*
X207843428Y-63933057D01*
X207843425Y-63933055D01*
X207843424Y-63933055D01*
X207696291Y-63872110D01*
X207696289Y-63872109D01*
X207540090Y-63841040D01*
X207380830Y-63841040D01*
X207224630Y-63872109D01*
X207224628Y-63872110D01*
X207077495Y-63933055D01*
X206945072Y-64021536D01*
X206945070Y-64021537D01*
X206832457Y-64134150D01*
X206832456Y-64134152D01*
X206743975Y-64266575D01*
X206683030Y-64413708D01*
X206683029Y-64413710D01*
X206651960Y-64569909D01*
X204758960Y-64569909D01*
X204727890Y-64413709D01*
X204666943Y-64266572D01*
X204578463Y-64134151D01*
X204465849Y-64021537D01*
X204333428Y-63933057D01*
X204333425Y-63933055D01*
X204333424Y-63933055D01*
X204186291Y-63872110D01*
X204186289Y-63872109D01*
X204030090Y-63841040D01*
X203870830Y-63841040D01*
X203714630Y-63872109D01*
X203714628Y-63872110D01*
X203567495Y-63933055D01*
X203435072Y-64021536D01*
X203435070Y-64021537D01*
X203322457Y-64134150D01*
X203322456Y-64134152D01*
X203233975Y-64266575D01*
X203173030Y-64413708D01*
X203173029Y-64413710D01*
X203141960Y-64569909D01*
X126786221Y-64569909D01*
X126785153Y-62239909D01*
X147561960Y-62239909D01*
X147561960Y-62399170D01*
X147593029Y-62555369D01*
X147593030Y-62555371D01*
X147651020Y-62695371D01*
X147653977Y-62702508D01*
X147742457Y-62834929D01*
X147855071Y-62947543D01*
X147987492Y-63036023D01*
X148134629Y-63096970D01*
X148290830Y-63128040D01*
X148450090Y-63128040D01*
X148606291Y-63096970D01*
X148753428Y-63036023D01*
X148885849Y-62947543D01*
X148998463Y-62834929D01*
X149086943Y-62702508D01*
X149147890Y-62555371D01*
X149178960Y-62399170D01*
X149178960Y-62359849D01*
X149945160Y-62359849D01*
X149945160Y-62519230D01*
X149986411Y-62673180D01*
X150066097Y-62811199D01*
X150066098Y-62811200D01*
X150066100Y-62811203D01*
X150178797Y-62923900D01*
X150178799Y-62923901D01*
X150178800Y-62923902D01*
X150316819Y-63003588D01*
X150316820Y-63003588D01*
X150316823Y-63003590D01*
X150470771Y-63044840D01*
X150630149Y-63044840D01*
X150784097Y-63003590D01*
X150922123Y-62923900D01*
X151034820Y-62811203D01*
X151114510Y-62673177D01*
X151155760Y-62519229D01*
X151155760Y-62359851D01*
X151114510Y-62205903D01*
X151114508Y-62205899D01*
X151114508Y-62205898D01*
X151085247Y-62155218D01*
X151085246Y-62155217D01*
X151047871Y-62090481D01*
X197979960Y-62090481D01*
X197979960Y-62090483D01*
X197979960Y-62248597D01*
X198020883Y-62401324D01*
X198099940Y-62538256D01*
X198211744Y-62650060D01*
X198348676Y-62729117D01*
X198501403Y-62770040D01*
X198659517Y-62770040D01*
X198812244Y-62729117D01*
X198949176Y-62650060D01*
X199060980Y-62538256D01*
X199094698Y-62479853D01*
X199149232Y-62425318D01*
X199223732Y-62405355D01*
X199298232Y-62425316D01*
X199352771Y-62479853D01*
X199369586Y-62532179D01*
X199370532Y-62531991D01*
X199403029Y-62695369D01*
X199403030Y-62695371D01*
X199460837Y-62834929D01*
X199463977Y-62842508D01*
X199552457Y-62974929D01*
X199665071Y-63087543D01*
X199797492Y-63176023D01*
X199944629Y-63236970D01*
X200100830Y-63268040D01*
X200260090Y-63268040D01*
X200416291Y-63236970D01*
X200563428Y-63176023D01*
X200695849Y-63087543D01*
X200808463Y-62974929D01*
X200896943Y-62842508D01*
X200957890Y-62695371D01*
X200988960Y-62539170D01*
X200988960Y-62379910D01*
X200957890Y-62223709D01*
X200896943Y-62076572D01*
X200808463Y-61944151D01*
X200695849Y-61831537D01*
X200695848Y-61831536D01*
X200695847Y-61831535D01*
X200630082Y-61787594D01*
X200563428Y-61743057D01*
X200563425Y-61743055D01*
X200563424Y-61743055D01*
X200508926Y-61720481D01*
X201269960Y-61720481D01*
X201269960Y-61720483D01*
X201269960Y-61878597D01*
X201310883Y-62031324D01*
X201389940Y-62168256D01*
X201501744Y-62280060D01*
X201638676Y-62359117D01*
X201791403Y-62400040D01*
X201949517Y-62400040D01*
X202102244Y-62359117D01*
X202239176Y-62280060D01*
X202350980Y-62168256D01*
X202430037Y-62031324D01*
X202470960Y-61878597D01*
X202470960Y-61720483D01*
X202430037Y-61567756D01*
X202350980Y-61430824D01*
X202239176Y-61319020D01*
X202102244Y-61239963D01*
X201949517Y-61199040D01*
X201791403Y-61199040D01*
X201638676Y-61239963D01*
X201638674Y-61239963D01*
X201638674Y-61239964D01*
X201501743Y-61319020D01*
X201389940Y-61430823D01*
X201310884Y-61567754D01*
X201310883Y-61567756D01*
X201294202Y-61630011D01*
X201269960Y-61720481D01*
X200508926Y-61720481D01*
X200416291Y-61682110D01*
X200416289Y-61682109D01*
X200260090Y-61651040D01*
X200100830Y-61651040D01*
X199944630Y-61682109D01*
X199944628Y-61682110D01*
X199797495Y-61743055D01*
X199665072Y-61831536D01*
X199665070Y-61831537D01*
X199552457Y-61944150D01*
X199552456Y-61944152D01*
X199508808Y-62009475D01*
X199466409Y-62072933D01*
X199463974Y-62076577D01*
X199457835Y-62091396D01*
X199410880Y-62152583D01*
X199339621Y-62182095D01*
X199263153Y-62172024D01*
X199201966Y-62125069D01*
X199176258Y-62072935D01*
X199140037Y-61937756D01*
X199060980Y-61800824D01*
X198949176Y-61689020D01*
X198812244Y-61609963D01*
X198659517Y-61569040D01*
X198501403Y-61569040D01*
X198348676Y-61609963D01*
X198348674Y-61609963D01*
X198348674Y-61609964D01*
X198211743Y-61689020D01*
X198099940Y-61800823D01*
X198021565Y-61936575D01*
X198020883Y-61937756D01*
X198001891Y-62008635D01*
X197979960Y-62090481D01*
X151047871Y-62090481D01*
X151034822Y-62067880D01*
X151034821Y-62067879D01*
X151034820Y-62067877D01*
X150922123Y-61955180D01*
X150922120Y-61955178D01*
X150922119Y-61955177D01*
X150784100Y-61875491D01*
X150784097Y-61875490D01*
X150630149Y-61834240D01*
X150470771Y-61834240D01*
X150316819Y-61875491D01*
X150178800Y-61955177D01*
X150066097Y-62067880D01*
X149986411Y-62205899D01*
X149945160Y-62359849D01*
X149178960Y-62359849D01*
X149178960Y-62239910D01*
X149175737Y-62223709D01*
X149147890Y-62083710D01*
X149147890Y-62083709D01*
X149086943Y-61936572D01*
X148998463Y-61804151D01*
X148885849Y-61691537D01*
X148753428Y-61603057D01*
X148753425Y-61603055D01*
X148753424Y-61603055D01*
X148606291Y-61542110D01*
X148606289Y-61542109D01*
X148450090Y-61511040D01*
X148290830Y-61511040D01*
X148134630Y-61542109D01*
X148134628Y-61542110D01*
X147987495Y-61603055D01*
X147855072Y-61691536D01*
X147855070Y-61691537D01*
X147742457Y-61804150D01*
X147742456Y-61804152D01*
X147653975Y-61936575D01*
X147593030Y-62083708D01*
X147593029Y-62083710D01*
X147561960Y-62239909D01*
X126785153Y-62239909D01*
X126783937Y-59586312D01*
X128660460Y-59586312D01*
X128660460Y-60194540D01*
X129203484Y-60194540D01*
X129186016Y-60224795D01*
X129160460Y-60320170D01*
X129160460Y-60418910D01*
X129186016Y-60514285D01*
X129203484Y-60544540D01*
X128660461Y-60544540D01*
X128660461Y-61152754D01*
X128660462Y-61152770D01*
X128670372Y-61220790D01*
X128721672Y-61325727D01*
X128804272Y-61408327D01*
X128909209Y-61459627D01*
X128909213Y-61459628D01*
X128977237Y-61469539D01*
X129360460Y-61469539D01*
X129360460Y-60701516D01*
X129390715Y-60718984D01*
X129486090Y-60744540D01*
X129584830Y-60744540D01*
X129680205Y-60718984D01*
X129710460Y-60701516D01*
X129710460Y-61469539D01*
X130093674Y-61469539D01*
X130093690Y-61469537D01*
X130161710Y-61459627D01*
X130266647Y-61408327D01*
X130297687Y-61377287D01*
X130364481Y-61338723D01*
X130441609Y-61338722D01*
X130460057Y-61344983D01*
X130564671Y-61388316D01*
X130724155Y-61420040D01*
X130724159Y-61420040D01*
X130886761Y-61420040D01*
X130886765Y-61420040D01*
X131046249Y-61388316D01*
X131196481Y-61326088D01*
X131331685Y-61235748D01*
X131335101Y-61232332D01*
X131401896Y-61193768D01*
X131479024Y-61193768D01*
X131545819Y-61232332D01*
X131549235Y-61235748D01*
X131684439Y-61326088D01*
X131834671Y-61388316D01*
X131994155Y-61420040D01*
X131994159Y-61420040D01*
X132156761Y-61420040D01*
X132156765Y-61420040D01*
X132316249Y-61388316D01*
X132466481Y-61326088D01*
X132601685Y-61235748D01*
X132620898Y-61216535D01*
X187875960Y-61216535D01*
X187875960Y-61362544D01*
X187894256Y-61430823D01*
X187913748Y-61503569D01*
X187986749Y-61630011D01*
X188089989Y-61733251D01*
X188216431Y-61806252D01*
X188357459Y-61844040D01*
X188503461Y-61844040D01*
X188644489Y-61806252D01*
X188770931Y-61733251D01*
X188874171Y-61630011D01*
X188947172Y-61503569D01*
X188984960Y-61362541D01*
X188984960Y-61238040D01*
X189004922Y-61163540D01*
X189059460Y-61109002D01*
X189133960Y-61089040D01*
X189163461Y-61089040D01*
X189304489Y-61051252D01*
X189430931Y-60978251D01*
X189534171Y-60875011D01*
X189607172Y-60748569D01*
X189644960Y-60607541D01*
X189644960Y-60461539D01*
X189607172Y-60320511D01*
X189534171Y-60194069D01*
X189430931Y-60090829D01*
X189342735Y-60039909D01*
X191031960Y-60039909D01*
X191031960Y-60199170D01*
X191063029Y-60355369D01*
X191063030Y-60355371D01*
X191085338Y-60409228D01*
X191123977Y-60502508D01*
X191212457Y-60634929D01*
X191325071Y-60747543D01*
X191457492Y-60836023D01*
X191604629Y-60896970D01*
X191760830Y-60928040D01*
X191920090Y-60928040D01*
X192076291Y-60896970D01*
X192223428Y-60836023D01*
X192355849Y-60747543D01*
X192468463Y-60634929D01*
X192556943Y-60502508D01*
X192617890Y-60355371D01*
X192648960Y-60199170D01*
X192648960Y-60039910D01*
X192639935Y-59994540D01*
X192621877Y-59903752D01*
X192617890Y-59883709D01*
X192556943Y-59736572D01*
X192468463Y-59604151D01*
X192355849Y-59491537D01*
X192223428Y-59403057D01*
X192223425Y-59403055D01*
X192223424Y-59403055D01*
X192076291Y-59342110D01*
X192076289Y-59342109D01*
X191920090Y-59311040D01*
X191760830Y-59311040D01*
X191604630Y-59342109D01*
X191604628Y-59342110D01*
X191457495Y-59403055D01*
X191325072Y-59491536D01*
X191325070Y-59491537D01*
X191212457Y-59604150D01*
X191212456Y-59604152D01*
X191123975Y-59736575D01*
X191063030Y-59883708D01*
X191063029Y-59883710D01*
X191031960Y-60039909D01*
X189342735Y-60039909D01*
X189304489Y-60017828D01*
X189163464Y-59980040D01*
X189163461Y-59980040D01*
X189017459Y-59980040D01*
X189017455Y-59980040D01*
X188876430Y-60017828D01*
X188749988Y-60090829D01*
X188646749Y-60194068D01*
X188573748Y-60320510D01*
X188535960Y-60461535D01*
X188535960Y-60586040D01*
X188515998Y-60660540D01*
X188461460Y-60715078D01*
X188386960Y-60735040D01*
X188357455Y-60735040D01*
X188216430Y-60772828D01*
X188089988Y-60845829D01*
X187986749Y-60949068D01*
X187913748Y-61075510D01*
X187875960Y-61216535D01*
X132620898Y-61216535D01*
X132716668Y-61120765D01*
X132807008Y-60985561D01*
X132869236Y-60835329D01*
X132900960Y-60675845D01*
X132900960Y-60249849D01*
X141525160Y-60249849D01*
X141525160Y-60409230D01*
X141566411Y-60563180D01*
X141646097Y-60701199D01*
X141646098Y-60701200D01*
X141646100Y-60701203D01*
X141758797Y-60813900D01*
X141758799Y-60813901D01*
X141758800Y-60813902D01*
X141896819Y-60893588D01*
X141896820Y-60893588D01*
X141896823Y-60893590D01*
X142050771Y-60934840D01*
X142210149Y-60934840D01*
X142364097Y-60893590D01*
X142502123Y-60813900D01*
X142614820Y-60701203D01*
X142694510Y-60563177D01*
X142735760Y-60409229D01*
X142735760Y-60249851D01*
X142694510Y-60095903D01*
X142675651Y-60063239D01*
X142614822Y-59957880D01*
X142614821Y-59957879D01*
X142614820Y-59957877D01*
X142502123Y-59845180D01*
X142502120Y-59845178D01*
X142502119Y-59845177D01*
X142364100Y-59765491D01*
X142364097Y-59765490D01*
X142210149Y-59724240D01*
X142050771Y-59724240D01*
X141896819Y-59765491D01*
X141758800Y-59845177D01*
X141646097Y-59957880D01*
X141566411Y-60095899D01*
X141525160Y-60249849D01*
X132900960Y-60249849D01*
X132900960Y-60063235D01*
X132869236Y-59903751D01*
X132807008Y-59753519D01*
X132716668Y-59618315D01*
X132601685Y-59503332D01*
X132466481Y-59412992D01*
X132466477Y-59412990D01*
X132466475Y-59412989D01*
X132342875Y-59361793D01*
X132316249Y-59350764D01*
X132316247Y-59350763D01*
X132316248Y-59350763D01*
X132156768Y-59319040D01*
X132156765Y-59319040D01*
X131994155Y-59319040D01*
X131994151Y-59319040D01*
X131834672Y-59350763D01*
X131684444Y-59412989D01*
X131684434Y-59412995D01*
X131549236Y-59503331D01*
X131549231Y-59503335D01*
X131545819Y-59506748D01*
X131479024Y-59545312D01*
X131401896Y-59545312D01*
X131335101Y-59506748D01*
X131331688Y-59503335D01*
X131331685Y-59503332D01*
X131196481Y-59412992D01*
X131196477Y-59412990D01*
X131196475Y-59412989D01*
X131072875Y-59361793D01*
X131046249Y-59350764D01*
X131046247Y-59350763D01*
X131046248Y-59350763D01*
X130886768Y-59319040D01*
X130886765Y-59319040D01*
X130724155Y-59319040D01*
X130724151Y-59319040D01*
X130564671Y-59350763D01*
X130564669Y-59350764D01*
X130460066Y-59394092D01*
X130383598Y-59404159D01*
X130312341Y-59374643D01*
X130297688Y-59361793D01*
X130266647Y-59330752D01*
X130161710Y-59279452D01*
X130161706Y-59279451D01*
X130093687Y-59269540D01*
X129710460Y-59269540D01*
X129710460Y-60037563D01*
X129680205Y-60020096D01*
X129584830Y-59994540D01*
X129486090Y-59994540D01*
X129390715Y-60020096D01*
X129360460Y-60037563D01*
X129360460Y-59269540D01*
X128977246Y-59269540D01*
X128977229Y-59269542D01*
X128909209Y-59279452D01*
X128804272Y-59330752D01*
X128721672Y-59413352D01*
X128670372Y-59518289D01*
X128670371Y-59518293D01*
X128660460Y-59586312D01*
X126783937Y-59586312D01*
X126783458Y-58540725D01*
X126803386Y-58466218D01*
X126857899Y-58411655D01*
X126932376Y-58391659D01*
X133729541Y-58388040D01*
X133784992Y-58388040D01*
X133794992Y-58388040D01*
X133795122Y-58388005D01*
X133795259Y-58388005D01*
X133858807Y-58370939D01*
X133858891Y-58370939D01*
X133858886Y-58370919D01*
X133865657Y-58369104D01*
X133922286Y-58353932D01*
X133922291Y-58353928D01*
X133922306Y-58353925D01*
X133922515Y-58353838D01*
X133922527Y-58353830D01*
X133922534Y-58353829D01*
X133978989Y-58321193D01*
X133978991Y-58321192D01*
X133978995Y-58321200D01*
X133979055Y-58321154D01*
X134036414Y-58288040D01*
X134036419Y-58288034D01*
X134036617Y-58287881D01*
X134036627Y-58287876D01*
X134083195Y-58241258D01*
X134129600Y-58194854D01*
X134129601Y-58194851D01*
X134129603Y-58194850D01*
X134129757Y-58194646D01*
X134129764Y-58194641D01*
X134163020Y-58136968D01*
X134163020Y-58136967D01*
X134163028Y-58136971D01*
X134163054Y-58136908D01*
X134195492Y-58080726D01*
X134195494Y-58080717D01*
X134195499Y-58080709D01*
X134195592Y-58080486D01*
X134195593Y-58080480D01*
X134195595Y-58080478D01*
X134212616Y-58016814D01*
X134212616Y-58016813D01*
X134212636Y-58016818D01*
X134212636Y-58016739D01*
X134229600Y-57953432D01*
X134229600Y-57953295D01*
X134229635Y-57953165D01*
X134229600Y-57887273D01*
X134229600Y-57821648D01*
X134229599Y-57821646D01*
X134229586Y-57821544D01*
X134229586Y-57821542D01*
X134229565Y-57821389D01*
X134229565Y-57821381D01*
X134224696Y-57803250D01*
X134219600Y-57764614D01*
X134219600Y-56119846D01*
X136019960Y-56119846D01*
X136019960Y-56119848D01*
X136019960Y-57267632D01*
X136054068Y-57394926D01*
X136071554Y-57425212D01*
X136119957Y-57509050D01*
X136119958Y-57509051D01*
X136119960Y-57509054D01*
X136213146Y-57602240D01*
X136327274Y-57668132D01*
X136454568Y-57702240D01*
X143514650Y-57702240D01*
X143589150Y-57722202D01*
X143643688Y-57776740D01*
X143663650Y-57851240D01*
X143643688Y-57925740D01*
X143620009Y-57956599D01*
X143522457Y-58054150D01*
X143522456Y-58054152D01*
X143433975Y-58186575D01*
X143373030Y-58333708D01*
X143373029Y-58333710D01*
X143341960Y-58489909D01*
X143341960Y-58649170D01*
X143373029Y-58805369D01*
X143373030Y-58805371D01*
X143433977Y-58952508D01*
X143522457Y-59084929D01*
X143635071Y-59197543D01*
X143767492Y-59286023D01*
X143914629Y-59346970D01*
X144070830Y-59378040D01*
X144230090Y-59378040D01*
X144386291Y-59346970D01*
X144533428Y-59286023D01*
X144665849Y-59197543D01*
X144778463Y-59084929D01*
X144866943Y-58952508D01*
X144927890Y-58805371D01*
X144958960Y-58649170D01*
X144958960Y-58489910D01*
X144954247Y-58466218D01*
X144938503Y-58387067D01*
X144927890Y-58333709D01*
X144866943Y-58186572D01*
X144778463Y-58054151D01*
X144680911Y-57956599D01*
X144642347Y-57889804D01*
X144642347Y-57812676D01*
X144680911Y-57745881D01*
X144747706Y-57707317D01*
X144786270Y-57702240D01*
X208526352Y-57702240D01*
X208653646Y-57668132D01*
X208767774Y-57602240D01*
X208860960Y-57509054D01*
X208926852Y-57394926D01*
X208960960Y-57267632D01*
X208960960Y-56119848D01*
X208926852Y-55992554D01*
X208860960Y-55878426D01*
X208767774Y-55785240D01*
X208767771Y-55785238D01*
X208767770Y-55785237D01*
X208696974Y-55744363D01*
X208653646Y-55719348D01*
X208526352Y-55685240D01*
X136586352Y-55685240D01*
X136454568Y-55685240D01*
X136327274Y-55719348D01*
X136327272Y-55719348D01*
X136327272Y-55719349D01*
X136213149Y-55785237D01*
X136119957Y-55878429D01*
X136054069Y-55992552D01*
X136019960Y-56119846D01*
X134219600Y-56119846D01*
X134219600Y-54270481D01*
X141749960Y-54270481D01*
X141749960Y-54270483D01*
X141749960Y-54428597D01*
X141790883Y-54581324D01*
X141869940Y-54718256D01*
X141981744Y-54830060D01*
X142118676Y-54909117D01*
X142271403Y-54950040D01*
X142429517Y-54950040D01*
X142582244Y-54909117D01*
X142719176Y-54830060D01*
X142830980Y-54718256D01*
X142910037Y-54581324D01*
X142950960Y-54428597D01*
X142950960Y-54270483D01*
X142910037Y-54117756D01*
X142830980Y-53980824D01*
X142719176Y-53869020D01*
X142582244Y-53789963D01*
X142429517Y-53749040D01*
X142271403Y-53749040D01*
X142118676Y-53789963D01*
X142118674Y-53789963D01*
X142118674Y-53789964D01*
X141981743Y-53869020D01*
X141869940Y-53980823D01*
X141790884Y-54117754D01*
X141749960Y-54270481D01*
X134219600Y-54270481D01*
X134219600Y-52880249D01*
X143611360Y-52880249D01*
X143611360Y-53039630D01*
X143652611Y-53193580D01*
X143732297Y-53331599D01*
X143732298Y-53331600D01*
X143732300Y-53331603D01*
X143844997Y-53444300D01*
X143844999Y-53444301D01*
X143845000Y-53444302D01*
X143983019Y-53523988D01*
X143983020Y-53523988D01*
X143983023Y-53523990D01*
X144136971Y-53565240D01*
X144296349Y-53565240D01*
X144450297Y-53523990D01*
X144588323Y-53444300D01*
X144701020Y-53331603D01*
X144780710Y-53193577D01*
X144821960Y-53039629D01*
X144821960Y-52880251D01*
X144780710Y-52726303D01*
X144753078Y-52678444D01*
X144701022Y-52588280D01*
X144701021Y-52588279D01*
X144701020Y-52588277D01*
X144588323Y-52475580D01*
X144588320Y-52475578D01*
X144588319Y-52475577D01*
X144450300Y-52395891D01*
X144450297Y-52395890D01*
X144296349Y-52354640D01*
X144136971Y-52354640D01*
X143983019Y-52395891D01*
X143845000Y-52475577D01*
X143732297Y-52588280D01*
X143652611Y-52726299D01*
X143611360Y-52880249D01*
X134219600Y-52880249D01*
X134219600Y-51759849D01*
X146715160Y-51759849D01*
X146715160Y-51919230D01*
X146756411Y-52073180D01*
X146836097Y-52211199D01*
X146836098Y-52211200D01*
X146836100Y-52211203D01*
X146948797Y-52323900D01*
X146948799Y-52323901D01*
X146948800Y-52323902D01*
X147086819Y-52403588D01*
X147086820Y-52403588D01*
X147086823Y-52403590D01*
X147240771Y-52444840D01*
X147400149Y-52444840D01*
X147554097Y-52403590D01*
X147692123Y-52323900D01*
X147771111Y-52244912D01*
X176682760Y-52244912D01*
X176682760Y-52394167D01*
X176711877Y-52540550D01*
X176768992Y-52678440D01*
X176768994Y-52678442D01*
X176768995Y-52678445D01*
X176851916Y-52802545D01*
X176957455Y-52908084D01*
X177081555Y-52991005D01*
X177081557Y-52991006D01*
X177081559Y-52991007D01*
X177121945Y-53007735D01*
X177219447Y-53048122D01*
X177365833Y-53077240D01*
X177515087Y-53077240D01*
X177661473Y-53048122D01*
X177799365Y-52991005D01*
X177923465Y-52908084D01*
X178029004Y-52802545D01*
X178111925Y-52678445D01*
X178169042Y-52540553D01*
X178198160Y-52394167D01*
X178198160Y-52244913D01*
X178169042Y-52098527D01*
X178154702Y-52063907D01*
X178131555Y-52008024D01*
X178111927Y-51960639D01*
X178111926Y-51960637D01*
X178111925Y-51960635D01*
X178029004Y-51836535D01*
X177923465Y-51730996D01*
X177799365Y-51648075D01*
X177799362Y-51648074D01*
X177799360Y-51648072D01*
X177690028Y-51602786D01*
X177661473Y-51590958D01*
X177661471Y-51590957D01*
X177661470Y-51590957D01*
X177515087Y-51561840D01*
X177365833Y-51561840D01*
X177219449Y-51590957D01*
X177081559Y-51648072D01*
X177081555Y-51648075D01*
X177029179Y-51683072D01*
X176957451Y-51730999D01*
X176851919Y-51836531D01*
X176768995Y-51960635D01*
X176768992Y-51960639D01*
X176711877Y-52098529D01*
X176682760Y-52244912D01*
X147771111Y-52244912D01*
X147804820Y-52211203D01*
X147810121Y-52202021D01*
X147832598Y-52163092D01*
X147884508Y-52073180D01*
X147884507Y-52073180D01*
X147884510Y-52073177D01*
X147925760Y-51919229D01*
X147925760Y-51759851D01*
X147884510Y-51605903D01*
X147875881Y-51590958D01*
X147804822Y-51467880D01*
X147804821Y-51467879D01*
X147804820Y-51467877D01*
X147692123Y-51355180D01*
X147692120Y-51355178D01*
X147692119Y-51355177D01*
X147554100Y-51275491D01*
X147554097Y-51275490D01*
X147400149Y-51234240D01*
X147240771Y-51234240D01*
X147086819Y-51275491D01*
X146948800Y-51355177D01*
X146836097Y-51467880D01*
X146756411Y-51605899D01*
X146715160Y-51759849D01*
X134219600Y-51759849D01*
X134219600Y-50889849D01*
X149105160Y-50889849D01*
X149105160Y-51049230D01*
X149146411Y-51203180D01*
X149226097Y-51341199D01*
X149226098Y-51341200D01*
X149226100Y-51341203D01*
X149338797Y-51453900D01*
X149338799Y-51453901D01*
X149338800Y-51453902D01*
X149476819Y-51533588D01*
X149476820Y-51533588D01*
X149476823Y-51533590D01*
X149630771Y-51574840D01*
X149790149Y-51574840D01*
X149944097Y-51533590D01*
X150082123Y-51453900D01*
X150194820Y-51341203D01*
X150274510Y-51203177D01*
X150315760Y-51049229D01*
X150315760Y-50889851D01*
X150274510Y-50735903D01*
X150198297Y-50603900D01*
X150194822Y-50597880D01*
X150194821Y-50597879D01*
X150194820Y-50597877D01*
X150082123Y-50485180D01*
X150082120Y-50485178D01*
X150082119Y-50485177D01*
X149944100Y-50405491D01*
X149944097Y-50405490D01*
X149790149Y-50364240D01*
X149630771Y-50364240D01*
X149476819Y-50405491D01*
X149338800Y-50485177D01*
X149226097Y-50597880D01*
X149146411Y-50735899D01*
X149105160Y-50889849D01*
X134219600Y-50889849D01*
X134219600Y-50039849D01*
X135699960Y-50039849D01*
X135699960Y-50199230D01*
X135741211Y-50353180D01*
X135820897Y-50491199D01*
X135820898Y-50491200D01*
X135820900Y-50491203D01*
X135933597Y-50603900D01*
X135933599Y-50603901D01*
X135933600Y-50603902D01*
X136071619Y-50683588D01*
X136071620Y-50683588D01*
X136071623Y-50683590D01*
X136225571Y-50724840D01*
X136384949Y-50724840D01*
X136538897Y-50683590D01*
X136676923Y-50603900D01*
X136789620Y-50491203D01*
X136869310Y-50353177D01*
X136910560Y-50199229D01*
X136910560Y-50039851D01*
X136869310Y-49885903D01*
X136826393Y-49811570D01*
X136789622Y-49747880D01*
X136789621Y-49747879D01*
X136789620Y-49747877D01*
X136676923Y-49635180D01*
X136676920Y-49635178D01*
X136676919Y-49635177D01*
X136538900Y-49555491D01*
X136538897Y-49555490D01*
X136384949Y-49514240D01*
X136225571Y-49514240D01*
X136071619Y-49555491D01*
X135933600Y-49635177D01*
X135820897Y-49747880D01*
X135741211Y-49885899D01*
X135699960Y-50039849D01*
X134219600Y-50039849D01*
X134219600Y-49126580D01*
X142833403Y-49126580D01*
X142833403Y-49285961D01*
X142874654Y-49439911D01*
X142954340Y-49577930D01*
X142954341Y-49577931D01*
X142954343Y-49577934D01*
X143067040Y-49690631D01*
X143067042Y-49690632D01*
X143067043Y-49690633D01*
X143205062Y-49770319D01*
X143205063Y-49770319D01*
X143205066Y-49770321D01*
X143359014Y-49811571D01*
X143518392Y-49811571D01*
X143672340Y-49770321D01*
X143810366Y-49690631D01*
X143923063Y-49577934D01*
X144002753Y-49439908D01*
X144044003Y-49285960D01*
X144044003Y-49126582D01*
X144002753Y-48972634D01*
X143962063Y-48902158D01*
X143923065Y-48834611D01*
X143923064Y-48834610D01*
X143923063Y-48834608D01*
X143810366Y-48721911D01*
X143810363Y-48721909D01*
X143810362Y-48721908D01*
X143672345Y-48642223D01*
X143672340Y-48642221D01*
X143518392Y-48600971D01*
X143359014Y-48600971D01*
X143205062Y-48642222D01*
X143067043Y-48721908D01*
X142954340Y-48834611D01*
X142874654Y-48972630D01*
X142833403Y-49126580D01*
X134219600Y-49126580D01*
X134219600Y-48129849D01*
X135715160Y-48129849D01*
X135715160Y-48289230D01*
X135756411Y-48443180D01*
X135836097Y-48581199D01*
X135836098Y-48581200D01*
X135836100Y-48581203D01*
X135948797Y-48693900D01*
X135948799Y-48693901D01*
X135948800Y-48693902D01*
X136086819Y-48773588D01*
X136086820Y-48773588D01*
X136086823Y-48773590D01*
X136240771Y-48814840D01*
X136400149Y-48814840D01*
X136554097Y-48773590D01*
X136692123Y-48693900D01*
X136804820Y-48581203D01*
X136845093Y-48511449D01*
X144540360Y-48511449D01*
X144540360Y-48511451D01*
X144540360Y-48670829D01*
X144578947Y-48814840D01*
X144581611Y-48824780D01*
X144661297Y-48962799D01*
X144661302Y-48962805D01*
X144773992Y-49075496D01*
X144780970Y-49080850D01*
X144827925Y-49142038D01*
X144837995Y-49218506D01*
X144819308Y-49273561D01*
X144806411Y-49295898D01*
X144765160Y-49449849D01*
X144765160Y-49609230D01*
X144786971Y-49690631D01*
X144802310Y-49747877D01*
X144806411Y-49763180D01*
X144886097Y-49901199D01*
X144886098Y-49901200D01*
X144886100Y-49901203D01*
X144998797Y-50013900D01*
X144998799Y-50013901D01*
X144998800Y-50013902D01*
X145136819Y-50093588D01*
X145136820Y-50093588D01*
X145136823Y-50093590D01*
X145290771Y-50134840D01*
X145450149Y-50134840D01*
X145604097Y-50093590D01*
X145742123Y-50013900D01*
X145854820Y-49901203D01*
X145934510Y-49763177D01*
X145975760Y-49609229D01*
X145975760Y-49449851D01*
X145934510Y-49295903D01*
X145928769Y-49285960D01*
X145854822Y-49157880D01*
X145854821Y-49157879D01*
X145854820Y-49157877D01*
X145742123Y-49045180D01*
X145742120Y-49045178D01*
X145742116Y-49045174D01*
X145735138Y-49039819D01*
X145688189Y-48978627D01*
X145678126Y-48902158D01*
X145696813Y-48847113D01*
X145709710Y-48824777D01*
X145750960Y-48670829D01*
X145750960Y-48511451D01*
X145709710Y-48357503D01*
X145709708Y-48357499D01*
X145707182Y-48348071D01*
X145708620Y-48347685D01*
X145699941Y-48281751D01*
X145729458Y-48210495D01*
X145773167Y-48172165D01*
X145822116Y-48143904D01*
X145822115Y-48143904D01*
X145822123Y-48143900D01*
X145934820Y-48031203D01*
X145993338Y-47929847D01*
X148849025Y-47929847D01*
X148849025Y-48089228D01*
X148866412Y-48154115D01*
X148881518Y-48210495D01*
X148890276Y-48243178D01*
X148969962Y-48381197D01*
X148969963Y-48381198D01*
X148969965Y-48381201D01*
X149006013Y-48417249D01*
X149044576Y-48484042D01*
X149044576Y-48561170D01*
X149006013Y-48627963D01*
X148976102Y-48657874D01*
X148976097Y-48657880D01*
X148896411Y-48795899D01*
X148855160Y-48949849D01*
X148855160Y-49109230D01*
X148896411Y-49263180D01*
X148976097Y-49401199D01*
X148976098Y-49401200D01*
X148976100Y-49401203D01*
X149088797Y-49513900D01*
X149088799Y-49513901D01*
X149088800Y-49513902D01*
X149226819Y-49593588D01*
X149226820Y-49593588D01*
X149226823Y-49593590D01*
X149380771Y-49634840D01*
X149540149Y-49634840D01*
X149694097Y-49593590D01*
X149832123Y-49513900D01*
X149944820Y-49401203D01*
X150024510Y-49263177D01*
X150065760Y-49109229D01*
X150065760Y-48949851D01*
X150024510Y-48795903D01*
X150011627Y-48773590D01*
X149944822Y-48657880D01*
X149944821Y-48657879D01*
X149944820Y-48657877D01*
X149908770Y-48621827D01*
X149870208Y-48555035D01*
X149870208Y-48477907D01*
X149908769Y-48411116D01*
X149938685Y-48381201D01*
X150018375Y-48243175D01*
X150059625Y-48089227D01*
X150059625Y-47979849D01*
X154265160Y-47979849D01*
X154265160Y-48139230D01*
X154269149Y-48154117D01*
X154305352Y-48289230D01*
X154306411Y-48293180D01*
X154386097Y-48431199D01*
X154386098Y-48431200D01*
X154386100Y-48431203D01*
X154498797Y-48543900D01*
X154498799Y-48543901D01*
X154498800Y-48543902D01*
X154636819Y-48623588D01*
X154636820Y-48623588D01*
X154636823Y-48623590D01*
X154790771Y-48664840D01*
X154950149Y-48664840D01*
X155104097Y-48623590D01*
X155242123Y-48543900D01*
X155354820Y-48431203D01*
X155434510Y-48293177D01*
X155475760Y-48139229D01*
X155475760Y-47979851D01*
X155434510Y-47825903D01*
X155384468Y-47739229D01*
X155354822Y-47687880D01*
X155354821Y-47687879D01*
X155354820Y-47687877D01*
X155242123Y-47575180D01*
X155242120Y-47575178D01*
X155242119Y-47575177D01*
X155138723Y-47515481D01*
X168624960Y-47515481D01*
X168624960Y-47515483D01*
X168624960Y-47673597D01*
X168665883Y-47826324D01*
X168744940Y-47963256D01*
X168856744Y-48075060D01*
X168993676Y-48154117D01*
X169146403Y-48195040D01*
X169304517Y-48195040D01*
X169457244Y-48154117D01*
X169594176Y-48075060D01*
X169705980Y-47963256D01*
X169785037Y-47826324D01*
X169825960Y-47673597D01*
X169825960Y-47515483D01*
X169785037Y-47362756D01*
X169705980Y-47225824D01*
X169594176Y-47114020D01*
X169457244Y-47034963D01*
X169304517Y-46994040D01*
X169146403Y-46994040D01*
X168993676Y-47034963D01*
X168993674Y-47034963D01*
X168993674Y-47034964D01*
X168856743Y-47114020D01*
X168744940Y-47225823D01*
X168665884Y-47362754D01*
X168624960Y-47515481D01*
X155138723Y-47515481D01*
X155104100Y-47495491D01*
X155104097Y-47495490D01*
X154950149Y-47454240D01*
X154790771Y-47454240D01*
X154636819Y-47495491D01*
X154498800Y-47575177D01*
X154386097Y-47687880D01*
X154306411Y-47825899D01*
X154265160Y-47979849D01*
X150059625Y-47979849D01*
X150059625Y-47929849D01*
X150018375Y-47775901D01*
X149998965Y-47742283D01*
X149933802Y-47629417D01*
X149935305Y-47628548D01*
X149910219Y-47567994D01*
X149920281Y-47491525D01*
X149939736Y-47457827D01*
X149944811Y-47451211D01*
X149944820Y-47451203D01*
X150009276Y-47339561D01*
X150024508Y-47313181D01*
X150024508Y-47313179D01*
X150024510Y-47313177D01*
X150065760Y-47159229D01*
X150065760Y-46999851D01*
X150024510Y-46845903D01*
X149944820Y-46707877D01*
X149832123Y-46595180D01*
X149832120Y-46595178D01*
X149832119Y-46595177D01*
X149694100Y-46515491D01*
X149694097Y-46515490D01*
X149540149Y-46474240D01*
X149380771Y-46474240D01*
X149226819Y-46515491D01*
X149088800Y-46595177D01*
X148976097Y-46707880D01*
X148896411Y-46845899D01*
X148855160Y-46999849D01*
X148855160Y-47159230D01*
X148896411Y-47313180D01*
X148980983Y-47459661D01*
X148979479Y-47460529D01*
X149004565Y-47521086D01*
X148994502Y-47597555D01*
X148975051Y-47631246D01*
X148969965Y-47637873D01*
X148890276Y-47775897D01*
X148849025Y-47929847D01*
X145993338Y-47929847D01*
X146014510Y-47893177D01*
X146055760Y-47739229D01*
X146055760Y-47579851D01*
X146014510Y-47425903D01*
X145977064Y-47361046D01*
X145934822Y-47287880D01*
X145934821Y-47287879D01*
X145934820Y-47287877D01*
X145822123Y-47175180D01*
X145822120Y-47175178D01*
X145822119Y-47175177D01*
X145684100Y-47095491D01*
X145684097Y-47095490D01*
X145530149Y-47054240D01*
X145370771Y-47054240D01*
X145216819Y-47095491D01*
X145078800Y-47175177D01*
X144966097Y-47287880D01*
X144886411Y-47425899D01*
X144845160Y-47579849D01*
X144845160Y-47579851D01*
X144845160Y-47739229D01*
X144886410Y-47893177D01*
X144886411Y-47893178D01*
X144888938Y-47902609D01*
X144887500Y-47902994D01*
X144896177Y-47968937D01*
X144866655Y-48040191D01*
X144822955Y-48078513D01*
X144774000Y-48106777D01*
X144661297Y-48219480D01*
X144581611Y-48357499D01*
X144540360Y-48511449D01*
X136845093Y-48511449D01*
X136884510Y-48443177D01*
X136925760Y-48289229D01*
X136925760Y-48129851D01*
X136884510Y-47975903D01*
X136875526Y-47960343D01*
X136804822Y-47837880D01*
X136804821Y-47837879D01*
X136804820Y-47837877D01*
X136692123Y-47725180D01*
X136692120Y-47725178D01*
X136692119Y-47725177D01*
X136554100Y-47645491D01*
X136554097Y-47645490D01*
X136400149Y-47604240D01*
X136240771Y-47604240D01*
X136086819Y-47645491D01*
X135948800Y-47725177D01*
X135836097Y-47837880D01*
X135756411Y-47975899D01*
X135715160Y-48129849D01*
X134219600Y-48129849D01*
X134219600Y-46549849D01*
X143695160Y-46549849D01*
X143695160Y-46549851D01*
X143695160Y-46709229D01*
X143731781Y-46845903D01*
X143736411Y-46863180D01*
X143816097Y-47001199D01*
X143816098Y-47001200D01*
X143816100Y-47001203D01*
X143928797Y-47113900D01*
X143928799Y-47113901D01*
X143928800Y-47113902D01*
X144066819Y-47193588D01*
X144066820Y-47193588D01*
X144066823Y-47193590D01*
X144220771Y-47234840D01*
X144380149Y-47234840D01*
X144534097Y-47193590D01*
X144672123Y-47113900D01*
X144784820Y-47001203D01*
X144864510Y-46863177D01*
X144905760Y-46709229D01*
X144905760Y-46549851D01*
X144864510Y-46395903D01*
X144784820Y-46257877D01*
X144726839Y-46199896D01*
X144688277Y-46133104D01*
X144688277Y-46055976D01*
X144726841Y-45989181D01*
X144732120Y-45983901D01*
X144732123Y-45983900D01*
X144844820Y-45871203D01*
X144924510Y-45733177D01*
X144965760Y-45579229D01*
X144965760Y-45490481D01*
X170049960Y-45490481D01*
X170049960Y-45490483D01*
X170049960Y-45648597D01*
X170090883Y-45801324D01*
X170169940Y-45938256D01*
X170281744Y-46050060D01*
X170418676Y-46129117D01*
X170571403Y-46170040D01*
X170729517Y-46170040D01*
X170882244Y-46129117D01*
X170949164Y-46090481D01*
X171712460Y-46090481D01*
X171712460Y-46248598D01*
X171714947Y-46257880D01*
X171753383Y-46401324D01*
X171832440Y-46538256D01*
X171944244Y-46650060D01*
X172081176Y-46729117D01*
X172233903Y-46770040D01*
X172392017Y-46770040D01*
X172544744Y-46729117D01*
X172681676Y-46650060D01*
X172793480Y-46538256D01*
X172872537Y-46401324D01*
X172913460Y-46248597D01*
X172913460Y-46094040D01*
X172933422Y-46019540D01*
X172987960Y-45965002D01*
X173062460Y-45945040D01*
X173154517Y-45945040D01*
X173307244Y-45904117D01*
X173444176Y-45825060D01*
X173555980Y-45713256D01*
X173635037Y-45576324D01*
X173675960Y-45423597D01*
X173675960Y-45265483D01*
X173635037Y-45112756D01*
X173555980Y-44975824D01*
X173444176Y-44864020D01*
X173307244Y-44784963D01*
X173154517Y-44744040D01*
X172996403Y-44744040D01*
X172843676Y-44784963D01*
X172843674Y-44784963D01*
X172843674Y-44784964D01*
X172706743Y-44864020D01*
X172594940Y-44975823D01*
X172572218Y-45015180D01*
X172515883Y-45112756D01*
X172511831Y-45127880D01*
X172474960Y-45265481D01*
X172474960Y-45420040D01*
X172454998Y-45494540D01*
X172400460Y-45549078D01*
X172325960Y-45569040D01*
X172233903Y-45569040D01*
X172081176Y-45609963D01*
X172081174Y-45609963D01*
X172081174Y-45609964D01*
X171944243Y-45689020D01*
X171832440Y-45800823D01*
X171791808Y-45871201D01*
X171753383Y-45937756D01*
X171743308Y-45975358D01*
X171712460Y-46090481D01*
X170949164Y-46090481D01*
X171019176Y-46050060D01*
X171130980Y-45938256D01*
X171210037Y-45801324D01*
X171250960Y-45648597D01*
X171250960Y-45490483D01*
X171210037Y-45337756D01*
X171130980Y-45200824D01*
X171019176Y-45089020D01*
X170882244Y-45009963D01*
X170729517Y-44969040D01*
X170571403Y-44969040D01*
X170418676Y-45009963D01*
X170418674Y-45009963D01*
X170418674Y-45009964D01*
X170281743Y-45089020D01*
X170169940Y-45200823D01*
X170090884Y-45337754D01*
X170049960Y-45490481D01*
X144965760Y-45490481D01*
X144965760Y-45419851D01*
X144924510Y-45265903D01*
X144924266Y-45265481D01*
X144844822Y-45127880D01*
X144844821Y-45127879D01*
X144844820Y-45127877D01*
X144732123Y-45015180D01*
X144732120Y-45015178D01*
X144732119Y-45015177D01*
X144594100Y-44935491D01*
X144594097Y-44935490D01*
X144440149Y-44894240D01*
X144280771Y-44894240D01*
X144126819Y-44935491D01*
X143988800Y-45015177D01*
X143876097Y-45127880D01*
X143796411Y-45265899D01*
X143755160Y-45419849D01*
X143755160Y-45579230D01*
X143796411Y-45733180D01*
X143876097Y-45871199D01*
X143876098Y-45871200D01*
X143876100Y-45871203D01*
X143909012Y-45904115D01*
X143934079Y-45929182D01*
X143972642Y-45995977D01*
X143972642Y-46073105D01*
X143934078Y-46139898D01*
X143816102Y-46257874D01*
X143816097Y-46257880D01*
X143736411Y-46395899D01*
X143695160Y-46549849D01*
X134219600Y-46549849D01*
X134219600Y-44119849D01*
X139265160Y-44119849D01*
X139265160Y-44279230D01*
X139306411Y-44433180D01*
X139386097Y-44571199D01*
X139386098Y-44571200D01*
X139386100Y-44571203D01*
X139498797Y-44683900D01*
X139498799Y-44683901D01*
X139498800Y-44683902D01*
X139636819Y-44763588D01*
X139636820Y-44763588D01*
X139636823Y-44763590D01*
X139790771Y-44804840D01*
X139950149Y-44804840D01*
X140104097Y-44763590D01*
X140242123Y-44683900D01*
X140354820Y-44571203D01*
X140434510Y-44433177D01*
X140475760Y-44279229D01*
X140475760Y-44119851D01*
X140434510Y-43965903D01*
X140404068Y-43913177D01*
X140354822Y-43827880D01*
X140354821Y-43827879D01*
X140354820Y-43827877D01*
X140242123Y-43715180D01*
X140208021Y-43695491D01*
X140104100Y-43635491D01*
X140104097Y-43635490D01*
X139971082Y-43599849D01*
X142705160Y-43599849D01*
X142705160Y-43759230D01*
X142746411Y-43913180D01*
X142826097Y-44051199D01*
X142826098Y-44051200D01*
X142826100Y-44051203D01*
X142938797Y-44163900D01*
X142938799Y-44163901D01*
X142938800Y-44163902D01*
X143076819Y-44243588D01*
X143076820Y-44243588D01*
X143076823Y-44243590D01*
X143230771Y-44284840D01*
X143390149Y-44284840D01*
X143544097Y-44243590D01*
X143654499Y-44179849D01*
X146735160Y-44179849D01*
X146735160Y-44179851D01*
X146735160Y-44339229D01*
X146768268Y-44462792D01*
X146776411Y-44493180D01*
X146856097Y-44631199D01*
X146856098Y-44631200D01*
X146856100Y-44631203D01*
X146968797Y-44743900D01*
X146968799Y-44743901D01*
X146968800Y-44743902D01*
X147106819Y-44823588D01*
X147106820Y-44823588D01*
X147106823Y-44823590D01*
X147260771Y-44864840D01*
X147420149Y-44864840D01*
X147574097Y-44823590D01*
X147712123Y-44743900D01*
X147824820Y-44631203D01*
X147904510Y-44493177D01*
X147945760Y-44339229D01*
X147945760Y-44179851D01*
X147945759Y-44179845D01*
X147942760Y-44168653D01*
X147942759Y-44168650D01*
X147935042Y-44139849D01*
X148895160Y-44139849D01*
X148895160Y-44299230D01*
X148936411Y-44453180D01*
X149016097Y-44591199D01*
X149016098Y-44591200D01*
X149016100Y-44591203D01*
X149128797Y-44703900D01*
X149128799Y-44703901D01*
X149128800Y-44703902D01*
X149266819Y-44783588D01*
X149266820Y-44783588D01*
X149266823Y-44783590D01*
X149420771Y-44824840D01*
X149580149Y-44824840D01*
X149734097Y-44783590D01*
X149872123Y-44703900D01*
X149984820Y-44591203D01*
X150064510Y-44453177D01*
X150105760Y-44299229D01*
X150105760Y-44139851D01*
X150064510Y-43985903D01*
X150022521Y-43913177D01*
X149984822Y-43847880D01*
X149984821Y-43847879D01*
X149984820Y-43847877D01*
X149872123Y-43735180D01*
X149872120Y-43735178D01*
X149872119Y-43735177D01*
X149734100Y-43655491D01*
X149734097Y-43655490D01*
X149580149Y-43614240D01*
X149420771Y-43614240D01*
X149266819Y-43655491D01*
X149128800Y-43735177D01*
X149016097Y-43847880D01*
X148936411Y-43985899D01*
X148895160Y-44139849D01*
X147935042Y-44139849D01*
X147929683Y-44119851D01*
X147904510Y-44025903D01*
X147881413Y-43985899D01*
X147824822Y-43887880D01*
X147824821Y-43887879D01*
X147824820Y-43887877D01*
X147712123Y-43775180D01*
X147712120Y-43775178D01*
X147712119Y-43775177D01*
X147574100Y-43695491D01*
X147574097Y-43695490D01*
X147420149Y-43654240D01*
X147260771Y-43654240D01*
X147106819Y-43695491D01*
X146968800Y-43775177D01*
X146856097Y-43887880D01*
X146776411Y-44025899D01*
X146735160Y-44179849D01*
X143654499Y-44179849D01*
X143682123Y-44163900D01*
X143794820Y-44051203D01*
X143874510Y-43913177D01*
X143915760Y-43759229D01*
X143915760Y-43599851D01*
X143874510Y-43445903D01*
X143836015Y-43379229D01*
X143794822Y-43307880D01*
X143794821Y-43307879D01*
X143794820Y-43307877D01*
X143706792Y-43219849D01*
X156975160Y-43219849D01*
X156975160Y-43379230D01*
X157016411Y-43533180D01*
X157096097Y-43671199D01*
X157096098Y-43671200D01*
X157096100Y-43671203D01*
X157208797Y-43783900D01*
X157208799Y-43783901D01*
X157208800Y-43783902D01*
X157346819Y-43863588D01*
X157346820Y-43863588D01*
X157346823Y-43863590D01*
X157500771Y-43904840D01*
X157660149Y-43904840D01*
X157814097Y-43863590D01*
X157952123Y-43783900D01*
X158064820Y-43671203D01*
X158067439Y-43666665D01*
X158134151Y-43551121D01*
X158134151Y-43551120D01*
X158144507Y-43533182D01*
X158144508Y-43533180D01*
X158144510Y-43533177D01*
X158185760Y-43379229D01*
X158185760Y-43219851D01*
X158144510Y-43065903D01*
X158091274Y-42973697D01*
X166180460Y-42973697D01*
X166180460Y-43337340D01*
X166780461Y-43337340D01*
X166780461Y-43687340D01*
X166180460Y-43687340D01*
X166180460Y-44050982D01*
X166215045Y-44224857D01*
X166215046Y-44224859D01*
X166282890Y-44388652D01*
X166381383Y-44536055D01*
X166381387Y-44536060D01*
X166506739Y-44661412D01*
X166506744Y-44661416D01*
X166654147Y-44759909D01*
X166817940Y-44827753D01*
X166817944Y-44827754D01*
X166905459Y-44845162D01*
X166905460Y-44845162D01*
X166905460Y-44207724D01*
X166964665Y-44241907D01*
X167040964Y-44262351D01*
X167119956Y-44262351D01*
X167196255Y-44241907D01*
X167255460Y-44207724D01*
X167255460Y-44845162D01*
X167342975Y-44827754D01*
X167342979Y-44827753D01*
X167506772Y-44759909D01*
X167654175Y-44661416D01*
X167654180Y-44661412D01*
X167779532Y-44536060D01*
X167779536Y-44536055D01*
X167878029Y-44388652D01*
X167945873Y-44224859D01*
X167945874Y-44224857D01*
X167980460Y-44050982D01*
X167980460Y-43688803D01*
X168000422Y-43614303D01*
X168054960Y-43559765D01*
X168129460Y-43539803D01*
X168195434Y-43556329D01*
X168195569Y-43556004D01*
X168197761Y-43556912D01*
X168199701Y-43557398D01*
X168202339Y-43558808D01*
X168249533Y-43578356D01*
X168320716Y-43607841D01*
X168446391Y-43632840D01*
X168446395Y-43632840D01*
X168574525Y-43632840D01*
X168574529Y-43632840D01*
X168700204Y-43607841D01*
X168818587Y-43558805D01*
X168925129Y-43487616D01*
X169015736Y-43397009D01*
X169086925Y-43290467D01*
X169135961Y-43172084D01*
X169160960Y-43046409D01*
X169160960Y-42918271D01*
X169160959Y-42918267D01*
X173639960Y-42918267D01*
X173639960Y-43046412D01*
X173664958Y-43172083D01*
X173664959Y-43172085D01*
X173713991Y-43290459D01*
X173713993Y-43290463D01*
X173713995Y-43290467D01*
X173785184Y-43397009D01*
X173875791Y-43487616D01*
X173982333Y-43558805D01*
X173982339Y-43558807D01*
X173982340Y-43558808D01*
X173990698Y-43562270D01*
X174100716Y-43607841D01*
X174226391Y-43632840D01*
X174226395Y-43632840D01*
X174354525Y-43632840D01*
X174354529Y-43632840D01*
X174480204Y-43607841D01*
X174590222Y-43562270D01*
X174598580Y-43558808D01*
X174598580Y-43558807D01*
X174598587Y-43558805D01*
X174598592Y-43558801D01*
X174601219Y-43557398D01*
X174602972Y-43556988D01*
X174605351Y-43556004D01*
X174605513Y-43556396D01*
X174676331Y-43539883D01*
X174750139Y-43562270D01*
X174802865Y-43618562D01*
X174820460Y-43688803D01*
X174820460Y-44050982D01*
X174855045Y-44224857D01*
X174855046Y-44224859D01*
X174922890Y-44388652D01*
X175021383Y-44536055D01*
X175021387Y-44536060D01*
X175146739Y-44661412D01*
X175146744Y-44661416D01*
X175294147Y-44759909D01*
X175457940Y-44827753D01*
X175457944Y-44827754D01*
X175545459Y-44845162D01*
X175545460Y-44845162D01*
X175545460Y-44207712D01*
X175604665Y-44241895D01*
X175680964Y-44262339D01*
X175759956Y-44262339D01*
X175836255Y-44241895D01*
X175895460Y-44207712D01*
X175895460Y-44845162D01*
X175982975Y-44827754D01*
X175982979Y-44827753D01*
X176146772Y-44759909D01*
X176294175Y-44661416D01*
X176294180Y-44661412D01*
X176419532Y-44536060D01*
X176419536Y-44536055D01*
X176518029Y-44388652D01*
X176585873Y-44224859D01*
X176585874Y-44224857D01*
X176620460Y-44050982D01*
X176620460Y-43687340D01*
X176020459Y-43687340D01*
X176020459Y-43342323D01*
X187754560Y-43342323D01*
X187754560Y-43578356D01*
X187785365Y-43812346D01*
X187785366Y-43812352D01*
X187785367Y-43812354D01*
X187842587Y-44025903D01*
X187846455Y-44040336D01*
X187936779Y-44258396D01*
X188011983Y-44388652D01*
X188054787Y-44462790D01*
X188190486Y-44639636D01*
X188220000Y-44710891D01*
X188209933Y-44787360D01*
X188190488Y-44821040D01*
X188098435Y-44941007D01*
X188054786Y-44997891D01*
X187936779Y-45202283D01*
X187846455Y-45420343D01*
X187785365Y-45648333D01*
X187754560Y-45882323D01*
X187754560Y-46118356D01*
X187785365Y-46352346D01*
X187785366Y-46352352D01*
X187785367Y-46352354D01*
X187838286Y-46549851D01*
X187846455Y-46580336D01*
X187936779Y-46798396D01*
X188039523Y-46976353D01*
X188054787Y-47002790D01*
X188190486Y-47179636D01*
X188220000Y-47250891D01*
X188209933Y-47327360D01*
X188190488Y-47361040D01*
X188114814Y-47459661D01*
X188054786Y-47537891D01*
X187936779Y-47742283D01*
X187846455Y-47960343D01*
X187785365Y-48188333D01*
X187754560Y-48422323D01*
X187754560Y-48658356D01*
X187785365Y-48892346D01*
X187785366Y-48892352D01*
X187785367Y-48892354D01*
X187843478Y-49109228D01*
X187846455Y-49120336D01*
X187936779Y-49338396D01*
X188038304Y-49514240D01*
X188054787Y-49542790D01*
X188198468Y-49730039D01*
X188365361Y-49896932D01*
X188552610Y-50040613D01*
X188757011Y-50158624D01*
X188941002Y-50234835D01*
X188989341Y-50267134D01*
X189345936Y-50623729D01*
X189248054Y-50680242D01*
X189154962Y-50773334D01*
X189098449Y-50871217D01*
X188670273Y-50443041D01*
X188616175Y-50416106D01*
X188571491Y-50477611D01*
X188489313Y-50638890D01*
X188433378Y-50811042D01*
X188433377Y-50811042D01*
X188405060Y-50989836D01*
X188405060Y-51170843D01*
X188433377Y-51349637D01*
X188489313Y-51521789D01*
X188571492Y-51683072D01*
X188571493Y-51683073D01*
X188627606Y-51760305D01*
X189098449Y-51289462D01*
X189154962Y-51387346D01*
X189248054Y-51480438D01*
X189345936Y-51536950D01*
X188875093Y-52007792D01*
X188875093Y-52007794D01*
X188952318Y-52063901D01*
X188952327Y-52063907D01*
X189113610Y-52146086D01*
X189285762Y-52202021D01*
X189285762Y-52202022D01*
X189464557Y-52230340D01*
X189645563Y-52230340D01*
X189824357Y-52202022D01*
X189824357Y-52202021D01*
X189996509Y-52146086D01*
X190157792Y-52063907D01*
X190157793Y-52063906D01*
X190235025Y-52007793D01*
X190235026Y-52007793D01*
X189764183Y-51536950D01*
X189862066Y-51480438D01*
X189955158Y-51387346D01*
X190011670Y-51289463D01*
X190482513Y-51760306D01*
X190482513Y-51760305D01*
X190538626Y-51683073D01*
X190538627Y-51683072D01*
X190620806Y-51521789D01*
X190676741Y-51349637D01*
X190676742Y-51349637D01*
X190705060Y-51170843D01*
X190705060Y-50989836D01*
X190676742Y-50811042D01*
X190620806Y-50638890D01*
X190538627Y-50477607D01*
X190538621Y-50477598D01*
X190482514Y-50400373D01*
X190478520Y-50400059D01*
X190475012Y-50398816D01*
X190469883Y-50411200D01*
X190457032Y-50425853D01*
X190011670Y-50871215D01*
X189955158Y-50773334D01*
X189862066Y-50680242D01*
X189764182Y-50623728D01*
X190120777Y-50267134D01*
X190169109Y-50234839D01*
X190294657Y-50182835D01*
X190365138Y-50173556D01*
X190367417Y-50167123D01*
X190415708Y-50122481D01*
X190557510Y-50040613D01*
X190744759Y-49896932D01*
X190911652Y-49730039D01*
X191055333Y-49542790D01*
X191173344Y-49338389D01*
X191263666Y-49120333D01*
X191324753Y-48892354D01*
X191355560Y-48658351D01*
X191355560Y-48422329D01*
X191329396Y-48223590D01*
X191324754Y-48188333D01*
X191324753Y-48188332D01*
X191324753Y-48188326D01*
X191263666Y-47960347D01*
X191173344Y-47742291D01*
X191173341Y-47742286D01*
X191173340Y-47742283D01*
X191076861Y-47575177D01*
X191055333Y-47537890D01*
X191055331Y-47537887D01*
X191055330Y-47537885D01*
X190969399Y-47425899D01*
X190919633Y-47361043D01*
X190890119Y-47289789D01*
X190900186Y-47213321D01*
X190919631Y-47179639D01*
X191055333Y-47002790D01*
X191173344Y-46798389D01*
X191263666Y-46580333D01*
X191324753Y-46352354D01*
X191355560Y-46118351D01*
X191355560Y-45882329D01*
X191324753Y-45648326D01*
X191263666Y-45420347D01*
X191173344Y-45202291D01*
X191173341Y-45202286D01*
X191173340Y-45202283D01*
X191065315Y-45015180D01*
X191055333Y-44997890D01*
X191055331Y-44997887D01*
X191055330Y-44997885D01*
X190994366Y-44918436D01*
X190919633Y-44821043D01*
X190890119Y-44749789D01*
X190900186Y-44673321D01*
X190919631Y-44639639D01*
X191055333Y-44462790D01*
X191173344Y-44258389D01*
X191199637Y-44194912D01*
X204842760Y-44194912D01*
X204842760Y-44344167D01*
X204871877Y-44490550D01*
X204928992Y-44628440D01*
X204928994Y-44628442D01*
X204928995Y-44628445D01*
X205011916Y-44752545D01*
X205117455Y-44858084D01*
X205241555Y-44941005D01*
X205241557Y-44941006D01*
X205241559Y-44941007D01*
X205281945Y-44957735D01*
X205379447Y-44998122D01*
X205525833Y-45027240D01*
X205675087Y-45027240D01*
X205821473Y-44998122D01*
X205959365Y-44941005D01*
X206083465Y-44858084D01*
X206189004Y-44752545D01*
X206271925Y-44628445D01*
X206329042Y-44490553D01*
X206358160Y-44344167D01*
X206358160Y-44194913D01*
X206329042Y-44048527D01*
X206271925Y-43910635D01*
X206189004Y-43786535D01*
X206083465Y-43680996D01*
X205959365Y-43598075D01*
X205959362Y-43598074D01*
X205959360Y-43598072D01*
X205850028Y-43552786D01*
X205821473Y-43540958D01*
X205821471Y-43540957D01*
X205821470Y-43540957D01*
X205675087Y-43511840D01*
X205525833Y-43511840D01*
X205379449Y-43540957D01*
X205241559Y-43598072D01*
X205241555Y-43598075D01*
X205132112Y-43671203D01*
X205117451Y-43680999D01*
X205011919Y-43786531D01*
X205011916Y-43786534D01*
X205011916Y-43786535D01*
X204944201Y-43887877D01*
X204928995Y-43910635D01*
X204928992Y-43910639D01*
X204871877Y-44048529D01*
X204842760Y-44194912D01*
X191199637Y-44194912D01*
X191263666Y-44040333D01*
X191324753Y-43812354D01*
X191355560Y-43578351D01*
X191355560Y-43342329D01*
X191324753Y-43108326D01*
X191263666Y-42880347D01*
X191173344Y-42662291D01*
X191173341Y-42662286D01*
X191173340Y-42662283D01*
X191104410Y-42542894D01*
X191055333Y-42457890D01*
X190911652Y-42270641D01*
X190744759Y-42103748D01*
X190557510Y-41960067D01*
X190494342Y-41923597D01*
X190353116Y-41842059D01*
X190135056Y-41751735D01*
X190135054Y-41751734D01*
X190135053Y-41751734D01*
X189907074Y-41690647D01*
X189907072Y-41690646D01*
X189907066Y-41690645D01*
X189673076Y-41659840D01*
X189673071Y-41659840D01*
X189437049Y-41659840D01*
X189437043Y-41659840D01*
X189203053Y-41690645D01*
X188975063Y-41751735D01*
X188757003Y-41842059D01*
X188552611Y-41960066D01*
X188552610Y-41960067D01*
X188365361Y-42103748D01*
X188365359Y-42103749D01*
X188365355Y-42103753D01*
X188198473Y-42270635D01*
X188198469Y-42270639D01*
X188198468Y-42270641D01*
X188132327Y-42356838D01*
X188054786Y-42457891D01*
X187936779Y-42662283D01*
X187846455Y-42880343D01*
X187785365Y-43108333D01*
X187754560Y-43342323D01*
X176020459Y-43342323D01*
X176020459Y-43337340D01*
X176620460Y-43337340D01*
X176620460Y-42973697D01*
X176585874Y-42799822D01*
X176585873Y-42799820D01*
X176518029Y-42636027D01*
X176419536Y-42488624D01*
X176419532Y-42488619D01*
X176294180Y-42363267D01*
X176294175Y-42363263D01*
X176146772Y-42264770D01*
X175982977Y-42196925D01*
X175895460Y-42179517D01*
X175895460Y-42816967D01*
X175836255Y-42782785D01*
X175759956Y-42762341D01*
X175680964Y-42762341D01*
X175604665Y-42782785D01*
X175545460Y-42816967D01*
X175545460Y-42179517D01*
X175457942Y-42196925D01*
X175294147Y-42264770D01*
X175146744Y-42363263D01*
X175146739Y-42363267D01*
X175021387Y-42488619D01*
X175021382Y-42488625D01*
X175000205Y-42520318D01*
X174942215Y-42571171D01*
X174866569Y-42586216D01*
X174793535Y-42561422D01*
X174770959Y-42542894D01*
X174705132Y-42477067D01*
X174705129Y-42477064D01*
X174598587Y-42405875D01*
X174598583Y-42405873D01*
X174598579Y-42405871D01*
X174480205Y-42356839D01*
X174480203Y-42356838D01*
X174354532Y-42331840D01*
X174354529Y-42331840D01*
X174226391Y-42331840D01*
X174226387Y-42331840D01*
X174100716Y-42356838D01*
X174100714Y-42356839D01*
X173982340Y-42405871D01*
X173982333Y-42405875D01*
X173904486Y-42457891D01*
X173875787Y-42477067D01*
X173785187Y-42567667D01*
X173785184Y-42567670D01*
X173785184Y-42567671D01*
X173775972Y-42581458D01*
X173713995Y-42674213D01*
X173713991Y-42674220D01*
X173664959Y-42792594D01*
X173664958Y-42792596D01*
X173639960Y-42918267D01*
X169160959Y-42918267D01*
X169135961Y-42792596D01*
X169105039Y-42717945D01*
X169086928Y-42674220D01*
X169086927Y-42674219D01*
X169086925Y-42674213D01*
X169015736Y-42567671D01*
X168925129Y-42477064D01*
X168818587Y-42405875D01*
X168818583Y-42405873D01*
X168818579Y-42405871D01*
X168700205Y-42356839D01*
X168700203Y-42356838D01*
X168574532Y-42331840D01*
X168574529Y-42331840D01*
X168446391Y-42331840D01*
X168446387Y-42331840D01*
X168320716Y-42356838D01*
X168320714Y-42356839D01*
X168202340Y-42405871D01*
X168202333Y-42405875D01*
X168124486Y-42457891D01*
X168095787Y-42477067D01*
X168029959Y-42542895D01*
X167963164Y-42581458D01*
X167886036Y-42581458D01*
X167819241Y-42542893D01*
X167800713Y-42520316D01*
X167779538Y-42488626D01*
X167779532Y-42488619D01*
X167654180Y-42363267D01*
X167654175Y-42363263D01*
X167506772Y-42264770D01*
X167342977Y-42196925D01*
X167255460Y-42179517D01*
X167255460Y-42816955D01*
X167196255Y-42782773D01*
X167119956Y-42762329D01*
X167040964Y-42762329D01*
X166964665Y-42782773D01*
X166905460Y-42816955D01*
X166905460Y-42179517D01*
X166817942Y-42196925D01*
X166654147Y-42264770D01*
X166506744Y-42363263D01*
X166506739Y-42363267D01*
X166381387Y-42488619D01*
X166381383Y-42488624D01*
X166282890Y-42636027D01*
X166215046Y-42799820D01*
X166215045Y-42799822D01*
X166180460Y-42973697D01*
X158091274Y-42973697D01*
X158064822Y-42927880D01*
X158064821Y-42927879D01*
X158064820Y-42927877D01*
X157952123Y-42815180D01*
X157952120Y-42815178D01*
X157952119Y-42815177D01*
X157814100Y-42735491D01*
X157814097Y-42735490D01*
X157660149Y-42694240D01*
X157500771Y-42694240D01*
X157346819Y-42735491D01*
X157208800Y-42815177D01*
X157096097Y-42927880D01*
X157016411Y-43065899D01*
X156975160Y-43219849D01*
X143706792Y-43219849D01*
X143682123Y-43195180D01*
X143682120Y-43195178D01*
X143682119Y-43195177D01*
X143544100Y-43115491D01*
X143544097Y-43115490D01*
X143390149Y-43074240D01*
X143230771Y-43074240D01*
X143076819Y-43115491D01*
X142938800Y-43195177D01*
X142826097Y-43307880D01*
X142746411Y-43445899D01*
X142705160Y-43599849D01*
X139971082Y-43599849D01*
X139950149Y-43594240D01*
X139790771Y-43594240D01*
X139636819Y-43635491D01*
X139498800Y-43715177D01*
X139386097Y-43827880D01*
X139306411Y-43965899D01*
X139265160Y-44119849D01*
X134219600Y-44119849D01*
X134219600Y-41765481D01*
X164674960Y-41765481D01*
X164674960Y-41765483D01*
X164674960Y-41923597D01*
X164715883Y-42076324D01*
X164794940Y-42213256D01*
X164906744Y-42325060D01*
X165043676Y-42404117D01*
X165196403Y-42445040D01*
X165354517Y-42445040D01*
X165507244Y-42404117D01*
X165644176Y-42325060D01*
X165755980Y-42213256D01*
X165835037Y-42076324D01*
X165875960Y-41923597D01*
X165875960Y-41765483D01*
X165875959Y-41765481D01*
X176874960Y-41765481D01*
X176874960Y-41765483D01*
X176874960Y-41923597D01*
X176915883Y-42076324D01*
X176994940Y-42213256D01*
X177106744Y-42325060D01*
X177243676Y-42404117D01*
X177396403Y-42445040D01*
X177554517Y-42445040D01*
X177707244Y-42404117D01*
X177844176Y-42325060D01*
X177955980Y-42213256D01*
X178035037Y-42076324D01*
X178075960Y-41923597D01*
X178075960Y-41765483D01*
X178035037Y-41612756D01*
X177955980Y-41475824D01*
X177844176Y-41364020D01*
X177707244Y-41284963D01*
X177554517Y-41244040D01*
X177396403Y-41244040D01*
X177243676Y-41284963D01*
X177243674Y-41284963D01*
X177243674Y-41284964D01*
X177106743Y-41364020D01*
X176994940Y-41475823D01*
X176915884Y-41612754D01*
X176874960Y-41765481D01*
X165875959Y-41765481D01*
X165835037Y-41612756D01*
X165755980Y-41475824D01*
X165644176Y-41364020D01*
X165507244Y-41284963D01*
X165354517Y-41244040D01*
X165196403Y-41244040D01*
X165043676Y-41284963D01*
X165043674Y-41284963D01*
X165043674Y-41284964D01*
X164906743Y-41364020D01*
X164794940Y-41475823D01*
X164715884Y-41612754D01*
X164674960Y-41765481D01*
X134219600Y-41765481D01*
X134219600Y-40149849D01*
X148885160Y-40149849D01*
X148885160Y-40149851D01*
X148885160Y-40309229D01*
X148921329Y-40444216D01*
X148926411Y-40463180D01*
X149006097Y-40601199D01*
X149006098Y-40601200D01*
X149006100Y-40601203D01*
X149118797Y-40713900D01*
X149118799Y-40713901D01*
X149118800Y-40713902D01*
X149256819Y-40793588D01*
X149256820Y-40793588D01*
X149256823Y-40793590D01*
X149410771Y-40834840D01*
X149570149Y-40834840D01*
X149724097Y-40793590D01*
X149862123Y-40713900D01*
X149896174Y-40679849D01*
X150405160Y-40679849D01*
X150405160Y-40839230D01*
X150446411Y-40993180D01*
X150526097Y-41131199D01*
X150526098Y-41131200D01*
X150526100Y-41131203D01*
X150638797Y-41243900D01*
X150638799Y-41243901D01*
X150638800Y-41243902D01*
X150776819Y-41323588D01*
X150776820Y-41323588D01*
X150776823Y-41323590D01*
X150930771Y-41364840D01*
X151090149Y-41364840D01*
X151244097Y-41323590D01*
X151382123Y-41243900D01*
X151494820Y-41131203D01*
X151574510Y-40993177D01*
X151615760Y-40839229D01*
X151615760Y-40679851D01*
X151574510Y-40525903D01*
X151568695Y-40515832D01*
X151494822Y-40387880D01*
X151494821Y-40387879D01*
X151494820Y-40387877D01*
X151382123Y-40275180D01*
X151382120Y-40275178D01*
X151382119Y-40275177D01*
X151244100Y-40195491D01*
X151244097Y-40195490D01*
X151090149Y-40154240D01*
X150930771Y-40154240D01*
X150776819Y-40195491D01*
X150638800Y-40275177D01*
X150526097Y-40387880D01*
X150446411Y-40525899D01*
X150405160Y-40679849D01*
X149896174Y-40679849D01*
X149974820Y-40601203D01*
X149974976Y-40600932D01*
X149978065Y-40595584D01*
X150054508Y-40463180D01*
X150054507Y-40463180D01*
X150054510Y-40463177D01*
X150095760Y-40309229D01*
X150095760Y-40149851D01*
X150054510Y-39995903D01*
X150000490Y-39902339D01*
X149974822Y-39857880D01*
X149974821Y-39857879D01*
X149974820Y-39857877D01*
X149862123Y-39745180D01*
X149862120Y-39745178D01*
X149862119Y-39745177D01*
X149724100Y-39665491D01*
X149724097Y-39665490D01*
X149570149Y-39624240D01*
X149410771Y-39624240D01*
X149256819Y-39665491D01*
X149118800Y-39745177D01*
X149006097Y-39857880D01*
X148926411Y-39995899D01*
X148885160Y-40149849D01*
X134219600Y-40149849D01*
X134219600Y-38987548D01*
X134220317Y-38972948D01*
X134227984Y-38895079D01*
X134233682Y-38866430D01*
X134282064Y-38706924D01*
X134293243Y-38679934D01*
X134306677Y-38654801D01*
X134359401Y-38598509D01*
X134433208Y-38576120D01*
X134438083Y-38576040D01*
X166015088Y-38576040D01*
X166089588Y-38596002D01*
G37*
%TD.AperFunction*%
%TD*%
M02*
