%TF.GenerationSoftware,KiCad,Pcbnew,10.0.2*%
%TF.CreationDate,2026-06-06T20:44:27+02:00*%
%TF.ProjectId,maia,6d616961-2e6b-4696-9361-645f70636258,rev?*%
%TF.SameCoordinates,Original*%
%TF.FileFunction,Paste,Top*%
%TF.FilePolarity,Positive*%
%FSLAX46Y46*%
G04 Gerber Fmt 4.6, Leading zero omitted, Abs format (unit mm)*
G04 Created by KiCad (PCBNEW 10.0.2) date 2026-06-06 20:44:27*
%MOMM*%
%LPD*%
G01*
G04 APERTURE LIST*
G04 Aperture macros list*
%AMRoundRect*
0 Rectangle with rounded corners*
0 $1 Rounding radius*
0 $2 $3 $4 $5 $6 $7 $8 $9 X,Y pos of 4 corners*
0 Add a 4 corners polygon primitive as box body*
4,1,4,$2,$3,$4,$5,$6,$7,$8,$9,$2,$3,0*
0 Add four circle primitives for the rounded corners*
1,1,$1+$1,$2,$3*
1,1,$1+$1,$4,$5*
1,1,$1+$1,$6,$7*
1,1,$1+$1,$8,$9*
0 Add four rect primitives between the rounded corners*
20,1,$1+$1,$2,$3,$4,$5,0*
20,1,$1+$1,$4,$5,$6,$7,0*
20,1,$1+$1,$6,$7,$8,$9,0*
20,1,$1+$1,$8,$9,$2,$3,0*%
G04 Aperture macros list end*
%ADD10RoundRect,0.218750X0.218750X0.256250X-0.218750X0.256250X-0.218750X-0.256250X0.218750X-0.256250X0*%
%ADD11RoundRect,0.140000X-0.170000X0.140000X-0.170000X-0.140000X0.170000X-0.140000X0.170000X0.140000X0*%
%ADD12RoundRect,0.140000X-0.140000X-0.170000X0.140000X-0.170000X0.140000X0.170000X-0.140000X0.170000X0*%
%ADD13R,2.200000X0.740000*%
%ADD14RoundRect,0.200000X-0.200000X-0.275000X0.200000X-0.275000X0.200000X0.275000X-0.200000X0.275000X0*%
%ADD15RoundRect,0.200000X0.200000X0.275000X-0.200000X0.275000X-0.200000X-0.275000X0.200000X-0.275000X0*%
%ADD16RoundRect,0.200000X-0.275000X0.200000X-0.275000X-0.200000X0.275000X-0.200000X0.275000X0.200000X0*%
%ADD17RoundRect,0.150000X-0.150000X0.512500X-0.150000X-0.512500X0.150000X-0.512500X0.150000X0.512500X0*%
%ADD18RoundRect,0.140000X0.170000X-0.140000X0.170000X0.140000X-0.170000X0.140000X-0.170000X-0.140000X0*%
%ADD19R,0.600000X1.100000*%
%ADD20R,5.080000X7.620000*%
%ADD21R,0.505000X0.224000*%
%ADD22R,0.900000X1.500000*%
%ADD23RoundRect,0.250000X0.650000X-1.000000X0.650000X1.000000X-0.650000X1.000000X-0.650000X-1.000000X0*%
%ADD24R,0.300000X0.900000*%
%ADD25R,1.100000X1.800000*%
%ADD26RoundRect,0.140000X0.140000X0.170000X-0.140000X0.170000X-0.140000X-0.170000X0.140000X-0.170000X0*%
%ADD27RoundRect,0.075000X-0.650000X-0.075000X0.650000X-0.075000X0.650000X0.075000X-0.650000X0.075000X0*%
%ADD28R,0.280000X0.500000*%
%ADD29R,0.500000X0.280000*%
%ADD30R,1.728000X1.485000*%
%ADD31R,0.550000X1.100000*%
%ADD32R,0.300000X1.100000*%
%ADD33RoundRect,0.200000X0.275000X-0.200000X0.275000X0.200000X-0.275000X0.200000X-0.275000X-0.200000X0*%
%ADD34RoundRect,0.218750X-0.218750X-0.256250X0.218750X-0.256250X0.218750X0.256250X-0.218750X0.256250X0*%
%ADD35R,1.485000X1.728000*%
G04 APERTURE END LIST*
D10*
%TO.C,D6*%
X194467960Y-87399540D03*
X192892960Y-87399540D03*
%TD*%
D11*
%TO.C,C25*%
X151740460Y-48099540D03*
X151740460Y-49059540D03*
%TD*%
D12*
%TO.C,C31*%
X221725460Y-54414540D03*
X222685460Y-54414540D03*
%TD*%
D13*
%TO.C,CN1*%
X138149460Y-45654340D03*
X141749460Y-45654340D03*
X138149460Y-46924340D03*
X141749460Y-46924340D03*
X138149460Y-48194340D03*
X141749460Y-48194340D03*
X138149460Y-49464340D03*
X141749460Y-49464340D03*
X138149460Y-50734340D03*
X141749460Y-50734340D03*
%TD*%
D14*
%TO.C,R14*%
X180150460Y-82594540D03*
X181800460Y-82594540D03*
%TD*%
D12*
%TO.C,C10*%
X200200460Y-84029540D03*
X201160460Y-84029540D03*
%TD*%
D15*
%TO.C,R1*%
X165275460Y-43069540D03*
X163625460Y-43069540D03*
%TD*%
D16*
%TO.C,R16*%
X167960460Y-80369540D03*
X167960460Y-82019540D03*
%TD*%
D15*
%TO.C,R11*%
X200250460Y-82619540D03*
X198600460Y-82619540D03*
%TD*%
D12*
%TO.C,C34*%
X216752829Y-49319540D03*
X217712829Y-49319540D03*
%TD*%
D17*
%TO.C,U2*%
X172312960Y-47569540D03*
X171362960Y-47569540D03*
X170412960Y-47569540D03*
X170412960Y-49844540D03*
X171362960Y-49844540D03*
X172312960Y-49844540D03*
%TD*%
D14*
%TO.C,R32*%
X205488460Y-34792540D03*
X207138460Y-34792540D03*
%TD*%
D12*
%TO.C,C23*%
X212510460Y-38689540D03*
X213470460Y-38689540D03*
%TD*%
%TO.C,C20*%
X212510460Y-39832540D03*
X213470460Y-39832540D03*
%TD*%
D11*
%TO.C,C24*%
X150580460Y-48089540D03*
X150580460Y-49049540D03*
%TD*%
D16*
%TO.C,R17*%
X169710460Y-80379540D03*
X169710460Y-82029540D03*
%TD*%
D18*
%TO.C,C3*%
X167900460Y-49374340D03*
X167900460Y-48414340D03*
%TD*%
D14*
%TO.C,R19*%
X174325460Y-47969540D03*
X175975460Y-47969540D03*
%TD*%
%TO.C,R30*%
X130225460Y-63819540D03*
X131875460Y-63819540D03*
%TD*%
%TO.C,R18*%
X174325460Y-49569540D03*
X175975460Y-49569540D03*
%TD*%
%TO.C,R29*%
X212764460Y-41229540D03*
X214414460Y-41229540D03*
%TD*%
D16*
%TO.C,R9*%
X194420460Y-84044540D03*
X194420460Y-85694540D03*
%TD*%
D19*
%TO.C,U6*%
X206150460Y-83594540D03*
X205200460Y-83594540D03*
X204250460Y-83594540D03*
X204250460Y-86194540D03*
X206150460Y-86194540D03*
%TD*%
D20*
%TO.C,BT2*%
X131290260Y-68911140D03*
X213910260Y-68911140D03*
%TD*%
D14*
%TO.C,R43*%
X143442460Y-80620540D03*
X145092460Y-80620540D03*
%TD*%
D12*
%TO.C,C35*%
X147760460Y-52799540D03*
X148720460Y-52799540D03*
%TD*%
D11*
%TO.C,C8*%
X205450460Y-80744540D03*
X205450460Y-81704540D03*
%TD*%
D15*
%TO.C,R13*%
X200225460Y-80919540D03*
X198575460Y-80919540D03*
%TD*%
D21*
%TO.C,U3*%
X196640460Y-84459540D03*
X196640460Y-84859540D03*
X196640460Y-85259540D03*
X196640460Y-85659540D03*
X196640460Y-86059540D03*
X198500460Y-86059540D03*
X198500460Y-85659540D03*
X198500460Y-85259540D03*
X198500460Y-84859540D03*
X198500460Y-84459540D03*
D22*
X197570460Y-85259540D03*
%TD*%
D14*
%TO.C,R35*%
X150740460Y-50459540D03*
X152390460Y-50459540D03*
%TD*%
D23*
%TO.C,D1*%
X163220460Y-50864340D03*
X163220460Y-46864340D03*
%TD*%
D24*
%TO.C,U16*%
X167304860Y-83588540D03*
X167804860Y-83588540D03*
X168304860Y-83588540D03*
X168804860Y-83588540D03*
X169304860Y-83588540D03*
X169804860Y-83588540D03*
X170304860Y-83588540D03*
X170804860Y-83588540D03*
X171304860Y-83588540D03*
X171804860Y-83588540D03*
X172304860Y-83588540D03*
X172804860Y-83588540D03*
X173304860Y-83588540D03*
X173804860Y-83588540D03*
X174304860Y-83588540D03*
X174804860Y-83588540D03*
X175304860Y-83588540D03*
X175804860Y-83588540D03*
X176304860Y-83588540D03*
X176804860Y-83588540D03*
X177304860Y-83588540D03*
X177804860Y-83588540D03*
X178304860Y-83588540D03*
X178804860Y-83588540D03*
D25*
X180954860Y-86288540D03*
X165154860Y-86288540D03*
%TD*%
D12*
%TO.C,C21*%
X138360460Y-42899540D03*
X139320460Y-42899540D03*
%TD*%
D11*
%TO.C,C17*%
X148966460Y-82962540D03*
X148966460Y-83922540D03*
%TD*%
D14*
%TO.C,R28*%
X212701460Y-37292540D03*
X214351460Y-37292540D03*
%TD*%
D26*
%TO.C,C18*%
X154960460Y-40569540D03*
X154000460Y-40569540D03*
%TD*%
D27*
%TO.C,U11*%
X141990460Y-82541540D03*
X141990460Y-83041540D03*
X141990460Y-83541540D03*
X141990460Y-84041540D03*
X141990460Y-84541540D03*
X146290460Y-84541540D03*
X146290460Y-84041540D03*
X146290460Y-83541540D03*
X146290460Y-83041540D03*
X146290460Y-82541540D03*
%TD*%
D13*
%TO.C,CN3*%
X202030460Y-45884340D03*
X205630460Y-45884340D03*
X202030460Y-47154340D03*
X205630460Y-47154340D03*
X202030460Y-48424340D03*
X205630460Y-48424340D03*
X202030460Y-49694340D03*
X205630460Y-49694340D03*
X202030460Y-50964340D03*
X205630460Y-50964340D03*
%TD*%
D28*
%TO.C,U12*%
X156058460Y-42539540D03*
X156558460Y-42539540D03*
X157058460Y-42539540D03*
X157558460Y-42539540D03*
D29*
X157738460Y-41869540D03*
X157738460Y-41369540D03*
X157738460Y-40869540D03*
D28*
X157558460Y-40199540D03*
X157058460Y-40199540D03*
X156558460Y-40199540D03*
X156058460Y-40199540D03*
D29*
X155878460Y-40869540D03*
X155878460Y-41369540D03*
X155878460Y-41869540D03*
%TD*%
D30*
%TO.C,L1*%
X166300460Y-46124340D03*
X166300460Y-49304340D03*
%TD*%
D14*
%TO.C,R10*%
X200330460Y-85659540D03*
X201980460Y-85659540D03*
%TD*%
D31*
%TO.C,USB1*%
X174600460Y-44062340D03*
X173800460Y-44062340D03*
D32*
X173150460Y-44062340D03*
X172650460Y-44062340D03*
X172150460Y-44062340D03*
X171650460Y-44062340D03*
X171150460Y-44062340D03*
X170650460Y-44062340D03*
X170150460Y-44062340D03*
X169650460Y-44062340D03*
D31*
X169000460Y-44062340D03*
X168200460Y-44062340D03*
%TD*%
D16*
%TO.C,R31*%
X208980460Y-34729540D03*
X208980460Y-36379540D03*
%TD*%
D14*
%TO.C,R8*%
X202075460Y-80944540D03*
X203725460Y-80944540D03*
%TD*%
D26*
%TO.C,C9*%
X195220460Y-82169540D03*
X194260460Y-82169540D03*
%TD*%
D33*
%TO.C,R36*%
X144160460Y-51604540D03*
X144160460Y-49954540D03*
%TD*%
D15*
%TO.C,R15*%
X181825460Y-80944540D03*
X180175460Y-80944540D03*
%TD*%
D12*
%TO.C,C32*%
X216812829Y-47739540D03*
X217772829Y-47739540D03*
%TD*%
D14*
%TO.C,R2*%
X177475460Y-43119540D03*
X179125460Y-43119540D03*
%TD*%
D16*
%TO.C,R12*%
X192720460Y-84044540D03*
X192720460Y-85694540D03*
%TD*%
D11*
%TO.C,C1*%
X167900460Y-46184340D03*
X167900460Y-47144340D03*
%TD*%
D18*
%TO.C,C30*%
X139568460Y-83922540D03*
X139568460Y-82962540D03*
%TD*%
D26*
%TO.C,C22*%
X147350460Y-42969540D03*
X146390460Y-42969540D03*
%TD*%
%TO.C,C15*%
X166325460Y-82244540D03*
X165365460Y-82244540D03*
%TD*%
D34*
%TO.C,D5*%
X200412960Y-87729540D03*
X201987960Y-87729540D03*
%TD*%
D35*
%TO.C,L2*%
X138320460Y-40919540D03*
X141500460Y-40919540D03*
%TD*%
D26*
%TO.C,C14*%
X166275460Y-83419540D03*
X165315460Y-83419540D03*
%TD*%
D35*
%TO.C,L3*%
X222315460Y-51764540D03*
X225495460Y-51764540D03*
%TD*%
D12*
%TO.C,C19*%
X159590460Y-41335540D03*
X160550460Y-41335540D03*
%TD*%
D14*
%TO.C,R33*%
X150760460Y-45049540D03*
X152410460Y-45049540D03*
%TD*%
D26*
%TO.C,C33*%
X141440460Y-42899540D03*
X140480460Y-42899540D03*
%TD*%
D12*
%TO.C,C36*%
X216940460Y-45249540D03*
X217900460Y-45249540D03*
%TD*%
%TO.C,C2*%
X174170460Y-46444540D03*
X175130460Y-46444540D03*
%TD*%
D14*
%TO.C,R34*%
X150745460Y-46729540D03*
X152395460Y-46729540D03*
%TD*%
M02*
