%TF.GenerationSoftware,KiCad,Pcbnew,10.0.2*%
%TF.CreationDate,2026-06-06T20:44:28+02:00*%
%TF.ProjectId,maia,6d616961-2e6b-4696-9361-645f70636258,rev?*%
%TF.SameCoordinates,Original*%
%TF.FileFunction,Legend,Top*%
%TF.FilePolarity,Positive*%
%FSLAX46Y46*%
G04 Gerber Fmt 4.6, Leading zero omitted, Abs format (unit mm)*
G04 Created by KiCad (PCBNEW 10.0.2) date 2026-06-06 20:44:28*
%MOMM*%
%LPD*%
G01*
G04 APERTURE LIST*
%ADD10C,0.150000*%
%ADD11C,0.200000*%
%ADD12C,0.120000*%
%ADD13C,0.250000*%
%ADD14C,0.060000*%
%ADD15C,0.100000*%
%ADD16C,0.000000*%
G04 APERTURE END LIST*
D10*
X146109040Y-48884816D02*
X146156660Y-48932435D01*
X146156660Y-48932435D02*
X146204279Y-49075292D01*
X146204279Y-49075292D02*
X146204279Y-49170530D01*
X146204279Y-49170530D02*
X146156660Y-49313387D01*
X146156660Y-49313387D02*
X146061421Y-49408625D01*
X146061421Y-49408625D02*
X145966183Y-49456244D01*
X145966183Y-49456244D02*
X145775707Y-49503863D01*
X145775707Y-49503863D02*
X145632850Y-49503863D01*
X145632850Y-49503863D02*
X145442374Y-49456244D01*
X145442374Y-49456244D02*
X145347136Y-49408625D01*
X145347136Y-49408625D02*
X145251898Y-49313387D01*
X145251898Y-49313387D02*
X145204279Y-49170530D01*
X145204279Y-49170530D02*
X145204279Y-49075292D01*
X145204279Y-49075292D02*
X145251898Y-48932435D01*
X145251898Y-48932435D02*
X145299517Y-48884816D01*
X146204279Y-48456244D02*
X145204279Y-48456244D01*
X145204279Y-48456244D02*
X146204279Y-47884816D01*
X146204279Y-47884816D02*
X145204279Y-47884816D01*
X146204279Y-46884816D02*
X146204279Y-47456244D01*
X146204279Y-47170530D02*
X145204279Y-47170530D01*
X145204279Y-47170530D02*
X145347136Y-47265768D01*
X145347136Y-47265768D02*
X145442374Y-47361006D01*
X145442374Y-47361006D02*
X145489993Y-47456244D01*
X173217779Y-49468944D02*
X174027302Y-49468944D01*
X174027302Y-49468944D02*
X174122540Y-49421325D01*
X174122540Y-49421325D02*
X174170160Y-49373706D01*
X174170160Y-49373706D02*
X174217779Y-49278468D01*
X174217779Y-49278468D02*
X174217779Y-49087992D01*
X174217779Y-49087992D02*
X174170160Y-48992754D01*
X174170160Y-48992754D02*
X174122540Y-48945135D01*
X174122540Y-48945135D02*
X174027302Y-48897516D01*
X174027302Y-48897516D02*
X173217779Y-48897516D01*
X173313017Y-48468944D02*
X173265398Y-48421325D01*
X173265398Y-48421325D02*
X173217779Y-48326087D01*
X173217779Y-48326087D02*
X173217779Y-48087992D01*
X173217779Y-48087992D02*
X173265398Y-47992754D01*
X173265398Y-47992754D02*
X173313017Y-47945135D01*
X173313017Y-47945135D02*
X173408255Y-47897516D01*
X173408255Y-47897516D02*
X173503493Y-47897516D01*
X173503493Y-47897516D02*
X173646350Y-47945135D01*
X173646350Y-47945135D02*
X174217779Y-48516563D01*
X174217779Y-48516563D02*
X174217779Y-47897516D01*
X143330936Y-91679359D02*
X143330936Y-90679359D01*
X143330936Y-90679359D02*
X143664269Y-91393644D01*
X143664269Y-91393644D02*
X143997602Y-90679359D01*
X143997602Y-90679359D02*
X143997602Y-91679359D01*
X144378555Y-90679359D02*
X144997602Y-90679359D01*
X144997602Y-90679359D02*
X144664269Y-91060311D01*
X144664269Y-91060311D02*
X144807126Y-91060311D01*
X144807126Y-91060311D02*
X144902364Y-91107930D01*
X144902364Y-91107930D02*
X144949983Y-91155549D01*
X144949983Y-91155549D02*
X144997602Y-91250787D01*
X144997602Y-91250787D02*
X144997602Y-91488882D01*
X144997602Y-91488882D02*
X144949983Y-91584120D01*
X144949983Y-91584120D02*
X144902364Y-91631740D01*
X144902364Y-91631740D02*
X144807126Y-91679359D01*
X144807126Y-91679359D02*
X144521412Y-91679359D01*
X144521412Y-91679359D02*
X144426174Y-91631740D01*
X144426174Y-91631740D02*
X144378555Y-91584120D01*
D11*
X142628882Y-88489923D02*
X142918882Y-88586590D01*
X142918882Y-88586590D02*
X143015548Y-88683256D01*
X143015548Y-88683256D02*
X143112215Y-88876590D01*
X143112215Y-88876590D02*
X143112215Y-89166590D01*
X143112215Y-89166590D02*
X143015548Y-89359923D01*
X143015548Y-89359923D02*
X142918882Y-89456590D01*
X142918882Y-89456590D02*
X142725548Y-89553256D01*
X142725548Y-89553256D02*
X141952215Y-89553256D01*
X141952215Y-89553256D02*
X141952215Y-87523256D01*
X141952215Y-87523256D02*
X142628882Y-87523256D01*
X142628882Y-87523256D02*
X142822215Y-87619923D01*
X142822215Y-87619923D02*
X142918882Y-87716590D01*
X142918882Y-87716590D02*
X143015548Y-87909923D01*
X143015548Y-87909923D02*
X143015548Y-88103256D01*
X143015548Y-88103256D02*
X142918882Y-88296590D01*
X142918882Y-88296590D02*
X142822215Y-88393256D01*
X142822215Y-88393256D02*
X142628882Y-88489923D01*
X142628882Y-88489923D02*
X141952215Y-88489923D01*
X145652215Y-89553256D02*
X144975548Y-88586590D01*
X144492215Y-89553256D02*
X144492215Y-87523256D01*
X144492215Y-87523256D02*
X145265548Y-87523256D01*
X145265548Y-87523256D02*
X145458882Y-87619923D01*
X145458882Y-87619923D02*
X145555548Y-87716590D01*
X145555548Y-87716590D02*
X145652215Y-87909923D01*
X145652215Y-87909923D02*
X145652215Y-88199923D01*
X145652215Y-88199923D02*
X145555548Y-88393256D01*
X145555548Y-88393256D02*
X145458882Y-88489923D01*
X145458882Y-88489923D02*
X145265548Y-88586590D01*
X145265548Y-88586590D02*
X144492215Y-88586590D01*
D10*
X134117279Y-79652063D02*
X133117279Y-79652063D01*
X133117279Y-79652063D02*
X133831564Y-79318730D01*
X133831564Y-79318730D02*
X133117279Y-78985397D01*
X133117279Y-78985397D02*
X134117279Y-78985397D01*
X133212517Y-78556825D02*
X133164898Y-78509206D01*
X133164898Y-78509206D02*
X133117279Y-78413968D01*
X133117279Y-78413968D02*
X133117279Y-78175873D01*
X133117279Y-78175873D02*
X133164898Y-78080635D01*
X133164898Y-78080635D02*
X133212517Y-78033016D01*
X133212517Y-78033016D02*
X133307755Y-77985397D01*
X133307755Y-77985397D02*
X133402993Y-77985397D01*
X133402993Y-77985397D02*
X133545850Y-78033016D01*
X133545850Y-78033016D02*
X134117279Y-78604444D01*
X134117279Y-78604444D02*
X134117279Y-77985397D01*
D11*
X131991176Y-77330784D02*
X131024510Y-78007451D01*
X131991176Y-78490784D02*
X129961176Y-78490784D01*
X129961176Y-78490784D02*
X129961176Y-77717451D01*
X129961176Y-77717451D02*
X130057843Y-77524118D01*
X130057843Y-77524118D02*
X130154510Y-77427451D01*
X130154510Y-77427451D02*
X130347843Y-77330784D01*
X130347843Y-77330784D02*
X130637843Y-77330784D01*
X130637843Y-77330784D02*
X130831176Y-77427451D01*
X130831176Y-77427451D02*
X130927843Y-77524118D01*
X130927843Y-77524118D02*
X131024510Y-77717451D01*
X131024510Y-77717451D02*
X131024510Y-78490784D01*
X130927843Y-80354118D02*
X131024510Y-80064118D01*
X131024510Y-80064118D02*
X131121176Y-79967451D01*
X131121176Y-79967451D02*
X131314510Y-79870784D01*
X131314510Y-79870784D02*
X131604510Y-79870784D01*
X131604510Y-79870784D02*
X131797843Y-79967451D01*
X131797843Y-79967451D02*
X131894510Y-80064118D01*
X131894510Y-80064118D02*
X131991176Y-80257451D01*
X131991176Y-80257451D02*
X131991176Y-81030784D01*
X131991176Y-81030784D02*
X129961176Y-81030784D01*
X129961176Y-81030784D02*
X129961176Y-80354118D01*
X129961176Y-80354118D02*
X130057843Y-80160784D01*
X130057843Y-80160784D02*
X130154510Y-80064118D01*
X130154510Y-80064118D02*
X130347843Y-79967451D01*
X130347843Y-79967451D02*
X130541176Y-79967451D01*
X130541176Y-79967451D02*
X130734510Y-80064118D01*
X130734510Y-80064118D02*
X130831176Y-80160784D01*
X130831176Y-80160784D02*
X130927843Y-80354118D01*
X130927843Y-80354118D02*
X130927843Y-81030784D01*
D10*
X199705279Y-85656444D02*
X200514802Y-85656444D01*
X200514802Y-85656444D02*
X200610040Y-85608825D01*
X200610040Y-85608825D02*
X200657660Y-85561206D01*
X200657660Y-85561206D02*
X200705279Y-85465968D01*
X200705279Y-85465968D02*
X200705279Y-85275492D01*
X200705279Y-85275492D02*
X200657660Y-85180254D01*
X200657660Y-85180254D02*
X200610040Y-85132635D01*
X200610040Y-85132635D02*
X200514802Y-85085016D01*
X200514802Y-85085016D02*
X199705279Y-85085016D01*
X199705279Y-84180254D02*
X199705279Y-84370730D01*
X199705279Y-84370730D02*
X199752898Y-84465968D01*
X199752898Y-84465968D02*
X199800517Y-84513587D01*
X199800517Y-84513587D02*
X199943374Y-84608825D01*
X199943374Y-84608825D02*
X200133850Y-84656444D01*
X200133850Y-84656444D02*
X200514802Y-84656444D01*
X200514802Y-84656444D02*
X200610040Y-84608825D01*
X200610040Y-84608825D02*
X200657660Y-84561206D01*
X200657660Y-84561206D02*
X200705279Y-84465968D01*
X200705279Y-84465968D02*
X200705279Y-84275492D01*
X200705279Y-84275492D02*
X200657660Y-84180254D01*
X200657660Y-84180254D02*
X200610040Y-84132635D01*
X200610040Y-84132635D02*
X200514802Y-84085016D01*
X200514802Y-84085016D02*
X200276707Y-84085016D01*
X200276707Y-84085016D02*
X200181469Y-84132635D01*
X200181469Y-84132635D02*
X200133850Y-84180254D01*
X200133850Y-84180254D02*
X200086231Y-84275492D01*
X200086231Y-84275492D02*
X200086231Y-84465968D01*
X200086231Y-84465968D02*
X200133850Y-84561206D01*
X200133850Y-84561206D02*
X200181469Y-84608825D01*
X200181469Y-84608825D02*
X200276707Y-84656444D01*
X217844269Y-69696854D02*
X217891888Y-69553997D01*
X217891888Y-69553997D02*
X217939507Y-69506378D01*
X217939507Y-69506378D02*
X218034745Y-69458759D01*
X218034745Y-69458759D02*
X218177602Y-69458759D01*
X218177602Y-69458759D02*
X218272840Y-69506378D01*
X218272840Y-69506378D02*
X218320460Y-69553997D01*
X218320460Y-69553997D02*
X218368079Y-69649235D01*
X218368079Y-69649235D02*
X218368079Y-70030187D01*
X218368079Y-70030187D02*
X217368079Y-70030187D01*
X217368079Y-70030187D02*
X217368079Y-69696854D01*
X217368079Y-69696854D02*
X217415698Y-69601616D01*
X217415698Y-69601616D02*
X217463317Y-69553997D01*
X217463317Y-69553997D02*
X217558555Y-69506378D01*
X217558555Y-69506378D02*
X217653793Y-69506378D01*
X217653793Y-69506378D02*
X217749031Y-69553997D01*
X217749031Y-69553997D02*
X217796650Y-69601616D01*
X217796650Y-69601616D02*
X217844269Y-69696854D01*
X217844269Y-69696854D02*
X217844269Y-70030187D01*
X217368079Y-69173044D02*
X217368079Y-68601616D01*
X218368079Y-68887330D02*
X217368079Y-68887330D01*
X217463317Y-68315901D02*
X217415698Y-68268282D01*
X217415698Y-68268282D02*
X217368079Y-68173044D01*
X217368079Y-68173044D02*
X217368079Y-67934949D01*
X217368079Y-67934949D02*
X217415698Y-67839711D01*
X217415698Y-67839711D02*
X217463317Y-67792092D01*
X217463317Y-67792092D02*
X217558555Y-67744473D01*
X217558555Y-67744473D02*
X217653793Y-67744473D01*
X217653793Y-67744473D02*
X217796650Y-67792092D01*
X217796650Y-67792092D02*
X218368079Y-68363520D01*
X218368079Y-68363520D02*
X218368079Y-67744473D01*
X201953279Y-86021444D02*
X202762802Y-86021444D01*
X202762802Y-86021444D02*
X202858040Y-85973825D01*
X202858040Y-85973825D02*
X202905660Y-85926206D01*
X202905660Y-85926206D02*
X202953279Y-85830968D01*
X202953279Y-85830968D02*
X202953279Y-85640492D01*
X202953279Y-85640492D02*
X202905660Y-85545254D01*
X202905660Y-85545254D02*
X202858040Y-85497635D01*
X202858040Y-85497635D02*
X202762802Y-85450016D01*
X202762802Y-85450016D02*
X201953279Y-85450016D01*
X201953279Y-85069063D02*
X201953279Y-84450016D01*
X201953279Y-84450016D02*
X202334231Y-84783349D01*
X202334231Y-84783349D02*
X202334231Y-84640492D01*
X202334231Y-84640492D02*
X202381850Y-84545254D01*
X202381850Y-84545254D02*
X202429469Y-84497635D01*
X202429469Y-84497635D02*
X202524707Y-84450016D01*
X202524707Y-84450016D02*
X202762802Y-84450016D01*
X202762802Y-84450016D02*
X202858040Y-84497635D01*
X202858040Y-84497635D02*
X202905660Y-84545254D01*
X202905660Y-84545254D02*
X202953279Y-84640492D01*
X202953279Y-84640492D02*
X202953279Y-84926206D01*
X202953279Y-84926206D02*
X202905660Y-85021444D01*
X202905660Y-85021444D02*
X202858040Y-85069063D01*
X168755279Y-51602434D02*
X167755279Y-51602434D01*
X167755279Y-51602434D02*
X167755279Y-51364339D01*
X167755279Y-51364339D02*
X167802898Y-51221482D01*
X167802898Y-51221482D02*
X167898136Y-51126244D01*
X167898136Y-51126244D02*
X167993374Y-51078625D01*
X167993374Y-51078625D02*
X168183850Y-51031006D01*
X168183850Y-51031006D02*
X168326707Y-51031006D01*
X168326707Y-51031006D02*
X168517183Y-51078625D01*
X168517183Y-51078625D02*
X168612421Y-51126244D01*
X168612421Y-51126244D02*
X168707660Y-51221482D01*
X168707660Y-51221482D02*
X168755279Y-51364339D01*
X168755279Y-51364339D02*
X168755279Y-51602434D01*
X168755279Y-50078625D02*
X168755279Y-50650053D01*
X168755279Y-50364339D02*
X167755279Y-50364339D01*
X167755279Y-50364339D02*
X167898136Y-50459577D01*
X167898136Y-50459577D02*
X167993374Y-50554815D01*
X167993374Y-50554815D02*
X168040993Y-50650053D01*
X171816765Y-79043359D02*
X171816765Y-79852882D01*
X171816765Y-79852882D02*
X171864384Y-79948120D01*
X171864384Y-79948120D02*
X171912003Y-79995740D01*
X171912003Y-79995740D02*
X172007241Y-80043359D01*
X172007241Y-80043359D02*
X172197717Y-80043359D01*
X172197717Y-80043359D02*
X172292955Y-79995740D01*
X172292955Y-79995740D02*
X172340574Y-79948120D01*
X172340574Y-79948120D02*
X172388193Y-79852882D01*
X172388193Y-79852882D02*
X172388193Y-79043359D01*
X173388193Y-80043359D02*
X172816765Y-80043359D01*
X173102479Y-80043359D02*
X173102479Y-79043359D01*
X173102479Y-79043359D02*
X173007241Y-79186216D01*
X173007241Y-79186216D02*
X172912003Y-79281454D01*
X172912003Y-79281454D02*
X172816765Y-79329073D01*
X174245336Y-79043359D02*
X174054860Y-79043359D01*
X174054860Y-79043359D02*
X173959622Y-79090978D01*
X173959622Y-79090978D02*
X173912003Y-79138597D01*
X173912003Y-79138597D02*
X173816765Y-79281454D01*
X173816765Y-79281454D02*
X173769146Y-79471930D01*
X173769146Y-79471930D02*
X173769146Y-79852882D01*
X173769146Y-79852882D02*
X173816765Y-79948120D01*
X173816765Y-79948120D02*
X173864384Y-79995740D01*
X173864384Y-79995740D02*
X173959622Y-80043359D01*
X173959622Y-80043359D02*
X174150098Y-80043359D01*
X174150098Y-80043359D02*
X174245336Y-79995740D01*
X174245336Y-79995740D02*
X174292955Y-79948120D01*
X174292955Y-79948120D02*
X174340574Y-79852882D01*
X174340574Y-79852882D02*
X174340574Y-79614787D01*
X174340574Y-79614787D02*
X174292955Y-79519549D01*
X174292955Y-79519549D02*
X174245336Y-79471930D01*
X174245336Y-79471930D02*
X174150098Y-79424311D01*
X174150098Y-79424311D02*
X173959622Y-79424311D01*
X173959622Y-79424311D02*
X173864384Y-79471930D01*
X173864384Y-79471930D02*
X173816765Y-79519549D01*
X173816765Y-79519549D02*
X173769146Y-79614787D01*
X142902365Y-80546359D02*
X142902365Y-81355882D01*
X142902365Y-81355882D02*
X142949984Y-81451120D01*
X142949984Y-81451120D02*
X142997603Y-81498740D01*
X142997603Y-81498740D02*
X143092841Y-81546359D01*
X143092841Y-81546359D02*
X143283317Y-81546359D01*
X143283317Y-81546359D02*
X143378555Y-81498740D01*
X143378555Y-81498740D02*
X143426174Y-81451120D01*
X143426174Y-81451120D02*
X143473793Y-81355882D01*
X143473793Y-81355882D02*
X143473793Y-80546359D01*
X144473793Y-81546359D02*
X143902365Y-81546359D01*
X144188079Y-81546359D02*
X144188079Y-80546359D01*
X144188079Y-80546359D02*
X144092841Y-80689216D01*
X144092841Y-80689216D02*
X143997603Y-80784454D01*
X143997603Y-80784454D02*
X143902365Y-80832073D01*
X145426174Y-81546359D02*
X144854746Y-81546359D01*
X145140460Y-81546359D02*
X145140460Y-80546359D01*
X145140460Y-80546359D02*
X145045222Y-80689216D01*
X145045222Y-80689216D02*
X144949984Y-80784454D01*
X144949984Y-80784454D02*
X144854746Y-80832073D01*
X209990040Y-49114816D02*
X210037660Y-49162435D01*
X210037660Y-49162435D02*
X210085279Y-49305292D01*
X210085279Y-49305292D02*
X210085279Y-49400530D01*
X210085279Y-49400530D02*
X210037660Y-49543387D01*
X210037660Y-49543387D02*
X209942421Y-49638625D01*
X209942421Y-49638625D02*
X209847183Y-49686244D01*
X209847183Y-49686244D02*
X209656707Y-49733863D01*
X209656707Y-49733863D02*
X209513850Y-49733863D01*
X209513850Y-49733863D02*
X209323374Y-49686244D01*
X209323374Y-49686244D02*
X209228136Y-49638625D01*
X209228136Y-49638625D02*
X209132898Y-49543387D01*
X209132898Y-49543387D02*
X209085279Y-49400530D01*
X209085279Y-49400530D02*
X209085279Y-49305292D01*
X209085279Y-49305292D02*
X209132898Y-49162435D01*
X209132898Y-49162435D02*
X209180517Y-49114816D01*
X210085279Y-48686244D02*
X209085279Y-48686244D01*
X209085279Y-48686244D02*
X210085279Y-48114816D01*
X210085279Y-48114816D02*
X209085279Y-48114816D01*
X209085279Y-47733863D02*
X209085279Y-47114816D01*
X209085279Y-47114816D02*
X209466231Y-47448149D01*
X209466231Y-47448149D02*
X209466231Y-47305292D01*
X209466231Y-47305292D02*
X209513850Y-47210054D01*
X209513850Y-47210054D02*
X209561469Y-47162435D01*
X209561469Y-47162435D02*
X209656707Y-47114816D01*
X209656707Y-47114816D02*
X209894802Y-47114816D01*
X209894802Y-47114816D02*
X209990040Y-47162435D01*
X209990040Y-47162435D02*
X210037660Y-47210054D01*
X210037660Y-47210054D02*
X210085279Y-47305292D01*
X210085279Y-47305292D02*
X210085279Y-47591006D01*
X210085279Y-47591006D02*
X210037660Y-47686244D01*
X210037660Y-47686244D02*
X209990040Y-47733863D01*
X151338279Y-42607634D02*
X152147802Y-42607634D01*
X152147802Y-42607634D02*
X152243040Y-42560015D01*
X152243040Y-42560015D02*
X152290660Y-42512396D01*
X152290660Y-42512396D02*
X152338279Y-42417158D01*
X152338279Y-42417158D02*
X152338279Y-42226682D01*
X152338279Y-42226682D02*
X152290660Y-42131444D01*
X152290660Y-42131444D02*
X152243040Y-42083825D01*
X152243040Y-42083825D02*
X152147802Y-42036206D01*
X152147802Y-42036206D02*
X151338279Y-42036206D01*
X152338279Y-41036206D02*
X152338279Y-41607634D01*
X152338279Y-41321920D02*
X151338279Y-41321920D01*
X151338279Y-41321920D02*
X151481136Y-41417158D01*
X151481136Y-41417158D02*
X151576374Y-41512396D01*
X151576374Y-41512396D02*
X151623993Y-41607634D01*
X151433517Y-40655253D02*
X151385898Y-40607634D01*
X151385898Y-40607634D02*
X151338279Y-40512396D01*
X151338279Y-40512396D02*
X151338279Y-40274301D01*
X151338279Y-40274301D02*
X151385898Y-40179063D01*
X151385898Y-40179063D02*
X151433517Y-40131444D01*
X151433517Y-40131444D02*
X151528755Y-40083825D01*
X151528755Y-40083825D02*
X151623993Y-40083825D01*
X151623993Y-40083825D02*
X151766850Y-40131444D01*
X151766850Y-40131444D02*
X152338279Y-40702872D01*
X152338279Y-40702872D02*
X152338279Y-40083825D01*
X170755279Y-47881006D02*
X170755279Y-48357196D01*
X170755279Y-48357196D02*
X169755279Y-48357196D01*
X170755279Y-47023863D02*
X170755279Y-47595291D01*
X170755279Y-47309577D02*
X169755279Y-47309577D01*
X169755279Y-47309577D02*
X169898136Y-47404815D01*
X169898136Y-47404815D02*
X169993374Y-47500053D01*
X169993374Y-47500053D02*
X170040993Y-47595291D01*
X169662365Y-47512159D02*
X169662365Y-48321682D01*
X169662365Y-48321682D02*
X169709984Y-48416920D01*
X169709984Y-48416920D02*
X169757603Y-48464540D01*
X169757603Y-48464540D02*
X169852841Y-48512159D01*
X169852841Y-48512159D02*
X170043317Y-48512159D01*
X170043317Y-48512159D02*
X170138555Y-48464540D01*
X170138555Y-48464540D02*
X170186174Y-48416920D01*
X170186174Y-48416920D02*
X170233793Y-48321682D01*
X170233793Y-48321682D02*
X170233793Y-47512159D01*
X170662365Y-48464540D02*
X170805222Y-48512159D01*
X170805222Y-48512159D02*
X171043317Y-48512159D01*
X171043317Y-48512159D02*
X171138555Y-48464540D01*
X171138555Y-48464540D02*
X171186174Y-48416920D01*
X171186174Y-48416920D02*
X171233793Y-48321682D01*
X171233793Y-48321682D02*
X171233793Y-48226444D01*
X171233793Y-48226444D02*
X171186174Y-48131206D01*
X171186174Y-48131206D02*
X171138555Y-48083587D01*
X171138555Y-48083587D02*
X171043317Y-48035968D01*
X171043317Y-48035968D02*
X170852841Y-47988349D01*
X170852841Y-47988349D02*
X170757603Y-47940730D01*
X170757603Y-47940730D02*
X170709984Y-47893111D01*
X170709984Y-47893111D02*
X170662365Y-47797873D01*
X170662365Y-47797873D02*
X170662365Y-47702635D01*
X170662365Y-47702635D02*
X170709984Y-47607397D01*
X170709984Y-47607397D02*
X170757603Y-47559778D01*
X170757603Y-47559778D02*
X170852841Y-47512159D01*
X170852841Y-47512159D02*
X171090936Y-47512159D01*
X171090936Y-47512159D02*
X171233793Y-47559778D01*
X171995698Y-47988349D02*
X172138555Y-48035968D01*
X172138555Y-48035968D02*
X172186174Y-48083587D01*
X172186174Y-48083587D02*
X172233793Y-48178825D01*
X172233793Y-48178825D02*
X172233793Y-48321682D01*
X172233793Y-48321682D02*
X172186174Y-48416920D01*
X172186174Y-48416920D02*
X172138555Y-48464540D01*
X172138555Y-48464540D02*
X172043317Y-48512159D01*
X172043317Y-48512159D02*
X171662365Y-48512159D01*
X171662365Y-48512159D02*
X171662365Y-47512159D01*
X171662365Y-47512159D02*
X171995698Y-47512159D01*
X171995698Y-47512159D02*
X172090936Y-47559778D01*
X172090936Y-47559778D02*
X172138555Y-47607397D01*
X172138555Y-47607397D02*
X172186174Y-47702635D01*
X172186174Y-47702635D02*
X172186174Y-47797873D01*
X172186174Y-47797873D02*
X172138555Y-47893111D01*
X172138555Y-47893111D02*
X172090936Y-47940730D01*
X172090936Y-47940730D02*
X171995698Y-47988349D01*
X171995698Y-47988349D02*
X171662365Y-47988349D01*
X173186174Y-48512159D02*
X172614746Y-48512159D01*
X172900460Y-48512159D02*
X172900460Y-47512159D01*
X172900460Y-47512159D02*
X172805222Y-47655016D01*
X172805222Y-47655016D02*
X172709984Y-47750254D01*
X172709984Y-47750254D02*
X172614746Y-47797873D01*
X139743793Y-37374359D02*
X139267603Y-37374359D01*
X139267603Y-37374359D02*
X139267603Y-36374359D01*
X140029508Y-36469597D02*
X140077127Y-36421978D01*
X140077127Y-36421978D02*
X140172365Y-36374359D01*
X140172365Y-36374359D02*
X140410460Y-36374359D01*
X140410460Y-36374359D02*
X140505698Y-36421978D01*
X140505698Y-36421978D02*
X140553317Y-36469597D01*
X140553317Y-36469597D02*
X140600936Y-36564835D01*
X140600936Y-36564835D02*
X140600936Y-36660073D01*
X140600936Y-36660073D02*
X140553317Y-36802930D01*
X140553317Y-36802930D02*
X139981889Y-37374359D01*
X139981889Y-37374359D02*
X140600936Y-37374359D01*
X223738793Y-48219359D02*
X223262603Y-48219359D01*
X223262603Y-48219359D02*
X223262603Y-47219359D01*
X223976889Y-47219359D02*
X224595936Y-47219359D01*
X224595936Y-47219359D02*
X224262603Y-47600311D01*
X224262603Y-47600311D02*
X224405460Y-47600311D01*
X224405460Y-47600311D02*
X224500698Y-47647930D01*
X224500698Y-47647930D02*
X224548317Y-47695549D01*
X224548317Y-47695549D02*
X224595936Y-47790787D01*
X224595936Y-47790787D02*
X224595936Y-48028882D01*
X224595936Y-48028882D02*
X224548317Y-48124120D01*
X224548317Y-48124120D02*
X224500698Y-48171740D01*
X224500698Y-48171740D02*
X224405460Y-48219359D01*
X224405460Y-48219359D02*
X224119746Y-48219359D01*
X224119746Y-48219359D02*
X224024508Y-48171740D01*
X224024508Y-48171740D02*
X223976889Y-48124120D01*
X219715279Y-79959523D02*
X218715279Y-79959523D01*
X218715279Y-79959523D02*
X219429564Y-79626190D01*
X219429564Y-79626190D02*
X218715279Y-79292857D01*
X218715279Y-79292857D02*
X219715279Y-79292857D01*
X219715279Y-78292857D02*
X219715279Y-78864285D01*
X219715279Y-78578571D02*
X218715279Y-78578571D01*
X218715279Y-78578571D02*
X218858136Y-78673809D01*
X218858136Y-78673809D02*
X218953374Y-78769047D01*
X218953374Y-78769047D02*
X219000993Y-78864285D01*
D11*
X217589176Y-77638244D02*
X216622510Y-78314911D01*
X217589176Y-78798244D02*
X215559176Y-78798244D01*
X215559176Y-78798244D02*
X215559176Y-78024911D01*
X215559176Y-78024911D02*
X215655843Y-77831578D01*
X215655843Y-77831578D02*
X215752510Y-77734911D01*
X215752510Y-77734911D02*
X215945843Y-77638244D01*
X215945843Y-77638244D02*
X216235843Y-77638244D01*
X216235843Y-77638244D02*
X216429176Y-77734911D01*
X216429176Y-77734911D02*
X216525843Y-77831578D01*
X216525843Y-77831578D02*
X216622510Y-78024911D01*
X216622510Y-78024911D02*
X216622510Y-78798244D01*
X216525843Y-80661578D02*
X216622510Y-80371578D01*
X216622510Y-80371578D02*
X216719176Y-80274911D01*
X216719176Y-80274911D02*
X216912510Y-80178244D01*
X216912510Y-80178244D02*
X217202510Y-80178244D01*
X217202510Y-80178244D02*
X217395843Y-80274911D01*
X217395843Y-80274911D02*
X217492510Y-80371578D01*
X217492510Y-80371578D02*
X217589176Y-80564911D01*
X217589176Y-80564911D02*
X217589176Y-81338244D01*
X217589176Y-81338244D02*
X215559176Y-81338244D01*
X215559176Y-81338244D02*
X215559176Y-80661578D01*
X215559176Y-80661578D02*
X215655843Y-80468244D01*
X215655843Y-80468244D02*
X215752510Y-80371578D01*
X215752510Y-80371578D02*
X215945843Y-80274911D01*
X215945843Y-80274911D02*
X216139176Y-80274911D01*
X216139176Y-80274911D02*
X216332510Y-80371578D01*
X216332510Y-80371578D02*
X216429176Y-80468244D01*
X216429176Y-80468244D02*
X216525843Y-80661578D01*
X216525843Y-80661578D02*
X216525843Y-81338244D01*
%TO.C,D6*%
D12*
X195080460Y-87899540D02*
X195080460Y-86899540D01*
%TO.C,C25*%
X151380460Y-48471704D02*
X151380460Y-48687376D01*
X152100460Y-48471704D02*
X152100460Y-48687376D01*
%TO.C,C31*%
X222097624Y-54054540D02*
X222313296Y-54054540D01*
X222097624Y-54774540D02*
X222313296Y-54774540D01*
%TO.C,CN1*%
D13*
X138449460Y-44794340D02*
X138449460Y-45054340D01*
X138449460Y-46254340D02*
X138449460Y-46324340D01*
X138449460Y-47524340D02*
X138449460Y-47594340D01*
X138449460Y-48794340D02*
X138449460Y-48864340D01*
X138449460Y-50064340D02*
X138449460Y-50134340D01*
X138449460Y-51334340D02*
X138449460Y-51594340D01*
X138449460Y-51594340D02*
X141349460Y-51594340D01*
X141349460Y-51594340D02*
X141449460Y-51494340D01*
X141449460Y-44794340D02*
X138449460Y-44794340D01*
X141449460Y-45054340D02*
X141449460Y-44794340D01*
X141449460Y-46324340D02*
X141449460Y-46254340D01*
X141449460Y-47594340D02*
X141449460Y-47524340D01*
X141449460Y-48864340D02*
X141449460Y-48794340D01*
X141449460Y-50134340D02*
X141449460Y-50064340D01*
X141449460Y-51494340D02*
X141449460Y-51334340D01*
D14*
X137579460Y-44824340D02*
G75*
G02*
X137519460Y-44824340I-30000J0D01*
G01*
X137519460Y-44824340D02*
G75*
G02*
X137579460Y-44824340I30000J0D01*
G01*
D13*
X137909460Y-44514340D02*
G75*
G02*
X137409460Y-44514340I-250000J0D01*
G01*
X137409460Y-44514340D02*
G75*
G02*
X137909460Y-44514340I250000J0D01*
G01*
%TO.C,R14*%
D12*
X180738202Y-82072040D02*
X181212718Y-82072040D01*
X180738202Y-83117040D02*
X181212718Y-83117040D01*
%TO.C,C10*%
X200572624Y-83669540D02*
X200788296Y-83669540D01*
X200572624Y-84389540D02*
X200788296Y-84389540D01*
%TO.C,R1*%
X164687718Y-42547040D02*
X164213202Y-42547040D01*
X164687718Y-43592040D02*
X164213202Y-43592040D01*
%TO.C,R16*%
X167437960Y-80957282D02*
X167437960Y-81431798D01*
X168482960Y-80957282D02*
X168482960Y-81431798D01*
%TO.C,R11*%
X199662718Y-82097040D02*
X199188202Y-82097040D01*
X199662718Y-83142040D02*
X199188202Y-83142040D01*
%TO.C,C34*%
X217124993Y-48959540D02*
X217340665Y-48959540D01*
X217124993Y-49679540D02*
X217340665Y-49679540D01*
%TO.C,U2*%
X169802960Y-47797040D02*
X169852960Y-47797040D01*
X169802960Y-49617040D02*
X169802960Y-47797040D01*
X169852960Y-49617040D02*
X169802960Y-49617040D01*
X172872960Y-47797040D02*
X172922960Y-47797040D01*
X172922960Y-47797040D02*
X172922960Y-49617040D01*
X172922960Y-49617040D02*
X172872960Y-49617040D01*
X172872960Y-47257040D02*
X173202960Y-47017040D01*
X173202960Y-47497040D01*
X172872960Y-47257040D01*
G36*
X173202960Y-47497040D02*
G01*
X172872960Y-47257040D01*
X173202960Y-47017040D01*
X173202960Y-47497040D01*
G37*
%TO.C,R32*%
X206076202Y-34270040D02*
X206550718Y-34270040D01*
X206076202Y-35315040D02*
X206550718Y-35315040D01*
%TO.C,C23*%
X212882624Y-38329540D02*
X213098296Y-38329540D01*
X212882624Y-39049540D02*
X213098296Y-39049540D01*
%TO.C,C20*%
X212882624Y-39472540D02*
X213098296Y-39472540D01*
X212882624Y-40192540D02*
X213098296Y-40192540D01*
%TO.C,C24*%
X150220460Y-48461704D02*
X150220460Y-48677376D01*
X150940460Y-48461704D02*
X150940460Y-48677376D01*
%TO.C,M3*%
D13*
X141600460Y-85954540D02*
X146680460Y-85954540D01*
X141600460Y-88494540D02*
X141600460Y-85954540D01*
X146680460Y-85954540D02*
X146680460Y-88494540D01*
X146680460Y-88494540D02*
X141600460Y-88494540D01*
D14*
X146710460Y-85954540D02*
G75*
G02*
X146650460Y-85954540I-30000J0D01*
G01*
X146650460Y-85954540D02*
G75*
G02*
X146710460Y-85954540I30000J0D01*
G01*
%TO.C,M2*%
D13*
X128392460Y-76302540D02*
X130932460Y-76302540D01*
X128392460Y-81382540D02*
X128392460Y-76302540D01*
X130932460Y-76302540D02*
X130932460Y-81382540D01*
X130932460Y-81382540D02*
X128392460Y-81382540D01*
D14*
X128422460Y-76302540D02*
G75*
G02*
X128362460Y-76302540I-30000J0D01*
G01*
X128362460Y-76302540D02*
G75*
G02*
X128422460Y-76302540I30000J0D01*
G01*
%TO.C,R17*%
D12*
X169187960Y-80967282D02*
X169187960Y-81441798D01*
X170232960Y-80967282D02*
X170232960Y-81441798D01*
%TO.C,C3*%
X167540460Y-49002176D02*
X167540460Y-48786504D01*
X168260460Y-49002176D02*
X168260460Y-48786504D01*
%TO.C,R19*%
X174913202Y-47447040D02*
X175387718Y-47447040D01*
X174913202Y-48492040D02*
X175387718Y-48492040D01*
%TO.C,R30*%
X130813202Y-63297040D02*
X131287718Y-63297040D01*
X130813202Y-64342040D02*
X131287718Y-64342040D01*
%TO.C,R18*%
X174913202Y-49047040D02*
X175387718Y-49047040D01*
X174913202Y-50092040D02*
X175387718Y-50092040D01*
%TO.C,R29*%
X213352202Y-40707040D02*
X213826718Y-40707040D01*
X213352202Y-41752040D02*
X213826718Y-41752040D01*
%TO.C,R9*%
X193897960Y-84632282D02*
X193897960Y-85106798D01*
X194942960Y-84632282D02*
X194942960Y-85106798D01*
%TO.C,U6*%
D15*
X203650460Y-83994540D02*
X203800460Y-83994540D01*
X203650460Y-85794540D02*
X203650460Y-83994540D01*
X203650460Y-85794540D02*
X203800460Y-85794540D01*
X204700460Y-83994540D02*
X204750460Y-83994540D01*
X204700460Y-85794540D02*
X205700460Y-85794540D01*
X205650460Y-83994540D02*
X205700460Y-83994540D01*
X206600460Y-83994540D02*
X206750460Y-83994540D01*
X206600460Y-85794540D02*
X206750460Y-85794540D01*
X206750460Y-85794540D02*
X206750460Y-83994540D01*
D14*
X206680460Y-83494540D02*
G75*
G02*
X206620460Y-83494540I-30000J0D01*
G01*
X206620460Y-83494540D02*
G75*
G02*
X206680460Y-83494540I30000J0D01*
G01*
D16*
%TO.C,BT2*%
D13*
X134060260Y-58561140D02*
X211140260Y-58561140D01*
X134060260Y-79261140D02*
X134060260Y-58561140D01*
X145930260Y-68911140D02*
X143640260Y-68911140D01*
X200410260Y-70051140D02*
X200410260Y-67771140D01*
X201560260Y-68911140D02*
X199270260Y-68911140D01*
X211140260Y-58561140D02*
X211140260Y-79261140D01*
X211140260Y-79261140D02*
X134060260Y-79261140D01*
D14*
X129610260Y-79261140D02*
G75*
G02*
X129550260Y-79261140I-30000J0D01*
G01*
X129550260Y-79261140D02*
G75*
G02*
X129610260Y-79261140I30000J0D01*
G01*
D13*
X146390260Y-68911140D02*
G75*
G02*
X143190260Y-68911140I-1600000J0D01*
G01*
X143190260Y-68911140D02*
G75*
G02*
X146390260Y-68911140I1600000J0D01*
G01*
X202010260Y-68911140D02*
G75*
G02*
X198810260Y-68911140I-1600000J0D01*
G01*
X198810260Y-68911140D02*
G75*
G02*
X202010260Y-68911140I1600000J0D01*
G01*
%TO.C,R43*%
D12*
X144030202Y-80098040D02*
X144504718Y-80098040D01*
X144030202Y-81143040D02*
X144504718Y-81143040D01*
%TO.C,C35*%
X148132624Y-52439540D02*
X148348296Y-52439540D01*
X148132624Y-53159540D02*
X148348296Y-53159540D01*
%TO.C,C8*%
X205090460Y-81116704D02*
X205090460Y-81332376D01*
X205810460Y-81116704D02*
X205810460Y-81332376D01*
%TO.C,R13*%
X199637718Y-80397040D02*
X199163202Y-80397040D01*
X199637718Y-81442040D02*
X199163202Y-81442040D01*
%TO.C,U3*%
D10*
X196490460Y-84179540D02*
X198650460Y-84179540D01*
X198650460Y-86339540D02*
X196490460Y-86339540D01*
D11*
X196190460Y-84459540D02*
G75*
G02*
X195990460Y-84459540I-100000J0D01*
G01*
X195990460Y-84459540D02*
G75*
G02*
X196190460Y-84459540I100000J0D01*
G01*
D14*
X196600460Y-84259540D02*
G75*
G02*
X196540460Y-84259540I-30000J0D01*
G01*
X196540460Y-84259540D02*
G75*
G02*
X196600460Y-84259540I30000J0D01*
G01*
%TO.C,R35*%
D12*
X151328202Y-49937040D02*
X151802718Y-49937040D01*
X151328202Y-50982040D02*
X151802718Y-50982040D01*
%TO.C,D1*%
X161570460Y-52374340D02*
X161570460Y-46864340D01*
X161570460Y-52374340D02*
X164870460Y-52374340D01*
X164870460Y-52374340D02*
X164870460Y-46864340D01*
%TO.C,U16*%
D13*
X164734860Y-83968540D02*
X164734860Y-85158540D01*
X164734860Y-87418540D02*
X164734860Y-88668540D01*
X164734860Y-88668540D02*
X181374860Y-88668540D01*
X166894860Y-83968540D02*
X164734860Y-83968540D01*
X181374860Y-83968540D02*
X179184860Y-83968540D01*
X181374860Y-85158540D02*
X181374860Y-83968540D01*
X181374860Y-87418540D02*
X181374860Y-88668540D01*
D14*
X165034860Y-83438540D02*
G75*
G02*
X164974860Y-83438540I-30000J0D01*
G01*
X164974860Y-83438540D02*
G75*
G02*
X165034860Y-83438540I30000J0D01*
G01*
D16*
G36*
X166894827Y-83461505D02*
G01*
X166513827Y-83715505D01*
X166513827Y-83207505D01*
X166894827Y-83461505D01*
G37*
%TO.C,C21*%
D12*
X138732624Y-42539540D02*
X138948296Y-42539540D01*
X138732624Y-43259540D02*
X138948296Y-43259540D01*
%TO.C,C17*%
X148606460Y-83334704D02*
X148606460Y-83550376D01*
X149326460Y-83334704D02*
X149326460Y-83550376D01*
%TO.C,R28*%
X213289202Y-36770040D02*
X213763718Y-36770040D01*
X213289202Y-37815040D02*
X213763718Y-37815040D01*
%TO.C,C18*%
X154588296Y-40209540D02*
X154372624Y-40209540D01*
X154588296Y-40929540D02*
X154372624Y-40929540D01*
%TO.C,U11*%
X142530460Y-81931540D02*
X145750460Y-81931540D01*
X142530460Y-82131540D02*
X142530460Y-81931540D01*
X142530460Y-85151540D02*
X142530460Y-84951540D01*
X145750460Y-81931540D02*
X145750460Y-82131540D01*
X145750460Y-84951540D02*
X145750460Y-85151540D01*
X145750460Y-85151540D02*
X142530460Y-85151540D01*
X141980460Y-82131540D02*
X141740460Y-81801540D01*
X142220460Y-81801540D01*
X141980460Y-82131540D01*
G36*
X141980460Y-82131540D02*
G01*
X141740460Y-81801540D01*
X142220460Y-81801540D01*
X141980460Y-82131540D01*
G37*
%TO.C,CN3*%
D13*
X202330460Y-45024340D02*
X202330460Y-45284340D01*
X202330460Y-46484340D02*
X202330460Y-46554340D01*
X202330460Y-47754340D02*
X202330460Y-47824340D01*
X202330460Y-49024340D02*
X202330460Y-49094340D01*
X202330460Y-50294340D02*
X202330460Y-50364340D01*
X202330460Y-51564340D02*
X202330460Y-51824340D01*
X202330460Y-51824340D02*
X205230460Y-51824340D01*
X205230460Y-51824340D02*
X205330460Y-51724340D01*
X205330460Y-45024340D02*
X202330460Y-45024340D01*
X205330460Y-45284340D02*
X205330460Y-45024340D01*
X205330460Y-46554340D02*
X205330460Y-46484340D01*
X205330460Y-47824340D02*
X205330460Y-47754340D01*
X205330460Y-49094340D02*
X205330460Y-49024340D01*
X205330460Y-50364340D02*
X205330460Y-50294340D01*
X205330460Y-51724340D02*
X205330460Y-51564340D01*
D14*
X201460460Y-45054340D02*
G75*
G02*
X201400460Y-45054340I-30000J0D01*
G01*
X201400460Y-45054340D02*
G75*
G02*
X201460460Y-45054340I30000J0D01*
G01*
D13*
X201790460Y-44744340D02*
G75*
G02*
X201290460Y-44744340I-250000J0D01*
G01*
X201290460Y-44744340D02*
G75*
G02*
X201790460Y-44744340I250000J0D01*
G01*
%TO.C,U12*%
D10*
X155478460Y-39789540D02*
X155728460Y-39789540D01*
X155478460Y-40539540D02*
X155478460Y-39789540D01*
X155478460Y-42199540D02*
X155478460Y-42949540D01*
X155478460Y-42949540D02*
X155728460Y-42949540D01*
X158138460Y-39789540D02*
X157888460Y-39789540D01*
X158138460Y-40539540D02*
X158138460Y-39789540D01*
X158138460Y-42199540D02*
X158138460Y-42949540D01*
X158138460Y-42949540D02*
X157888460Y-42949540D01*
D14*
X155588460Y-42869540D02*
G75*
G02*
X155528460Y-42869540I-30000J0D01*
G01*
X155528460Y-42869540D02*
G75*
G02*
X155588460Y-42869540I30000J0D01*
G01*
D10*
X156128460Y-43149540D02*
G75*
G02*
X155968460Y-43149540I-80000J0D01*
G01*
X155968460Y-43149540D02*
G75*
G02*
X156128460Y-43149540I80000J0D01*
G01*
%TO.C,L1*%
X165210460Y-45304340D02*
X165360460Y-45154340D01*
X165210460Y-46784340D02*
X165210460Y-45304340D01*
X165210460Y-48644340D02*
X165210460Y-50124340D01*
X165210460Y-50124340D02*
X165360460Y-50274340D01*
X165360460Y-45154340D02*
X167240460Y-45154340D01*
X165360460Y-50274340D02*
X167240460Y-50274340D01*
X167240460Y-45154340D02*
X167390460Y-45304340D01*
X167240460Y-50274340D02*
X167390460Y-50124340D01*
X167390460Y-45304340D02*
X167390460Y-46784340D01*
X167390460Y-50124340D02*
X167390460Y-48644340D01*
D14*
X165530460Y-46114340D02*
G75*
G02*
X165470460Y-46114340I-30000J0D01*
G01*
X165470460Y-46114340D02*
G75*
G02*
X165530460Y-46114340I30000J0D01*
G01*
%TO.C,R10*%
D12*
X200918202Y-85137040D02*
X201392718Y-85137040D01*
X200918202Y-86182040D02*
X201392718Y-86182040D01*
%TO.C,USB1*%
D13*
X166830460Y-36852340D02*
X166830460Y-38332340D01*
X166830460Y-40282340D02*
X166830460Y-42282340D01*
X166900460Y-36712340D02*
X175900460Y-36712340D01*
X175900460Y-36712340D02*
X175900460Y-38322340D01*
X175900460Y-40292340D02*
X175900460Y-42272340D01*
D14*
X175880460Y-44332340D02*
G75*
G02*
X175820460Y-44332340I-30000J0D01*
G01*
X175820460Y-44332340D02*
G75*
G02*
X175880460Y-44332340I30000J0D01*
G01*
%TO.C,R31*%
D12*
X208457960Y-35317282D02*
X208457960Y-35791798D01*
X209502960Y-35317282D02*
X209502960Y-35791798D01*
%TO.C,R8*%
X202663202Y-80422040D02*
X203137718Y-80422040D01*
X202663202Y-81467040D02*
X203137718Y-81467040D01*
%TO.C,C9*%
X194848296Y-81809540D02*
X194632624Y-81809540D01*
X194848296Y-82529540D02*
X194632624Y-82529540D01*
%TO.C,R36*%
X143637960Y-51016798D02*
X143637960Y-50542282D01*
X144682960Y-51016798D02*
X144682960Y-50542282D01*
%TO.C,R15*%
X181237718Y-80422040D02*
X180763202Y-80422040D01*
X181237718Y-81467040D02*
X180763202Y-81467040D01*
%TO.C,C32*%
X217184993Y-47379540D02*
X217400665Y-47379540D01*
X217184993Y-48099540D02*
X217400665Y-48099540D01*
%TO.C,R2*%
X178063202Y-42597040D02*
X178537718Y-42597040D01*
X178063202Y-43642040D02*
X178537718Y-43642040D01*
%TO.C,R12*%
X192197960Y-84632282D02*
X192197960Y-85106798D01*
X193242960Y-84632282D02*
X193242960Y-85106798D01*
%TO.C,C1*%
X167540460Y-46556504D02*
X167540460Y-46772176D01*
X168260460Y-46556504D02*
X168260460Y-46772176D01*
%TO.C,C30*%
X139208460Y-83550376D02*
X139208460Y-83334704D01*
X139928460Y-83550376D02*
X139928460Y-83334704D01*
%TO.C,C22*%
X146978296Y-42609540D02*
X146762624Y-42609540D01*
X146978296Y-43329540D02*
X146762624Y-43329540D01*
%TO.C,C15*%
X165953296Y-81884540D02*
X165737624Y-81884540D01*
X165953296Y-82604540D02*
X165737624Y-82604540D01*
%TO.C,D5*%
X199800460Y-87229540D02*
X199800460Y-88229540D01*
%TO.C,L2*%
D10*
X137350460Y-39979540D02*
X137500460Y-39829540D01*
X137350460Y-41859540D02*
X137350460Y-39979540D01*
X137500460Y-39829540D02*
X138980460Y-39829540D01*
X137500460Y-42009540D02*
X137350460Y-41859540D01*
X138980460Y-42009540D02*
X137500460Y-42009540D01*
X140840460Y-42009540D02*
X142320460Y-42009540D01*
X142320460Y-39829540D02*
X140840460Y-39829540D01*
X142320460Y-42009540D02*
X142470460Y-41859540D01*
X142470460Y-39979540D02*
X142320460Y-39829540D01*
X142470460Y-41859540D02*
X142470460Y-39979540D01*
D14*
X138340460Y-41719540D02*
G75*
G02*
X138280460Y-41719540I-30000J0D01*
G01*
X138280460Y-41719540D02*
G75*
G02*
X138340460Y-41719540I30000J0D01*
G01*
%TO.C,C14*%
D12*
X165903296Y-83059540D02*
X165687624Y-83059540D01*
X165903296Y-83779540D02*
X165687624Y-83779540D01*
%TO.C,L3*%
D10*
X221345460Y-50824540D02*
X221495460Y-50674540D01*
X221345460Y-52704540D02*
X221345460Y-50824540D01*
X221495460Y-50674540D02*
X222975460Y-50674540D01*
X221495460Y-52854540D02*
X221345460Y-52704540D01*
X222975460Y-52854540D02*
X221495460Y-52854540D01*
X224835460Y-52854540D02*
X226315460Y-52854540D01*
X226315460Y-50674540D02*
X224835460Y-50674540D01*
X226315460Y-52854540D02*
X226465460Y-52704540D01*
X226465460Y-50824540D02*
X226315460Y-50674540D01*
X226465460Y-52704540D02*
X226465460Y-50824540D01*
D14*
X222335460Y-52564540D02*
G75*
G02*
X222275460Y-52564540I-30000J0D01*
G01*
X222275460Y-52564540D02*
G75*
G02*
X222335460Y-52564540I30000J0D01*
G01*
%TO.C,C19*%
D12*
X159962624Y-40975540D02*
X160178296Y-40975540D01*
X159962624Y-41695540D02*
X160178296Y-41695540D01*
%TO.C,R33*%
X151348202Y-44527040D02*
X151822718Y-44527040D01*
X151348202Y-45572040D02*
X151822718Y-45572040D01*
%TO.C,C33*%
X141068296Y-42539540D02*
X140852624Y-42539540D01*
X141068296Y-43259540D02*
X140852624Y-43259540D01*
%TO.C,M1*%
D13*
X213990460Y-76610000D02*
X216530460Y-76610000D01*
X213990460Y-81690000D02*
X213990460Y-76610000D01*
X216530460Y-76610000D02*
X216530460Y-81690000D01*
X216530460Y-81690000D02*
X213990460Y-81690000D01*
D14*
X214020460Y-76610000D02*
G75*
G02*
X213960460Y-76610000I-30000J0D01*
G01*
X213960460Y-76610000D02*
G75*
G02*
X214020460Y-76610000I30000J0D01*
G01*
%TO.C,C36*%
D12*
X217312624Y-44889540D02*
X217528296Y-44889540D01*
X217312624Y-45609540D02*
X217528296Y-45609540D01*
%TO.C,C2*%
X174542624Y-46084540D02*
X174758296Y-46084540D01*
X174542624Y-46804540D02*
X174758296Y-46804540D01*
%TO.C,R34*%
X151333202Y-46207040D02*
X151807718Y-46207040D01*
X151333202Y-47252040D02*
X151807718Y-47252040D01*
%TD*%
M02*
